<?xml version="1.0" encoding="UTF-8" standalone="no"?>
<!-- Created with Inkscape (http://www.inkscape.org/) -->

<svg
   xmlns:dc="http://purl.org/dc/elements/1.1/"
   xmlns:cc="http://creativecommons.org/ns#"
   xmlns:rdf="http://www.w3.org/1999/02/22-rdf-syntax-ns#"
   xmlns:svg="http://www.w3.org/2000/svg"
   xmlns="http://www.w3.org/2000/svg"
   xmlns:sodipodi="http://sodipodi.sourceforge.net/DTD/sodipodi-0.dtd"
   xmlns:inkscape="http://www.inkscape.org/namespaces/inkscape"
   width="42.294998pt"
   height="32.691998pt"
   viewBox="0 0 14.920736 11.533009"
   version="1.1"
   id="svg8731"
   inkscape:version="0.92.3 (2405546, 2018-03-11)"
   sodipodi:docname="black.svg">
  <defs
     id="defs8725">
    <clipPath
       clipPathUnits="userSpaceOnUse"
       id="clipPath3867">
      <path
         d="M 0,0 H 612 V 792 H 0 Z"
         id="path3865"
         inkscape:connector-curvature="0" />
    </clipPath>
    <clipPath
       clipPathUnits="userSpaceOnUse"
       id="clipPath3985">
      <path
         d="M 0,0 H 612 V 792 H 0 Z"
         id="path3983"
         inkscape:connector-curvature="0" />
    </clipPath>
    <clipPath
       clipPathUnits="userSpaceOnUse"
       id="clipPath4097">
      <path
         d="M 0,0 H 612 V 792 H 0 Z"
         id="path4095"
         inkscape:connector-curvature="0" />
    </clipPath>
    <clipPath
       clipPathUnits="userSpaceOnUse"
       id="clipPath4215">
      <path
         d="M 0,0 H 612 V 792 H 0 Z"
         id="path4213"
         inkscape:connector-curvature="0" />
    </clipPath>
    <clipPath
       clipPathUnits="userSpaceOnUse"
       id="clipPath4285">
      <path
         d="M 0,0 H 612 V 792 H 0 Z"
         id="path4283"
         inkscape:connector-curvature="0" />
    </clipPath>
    <clipPath
       clipPathUnits="userSpaceOnUse"
       id="clipPath4405">
      <path
         d="M 0,0 H 612 V 792 H 0 Z"
         id="path4403"
         inkscape:connector-curvature="0" />
    </clipPath>
    <clipPath
       clipPathUnits="userSpaceOnUse"
       id="clipPath4509">
      <path
         d="M 0,0 H 612 V 792 H 0 Z"
         id="path4507"
         inkscape:connector-curvature="0" />
    </clipPath>
    <clipPath
       clipPathUnits="userSpaceOnUse"
       id="clipPath4739">
      <path
         d="M 0,0 H 612 V 792 H 0 Z"
         id="path4737"
         inkscape:connector-curvature="0" />
    </clipPath>
    <clipPath
       clipPathUnits="userSpaceOnUse"
       id="clipPath4641">
      <path
         d="M 0,0 H 612 V 792 H 0 Z"
         id="path4639"
         inkscape:connector-curvature="0" />
    </clipPath>
  </defs>
  <sodipodi:namedview
     id="base"
     pagecolor="#ffffff"
     bordercolor="#666666"
     borderopacity="1.0"
     inkscape:pageopacity="0.0"
     inkscape:pageshadow="2"
     inkscape:zoom="1"
     inkscape:cx="33.518112"
     inkscape:cy="-89.173233"
     inkscape:document-units="mm"
     inkscape:current-layer="layer1"
     showgrid="false"
     units="pt"
     inkscape:window-width="1440"
     inkscape:window-height="836"
     inkscape:window-x="0"
     inkscape:window-y="27"
     inkscape:window-maximized="1" />
  <metadata
     id="metadata8728">
    <rdf:RDF>
      <cc:Work
         rdf:about="">
        <dc:format>image/svg+xml</dc:format>
        <dc:type
           rdf:resource="http://purl.org/dc/dcmitype/StillImage" />
        <dc:title></dc:title>
      </cc:Work>
    </rdf:RDF>
  </metadata>
  <g
     inkscape:label="Layer 1"
     inkscape:groupmode="layer"
     id="layer1"
     transform="translate(-63.136751,-73.777303)">
    <g
       transform="matrix(0.35277777,0,0,-0.35277777,22.136919,174.15034)"
       id="g4635">
      <g
         id="g4637"
         clip-path="url(#clipPath4641)">
        <g
           id="g4643"
           transform="translate(158.515,268.176)">
          <path
             d="m 0,0 c 0,-9.026 -9.47,-16.346 -21.147,-16.346 -11.678,0 -21.148,7.32 -21.148,16.346 0,9.026 9.47,16.346 21.148,16.346 C -9.47,16.346 0,9.026 0,0"
             style="fill:#002b3d;fill-opacity:1;fill-rule:nonzero;stroke:none"
             id="path4645"
             inkscape:connector-curvature="0" />
        </g>
        <g
           id="g4647"
           transform="translate(134.84,252.513)">
          <path
             d="M 0,0 C 0.317,0 0.574,0.251 0.574,0.56 0.574,0.869 0.317,1.119 0,1.119 -0.317,1.119 -0.574,0.869 -0.574,0.56 -0.574,0.251 -0.317,0 0,0 m 0,31.326 c 0.317,0 0.574,-0.25 0.574,-0.559 0,-0.309 -0.257,-0.56 -0.574,-0.56 -0.317,0 -0.574,0.251 -0.574,0.56 0,0.309 0.257,0.559 0.574,0.559 m 2.528,0.134 c 0.317,0 0.574,-0.25 0.574,-0.559 0,-0.309 -0.257,-0.56 -0.574,-0.56 -0.317,0 -0.574,0.251 -0.574,0.56 0,0.309 0.257,0.559 0.574,0.559 m 2.528,-0.134 c -0.317,0 -0.575,-0.25 -0.575,-0.559 0,-0.309 0.258,-0.56 0.575,-0.56 0.317,0 0.574,0.251 0.574,0.56 0,0.309 -0.257,0.559 -0.574,0.559 m 2.623,-0.411 c -0.317,0 -0.575,-0.25 -0.575,-0.559 0,-0.309 0.258,-0.56 0.575,-0.56 0.317,0 0.574,0.251 0.574,0.56 0,0.309 -0.257,0.559 -0.574,0.559 m 2.559,-0.696 c -0.317,0 -0.575,-0.251 -0.575,-0.56 0,-0.309 0.258,-0.559 0.575,-0.559 0.317,0 0.574,0.25 0.574,0.559 0,0.309 -0.257,0.56 -0.574,0.56 m 2.455,-0.989 c -0.317,0 -0.575,-0.251 -0.575,-0.559 0,-0.31 0.258,-0.56 0.575,-0.56 0.317,0 0.574,0.25 0.574,0.56 0,0.308 -0.257,0.559 -0.574,0.559 m 2.306,-1.285 c -0.317,0 -0.575,-0.25 -0.575,-0.559 0,-0.309 0.258,-0.56 0.575,-0.56 0.317,0 0.574,0.251 0.574,0.56 0,0.309 -0.257,0.559 -0.574,0.559 M 17.1,26.363 c -0.317,0 -0.575,-0.251 -0.575,-0.56 0,-0.309 0.258,-0.559 0.575,-0.559 0.317,0 0.574,0.25 0.574,0.559 0,0.309 -0.257,0.56 -0.574,0.56 m 1.83,-1.875 c -0.318,0 -0.575,-0.25 -0.575,-0.559 0,-0.309 0.257,-0.56 0.575,-0.56 0.317,0 0.574,0.251 0.574,0.56 0,0.309 -0.257,0.559 -0.574,0.559 m 1.478,-2.147 c -0.317,0 -0.574,-0.251 -0.574,-0.56 0,-0.309 0.257,-0.559 0.574,-0.559 0.317,0 0.575,0.25 0.575,0.559 0,0.309 -0.258,0.56 -0.575,0.56 m 1.031,-2.382 c -0.317,0 -0.575,-0.251 -0.575,-0.56 0,-0.309 0.258,-0.559 0.575,-0.559 0.317,0 0.574,0.25 0.574,0.559 0,0.309 -0.257,0.56 -0.574,0.56 m 0.507,-2.537 c -0.317,0 -0.574,-0.25 -0.574,-0.559 0,-0.309 0.257,-0.559 0.574,-0.559 0.317,0 0.574,0.25 0.574,0.559 0,0.309 -0.257,0.559 -0.574,0.559 M -2.623,30.915 c 0.317,0 0.574,-0.25 0.574,-0.559 0,-0.309 -0.257,-0.56 -0.574,-0.56 -0.317,0 -0.574,0.251 -0.574,0.56 0,0.309 0.257,0.559 0.574,0.559 m -2.559,-0.696 c 0.317,0 0.575,-0.251 0.575,-0.56 0,-0.309 -0.258,-0.559 -0.575,-0.559 -0.317,0 -0.574,0.25 -0.574,0.559 0,0.309 0.257,0.56 0.574,0.56 M -7.637,29.23 c 0.317,0 0.574,-0.251 0.574,-0.559 0,-0.31 -0.257,-0.56 -0.574,-0.56 -0.317,0 -0.574,0.25 -0.574,0.56 0,0.308 0.257,0.559 0.574,0.559 m -2.306,-1.285 c 0.317,0 0.575,-0.25 0.575,-0.559 0,-0.309 -0.258,-0.56 -0.575,-0.56 -0.317,0 -0.574,0.251 -0.574,0.56 0,0.309 0.257,0.559 0.574,0.559 m -2.101,-1.582 c 0.317,0 0.574,-0.251 0.574,-0.56 0,-0.309 -0.257,-0.559 -0.574,-0.559 -0.317,0 -0.574,0.25 -0.574,0.559 0,0.309 0.257,0.56 0.574,0.56 m -1.829,-1.875 c 0.317,0 0.574,-0.25 0.574,-0.559 0,-0.309 -0.257,-0.56 -0.574,-0.56 -0.318,0 -0.575,0.251 -0.575,0.56 0,0.309 0.257,0.559 0.575,0.559 m -1.479,-2.147 c 0.317,0 0.574,-0.251 0.574,-0.56 0,-0.309 -0.257,-0.559 -0.574,-0.559 -0.317,0 -0.575,0.25 -0.575,0.559 0,0.309 0.258,0.56 0.575,0.56 m -1.031,-2.382 c 0.317,0 0.575,-0.251 0.575,-0.56 0,-0.309 -0.258,-0.559 -0.575,-0.559 -0.317,0 -0.574,0.25 -0.574,0.559 0,0.309 0.257,0.56 0.574,0.56 m -0.507,-2.537 c 0.317,0 0.574,-0.25 0.574,-0.559 0,-0.309 -0.257,-0.559 -0.574,-0.559 -0.317,0 -0.575,0.25 -0.575,0.559 0,0.309 0.258,0.559 0.575,0.559 M 2.528,-0.134 c 0.317,0 0.574,0.251 0.574,0.56 0,0.309 -0.257,0.559 -0.574,0.559 -0.317,0 -0.574,-0.25 -0.574,-0.559 0,-0.309 0.257,-0.56 0.574,-0.56 M 5.056,0 C 4.739,0 4.481,0.251 4.481,0.56 4.481,0.869 4.739,1.119 5.056,1.119 5.373,1.119 5.63,0.869 5.63,0.56 5.63,0.251 5.373,0 5.056,0 m 2.623,0.411 c -0.317,0 -0.575,0.251 -0.575,0.56 0,0.309 0.258,0.559 0.575,0.559 0.317,0 0.574,-0.25 0.574,-0.559 0,-0.309 -0.257,-0.56 -0.574,-0.56 m 2.559,0.697 c -0.317,0 -0.575,0.25 -0.575,0.559 0,0.309 0.258,0.56 0.575,0.56 0.317,0 0.574,-0.251 0.574,-0.56 0,-0.309 -0.257,-0.559 -0.574,-0.559 m 2.455,0.988 c -0.317,0 -0.575,0.251 -0.575,0.56 0,0.309 0.258,0.559 0.575,0.559 0.317,0 0.574,-0.25 0.574,-0.559 0,-0.309 -0.257,-0.56 -0.574,-0.56 m 2.306,1.285 c -0.317,0 -0.575,0.251 -0.575,0.56 0,0.309 0.258,0.559 0.575,0.559 0.317,0 0.574,-0.25 0.574,-0.559 0,-0.309 -0.257,-0.56 -0.574,-0.56 M 17.1,4.964 c -0.317,0 -0.575,0.25 -0.575,0.559 0,0.309 0.258,0.56 0.575,0.56 0.317,0 0.574,-0.251 0.574,-0.56 0,-0.309 -0.257,-0.559 -0.574,-0.559 m 1.83,1.874 c -0.318,0 -0.575,0.251 -0.575,0.56 0,0.309 0.257,0.559 0.575,0.559 0.317,0 0.574,-0.25 0.574,-0.559 0,-0.309 -0.257,-0.56 -0.574,-0.56 m 1.478,2.148 c -0.317,0 -0.574,0.25 -0.574,0.559 0,0.309 0.257,0.56 0.574,0.56 0.317,0 0.575,-0.251 0.575,-0.56 0,-0.309 -0.258,-0.559 -0.575,-0.559 m 1.031,2.382 c -0.317,0 -0.575,0.25 -0.575,0.559 0,0.309 0.258,0.56 0.575,0.56 0.317,0 0.574,-0.251 0.574,-0.56 0,-0.309 -0.257,-0.559 -0.574,-0.559 m 0.507,2.536 c -0.317,0 -0.574,0.25 -0.574,0.56 0,0.308 0.257,0.559 0.574,0.559 0.317,0 0.574,-0.251 0.574,-0.559 0,-0.31 -0.257,-0.56 -0.574,-0.56 M -2.623,0.411 c 0.317,0 0.574,0.251 0.574,0.56 0,0.309 -0.257,0.559 -0.574,0.559 -0.317,0 -0.574,-0.25 -0.574,-0.559 0,-0.309 0.257,-0.56 0.574,-0.56 m -2.559,0.697 c 0.317,0 0.575,0.25 0.575,0.559 0,0.309 -0.258,0.56 -0.575,0.56 -0.317,0 -0.574,-0.251 -0.574,-0.56 0,-0.309 0.257,-0.559 0.574,-0.559 m -2.455,0.988 c 0.317,0 0.574,0.251 0.574,0.56 0,0.309 -0.257,0.559 -0.574,0.559 -0.317,0 -0.574,-0.25 -0.574,-0.559 0,-0.309 0.257,-0.56 0.574,-0.56 m -2.306,1.285 c 0.317,0 0.575,0.251 0.575,0.56 0,0.309 -0.258,0.559 -0.575,0.559 -0.317,0 -0.574,-0.25 -0.574,-0.559 0,-0.309 0.257,-0.56 0.574,-0.56 m -2.101,1.583 c 0.317,0 0.574,0.25 0.574,0.559 0,0.309 -0.257,0.56 -0.574,0.56 -0.317,0 -0.574,-0.251 -0.574,-0.56 0,-0.309 0.257,-0.559 0.574,-0.559 m -1.829,1.874 c 0.317,0 0.574,0.251 0.574,0.56 0,0.309 -0.257,0.559 -0.574,0.559 -0.318,0 -0.575,-0.25 -0.575,-0.559 0,-0.309 0.257,-0.56 0.575,-0.56 m -1.479,2.148 c 0.317,0 0.574,0.25 0.574,0.559 0,0.309 -0.257,0.56 -0.574,0.56 -0.317,0 -0.575,-0.251 -0.575,-0.56 0,-0.309 0.258,-0.559 0.575,-0.559 m -1.031,2.382 c 0.317,0 0.575,0.25 0.575,0.559 0,0.309 -0.258,0.56 -0.575,0.56 -0.317,0 -0.574,-0.251 -0.574,-0.56 0,-0.309 0.257,-0.559 0.574,-0.559 m -0.507,2.536 c 0.317,0 0.574,0.25 0.574,0.56 0,0.308 -0.257,0.559 -0.574,0.559 -0.317,0 -0.575,-0.251 -0.575,-0.559 0,-0.31 0.258,-0.56 0.575,-0.56"
             style="fill:#546670;fill-opacity:1;fill-rule:nonzero;stroke:none"
             id="path4649"
             inkscape:connector-curvature="0" />
        </g>
        <g
           id="g4651"
           transform="translate(155.411,268.176)">
          <path
             d="m 0,0 c 0,-7.701 -8.08,-13.947 -18.043,-13.947 -9.963,0 -18.043,6.246 -18.043,13.947 0,7.701 8.08,13.947 18.043,13.947 C -8.08,13.947 0,7.701 0,0"
             style="fill:black;fill-opacity:1;fill-rule:nonzero;stroke:none"
             id="path4653"
             inkscape:connector-curvature="0" />
        </g>
        <g
           id="g4655"
           transform="matrix(-0.518822,-0.854882,0.86843,-0.4965,-118.844,221.066)">
          <g
             id="g4657"
             transform="translate(-172.084,192.222)">
            <path
               d="m 0,0 c 0.278,-0.203 0.377,-0.61 0.178,-0.936 -0.2,-0.327 -0.918,-1.387 -1.058,-2.019 -0.241,-1.08 -0.361,-1.63 -0.363,-3.015 -0.002,-0.938 0.374,-2.546 0.851,-2.912 0.457,-0.366 1.015,-0.284 1.394,-0.12 0.378,0.163 0.815,-0.06 1.253,-0.446 0.695,-0.611 1.233,-0.589 1.871,0.145 0.179,0.184 0.319,0.102 0.119,-0.223 -0.199,-0.347 -1.056,-1.041 -2.191,-1.043 -1.115,0.018 -2.069,0.75 -2.208,1.015 -0.139,0.244 -0.139,0.04 -0.06,-0.163 0.079,-0.204 0.397,-0.957 0.755,-1.262 0.357,-0.305 1.312,-0.65 1.949,-0.69 0.637,-0.039 1.373,-0.282 1.612,-0.71 0.258,-0.428 0.655,-0.814 1.013,-0.793 0.339,0.021 0.338,-0.162 -0.179,-0.347 -0.498,-0.163 -1.792,0.059 -2.568,0.506 -0.795,0.426 -1.669,1.342 -1.848,1.627 -0.159,0.284 -0.537,0.63 -0.636,0.854 -0.099,0.245 -0.198,0.183 -0.199,-0.123 -0.02,-0.305 0.158,-0.895 -0.062,-1.303 -0.239,-0.388 -0.239,-0.734 -0.28,-1.039 -0.02,-0.326 -0.259,-0.572 -0.519,-0.694 -0.259,-0.143 -0.258,-0.021 -0.099,0.162 0.18,0.184 0.26,0.531 0.042,0.958 -0.219,0.448 -0.337,1.283 -0.058,1.793 0.28,0.53 0.679,0.775 0.679,1.101 0.001,0.326 -0.257,0.916 -0.337,1.181 -0.059,0.244 -0.178,0.488 -0.278,-0.062 -0.101,-0.57 -0.619,-0.938 -0.818,-1.019 -0.219,-0.102 -0.419,-0.185 -0.697,-0.205 -0.299,-0.021 -0.259,0.101 -0.04,0.224 0.2,0.102 0.399,0.123 0.379,0.489 -0.019,0.367 0.042,0.774 0.261,1.04 0.199,0.265 0.896,0.184 0.797,0.612 -0.138,0.774 -0.235,2.851 0.266,4.462 0.16,0.55 0.858,1.834 1.058,2.099 0.179,0.245 0.06,0.612 -0.198,0.632 C -0.14,-0.122 0,0 0,0"
               style="fill:#2a3942;fill-opacity:1;fill-rule:nonzero;stroke:none"
               id="path4659"
               inkscape:connector-curvature="0" />
          </g>
        </g>
        <g
           id="g4661"
           transform="matrix(-0.999426,0.0338743,0.0359557,0.999356,-118.844,221.066)">
          <g
             id="g4663"
             transform="translate(-242.382,51.4609)">
            <path
               d="M 0,0 C 0.56,0 0.987,-0.572 0.986,-1.259 0.986,-1.946 0.56,-2.517 0,-2.518 -0.538,-2.517 -0.987,-1.946 -0.987,-1.259 -0.987,-0.572 -0.538,0 0,0 M 1.296,8.496 C 1.276,8.289 1.112,8.122 0.907,8.122 c -0.204,0 -0.348,0.167 -0.348,0.374 0,0.208 0.164,0.375 0.369,0.375 0.205,0 0.368,-0.167 0.368,-0.375 M 2.762,1.73 C 3.238,1.04 3.215,0.189 2.739,-0.157 2.24,-0.502 1.446,-0.225 0.969,0.464 0.493,1.178 0.493,2.005 0.992,2.373 1.491,2.719 2.263,2.443 2.762,1.73 M 3.929,3.74 C 4.308,3.172 4.308,2.535 3.973,2.308 3.616,2.057 3.036,2.33 2.679,2.876 2.322,3.422 2.3,4.082 2.657,4.309 2.992,4.559 3.572,4.286 3.929,3.74 M 2.59,7.285 c -0.228,0 -0.415,0.168 -0.415,0.398 0.021,0.231 0.187,0.399 0.415,0.399 0.228,0 0.393,-0.189 0.393,-0.399 0,-0.23 -0.186,-0.419 -0.393,-0.398 M 2.099,6.52 C 2.324,6.857 2.932,6.857 3.449,6.498 3.989,6.161 4.258,5.6 4.033,5.285 3.808,4.948 3.201,4.948 2.684,5.307 2.144,5.644 1.874,6.205 2.099,6.52 m -9.416,-9.935 c 0.292,-0.023 0.666,-0.078 0.957,-0.046 0.396,0.047 0.675,0.209 1.024,0.719 0.326,0.51 1.235,0.857 2.259,1.089 1.025,0.232 0.909,0.834 0.909,1.229 0,0.393 0.093,0.301 0.21,0.069 0.139,-0.325 0.186,-0.95 -0.257,-1.761 -0.443,-0.788 -1.863,-1.298 -2.515,-1.461 -0.572,-0.137 -1.122,-0.096 -1.59,-0.107 1.356,-0.306 2.696,-0.374 3.967,-0.133 0.356,0.072 0.808,0.215 0.998,0.454 0.214,0.239 0.737,0.717 0.665,0.981 0.143,-0.096 0.357,-0.24 0.452,-0.24 -0.285,-0.143 -0.452,-0.406 -0.571,-0.526 -0.095,-0.119 -0.261,-0.31 -0.38,-0.382 -0.119,-0.072 -0.071,-0.144 0.238,-0.072 1.26,0.287 3.208,0.837 3.802,1.913 0.12,0.216 0.143,1.315 0,1.339 0.12,0.072 0.262,0.311 0.31,0.455 0,0 0.071,-0.144 0.095,-0.167 C 3.398,-0.35 3.255,-1.091 3.232,-1.258 3.208,-1.402 3.279,-1.473 3.327,-1.354 3.921,-0.207 4.42,0.894 4.04,1.922 3.993,2.113 3.897,2.089 3.897,2.089 3.993,2.113 4.23,2.281 4.23,2.281 4.206,2.041 4.325,1.946 4.349,1.778 4.397,1.587 4.468,1.372 4.444,1.085 4.42,0.822 4.563,0.822 4.658,1.157 4.919,2.161 5.442,4.289 4.136,5.126 4.183,5.197 4.231,5.389 4.254,5.484 4.326,5.293 4.516,5.173 4.634,5.03 4.73,4.886 4.943,4.623 4.943,4.433 4.92,4.265 5.062,4.313 5.039,4.647 5.039,4.982 4.659,6.44 4.278,7.038 3.875,7.612 3.28,7.565 3.114,7.468 c 0,0.072 0,0.264 -0.048,0.335 0.214,-0.047 0.333,0 0.452,-0.024 C 3.637,7.756 3.565,7.899 3.399,8.042 2.734,8.592 1.926,8.879 1.166,8.927 -4.253,9.165 -3.731,5.674 -3.065,5.363 -2.59,5.148 -2.304,5.268 -2.02,5.436 -1.734,5.603 -1.235,5.698 -1.069,5.293 -0.903,4.886 -1.235,4.695 -1.592,4.575 -1.948,4.479 -2.281,4.144 -2.044,3.666 c 0.262,-0.478 0.618,-0.501 0.856,-0.454 0.238,0.048 0.262,0.287 0.357,0.455 0.071,0.191 0.356,0.382 0.689,0.095 V 3.738 C 0,3.595 -0.095,3.427 -0.237,3.547 -0.38,3.667 -0.594,3.738 -0.689,3.403 -0.76,3.093 -1.259,2.59 -1.972,3.188 -2.685,3.786 -2.352,4.575 -2.02,4.694 -1.687,4.814 -1.212,4.862 -1.259,5.125 -1.283,5.388 -1.592,5.507 -1.877,5.292 -2.186,5.077 -2.661,5.005 -3.16,5.172 -4.158,5.507 -4.538,9.571 1.308,9.07 2.069,9.022 3.114,8.688 3.756,7.97 3.803,7.899 4.397,7.277 4.564,7.038 4.825,6.656 5.514,5.341 5.538,4.002 5.569,0.742 4.065,-1.806 1.266,-3.143 c 0.235,0.029 0.653,0.202 0.777,0.348 0.167,0.167 1.046,0.573 1.901,0.383 0.856,-0.216 1.355,-1.244 1.355,-1.65 0,-0.407 -0.285,-0.383 -0.261,-0.072 0.047,0.837 -0.642,0.693 -1.212,0.478 -0.571,-0.215 -1.046,0 -1.331,0.239 C 2.233,-3.178 2.067,-3.154 1.758,-3.25 1.425,-3.345 1.093,-3.418 0.57,-3.441 c 0.076,0.012 0.185,0.059 0.299,0.118 -0.421,-0.176 -0.87,-0.325 -1.345,-0.448 0.808,-0.158 1.816,-0.631 2.457,-1.543 0.665,-0.98 0.546,-2.151 0.332,-2.558 -0.19,-0.43 -0.285,-0.191 -0.237,0.072 0.071,0.454 -0.096,1.004 -0.713,1.147 -0.238,0.048 -0.666,0.048 -0.832,0.622 -0.142,0.502 0.143,0.789 -0.404,1.554 -0.192,0.28 -0.592,0.476 -1.223,0.566 -0.84,-0.169 -1.746,-0.265 -2.731,-0.265 -0.418,0 -0.806,0.023 -1.182,0.053 0.203,-0.144 0.56,-0.358 1.087,-0.512 0.547,-0.167 1.284,-0.119 1.901,-1.147 0.618,-1.028 0.499,-1.316 0.404,-1.794 -0.072,-0.286 -0.214,-0.382 -0.333,0.048 -0.119,0.43 -0.428,0.67 -0.903,0.885 -0.451,0.215 -0.927,0.454 -1.402,1.147 -0.457,0.69 -0.637,1.114 -1.665,1.486 -2.475,0.382 -3.962,1.366 -4.964,1.937 -0.119,0.167 -0.357,0.407 -0.618,0.717 1.36,-0.923 2.775,-1.615 4.185,-2.059"
               style="fill:#2a3942;fill-opacity:1;fill-rule:nonzero;stroke:none"
               id="path4665"
               inkscape:connector-curvature="0" />
          </g>
        </g>
        <g
           id="g4667"
           transform="matrix(0.518822,-0.854882,-0.86843,-0.4965,400.199,221.066)">
          <g
             id="g4669"
             transform="translate(-175.37,197.881)">
            <path
               d="m 0,0 c 0.278,-0.203 0.377,-0.61 0.178,-0.936 -0.2,-0.327 -0.918,-1.387 -1.058,-2.019 -0.241,-1.08 -0.361,-1.63 -0.363,-3.015 -0.002,-0.938 0.374,-2.546 0.851,-2.912 0.457,-0.366 1.015,-0.284 1.394,-0.12 0.378,0.163 0.815,-0.06 1.253,-0.446 0.695,-0.611 1.233,-0.589 1.871,0.145 0.179,0.184 0.319,0.102 0.119,-0.223 -0.199,-0.347 -1.056,-1.041 -2.191,-1.043 -1.115,0.018 -2.069,0.75 -2.208,1.015 -0.139,0.244 -0.139,0.04 -0.06,-0.163 0.079,-0.204 0.397,-0.957 0.755,-1.262 0.357,-0.305 1.312,-0.65 1.949,-0.69 0.637,-0.039 1.373,-0.282 1.612,-0.71 0.258,-0.428 0.655,-0.814 1.013,-0.793 0.339,0.021 0.338,-0.162 -0.179,-0.347 -0.498,-0.163 -1.792,0.059 -2.568,0.506 -0.795,0.426 -1.669,1.342 -1.848,1.627 -0.159,0.284 -0.537,0.63 -0.636,0.854 -0.099,0.245 -0.198,0.183 -0.199,-0.123 -0.02,-0.305 0.158,-0.895 -0.062,-1.303 -0.239,-0.388 -0.239,-0.734 -0.28,-1.039 -0.02,-0.326 -0.259,-0.572 -0.519,-0.694 -0.259,-0.143 -0.258,-0.021 -0.099,0.162 0.18,0.184 0.26,0.531 0.042,0.958 -0.219,0.448 -0.337,1.283 -0.058,1.793 0.28,0.53 0.679,0.775 0.679,1.101 0.001,0.326 -0.257,0.916 -0.337,1.181 -0.059,0.244 -0.178,0.488 -0.278,-0.062 -0.101,-0.57 -0.619,-0.938 -0.818,-1.019 -0.219,-0.102 -0.419,-0.185 -0.697,-0.205 -0.299,-0.021 -0.259,0.101 -0.04,0.224 0.2,0.102 0.399,0.123 0.379,0.489 -0.019,0.367 0.042,0.774 0.261,1.04 0.199,0.265 0.896,0.184 0.797,0.612 -0.138,0.774 -0.235,2.851 0.266,4.462 0.16,0.55 0.858,1.834 1.058,2.099 0.179,0.245 0.06,0.612 -0.198,0.632 C -0.14,-0.122 0,0 0,0"
               style="fill:#2a3942;fill-opacity:1;fill-rule:nonzero;stroke:none"
               id="path4671"
               inkscape:connector-curvature="0" />
          </g>
        </g>
        <g
           id="g4673"
           transform="matrix(0.999426,0.0338743,-0.0359557,0.999356,400.199,221.066)">
          <g
             id="g4675"
             transform="translate(-248.997,51.6852)">
            <path
               d="M 0,0 C 0.56,0 0.987,-0.572 0.986,-1.259 0.986,-1.946 0.56,-2.517 0,-2.518 -0.538,-2.517 -0.987,-1.946 -0.987,-1.259 -0.987,-0.572 -0.538,0 0,0 M 1.296,8.496 C 1.276,8.289 1.112,8.122 0.907,8.122 c -0.204,0 -0.348,0.167 -0.348,0.374 0,0.208 0.164,0.375 0.369,0.375 0.205,0 0.368,-0.167 0.368,-0.375 M 2.762,1.73 C 3.238,1.04 3.215,0.189 2.739,-0.157 2.24,-0.502 1.446,-0.225 0.969,0.464 0.493,1.178 0.493,2.005 0.992,2.373 1.491,2.719 2.263,2.443 2.762,1.73 M 3.929,3.74 C 4.308,3.172 4.308,2.535 3.973,2.308 3.616,2.057 3.036,2.33 2.679,2.876 2.322,3.422 2.3,4.082 2.657,4.309 2.992,4.559 3.572,4.287 3.929,3.74 M 2.59,7.285 c -0.228,0 -0.415,0.168 -0.415,0.398 0.021,0.231 0.187,0.399 0.415,0.399 0.228,0 0.393,-0.189 0.393,-0.399 0,-0.23 -0.186,-0.419 -0.393,-0.398 M 2.099,6.52 C 2.324,6.857 2.932,6.857 3.449,6.498 3.989,6.161 4.258,5.6 4.033,5.285 3.808,4.948 3.201,4.948 2.684,5.307 2.144,5.644 1.874,6.205 2.099,6.52 m -9.416,-9.935 c 0.292,-0.023 0.666,-0.078 0.957,-0.046 0.396,0.047 0.675,0.209 1.024,0.719 0.326,0.51 1.235,0.857 2.259,1.089 1.025,0.232 0.909,0.834 0.909,1.229 0,0.393 0.093,0.301 0.21,0.069 0.139,-0.325 0.186,-0.95 -0.257,-1.761 -0.443,-0.788 -1.863,-1.298 -2.515,-1.461 -0.572,-0.137 -1.122,-0.096 -1.59,-0.107 1.356,-0.306 2.696,-0.374 3.967,-0.133 0.356,0.072 0.808,0.215 0.998,0.454 0.214,0.239 0.737,0.717 0.665,0.981 0.143,-0.096 0.357,-0.24 0.452,-0.24 -0.285,-0.143 -0.452,-0.406 -0.571,-0.526 -0.095,-0.119 -0.261,-0.31 -0.38,-0.382 -0.119,-0.072 -0.071,-0.144 0.238,-0.072 1.26,0.287 3.208,0.837 3.802,1.913 0.12,0.216 0.143,1.315 0,1.339 0.12,0.072 0.262,0.311 0.31,0.455 0,0 0.071,-0.144 0.095,-0.167 C 3.398,-0.35 3.255,-1.091 3.232,-1.258 3.208,-1.402 3.279,-1.473 3.327,-1.354 3.921,-0.207 4.42,0.894 4.04,1.922 3.993,2.113 3.897,2.089 3.897,2.089 3.993,2.113 4.23,2.281 4.23,2.281 4.206,2.041 4.325,1.946 4.349,1.778 4.397,1.587 4.468,1.372 4.444,1.085 4.42,0.822 4.563,0.822 4.658,1.157 4.919,2.161 5.442,4.289 4.136,5.126 4.183,5.197 4.231,5.389 4.254,5.484 4.326,5.293 4.516,5.173 4.634,5.03 4.73,4.886 4.943,4.623 4.943,4.433 4.92,4.265 5.062,4.313 5.039,4.647 5.039,4.982 4.659,6.44 4.278,7.038 3.875,7.612 3.28,7.565 3.114,7.468 c 0,0.072 0,0.264 -0.048,0.335 0.214,-0.047 0.333,0 0.452,-0.024 C 3.637,7.756 3.565,7.899 3.399,8.042 2.734,8.592 1.926,8.879 1.166,8.927 -4.253,9.165 -3.731,5.674 -3.065,5.363 -2.59,5.148 -2.304,5.268 -2.02,5.436 -1.734,5.603 -1.235,5.698 -1.069,5.293 -0.903,4.886 -1.235,4.695 -1.592,4.575 -1.948,4.479 -2.281,4.144 -2.044,3.666 c 0.262,-0.478 0.618,-0.501 0.856,-0.454 0.238,0.048 0.262,0.287 0.357,0.455 0.071,0.191 0.356,0.382 0.689,0.095 V 3.738 C 0,3.595 -0.095,3.427 -0.237,3.547 -0.38,3.667 -0.594,3.738 -0.689,3.403 -0.76,3.093 -1.259,2.59 -1.972,3.188 -2.685,3.786 -2.352,4.575 -2.02,4.694 -1.687,4.814 -1.212,4.862 -1.259,5.125 -1.283,5.388 -1.592,5.507 -1.877,5.292 -2.186,5.077 -2.661,5.005 -3.16,5.172 -4.158,5.507 -4.538,9.571 1.308,9.07 2.069,9.022 3.114,8.688 3.756,7.97 3.803,7.899 4.397,7.277 4.564,7.038 4.825,6.656 5.514,5.341 5.538,4.002 5.569,0.742 4.065,-1.806 1.266,-3.143 c 0.235,0.029 0.653,0.202 0.777,0.348 0.167,0.167 1.046,0.573 1.901,0.383 0.856,-0.216 1.355,-1.244 1.355,-1.65 0,-0.407 -0.285,-0.383 -0.261,-0.072 0.047,0.837 -0.642,0.693 -1.212,0.478 -0.571,-0.215 -1.046,0 -1.331,0.239 C 2.233,-3.178 2.067,-3.154 1.758,-3.25 1.425,-3.345 1.093,-3.418 0.57,-3.441 c 0.076,0.012 0.185,0.059 0.299,0.118 -0.421,-0.176 -0.87,-0.325 -1.345,-0.448 0.808,-0.158 1.816,-0.631 2.457,-1.543 0.665,-0.98 0.546,-2.151 0.332,-2.558 -0.19,-0.43 -0.285,-0.191 -0.237,0.072 0.071,0.454 -0.096,1.004 -0.713,1.147 -0.238,0.048 -0.666,0.048 -0.832,0.622 -0.142,0.502 0.143,0.789 -0.404,1.554 -0.192,0.28 -0.592,0.476 -1.223,0.566 -0.84,-0.169 -1.746,-0.265 -2.731,-0.265 -0.418,0 -0.806,0.023 -1.182,0.053 0.203,-0.144 0.56,-0.358 1.087,-0.512 0.547,-0.167 1.284,-0.119 1.901,-1.147 0.618,-1.028 0.499,-1.316 0.404,-1.794 -0.072,-0.286 -0.214,-0.382 -0.333,0.048 -0.119,0.43 -0.428,0.67 -0.903,0.885 -0.451,0.215 -0.927,0.454 -1.402,1.147 -0.457,0.69 -0.637,1.114 -1.665,1.486 -2.475,0.382 -3.962,1.366 -4.964,1.937 -0.119,0.167 -0.357,0.407 -0.618,0.717 1.36,-0.923 2.775,-1.615 4.185,-2.059"
               style="fill:#2a3942;fill-opacity:1;fill-rule:nonzero;stroke:none"
               id="path4677"
               inkscape:connector-curvature="0" />
          </g>
        </g>
        <g
           id="g4679"
           transform="matrix(0.836653,-0.547733,-0.570893,-0.821491,-117.691,175.667)">
          <g
             id="g4681"
             transform="translate(166.422,-213.729)">
            <path
               d="m 0,0 c 0.157,-0.17 0.493,-0.361 0.493,-0.361 0.177,-2.109 -0.928,-4.264 -1.85,-5.01 -0.202,-0.171 -0.517,-0.534 -0.249,-0.832 0.247,-0.298 0.111,-0.938 -0.474,-1.407 -0.585,-0.47 -1.147,-0.982 -1.125,-1.408 0.021,-0.448 -0.315,-0.299 -0.494,-0.022 -0.202,0.255 -0.201,0.979 0.204,1.491 0.427,0.491 0.832,0.833 0.9,0.961 0.068,0.149 0.203,0.256 -0.134,0.106 -1.484,-0.684 -3.8,-1.348 -5.663,-0.329 -2.11,1.147 -1.41,3.066 -0.466,3.537 0.338,0.171 0.607,0.086 0.247,-0.341 -0.382,-0.406 -0.609,-1.173 -0.25,-1.577 0.696,-0.809 1.325,-0.318 2.066,-0.742 0.718,-0.447 0.874,-0.979 1.437,-0.936 0.538,0.044 1.64,0.322 2.314,0.665 0.181,0.085 0.338,0.298 -0.044,0.213 -0.404,-0.108 -1.214,-0.109 -1.617,0.295 -0.561,0.575 -0.335,1.299 0.07,1.705 0.202,0.213 0.337,0.043 0.315,-0.234 -0.024,-0.256 0.313,-0.66 0.717,-0.617 0.382,0.044 1.325,0.109 1.528,-0.125 0.179,-0.213 0.404,-0.149 0.584,-0.02 0.314,0.277 0.878,0.981 1.126,1.599 0.09,0.214 0.225,0.576 -0.135,0.235 -0.382,-0.363 -1.034,-1.003 -1.888,-0.877 -0.854,0.127 -1.684,0.615 -1.93,1.19 -0.09,0.234 0.18,0.341 0.449,0.129 0.269,-0.192 0.741,-0.319 1.281,-0.147 0.562,0.192 1.034,0.364 1.528,0.279 0.539,-0.084 0.719,0.193 0.899,0.47 C 0.019,-1.854 0.201,-0.766 0,0"
               style="fill:#2a3942;fill-opacity:1;fill-rule:nonzero;stroke:none"
               id="path4683"
               inkscape:connector-curvature="0" />
          </g>
        </g>
        <g
           id="g4685"
           transform="matrix(-0.836653,-0.547733,0.570893,-0.821491,-117.691,175.667)">
          <g
             id="g4687"
             transform="translate(-252.635,65.6783)">
            <path
               d="m 0,0 c 0.157,-0.17 0.493,-0.361 0.493,-0.361 0.177,-2.109 -0.928,-4.264 -1.85,-5.011 -0.202,-0.17 -0.517,-0.533 -0.249,-0.831 0.247,-0.298 0.111,-0.938 -0.474,-1.407 -0.585,-0.47 -1.147,-0.982 -1.125,-1.408 0.021,-0.448 -0.315,-0.299 -0.494,-0.022 -0.202,0.255 -0.201,0.979 0.204,1.491 0.427,0.491 0.832,0.833 0.9,0.961 0.068,0.149 0.203,0.256 -0.134,0.106 -1.484,-0.684 -3.8,-1.348 -5.663,-0.329 -2.11,1.147 -1.41,3.066 -0.466,3.537 0.338,0.171 0.607,0.086 0.247,-0.341 -0.382,-0.406 -0.609,-1.173 -0.25,-1.577 0.696,-0.809 1.325,-0.318 2.066,-0.742 0.718,-0.447 0.874,-0.979 1.437,-0.936 0.538,0.044 1.64,0.322 2.314,0.665 0.181,0.085 0.338,0.298 -0.044,0.213 -0.404,-0.108 -1.213,-0.109 -1.617,0.295 -0.561,0.575 -0.335,1.299 0.07,1.705 0.202,0.213 0.337,0.043 0.315,-0.234 -0.024,-0.256 0.313,-0.66 0.717,-0.617 0.382,0.044 1.325,0.109 1.528,-0.125 0.179,-0.213 0.404,-0.149 0.584,-0.02 0.315,0.277 0.878,0.981 1.126,1.599 0.09,0.214 0.225,0.576 -0.135,0.235 -0.382,-0.363 -1.034,-1.003 -1.888,-0.877 -0.854,0.127 -1.684,0.615 -1.93,1.19 -0.09,0.234 0.18,0.341 0.449,0.129 0.269,-0.192 0.741,-0.319 1.281,-0.147 0.562,0.192 1.034,0.364 1.528,0.279 0.539,-0.084 0.719,0.193 0.899,0.47 C 0.019,-1.854 0.201,-0.766 0,0"
               style="fill:#2a3942;fill-opacity:1;fill-rule:nonzero;stroke:none"
               id="path4689"
               inkscape:connector-curvature="0" />
          </g>
        </g>
        <g
           id="g4691"
           transform="matrix(0.812227,0.583341,0.606531,-0.795572,-117.939,175.667)">
          <g
             id="g4693"
             transform="translate(271.366,66.5964)">
            <path
               d="m 0,0 c -0.192,-0.367 -0.702,-1.063 -1.55,-1.256 -0.85,-0.194 -2.09,-0.148 -2.262,-0.123 -0.172,0.024 -0.235,-0.193 -0.036,-0.328 0.2,-0.135 0.864,-0.474 1.2,-0.827 0.55,-0.579 0.756,-1.359 0.729,-2.018 -0.013,-0.289 -0.18,-0.213 -0.192,0.036 -0.012,0.249 -0.171,0.562 -0.472,0.705 -0.301,0.144 -0.77,0.632 -0.918,0.965 -0.148,0.332 -0.316,0.744 -0.421,0.835 -0.106,0.092 -0.168,0.076 -0.341,0.034 -0.172,-0.043 -0.457,0.172 -0.504,0.294 -0.047,0.123 -0.156,0.23 -0.261,0.254 -0.106,0.025 -0.513,0.192 -0.68,0.268 -0.169,0.076 -0.259,0.104 -0.091,-0.106 0.282,-0.352 0.524,-1.328 0.408,-1.728 -0.063,-0.217 -0.168,-0.126 -0.238,0.092 -0.07,0.218 -0.356,0.5 -0.563,0.734 -0.206,0.233 -0.268,0.822 -0.287,1.036 -0.02,0.213 0.055,0.248 -0.246,0.459 -0.582,0.408 -1.09,0.795 -1.579,1.351 0.096,-0.213 0.177,-0.424 0.23,-0.621 0.372,-1.391 0.028,-2.8 -0.583,-3.812 -0.267,-0.444 -0.467,-0.177 -0.272,0.225 0.196,0.401 0.213,1.033 -0.139,1.523 -0.352,0.49 -0.673,1.668 -0.621,2.321 0.051,0.653 0.14,1.447 0.052,1.684 -0.088,0.236 -0.199,0.266 -0.509,0.35 -0.308,0.084 -0.574,0.671 -0.543,0.904 0.032,0.235 -0.049,0.499 -0.195,0.629 -0.145,0.132 -0.643,0.752 -0.843,1.018 -0.201,0.267 -0.893,1.061 -1.188,1.657 -1.083,2.192 -1.804,4.033 -1.653,7.922 -0.169,4.004 0.619,1.473 0.561,0.572 0.085,-2.992 0.509,-6.309 1.74,-7.973 0.21,-0.283 0.26,-1.071 0.53,-1.417 0.269,-0.346 1.141,-1.371 1.272,-1.558 0.131,-0.187 0.66,-0.119 0.987,-0.359 C -9.15,3.501 -8.551,3.048 -7.815,2.866 -6.461,2.529 -6.004,3.01 -5.133,2.895 -4.261,2.78 -3.624,2.576 -3.192,2.277 -2.76,1.978 -2.07,1.972 -1.779,2.166 -1.487,2.36 -1.096,2.133 -1.715,1.725 -2.333,1.316 -3.737,0.667 -5.243,1.106 -6.75,1.546 -8.669,2.703 -8.92,2.893 -9.068,3.005 -9.226,2.949 -9.291,2.806 -8.49,1.489 -7.5,0.194 -6.549,-0.244 c 0.177,-0.082 0.669,-0.288 1.034,-0.013 0.363,0.274 0.837,0.442 1.075,0.35 0.239,-0.092 0.478,0.017 0.572,0.175 0.094,0.158 0.305,0.109 0.18,-0.191 -0.126,-0.299 -0.635,-0.66 -1.183,-0.728 -0.548,-0.069 -1.013,0.001 -1.17,0.029 -0.156,0.029 -0.098,-0.074 0.126,-0.17 0.222,-0.096 0.918,-0.36 1.031,-0.416 0.114,-0.056 0.353,0.12 0.576,0.092 0.223,-0.029 0.634,-0.088 1.04,0.022 0.748,0.202 0.842,0.561 1.296,0.74 0.454,0.18 0.818,0.253 1.108,0.224 0.289,-0.029 0.626,0.155 0.716,0.328 C -0.058,0.371 0.193,0.366 0,0"
               style="fill:#2a3942;fill-opacity:1;fill-rule:nonzero;stroke:none"
               id="path4695"
               inkscape:connector-curvature="0" />
          </g>
        </g>
        <g
           id="g4697"
           transform="matrix(-0.971945,-0.235206,0.248829,-0.968649,-117.939,175.667)">
          <g
             id="g4699"
             transform="translate(-268.423,-32.5897)">
            <path
               d="m 0,0 c 0.511,-0.395 1.135,-0.307 1.558,-0.13 0.423,0.176 0.912,-0.066 1.401,-0.483 0.778,-0.658 1.38,-0.636 2.092,0.156 0.201,0.198 0.356,0.11 0.133,-0.241 -0.222,-0.374 -1.18,-1.122 -2.448,-1.123 -1.247,0.02 -2.314,0.81 -2.47,1.096 -0.155,0.264 -0.155,0.044 -0.067,-0.176 0.089,-0.219 0.445,-1.032 0.845,-1.362 0.4,-0.329 1.468,-0.701 2.18,-0.745 C 3.936,-3.051 4.759,-3.314 5.026,-3.775 5.315,-4.237 5.76,-4.654 6.16,-4.632 6.538,-4.609 6.538,-4.807 5.96,-5.006 5.403,-5.182 3.957,-4.941 3.089,-4.458 2.2,-3.998 1.222,-3.009 1.021,-2.702 0.844,-2.394 0.421,-2.021 0.31,-1.78 0.199,-1.516 0.088,-1.582 0.088,-1.912 0.065,-2.241 0.264,-2.878 0.019,-3.318 c -0.267,-0.418 -0.267,-0.791 -0.312,-1.121 -0.023,-0.352 -0.29,-0.616 -0.579,-0.748 -0.29,-0.154 -0.29,-0.022 -0.112,0.176 0.201,0.198 0.29,0.572 0.046,1.033 -0.244,0.483 -0.377,1.384 -0.065,1.934 0.312,0.571 0.757,0.836 0.758,1.187 0,0.351 -1.063,1.661 -1.152,1.947 C -1.464,1.354 -1.601,1.922 0,0"
               style="fill:#2a3942;fill-opacity:1;fill-rule:nonzero;stroke:none"
               id="path4701"
               inkscape:connector-curvature="0" />
          </g>
        </g>
        <g
           id="g4703"
           transform="matrix(-0.971945,-0.235206,0.248829,-0.968649,-117.939,175.667)">
          <g
             id="g4705"
             transform="translate(-269.948,-26.3691)">
            <path
               d="m 0,0 c 0.142,-0.166 0.13,-0.338 0.13,-0.338 0.161,-2.053 -1.128,-4.112 -1.961,-4.838 -0.183,-0.166 -0.468,-0.519 -0.224,-0.809 0.223,-0.29 0.101,-0.912 -0.428,-1.369 -0.529,-0.456 -1.037,-0.955 -1.017,-1.369 0.02,-0.435 -0.284,-0.291 -0.447,-0.021 -0.182,0.248 -0.182,0.953 0.184,1.451 0.386,0.478 0.752,0.81 0.814,0.934 0.061,0.146 0.183,0.249 -0.122,0.104 -1.342,-0.665 -3.435,-1.309 -5.12,-0.315 -1.908,1.118 -1.277,2.985 -0.423,3.442 0.304,0.166 0.548,0.083 0.223,-0.332 -0.346,-0.394 -0.55,-1.141 -0.225,-1.535 0.629,-0.787 1.198,-0.31 1.868,-0.724 0.65,-0.435 0.792,-0.953 1.3,-0.911 0.487,0.041 1.483,0.312 2.093,0.644 0.162,0.083 0.304,0.291 -0.041,0.207 -0.365,-0.104 -1.097,-0.104 -1.462,0.29 -0.508,0.559 -0.304,1.264 0.062,1.658 0.183,0.208 0.305,0.042 0.285,-0.227 -0.021,-0.249 0.283,-0.643 0.649,-0.601 0.345,0.042 1.198,0.104 1.381,-0.124 0.163,-0.207 0.365,-0.144 0.528,-0.02 0.285,0.27 0.793,0.955 1.018,1.556 0.081,0.208 0.203,0.56 -0.122,0.228 -0.346,-0.352 -0.935,-0.975 -1.707,-0.851 -0.772,0.124 -1.524,0.6 -1.746,1.159 -0.082,0.229 0.162,0.333 0.406,0.125 0.244,-0.186 0.67,-0.31 1.158,-0.144 0.508,0.187 0.935,0.353 1.381,0.271 0.488,-0.083 0.651,0.187 0.813,0.457 0.163,0.249 0.618,1.27 0.436,2.016 z"
               style="fill:#2a3942;fill-opacity:1;fill-rule:nonzero;stroke:none"
               id="path4707"
               inkscape:connector-curvature="0" />
          </g>
        </g>
        <g
           id="g4709"
           transform="matrix(0.876536,0.481335,0.503767,-0.864218,-117.939,175.667)">
          <g
             id="g4711"
             transform="translate(266.061,50.8415)">
            <path
               d="m 0,0 c 0.141,-0.167 0.101,-0.542 0.101,-0.542 0.165,-2.063 -0.823,-4.166 -1.65,-4.893 -0.182,-0.167 -0.464,-0.52 -0.222,-0.812 0.224,-0.293 0.103,-0.918 -0.422,-1.375 -0.525,-0.457 -1.029,-0.957 -1.008,-1.373 0.02,-0.438 -0.283,-0.292 -0.445,-0.02 -0.183,0.249 -0.184,0.958 0.179,1.457 0.383,0.479 0.747,0.812 0.808,0.937 0.06,0.146 0.181,0.25 -0.122,0.104 -1.333,-0.665 -3.415,-1.307 -5.095,-0.305 -1.902,1.128 -1.278,3.002 -0.43,3.46 0.303,0.166 0.546,0.082 0.224,-0.334 -0.343,-0.396 -0.545,-1.145 -0.221,-1.542 0.629,-0.792 1.194,-0.314 1.862,-0.731 0.647,-0.439 0.789,-0.96 1.295,-0.919 0.485,0.04 1.476,0.31 2.081,0.643 0.162,0.083 0.303,0.291 -0.04,0.208 -0.364,-0.104 -1.092,-0.103 -1.456,0.294 -0.507,0.563 -0.306,1.271 0.058,1.666 0.181,0.208 0.303,0.041 0.284,-0.229 -0.021,-0.25 0.283,-0.647 0.647,-0.605 0.344,0.041 1.192,0.102 1.375,-0.128 0.162,-0.208 0.364,-0.146 0.526,-0.021 0.282,0.27 0.787,0.957 1.008,1.561 0.081,0.208 0.201,0.562 -0.121,0.229 -0.343,-0.353 -0.929,-0.977 -1.697,-0.851 -0.769,0.126 -1.518,0.606 -1.741,1.169 -0.081,0.229 0.161,0.333 0.404,0.124 0.243,-0.188 0.668,-0.313 1.153,-0.147 0.505,0.186 0.929,0.353 1.374,0.269 0.486,-0.085 0.647,0.186 0.808,0.457 0.162,0.25 0.537,1.427 0.354,2.177 z"
               style="fill:#2a3942;fill-opacity:1;fill-rule:nonzero;stroke:none"
               id="path4713"
               inkscape:connector-curvature="0" />
          </g>
        </g>
        <g
           id="g4715"
           transform="matrix(-0.863833,-0.503778,0.52655,-0.850553,-117.939,175.667)">
          <g
             id="g4717"
             transform="translate(-255.259,57.5344)">
            <path
               d="m 0,0 c -0.194,-0.366 -0.707,-1.063 -1.558,-1.259 -0.852,-0.195 -2.095,-0.154 -2.268,-0.13 -0.172,0.024 -0.235,-0.192 -0.036,-0.327 0.199,-0.134 0.864,-0.47 1.2,-0.821 0.549,-0.575 0.753,-1.353 0.723,-2.011 -0.013,-0.288 -0.181,-0.213 -0.192,0.036 -0.011,0.248 -0.169,0.559 -0.471,0.702 -0.301,0.142 -0.77,0.627 -0.916,0.959 -0.148,0.331 -0.315,0.741 -0.42,0.832 -0.106,0.091 -0.168,0.076 -0.341,0.032 -0.173,-0.043 -0.458,0.17 -0.504,0.292 -0.047,0.123 -0.156,0.229 -0.262,0.253 -0.105,0.024 -0.513,0.19 -0.68,0.265 -0.169,0.076 -0.259,0.103 -0.091,-0.106 0.281,-0.35 0.521,-1.323 0.403,-1.723 -0.064,-0.216 -0.169,-0.126 -0.239,0.091 -0.069,0.217 -0.355,0.498 -0.561,0.731 -0.207,0.232 -0.267,0.819 -0.285,1.032 -0.019,0.213 0.056,0.248 -0.245,0.458 -0.582,0.405 -1.089,0.79 -1.578,1.342 -1.018,1.027 -0.792,-4.181 -1.389,-0.367 0.053,0.651 0.145,1.444 0.058,1.68 -0.088,0.235 -0.2,0.265 -0.509,0.348 -0.309,0.082 -0.574,0.668 -0.542,0.9 0.033,0.235 -0.047,0.498 -0.193,0.627 -0.146,0.131 -0.643,0.748 -0.842,1.013 -0.201,0.265 -0.277,1.103 -0.007,0.759 0.268,-0.344 1.138,-1.364 1.269,-1.55 0.131,-0.187 0.661,-0.117 0.989,-0.356 0.327,-0.239 0.927,-0.688 1.663,-0.868 1.356,-0.332 1.816,0.15 2.689,0.038 0.873,-0.112 1.511,-0.313 1.944,-0.611 0.431,-0.296 1.123,-0.3 1.416,-0.106 0.292,0.194 0.683,-0.031 0.062,-0.44 -0.621,-0.409 -2.03,-1.062 -3.538,-0.629 -1.51,0.434 -3.429,1.583 -3.68,1.772 -0.148,0.111 -0.306,0.054 -0.372,-0.089 0.798,-1.311 1.786,-2.6 2.738,-3.034 0.177,-0.081 0.67,-0.285 1.036,-0.009 0.365,0.275 0.841,0.443 1.08,0.352 0.238,-0.09 0.478,0.019 0.573,0.177 0.095,0.157 0.306,0.109 0.18,-0.19 -0.128,-0.299 -0.639,-0.66 -1.188,-0.731 -0.549,-0.07 -1.016,-0.002 -1.173,0.026 -0.156,0.028 -0.098,-0.075 0.125,-0.169 0.223,-0.095 0.92,-0.357 1.033,-0.412 0.113,-0.056 0.354,0.121 0.577,0.093 0.224,-0.028 0.636,-0.085 1.043,0.026 0.75,0.204 0.846,0.562 1.301,0.743 0.456,0.18 0.821,0.254 1.112,0.226 0.289,-0.028 0.627,0.157 0.718,0.33 C -0.056,0.37 0.194,0.366 0,0"
               style="fill:#2a3942;fill-opacity:1;fill-rule:nonzero;stroke:none"
               id="path4719"
               inkscape:connector-curvature="0" />
          </g>
        </g>
        <g
           id="g4721"
           transform="matrix(0.705315,0.708894,0.729939,-0.684163,-117.939,175.667)">
          <g
             id="g4723"
             transform="translate(238.773,120.738)">
            <path
               d="M 0,0 C -0.048,0.155 -0.036,0.503 0.046,0.491 0.122,0.333 0.428,0.391 0.617,0.188 0.807,-0.015 1.154,-0.397 1.58,-0.551 2.364,-0.835 2.629,-0.428 3.133,-0.525 3.638,-0.622 4.007,-0.794 4.257,-1.046 4.507,-1.298 4.906,-1.303 5.075,-1.139 5.244,-0.976 5.47,-1.167 5.112,-1.511 4.755,-1.857 3.942,-2.405 3.07,-2.035 2.197,-1.665 1.086,-0.688 0.941,-0.528 0.855,-0.434 0.764,-0.482 0.726,-0.602 0.514,-0.722 0.537,-0.657 0.389,-0.646 0.036,-0.462 0.165,-0.44 0,0"
               style="fill:#2a3942;fill-opacity:1;fill-rule:nonzero;stroke:none"
               id="path4725"
               inkscape:connector-curvature="0" />
          </g>
        </g>
      </g>
    </g>
    <g
       id="g4727"
       transform="matrix(-0.09995182,-0.33832199,0.33990349,-0.09459912,45.519524,49.49596)">
      <g
         id="g4729"
         transform="translate(-96.1137,36.0567)">
        <path
           d="m 0,0 -1.728,1.25 0.663,-2.019 -1.735,-1.246 2.141,0.006 0.655,-2.02 0.66,2.021 2.141,-0.002 -1.733,1.244 0.667,2.019 z"
           style="fill:white;fill-opacity:1;fill-rule:nonzero;stroke:none"
           id="path4731"
           inkscape:connector-curvature="0" />
      </g>
    </g>
    <g
       transform="matrix(0.35277777,0,0,-0.35277777,22.136919,174.15034)"
       id="g4733">
      <g
         id="g4735"
         clip-path="url(#clipPath4739)">
        <g
           id="g4741"
           transform="matrix(-0.965631,-0.259917,-0.274766,0.961634,66.2814,353.351)">
          <g
             id="g4743"
             transform="translate(-53.9097,-98.1866)">
            <path
               d="M 0,0 C 0,0 0.737,3.183 5.592,4.079 10.102,4.861 16.693,2.727 16.693,2.727 L 17.56,2.373 16.823,1.796 c 0,0 -9.666,2.492 -12.711,1.417 C 0.878,1.898 0.838,1.698 0,0"
               style="fill:white;fill-opacity:1;fill-rule:nonzero;stroke:none"
               id="path4745"
               inkscape:connector-curvature="0" />
          </g>
        </g>
      </g>
    </g>
  </g>
</svg>
