<?xml version="1.0" encoding="UTF-8" standalone="no"?>
<!-- Created with Inkscape (http://www.inkscape.org/) -->

<svg
   xmlns:dc="http://purl.org/dc/elements/1.1/"
   xmlns:cc="http://creativecommons.org/ns#"
   xmlns:rdf="http://www.w3.org/1999/02/22-rdf-syntax-ns#"
   xmlns:svg="http://www.w3.org/2000/svg"
   xmlns="http://www.w3.org/2000/svg"
   xmlns:sodipodi="http://sodipodi.sourceforge.net/DTD/sodipodi-0.dtd"
   xmlns:inkscape="http://www.inkscape.org/namespaces/inkscape"
   width="42.237999pt"
   height="32.647999pt"
   viewBox="0 0 14.900628 11.517488"
   version="1.1"
   id="svg8731"
   inkscape:version="0.92.3 (2405546, 2018-03-11)"
   sodipodi:docname="blue.svg">
  <defs
     id="defs8725">
    <clipPath
       clipPathUnits="userSpaceOnUse"
       id="clipPath3867">
      <path
         d="M 0,0 H 612 V 792 H 0 Z"
         id="path3865"
         inkscape:connector-curvature="0" />
    </clipPath>
  </defs>
  <sodipodi:namedview
     id="base"
     pagecolor="#ffffff"
     bordercolor="#666666"
     borderopacity="1.0"
     inkscape:pageopacity="0.0"
     inkscape:pageshadow="2"
     inkscape:zoom="1"
     inkscape:cx="41.314783"
     inkscape:cy="-0.60325491"
     inkscape:document-units="mm"
     inkscape:current-layer="layer1"
     showgrid="false"
     units="pt"
     inkscape:window-width="1440"
     inkscape:window-height="836"
     inkscape:window-x="0"
     inkscape:window-y="27"
     inkscape:window-maximized="1" />
  <metadata
     id="metadata8728">
    <rdf:RDF>
      <cc:Work
         rdf:about="">
        <dc:format>image/svg+xml</dc:format>
        <dc:type
           rdf:resource="http://purl.org/dc/dcmitype/StillImage" />
        <dc:title></dc:title>
      </cc:Work>
    </rdf:RDF>
  </metadata>
  <g
     inkscape:label="Layer 1"
     inkscape:groupmode="layer"
     id="layer1"
     transform="translate(-61.073884,-97.226962)">
    <g
       transform="matrix(0.35277777,0,0,-0.35277777,20.073699,317.81114)"
       id="g3861">
      <g
         id="g3863"
         clip-path="url(#clipPath3867)">
        <g
           id="g3869"
           transform="translate(158.459,608.954)">
          <path
             d="m 0,0 c 0,-9.014 -9.457,-16.324 -21.119,-16.324 -11.662,0 -21.119,7.31 -21.119,16.324 0,9.014 9.457,16.324 21.119,16.324 C -9.457,16.324 0,9.014 0,0"
             style="fill:#005496;fill-opacity:1;fill-rule:nonzero;stroke:none"
             id="path3871"
             inkscape:connector-curvature="0" />
        </g>
        <g
           id="g3873"
           transform="translate(134.815,593.312)">
          <path
             d="M 0,0 C 0.317,0 0.574,0.25 0.574,0.559 0.574,0.867 0.317,1.118 0,1.118 -0.317,1.118 -0.574,0.867 -0.574,0.559 -0.574,0.25 -0.317,0 0,0 m 0,31.285 c 0.317,0 0.574,-0.251 0.574,-0.559 0,-0.309 -0.257,-0.559 -0.574,-0.559 -0.317,0 -0.574,0.25 -0.574,0.559 0,0.308 0.257,0.559 0.574,0.559 m 2.525,0.133 c 0.316,0 0.573,-0.25 0.573,-0.558 0,-0.309 -0.257,-0.559 -0.573,-0.559 -0.317,0 -0.574,0.25 -0.574,0.559 0,0.308 0.257,0.558 0.574,0.558 m 2.524,-0.133 c -0.317,0 -0.574,-0.251 -0.574,-0.559 0,-0.309 0.257,-0.559 0.574,-0.559 0.317,0 0.574,0.25 0.574,0.559 0,0.308 -0.257,0.559 -0.574,0.559 m 2.62,-0.411 c -0.317,0 -0.574,-0.25 -0.574,-0.559 0,-0.308 0.257,-0.558 0.574,-0.558 0.317,0 0.573,0.25 0.573,0.558 0,0.309 -0.256,0.559 -0.573,0.559 m 2.555,-0.696 c -0.317,0 -0.574,-0.25 -0.574,-0.558 0,-0.309 0.257,-0.559 0.574,-0.559 0.317,0 0.574,0.25 0.574,0.559 0,0.308 -0.257,0.558 -0.574,0.558 m 2.452,-0.987 c -0.317,0 -0.574,-0.25 -0.574,-0.559 0,-0.308 0.257,-0.559 0.574,-0.559 0.317,0 0.573,0.251 0.573,0.559 0,0.309 -0.256,0.559 -0.573,0.559 m 2.303,-1.283 c -0.317,0 -0.574,-0.25 -0.574,-0.559 0,-0.308 0.257,-0.559 0.574,-0.559 0.317,0 0.573,0.251 0.573,0.559 0,0.309 -0.256,0.559 -0.573,0.559 m 2.098,-1.581 c -0.317,0 -0.574,-0.25 -0.574,-0.558 0,-0.309 0.257,-0.559 0.574,-0.559 0.317,0 0.574,0.25 0.574,0.559 0,0.308 -0.257,0.558 -0.574,0.558 m 1.827,-1.871 c -0.317,0 -0.574,-0.251 -0.574,-0.559 0,-0.309 0.257,-0.559 0.574,-0.559 0.317,0 0.574,0.25 0.574,0.559 0,0.308 -0.257,0.559 -0.574,0.559 m 1.477,-2.145 c -0.317,0 -0.574,-0.25 -0.574,-0.559 0,-0.308 0.257,-0.559 0.574,-0.559 0.317,0 0.573,0.251 0.573,0.559 0,0.309 -0.256,0.559 -0.573,0.559 m 1.029,-2.379 c -0.317,0 -0.574,-0.25 -0.574,-0.558 0,-0.309 0.257,-0.559 0.574,-0.559 0.317,0 0.574,0.25 0.574,0.559 0,0.308 -0.257,0.558 -0.574,0.558 m 0.507,-2.533 c -0.317,0 -0.574,-0.25 -0.574,-0.559 0,-0.308 0.257,-0.558 0.574,-0.558 0.317,0 0.573,0.25 0.573,0.558 0,0.309 -0.256,0.559 -0.573,0.559 M -2.62,30.874 c 0.317,0 0.574,-0.25 0.574,-0.559 0,-0.308 -0.257,-0.558 -0.574,-0.558 -0.316,0 -0.573,0.25 -0.573,0.558 0,0.309 0.257,0.559 0.573,0.559 m -2.555,-0.696 c 0.317,0 0.574,-0.25 0.574,-0.558 0,-0.309 -0.257,-0.559 -0.574,-0.559 -0.317,0 -0.573,0.25 -0.573,0.559 0,0.308 0.256,0.558 0.573,0.558 m -2.452,-0.987 c 0.317,0 0.574,-0.25 0.574,-0.559 0,-0.308 -0.257,-0.559 -0.574,-0.559 -0.317,0 -0.573,0.251 -0.573,0.559 0,0.309 0.256,0.559 0.573,0.559 M -9.93,27.908 c 0.317,0 0.574,-0.25 0.574,-0.559 0,-0.308 -0.257,-0.559 -0.574,-0.559 -0.316,0 -0.573,0.251 -0.573,0.559 0,0.309 0.257,0.559 0.573,0.559 m -2.098,-1.581 c 0.317,0 0.574,-0.25 0.574,-0.558 0,-0.309 -0.257,-0.559 -0.574,-0.559 -0.317,0 -0.574,0.25 -0.574,0.559 0,0.308 0.257,0.558 0.574,0.558 m -1.827,-1.871 c 0.317,0 0.574,-0.251 0.574,-0.559 0,-0.309 -0.257,-0.559 -0.574,-0.559 -0.317,0 -0.574,0.25 -0.574,0.559 0,0.308 0.257,0.559 0.574,0.559 m -1.477,-2.145 c 0.317,0 0.574,-0.25 0.574,-0.559 0,-0.308 -0.257,-0.559 -0.574,-0.559 -0.316,0 -0.573,0.251 -0.573,0.559 0,0.309 0.257,0.559 0.573,0.559 m -1.029,-2.379 c 0.317,0 0.574,-0.25 0.574,-0.558 0,-0.309 -0.257,-0.559 -0.574,-0.559 -0.317,0 -0.573,0.25 -0.573,0.559 0,0.308 0.256,0.558 0.573,0.558 m -0.507,-2.533 c 0.317,0 0.574,-0.25 0.574,-0.559 0,-0.308 -0.257,-0.558 -0.574,-0.558 -0.316,0 -0.573,0.25 -0.573,0.558 0,0.309 0.257,0.559 0.573,0.559 M 2.525,-0.134 c 0.316,0 0.573,0.251 0.573,0.559 0,0.309 -0.257,0.559 -0.573,0.559 -0.317,0 -0.574,-0.25 -0.574,-0.559 0,-0.308 0.257,-0.559 0.574,-0.559 M 5.049,0 C 4.732,0 4.475,0.25 4.475,0.559 c 0,0.308 0.257,0.559 0.574,0.559 0.317,0 0.574,-0.251 0.574,-0.559 C 5.623,0.25 5.366,0 5.049,0 m 2.62,0.411 c -0.317,0 -0.574,0.25 -0.574,0.558 0,0.309 0.257,0.559 0.574,0.559 0.317,0 0.573,-0.25 0.573,-0.559 0,-0.308 -0.256,-0.558 -0.573,-0.558 m 2.555,0.695 c -0.317,0 -0.574,0.251 -0.574,0.559 0,0.309 0.257,0.559 0.574,0.559 0.317,0 0.574,-0.25 0.574,-0.559 0,-0.308 -0.257,-0.559 -0.574,-0.559 m 2.452,0.988 c -0.317,0 -0.574,0.25 -0.574,0.558 0,0.309 0.257,0.559 0.574,0.559 0.317,0 0.573,-0.25 0.573,-0.559 0,-0.308 -0.256,-0.558 -0.573,-0.558 m 2.303,1.283 c -0.317,0 -0.574,0.25 -0.574,0.559 0,0.308 0.257,0.559 0.574,0.559 0.317,0 0.573,-0.251 0.573,-0.559 0,-0.309 -0.256,-0.559 -0.573,-0.559 m 2.098,1.58 c -0.317,0 -0.574,0.25 -0.574,0.559 0,0.308 0.257,0.559 0.574,0.559 0.317,0 0.574,-0.251 0.574,-0.559 0,-0.309 -0.257,-0.559 -0.574,-0.559 m 1.827,1.872 c -0.317,0 -0.574,0.25 -0.574,0.559 0,0.308 0.257,0.559 0.574,0.559 0.317,0 0.574,-0.251 0.574,-0.559 0,-0.309 -0.257,-0.559 -0.574,-0.559 m 1.477,2.145 c -0.317,0 -0.574,0.25 -0.574,0.558 0,0.309 0.257,0.559 0.574,0.559 0.317,0 0.573,-0.25 0.573,-0.559 0,-0.308 -0.256,-0.558 -0.573,-0.558 m 1.029,2.378 c -0.317,0 -0.574,0.251 -0.574,0.559 0,0.309 0.257,0.559 0.574,0.559 0.317,0 0.574,-0.25 0.574,-0.559 0,-0.308 -0.257,-0.559 -0.574,-0.559 m 0.507,2.533 c -0.317,0 -0.574,0.251 -0.574,0.559 0,0.309 0.257,0.559 0.574,0.559 0.317,0 0.573,-0.25 0.573,-0.559 0,-0.308 -0.256,-0.559 -0.573,-0.559 M -2.62,0.411 c 0.317,0 0.574,0.25 0.574,0.558 0,0.309 -0.257,0.559 -0.574,0.559 -0.316,0 -0.573,-0.25 -0.573,-0.559 0,-0.308 0.257,-0.558 0.573,-0.558 m -2.555,0.695 c 0.317,0 0.574,0.251 0.574,0.559 0,0.309 -0.257,0.559 -0.574,0.559 -0.317,0 -0.573,-0.25 -0.573,-0.559 0,-0.308 0.256,-0.559 0.573,-0.559 m -2.452,0.988 c 0.317,0 0.574,0.25 0.574,0.558 0,0.309 -0.257,0.559 -0.574,0.559 -0.317,0 -0.573,-0.25 -0.573,-0.559 0,-0.308 0.256,-0.558 0.573,-0.558 M -9.93,3.377 c 0.317,0 0.574,0.25 0.574,0.559 0,0.308 -0.257,0.559 -0.574,0.559 -0.316,0 -0.573,-0.251 -0.573,-0.559 0,-0.309 0.257,-0.559 0.573,-0.559 m -2.098,1.58 c 0.317,0 0.574,0.25 0.574,0.559 0,0.308 -0.257,0.559 -0.574,0.559 -0.317,0 -0.574,-0.251 -0.574,-0.559 0,-0.309 0.257,-0.559 0.574,-0.559 m -1.827,1.872 c 0.317,0 0.574,0.25 0.574,0.559 0,0.308 -0.257,0.559 -0.574,0.559 -0.317,0 -0.574,-0.251 -0.574,-0.559 0,-0.309 0.257,-0.559 0.574,-0.559 m -1.477,2.145 c 0.317,0 0.574,0.25 0.574,0.558 0,0.309 -0.257,0.559 -0.574,0.559 -0.316,0 -0.573,-0.25 -0.573,-0.559 0,-0.308 0.257,-0.558 0.573,-0.558 m -1.029,2.378 c 0.317,0 0.574,0.251 0.574,0.559 0,0.309 -0.257,0.559 -0.574,0.559 -0.317,0 -0.573,-0.25 -0.573,-0.559 0,-0.308 0.256,-0.559 0.573,-0.559 m -0.507,2.533 c 0.317,0 0.574,0.251 0.574,0.559 0,0.309 -0.257,0.559 -0.574,0.559 -0.316,0 -0.573,-0.25 -0.573,-0.559 0,-0.308 0.257,-0.559 0.573,-0.559"
             style="fill:#007dc5;fill-opacity:1;fill-rule:nonzero;stroke:none"
             id="path3875"
             inkscape:connector-curvature="0" />
        </g>
        <g
           id="g3877"
           transform="translate(155.359,608.954)">
          <path
             d="m 0,0 c 0,-7.691 -8.069,-13.928 -18.019,-13.928 -9.95,0 -18.019,6.237 -18.019,13.928 0,7.691 8.069,13.928 18.019,13.928 C -8.069,13.928 0,7.691 0,0"
             style="fill:#292269;fill-opacity:1;fill-rule:nonzero;stroke:none"
             id="path3879"
             inkscape:connector-curvature="0" />
        </g>
        <g
           id="g3881"
           transform="matrix(-0.518822,-0.854882,0.86843,-0.4965,-38.0054,579.498)">
          <g
             id="g3883"
             transform="translate(-116.597,132.252)">
            <path
               d="M 0,0 C 0.278,-0.203 0.377,-0.61 0.177,-0.935 -0.022,-1.261 -0.739,-2.32 -0.879,-2.951 -1.12,-4.03 -1.24,-4.579 -1.242,-5.962 -1.243,-6.898 -0.868,-8.505 -0.391,-8.871 0.065,-9.236 0.622,-9.154 1,-8.99 c 0.378,0.163 0.815,-0.06 1.252,-0.446 0.694,-0.609 1.232,-0.588 1.868,0.145 0.18,0.184 0.319,0.103 0.119,-0.223 -0.199,-0.346 -1.055,-1.039 -2.188,-1.041 -1.113,0.018 -2.066,0.749 -2.205,1.014 -0.139,0.243 -0.139,0.04 -0.06,-0.163 0.08,-0.204 0.396,-0.956 0.754,-1.26 0.357,-0.305 1.311,-0.649 1.947,-0.689 0.636,-0.04 1.371,-0.283 1.609,-0.709 0.258,-0.427 0.655,-0.813 1.013,-0.792 0.337,0.021 0.337,-0.163 -0.18,-0.347 -0.497,-0.163 -1.789,0.059 -2.564,0.505 -0.794,0.426 -1.667,1.34 -1.846,1.625 -0.158,0.284 -0.536,0.63 -0.635,0.853 -0.099,0.244 -0.198,0.183 -0.198,-0.122 -0.021,-0.305 0.157,-0.895 -0.062,-1.302 -0.239,-0.388 -0.24,-0.733 -0.28,-1.038 -0.021,-0.326 -0.259,-0.571 -0.518,-0.693 -0.259,-0.143 -0.259,-0.021 -0.099,0.163 0.179,0.183 0.259,0.529 0.041,0.956 -0.218,0.447 -0.336,1.281 -0.057,1.79 0.279,0.529 0.678,0.775 0.678,1.1 0.001,0.325 -0.257,0.915 -0.336,1.179 -0.06,0.244 -0.179,0.488 -0.279,-0.061 -0.1,-0.57 -0.617,-0.937 -0.816,-1.019 -0.219,-0.101 -0.418,-0.183 -0.696,-0.204 -0.299,-0.021 -0.259,0.101 -0.04,0.224 0.199,0.102 0.398,0.122 0.379,0.488 -0.02,0.367 0.041,0.773 0.26,1.039 0.199,0.264 0.894,0.184 0.796,0.611 -0.138,0.773 -0.235,2.848 0.265,4.456 0.16,0.549 0.858,1.832 1.057,2.097 0.179,0.244 0.06,0.61 -0.198,0.63 C -0.139,-0.122 0,0 0,0"
               style="fill:#19459d;fill-opacity:1;fill-rule:nonzero;stroke:none"
               id="path3885"
               inkscape:connector-curvature="0" />
          </g>
        </g>
        <g
           id="g3887"
           transform="matrix(-0.999426,0.0338743,0.0359557,0.999356,-38.0054,579.498)">
          <g
             id="g3889"
             transform="translate(-162.218,31.0836)">
            <path
               d="m 0,0 c 0.559,0 0.985,-0.571 0.985,-1.257 0,-0.686 -0.426,-1.257 -0.985,-1.257 -0.538,0 -0.985,0.571 -0.985,1.257 C -0.985,-0.571 -0.537,0 0,0 M 1.295,8.485 C 1.274,8.278 1.11,8.111 0.906,8.111 c -0.204,0 -0.347,0.166 -0.347,0.374 0,0.208 0.163,0.374 0.367,0.374 0.205,0 0.369,-0.166 0.369,-0.374 M 2.758,1.728 C 3.234,1.038 3.211,0.189 2.735,-0.156 2.237,-0.501 1.444,-0.225 0.968,0.464 0.492,1.176 0.492,2.002 0.991,2.37 1.489,2.715 2.26,2.439 2.758,1.728 M 3.924,3.735 C 4.302,3.168 4.302,2.532 3.968,2.304 3.611,2.054 3.032,2.327 2.676,2.872 2.319,3.417 2.297,4.076 2.654,4.303 2.988,4.553 3.567,4.281 3.924,3.735 M 2.586,7.276 c -0.227,0 -0.414,0.167 -0.414,0.397 0.021,0.231 0.187,0.398 0.414,0.398 0.228,0 0.393,-0.188 0.393,-0.398 0,-0.23 -0.186,-0.418 -0.393,-0.397 M 2.096,6.511 C 2.321,6.848 2.928,6.848 3.444,6.489 3.983,6.153 4.253,5.592 4.028,5.278 3.803,4.941 3.197,4.941 2.68,5.3 2.141,5.637 1.871,6.197 2.096,6.511 m -9.403,-9.922 c 0.291,-0.023 0.665,-0.078 0.955,-0.045 0.396,0.046 0.675,0.208 1.024,0.718 0.325,0.509 1.232,0.856 2.256,1.087 1.023,0.232 0.907,0.834 0.907,1.227 0,0.393 0.093,0.301 0.209,0.07 0.14,-0.325 0.186,-0.949 -0.256,-1.759 -0.442,-0.787 -1.86,-1.296 -2.512,-1.459 -0.571,-0.137 -1.12,-0.096 -1.588,-0.107 1.354,-0.306 2.693,-0.374 3.962,-0.133 0.356,0.072 0.807,0.215 0.997,0.453 0.213,0.24 0.735,0.717 0.664,0.98 0.143,-0.096 0.356,-0.239 0.451,-0.239 -0.284,-0.143 -0.451,-0.406 -0.57,-0.525 -0.094,-0.12 -0.26,-0.311 -0.379,-0.383 -0.119,-0.071 -0.071,-0.143 0.237,-0.071 1.258,0.287 3.204,0.836 3.797,1.911 0.12,0.215 0.143,1.312 10e-4,1.337 0.119,0.072 0.261,0.31 0.308,0.453 0,0 0.072,-0.143 0.095,-0.166 0.143,-0.287 0,-1.028 -0.024,-1.195 C 3.203,-1.4 3.275,-1.471 3.322,-1.352 3.916,-0.206 4.414,0.893 4.035,1.919 3.987,2.11 3.892,2.087 3.892,2.087 3.987,2.11 4.225,2.277 4.225,2.277 4.201,2.038 4.319,1.943 4.343,1.776 4.391,1.585 4.462,1.37 4.438,1.084 4.414,0.821 4.557,0.821 4.652,1.155 4.913,2.158 5.435,4.283 4.13,5.119 4.178,5.19 4.225,5.381 4.249,5.477 4.32,5.286 4.51,5.166 4.628,5.023 4.723,4.88 4.937,4.617 4.937,4.427 4.913,4.259 5.056,4.307 5.032,4.641 5.032,4.975 4.652,6.432 4.273,7.029 3.869,7.602 3.276,7.554 3.11,7.458 c 0,0.072 0,0.263 -0.048,0.335 0.214,-0.048 0.333,0 0.451,-0.024 C 3.632,7.745 3.561,7.888 3.395,8.032 2.73,8.581 1.923,8.867 1.164,8.915 -4.247,9.153 -3.726,5.667 -3.061,5.356 c 0.475,-0.215 0.76,-0.095 1.044,0.072 0.285,0.168 0.784,0.263 0.95,-0.142 C -0.901,4.879 -1.233,4.688 -1.59,4.569 -1.945,4.473 -2.278,4.139 -2.041,3.662 -1.78,3.184 -1.424,3.16 -1.186,3.208 c 0.237,0.048 0.261,0.287 0.356,0.454 0.071,0.191 0.355,0.382 0.688,0.095 V 3.733 C 0,3.59 -0.095,3.423 -0.237,3.542 -0.379,3.662 -0.593,3.733 -0.688,3.399 -0.759,3.089 -1.258,2.587 -1.97,3.184 -2.681,3.781 -2.349,4.569 -2.017,4.688 -1.685,4.807 -1.21,4.855 -1.257,5.118 -1.281,5.381 -1.589,5.5 -1.874,5.285 -2.183,5.07 -2.658,4.998 -3.156,5.165 -4.153,5.5 -4.532,9.559 1.306,9.058 2.066,9.01 3.11,8.676 3.751,7.96 3.798,7.888 4.391,7.268 4.557,7.029 4.818,6.647 5.507,5.334 5.53,3.997 5.562,0.741 4.059,-1.804 1.264,-3.138 c 0.235,0.028 0.653,0.201 0.777,0.346 0.166,0.168 1.044,0.573 1.898,0.383 0.854,-0.215 1.353,-1.242 1.353,-1.648 0,-0.406 -0.285,-0.382 -0.261,-0.072 0.047,0.836 -0.641,0.693 -1.21,0.478 -0.57,-0.215 -1.045,0 -1.33,0.238 C 2.23,-3.174 2.064,-3.15 1.756,-3.246 1.424,-3.341 1.091,-3.413 0.569,-3.437 c 0.076,0.013 0.185,0.06 0.299,0.119 -0.421,-0.177 -0.869,-0.325 -1.343,-0.448 0.807,-0.158 1.813,-0.63 2.453,-1.541 0.664,-0.979 0.546,-2.148 0.332,-2.555 -0.19,-0.429 -0.285,-0.19 -0.237,0.072 0.071,0.454 -0.095,1.003 -0.712,1.146 -0.238,0.048 -0.665,0.048 -0.831,0.621 -0.142,0.502 0.143,0.788 -0.403,1.552 -0.192,0.28 -0.591,0.476 -1.221,0.565 -0.839,-0.168 -1.744,-0.264 -2.728,-0.265 -0.417,0 -0.805,0.023 -1.18,0.054 0.202,-0.145 0.559,-0.358 1.085,-0.512 0.546,-0.167 1.282,-0.119 1.899,-1.145 0.617,-1.027 0.498,-1.314 0.403,-1.791 -0.071,-0.287 -0.214,-0.382 -0.332,0.047 -0.119,0.43 -0.427,0.669 -0.902,0.884 -0.451,0.215 -0.926,0.453 -1.4,1.146 -0.456,0.689 -0.636,1.112 -1.663,1.483 -2.472,0.382 -3.957,1.365 -4.958,1.935 -0.119,0.167 -0.356,0.406 -0.617,0.716 1.359,-0.922 2.771,-1.614 4.18,-2.057"
               style="fill:#19459d;fill-opacity:1;fill-rule:nonzero;stroke:none"
               id="path3891"
               inkscape:connector-curvature="0" />
          </g>
        </g>
        <g
           id="g3893"
           transform="matrix(0.518822,-0.854882,-0.86843,-0.4965,302.539,579.498)">
          <g
             id="g3895"
             transform="translate(-111.56,123.579)">
            <path
               d="M 0,0 C 0.278,-0.203 0.377,-0.61 0.177,-0.935 -0.022,-1.261 -0.739,-2.32 -0.879,-2.951 -1.12,-4.03 -1.24,-4.579 -1.242,-5.962 -1.243,-6.898 -0.868,-8.505 -0.391,-8.871 0.065,-9.236 0.622,-9.154 1,-8.99 c 0.378,0.163 0.815,-0.06 1.252,-0.446 0.694,-0.609 1.232,-0.588 1.868,0.145 0.18,0.184 0.319,0.102 0.119,-0.223 -0.199,-0.346 -1.055,-1.039 -2.188,-1.041 -1.113,0.018 -2.066,0.749 -2.205,1.014 -0.139,0.243 -0.139,0.04 -0.06,-0.163 0.08,-0.204 0.396,-0.956 0.754,-1.261 0.357,-0.304 1.311,-0.648 1.947,-0.688 0.636,-0.04 1.371,-0.283 1.609,-0.709 0.258,-0.427 0.655,-0.813 1.013,-0.792 0.337,0.021 0.337,-0.163 -0.18,-0.347 -0.497,-0.163 -1.789,0.059 -2.564,0.505 -0.794,0.426 -1.667,1.34 -1.846,1.625 -0.158,0.284 -0.536,0.63 -0.635,0.853 -0.099,0.244 -0.198,0.183 -0.198,-0.122 -0.021,-0.305 0.157,-0.895 -0.062,-1.302 -0.239,-0.388 -0.24,-0.733 -0.28,-1.038 -0.021,-0.326 -0.259,-0.571 -0.518,-0.693 -0.259,-0.143 -0.259,-0.021 -0.099,0.163 0.179,0.183 0.259,0.529 0.041,0.956 -0.218,0.447 -0.336,1.281 -0.057,1.79 0.279,0.529 0.678,0.775 0.678,1.1 0.001,0.325 -0.257,0.915 -0.336,1.179 -0.06,0.244 -0.179,0.488 -0.279,-0.061 -0.1,-0.57 -0.617,-0.937 -0.816,-1.019 -0.219,-0.101 -0.418,-0.184 -0.696,-0.204 -0.299,-0.021 -0.259,0.101 -0.04,0.224 0.199,0.102 0.398,0.122 0.379,0.488 -0.02,0.367 0.041,0.773 0.26,1.039 0.199,0.264 0.894,0.184 0.796,0.611 -0.138,0.773 -0.235,2.848 0.265,4.456 0.16,0.549 0.858,1.832 1.057,2.097 0.179,0.244 0.06,0.61 -0.198,0.63 C -0.139,-0.122 0,0 0,0"
               style="fill:#19459d;fill-opacity:1;fill-rule:nonzero;stroke:none"
               id="path3897"
               inkscape:connector-curvature="0" />
          </g>
        </g>
        <g
           id="g3899"
           transform="matrix(0.999426,0.0338743,-0.0359557,0.999356,302.539,579.498)">
          <g
             id="g3901"
             transform="translate(-152.078,30.74)">
            <path
               d="m 0,0 c 0.559,0 0.985,-0.571 0.985,-1.257 0,-0.686 -0.426,-1.257 -0.985,-1.257 -0.538,0 -0.985,0.571 -0.985,1.257 C -0.985,-0.571 -0.537,0 0,0 M 1.295,8.485 C 1.274,8.278 1.11,8.111 0.906,8.111 c -0.204,0 -0.347,0.166 -0.347,0.374 0,0.208 0.163,0.374 0.367,0.374 0.205,0 0.369,-0.166 0.369,-0.374 M 2.758,1.728 C 3.234,1.038 3.211,0.189 2.735,-0.156 2.237,-0.501 1.444,-0.225 0.968,0.464 0.492,1.176 0.492,2.002 0.991,2.37 1.489,2.715 2.26,2.439 2.758,1.728 M 3.924,3.735 C 4.302,3.168 4.302,2.532 3.968,2.304 3.611,2.054 3.032,2.327 2.676,2.872 2.319,3.417 2.297,4.076 2.654,4.303 2.988,4.553 3.567,4.281 3.924,3.735 M 2.586,7.276 c -0.227,0 -0.414,0.167 -0.414,0.397 0.021,0.231 0.187,0.398 0.414,0.398 0.228,0 0.393,-0.188 0.393,-0.398 0,-0.23 -0.186,-0.418 -0.393,-0.397 M 2.096,6.511 C 2.321,6.848 2.928,6.848 3.444,6.489 3.983,6.153 4.253,5.592 4.028,5.278 3.803,4.941 3.197,4.941 2.68,5.3 2.141,5.637 1.871,6.197 2.096,6.511 m -9.403,-9.922 c 0.291,-0.023 0.665,-0.078 0.955,-0.045 0.396,0.046 0.675,0.208 1.024,0.718 0.325,0.509 1.232,0.856 2.256,1.087 1.023,0.232 0.907,0.834 0.907,1.227 0,0.393 0.093,0.301 0.209,0.07 0.14,-0.325 0.186,-0.949 -0.256,-1.759 -0.442,-0.787 -1.86,-1.296 -2.512,-1.459 -0.571,-0.137 -1.12,-0.096 -1.588,-0.107 1.354,-0.306 2.693,-0.374 3.962,-0.133 0.356,0.072 0.807,0.215 0.997,0.453 0.213,0.24 0.735,0.717 0.664,0.98 0.143,-0.096 0.356,-0.239 0.451,-0.239 -0.284,-0.143 -0.451,-0.406 -0.57,-0.525 -0.094,-0.12 -0.26,-0.311 -0.379,-0.383 -0.119,-0.071 -0.071,-0.143 0.237,-0.071 1.258,0.287 3.204,0.836 3.797,1.911 0.12,0.215 0.143,1.312 10e-4,1.337 0.119,0.072 0.261,0.31 0.308,0.453 0,0 0.072,-0.143 0.095,-0.166 0.143,-0.287 0,-1.028 -0.024,-1.195 C 3.203,-1.4 3.275,-1.471 3.322,-1.352 3.916,-0.206 4.414,0.893 4.035,1.919 3.987,2.11 3.892,2.087 3.892,2.087 3.987,2.11 4.225,2.277 4.225,2.277 4.201,2.038 4.319,1.943 4.343,1.776 4.391,1.585 4.462,1.37 4.438,1.084 4.414,0.821 4.557,0.821 4.652,1.155 4.913,2.158 5.435,4.283 4.13,5.119 4.178,5.19 4.225,5.381 4.249,5.477 4.32,5.286 4.51,5.166 4.628,5.023 4.723,4.88 4.937,4.617 4.937,4.427 4.913,4.259 5.056,4.307 5.032,4.641 5.032,4.975 4.652,6.432 4.273,7.029 3.869,7.602 3.276,7.554 3.11,7.458 c 0,0.072 0,0.263 -0.048,0.335 0.214,-0.048 0.333,0 0.451,-0.024 C 3.632,7.745 3.561,7.888 3.395,8.032 2.73,8.581 1.923,8.867 1.164,8.915 -4.247,9.153 -3.726,5.667 -3.061,5.356 c 0.475,-0.215 0.76,-0.095 1.044,0.072 0.285,0.168 0.784,0.263 0.95,-0.142 C -0.901,4.879 -1.233,4.688 -1.59,4.569 -1.945,4.473 -2.278,4.139 -2.041,3.662 -1.78,3.184 -1.424,3.16 -1.186,3.208 c 0.237,0.048 0.261,0.287 0.356,0.454 0.071,0.191 0.355,0.382 0.688,0.095 V 3.733 C 0,3.59 -0.095,3.423 -0.237,3.542 -0.379,3.662 -0.593,3.733 -0.688,3.399 -0.759,3.089 -1.258,2.587 -1.97,3.184 -2.681,3.781 -2.349,4.569 -2.017,4.688 -1.685,4.807 -1.21,4.855 -1.257,5.118 -1.281,5.381 -1.589,5.5 -1.874,5.285 -2.183,5.07 -2.658,4.998 -3.156,5.165 -4.153,5.5 -4.532,9.559 1.306,9.058 2.066,9.01 3.11,8.676 3.751,7.96 3.798,7.888 4.391,7.268 4.557,7.029 4.818,6.647 5.507,5.334 5.53,3.997 5.562,0.741 4.059,-1.804 1.264,-3.138 c 0.235,0.028 0.653,0.201 0.777,0.346 0.166,0.168 1.044,0.573 1.898,0.383 0.854,-0.215 1.353,-1.242 1.353,-1.648 0,-0.406 -0.285,-0.382 -0.261,-0.072 0.047,0.836 -0.641,0.693 -1.21,0.478 -0.57,-0.215 -1.045,0 -1.33,0.238 C 2.23,-3.174 2.064,-3.15 1.756,-3.246 1.424,-3.341 1.091,-3.413 0.569,-3.437 c 0.076,0.013 0.185,0.06 0.299,0.119 -0.421,-0.177 -0.869,-0.325 -1.343,-0.448 0.807,-0.158 1.813,-0.63 2.453,-1.541 0.664,-0.979 0.546,-2.148 0.332,-2.555 -0.19,-0.429 -0.285,-0.19 -0.237,0.072 0.071,0.454 -0.095,1.003 -0.712,1.146 -0.238,0.048 -0.665,0.048 -0.831,0.621 -0.142,0.502 0.143,0.788 -0.403,1.552 -0.192,0.28 -0.591,0.476 -1.221,0.565 -0.839,-0.168 -1.744,-0.264 -2.728,-0.265 -0.417,0 -0.805,0.023 -1.18,0.054 0.202,-0.145 0.559,-0.358 1.085,-0.512 0.546,-0.167 1.282,-0.119 1.899,-1.145 0.617,-1.027 0.498,-1.314 0.403,-1.791 -0.071,-0.287 -0.214,-0.382 -0.332,0.047 -0.119,0.43 -0.427,0.669 -0.902,0.884 -0.451,0.215 -0.926,0.453 -1.4,1.146 -0.456,0.689 -0.636,1.112 -1.663,1.483 -2.472,0.382 -3.957,1.365 -4.958,1.935 -0.119,0.167 -0.356,0.406 -0.617,0.716 1.359,-0.922 2.771,-1.614 4.18,-2.057"
               style="fill:#19459d;fill-opacity:1;fill-rule:nonzero;stroke:none"
               id="path3903"
               inkscape:connector-curvature="0" />
          </g>
        </g>
        <g
           id="g3905"
           transform="matrix(0.836653,-0.547733,-0.570893,-0.821491,-37.2486,549.712)">
          <g
             id="g3907"
             transform="translate(119.295,-141.825)">
            <path
               d="m 0,0 c 0.156,-0.17 0.493,-0.361 0.493,-0.361 0.176,-2.106 -0.927,-4.257 -1.848,-5.003 -0.202,-0.171 -0.517,-0.533 -0.248,-0.831 0.246,-0.298 0.11,-0.936 -0.474,-1.405 -0.584,-0.469 -1.146,-0.981 -1.124,-1.406 0.022,-0.447 -0.314,-0.299 -0.493,-0.022 -0.202,0.254 -0.201,0.978 0.204,1.489 0.427,0.491 0.831,0.832 0.899,0.959 0.068,0.15 0.202,0.256 -0.135,0.107 -1.482,-0.684 -3.794,-1.347 -5.655,-0.329 -2.107,1.146 -1.408,3.062 -0.465,3.532 0.337,0.171 0.606,0.086 0.247,-0.34 -0.382,-0.405 -0.609,-1.171 -0.25,-1.575 0.695,-0.808 1.323,-0.317 2.063,-0.741 0.717,-0.446 0.873,-0.978 1.435,-0.935 0.538,0.044 1.638,0.322 2.312,0.664 0.18,0.085 0.337,0.298 -0.045,0.213 -0.404,-0.108 -1.212,-0.109 -1.615,0.295 -0.56,0.573 -0.334,1.297 0.07,1.702 0.202,0.213 0.337,0.043 0.315,-0.233 -0.024,-0.256 0.312,-0.659 0.716,-0.616 0.382,0.043 1.324,0.108 1.526,-0.125 0.179,-0.213 0.403,-0.149 0.583,-0.021 0.314,0.277 0.876,0.981 1.125,1.598 0.089,0.213 0.224,0.575 -0.135,0.234 -0.382,-0.362 -1.033,-1.002 -1.886,-0.876 -0.853,0.127 -1.682,0.615 -1.927,1.189 -0.09,0.234 0.179,0.341 0.448,0.128 0.269,-0.191 0.74,-0.318 1.279,-0.146 0.562,0.192 1.033,0.363 1.526,0.278 0.539,-0.084 0.719,0.193 0.898,0.47 C 0.019,-1.851 0.2,-0.765 0,0"
               style="fill:#19459d;fill-opacity:1;fill-rule:nonzero;stroke:none"
               id="path3909"
               inkscape:connector-curvature="0" />
          </g>
        </g>
        <g
           id="g3911"
           transform="matrix(-0.836653,-0.547733,0.570893,-0.821491,-37.2486,549.712)">
          <g
             id="g3913"
             transform="translate(-167.55,49.4301)">
            <path
               d="m 0,0 c 0.156,-0.17 0.493,-0.361 0.493,-0.361 0.176,-2.106 -0.927,-4.257 -1.848,-5.003 -0.202,-0.171 -0.517,-0.533 -0.248,-0.831 0.246,-0.298 0.11,-0.936 -0.474,-1.405 -0.584,-0.469 -1.146,-0.981 -1.124,-1.406 0.022,-0.447 -0.314,-0.299 -0.493,-0.022 -0.202,0.254 -0.201,0.978 0.204,1.489 0.427,0.491 0.831,0.832 0.899,0.959 0.068,0.15 0.202,0.256 -0.135,0.107 -1.482,-0.684 -3.794,-1.347 -5.655,-0.329 -2.107,1.146 -1.408,3.062 -0.465,3.532 0.337,0.171 0.606,0.086 0.247,-0.34 -0.382,-0.405 -0.609,-1.171 -0.25,-1.575 0.695,-0.808 1.323,-0.317 2.063,-0.741 0.717,-0.446 0.873,-0.978 1.435,-0.935 0.538,0.044 1.638,0.322 2.312,0.664 0.18,0.085 0.337,0.298 -0.045,0.213 -0.404,-0.108 -1.212,-0.109 -1.615,0.295 -0.56,0.573 -0.334,1.297 0.07,1.702 0.202,0.213 0.337,0.043 0.315,-0.233 -0.024,-0.256 0.312,-0.659 0.716,-0.616 0.382,0.043 1.324,0.108 1.526,-0.125 0.179,-0.213 0.403,-0.149 0.583,-0.021 0.314,0.277 0.876,0.981 1.125,1.598 0.089,0.213 0.224,0.575 -0.135,0.234 -0.382,-0.362 -1.033,-1.002 -1.886,-0.876 -0.853,0.127 -1.682,0.615 -1.927,1.189 -0.09,0.234 0.179,0.341 0.448,0.128 0.269,-0.191 0.74,-0.318 1.279,-0.146 0.562,0.192 1.033,0.363 1.526,0.278 0.539,-0.084 0.719,0.193 0.898,0.47 C 0.019,-1.851 0.2,-0.765 0,0"
               style="fill:#19459d;fill-opacity:1;fill-rule:nonzero;stroke:none"
               id="path3915"
               inkscape:connector-curvature="0" />
          </g>
        </g>
        <g
           id="g3917"
           transform="matrix(0.812227,0.583341,0.606531,-0.795572,-37.4117,549.712)">
          <g
             id="g3919"
             transform="translate(187.085,46.6345)">
            <path
               d="m 0,0 c -0.192,-0.366 -0.701,-1.062 -1.548,-1.255 -0.849,-0.193 -2.087,-0.147 -2.259,-0.122 -0.172,0.024 -0.234,-0.193 -0.036,-0.328 0.199,-0.135 0.863,-0.473 1.199,-0.826 0.549,-0.578 0.755,-1.357 0.727,-2.015 -0.012,-0.288 -0.18,-0.212 -0.191,0.036 -0.012,0.249 -0.171,0.561 -0.472,0.704 -0.3,0.144 -0.769,0.631 -0.916,0.964 -0.148,0.332 -0.316,0.742 -0.421,0.834 -0.105,0.091 -0.168,0.076 -0.34,0.033 -0.172,-0.042 -0.457,0.172 -0.503,0.294 -0.047,0.123 -0.156,0.23 -0.261,0.254 -0.106,0.024 -0.512,0.192 -0.68,0.268 -0.168,0.076 -0.258,0.104 -0.09,-0.106 0.281,-0.352 0.523,-1.326 0.407,-1.726 -0.062,-0.217 -0.168,-0.126 -0.238,0.092 -0.07,0.217 -0.355,0.499 -0.561,0.733 -0.207,0.233 -0.269,0.821 -0.288,1.034 -0.019,0.213 0.056,0.248 -0.245,0.459 -0.582,0.407 -1.088,0.794 -1.577,1.349 0.096,-0.213 0.177,-0.423 0.23,-0.62 0.371,-1.39 0.027,-2.796 -0.583,-3.807 -0.266,-0.443 -0.466,-0.177 -0.271,0.224 0.196,0.401 0.212,1.033 -0.139,1.522 -0.351,0.489 -0.672,1.666 -0.62,2.317 0.051,0.653 0.14,1.446 0.052,1.682 -0.088,0.236 -0.199,0.266 -0.508,0.35 -0.308,0.083 -0.574,0.67 -0.543,0.903 0.032,0.235 -0.048,0.498 -0.194,0.628 -0.146,0.131 -0.643,0.751 -0.843,1.016 -0.2,0.267 -0.891,1.06 -1.185,1.655 -1.082,2.189 -1.802,4.028 -1.651,7.912 -0.169,3.999 0.617,1.471 0.56,0.571 0.085,-2.988 0.508,-6.3 1.738,-7.963 0.209,-0.282 0.259,-1.069 0.529,-1.415 0.268,-0.345 1.139,-1.369 1.27,-1.555 0.131,-0.187 0.659,-0.119 0.986,-0.359 0.327,-0.241 0.926,-0.693 1.66,-0.875 1.352,-0.337 1.809,0.144 2.679,0.029 0.87,-0.115 1.507,-0.318 1.939,-0.617 0.431,-0.299 1.12,-0.305 1.411,-0.111 0.291,0.193 0.681,-0.033 0.063,-0.44 C -2.33,1.314 -3.732,0.666 -5.236,1.104 -6.741,1.544 -8.658,2.7 -8.908,2.89 -9.056,3.001 -9.213,2.945 -9.279,2.802 c 0.8,-1.315 1.789,-2.609 2.739,-3.046 0.177,-0.081 0.668,-0.287 1.032,-0.013 0.363,0.274 0.836,0.442 1.074,0.35 0.239,-0.092 0.477,0.017 0.571,0.175 0.094,0.157 0.305,0.108 0.18,-0.191 -0.126,-0.299 -0.634,-0.659 -1.181,-0.728 -0.547,-0.068 -1.012,0.002 -1.168,0.03 -0.157,0.028 -0.098,-0.075 0.124,-0.17 0.223,-0.096 0.918,-0.36 1.031,-0.415 0.113,-0.056 0.352,0.12 0.574,0.091 0.223,-0.029 0.634,-0.087 1.04,0.023 0.746,0.201 0.84,0.559 1.294,0.739 0.453,0.179 0.817,0.252 1.106,0.223 0.289,-0.029 0.625,0.155 0.715,0.328 C -0.057,0.371 0.192,0.366 0,0"
               style="fill:#19459d;fill-opacity:1;fill-rule:nonzero;stroke:none"
               id="path3921"
               inkscape:connector-curvature="0" />
          </g>
        </g>
        <g
           id="g3923"
           transform="matrix(-0.971945,-0.235206,0.248829,-0.968649,-37.4117,549.712)">
          <g
             id="g3925"
             transform="translate(-182.118,-19.2)">
            <path
               d="M 0,0 C 0.511,-0.394 1.133,-0.306 1.556,-0.13 1.978,0.046 2.467,-0.195 2.955,-0.612 3.732,-1.27 4.333,-1.247 5.044,-0.457 5.245,-0.259 5.4,-0.347 5.178,-0.698 4.955,-1.071 3.999,-1.818 2.732,-1.819 1.487,-1.798 0.421,-1.009 0.266,-0.724 0.111,-0.461 0.111,-0.68 0.199,-0.899 0.288,-1.119 0.643,-1.931 1.043,-2.26 1.442,-2.589 2.509,-2.96 3.22,-3.004 3.931,-3.047 4.753,-3.31 5.02,-3.77 5.308,-4.231 5.752,-4.648 6.152,-4.625 6.53,-4.603 6.53,-4.801 5.952,-4.999 5.396,-5.175 3.952,-4.934 3.085,-4.452 2.197,-3.992 1.22,-3.005 1.02,-2.698 0.842,-2.391 0.421,-2.018 0.309,-1.777 0.199,-1.514 0.088,-1.58 0.088,-1.909 0.065,-2.238 0.264,-2.874 0.019,-3.314 -0.247,-3.731 -0.248,-4.104 -0.293,-4.433 -0.315,-4.784 -0.582,-5.048 -0.871,-5.18 -1.16,-5.334 -1.16,-5.202 -0.982,-5.005 c 0.2,0.198 0.289,0.572 0.045,1.032 -0.244,0.483 -0.377,1.382 -0.065,1.931 0.312,0.571 0.757,0.835 0.757,1.186 0,0.351 -1.062,1.659 -1.15,1.945 C -1.462,1.352 -1.598,1.919 0,0"
               style="fill:#19459d;fill-opacity:1;fill-rule:nonzero;stroke:none"
               id="path3927"
               inkscape:connector-curvature="0" />
          </g>
        </g>
        <g
           id="g3929"
           transform="matrix(-0.971945,-0.235206,0.248829,-0.968649,-37.4117,549.712)">
          <g
             id="g3931"
             transform="translate(-183.64,-12.9877)">
            <path
               d="m 0,0 c 0.141,-0.165 0.13,-0.337 0.13,-0.337 0.161,-2.05 -1.126,-4.107 -1.958,-4.832 -0.183,-0.166 -0.468,-0.518 -0.225,-0.808 0.224,-0.29 0.101,-0.911 -0.427,-1.367 -0.528,-0.456 -1.035,-0.953 -1.015,-1.367 0.02,-0.435 -0.284,-0.291 -0.446,-0.021 -0.183,0.248 -0.182,0.952 0.183,1.449 0.386,0.477 0.751,0.808 0.813,0.933 0.061,0.145 0.182,0.248 -0.122,0.103 -1.34,-0.664 -3.43,-1.307 -5.113,-0.315 -1.906,1.117 -1.275,2.981 -0.423,3.438 0.304,0.166 0.548,0.083 0.223,-0.331 -0.345,-0.394 -0.549,-1.14 -0.225,-1.533 0.629,-0.787 1.197,-0.31 1.866,-0.723 0.649,-0.435 0.791,-0.952 1.298,-0.911 0.487,0.042 1.481,0.312 2.09,0.644 0.163,0.083 0.305,0.29 -0.04,0.207 -0.365,-0.104 -1.096,-0.104 -1.461,0.289 -0.506,0.559 -0.303,1.263 0.062,1.657 0.183,0.207 0.305,0.041 0.285,-0.228 -0.021,-0.248 0.283,-0.642 0.648,-0.6 0.345,0.042 1.197,0.105 1.38,-0.123 0.162,-0.207 0.364,-0.145 0.527,-0.02 0.284,0.269 0.792,0.953 1.016,1.554 0.081,0.207 0.203,0.559 -0.122,0.227 -0.345,-0.352 -0.934,-0.974 -1.705,-0.85 -0.771,0.124 -1.521,0.599 -1.743,1.158 -0.082,0.228 0.162,0.332 0.405,0.125 0.244,-0.187 0.669,-0.31 1.157,-0.144 0.507,0.186 0.933,0.353 1.379,0.27 0.487,-0.082 0.65,0.187 0.812,0.456 0.163,0.249 0.617,1.269 0.435,2.014 z"
               style="fill:#19459d;fill-opacity:1;fill-rule:nonzero;stroke:none"
               id="path3933"
               inkscape:connector-curvature="0" />
          </g>
        </g>
        <g
           id="g3935"
           transform="matrix(0.876536,0.481335,0.503767,-0.864218,-37.4117,549.712)">
          <g
             id="g3937"
             transform="translate(179.686,41.2144)">
            <path
               d="m 0,0 c 0.141,-0.167 0.1,-0.541 0.1,-0.541 0.166,-2.06 -0.821,-4.16 -1.647,-4.887 -0.182,-0.166 -0.464,-0.52 -0.221,-0.811 0.223,-0.292 0.102,-0.916 -0.422,-1.373 -0.525,-0.457 -1.028,-0.955 -1.007,-1.371 0.02,-0.437 -0.282,-0.292 -0.444,-0.02 -0.183,0.249 -0.184,0.957 0.179,1.456 0.383,0.478 0.745,0.81 0.806,0.934 0.061,0.146 0.182,0.25 -0.121,0.105 -1.332,-0.664 -3.411,-1.306 -5.088,-0.304 -1.9,1.126 -1.277,2.998 -0.43,3.454 0.303,0.166 0.546,0.082 0.223,-0.333 -0.342,-0.395 -0.543,-1.144 -0.22,-1.54 0.628,-0.791 1.192,-0.314 1.859,-0.73 0.647,-0.439 0.789,-0.959 1.294,-0.918 0.484,0.041 1.474,0.31 2.079,0.642 0.161,0.083 0.302,0.291 -0.041,0.208 -0.363,-0.104 -1.09,-0.102 -1.454,0.294 -0.506,0.562 -0.305,1.269 0.058,1.664 0.181,0.208 0.302,0.041 0.283,-0.229 -0.02,-0.25 0.283,-0.646 0.647,-0.605 0.343,0.041 1.191,0.102 1.373,-0.127 0.162,-0.208 0.363,-0.146 0.525,-0.021 0.282,0.27 0.786,0.956 1.007,1.558 0.08,0.209 0.201,0.562 -0.121,0.23 -0.343,-0.353 -0.927,-0.977 -1.695,-0.851 -0.768,0.126 -1.516,0.606 -1.738,1.168 -0.082,0.229 0.16,0.333 0.403,0.124 0.243,-0.188 0.667,-0.313 1.151,-0.147 0.505,0.186 0.929,0.352 1.373,0.268 0.485,-0.084 0.646,0.187 0.807,0.457 0.161,0.249 0.536,1.425 0.353,2.174 z"
               style="fill:#19459d;fill-opacity:1;fill-rule:nonzero;stroke:none"
               id="path3939"
               inkscape:connector-curvature="0" />
          </g>
        </g>
        <g
           id="g3941"
           transform="matrix(-0.863833,-0.503778,0.52655,-0.850553,-37.4117,549.712)">
          <g
             id="g3943"
             transform="translate(-169.24,45.6771)">
            <path
               d="m 0,0 c -0.193,-0.366 -0.706,-1.061 -1.556,-1.257 -0.851,-0.195 -2.092,-0.154 -2.264,-0.13 -0.172,0.024 -0.236,-0.192 -0.037,-0.326 0.199,-0.135 0.863,-0.47 1.198,-0.821 0.549,-0.574 0.753,-1.351 0.723,-2.008 -0.014,-0.288 -0.181,-0.212 -0.192,0.036 -0.011,0.247 -0.169,0.559 -0.47,0.701 -0.301,0.142 -0.769,0.627 -0.916,0.958 -0.147,0.331 -0.313,0.74 -0.419,0.831 -0.105,0.091 -0.167,0.075 -0.34,0.032 -0.173,-0.043 -0.458,0.17 -0.504,0.292 -0.046,0.122 -0.155,0.228 -0.261,0.252 -0.105,0.024 -0.512,0.19 -0.68,0.265 -0.168,0.075 -0.258,0.103 -0.091,-0.106 0.281,-0.35 0.521,-1.321 0.403,-1.721 -0.064,-0.216 -0.169,-0.125 -0.238,0.091 -0.07,0.217 -0.355,0.497 -0.561,0.729 -0.206,0.233 -0.266,0.819 -0.285,1.032 -0.018,0.212 0.057,0.248 -0.244,0.457 -0.581,0.404 -1.088,0.788 -1.576,1.34 -1.017,1.025 -0.791,-4.175 -1.387,-0.367 0.053,0.651 0.145,1.443 0.058,1.678 -0.088,0.235 -0.2,0.265 -0.509,0.348 -0.308,0.082 -0.572,0.667 -0.54,0.899 0.032,0.234 -0.048,0.497 -0.193,0.626 -0.146,0.13 -0.642,0.747 -0.841,1.011 -0.201,0.265 -0.277,1.102 -0.008,0.759 0.268,-0.344 1.138,-1.363 1.268,-1.549 0.131,-0.186 0.66,-0.116 0.987,-0.355 0.327,-0.238 0.926,-0.687 1.662,-0.867 1.354,-0.331 1.813,0.15 2.685,0.038 0.872,-0.112 1.509,-0.313 1.941,-0.61 0.431,-0.296 1.121,-0.3 1.414,-0.106 0.292,0.194 0.683,-0.031 0.062,-0.439 -0.62,-0.409 -2.027,-1.061 -3.533,-0.628 -1.508,0.433 -3.425,1.58 -3.675,1.769 -0.148,0.111 -0.306,0.054 -0.372,-0.089 0.798,-1.309 1.784,-2.596 2.735,-3.03 0.177,-0.08 0.668,-0.284 1.034,-0.009 0.365,0.275 0.84,0.443 1.078,0.352 0.239,-0.09 0.479,0.019 0.573,0.176 0.095,0.158 0.306,0.11 0.18,-0.189 -0.128,-0.299 -0.638,-0.66 -1.187,-0.73 -0.548,-0.07 -1.014,-0.002 -1.17,0.026 -0.157,0.028 -0.099,-0.075 0.124,-0.169 0.223,-0.095 0.919,-0.356 1.032,-0.411 0.113,-0.056 0.353,0.121 0.576,0.093 0.223,-0.028 0.635,-0.085 1.041,0.026 0.749,0.203 0.845,0.561 1.3,0.741 0.455,0.181 0.82,0.255 1.11,0.227 0.289,-0.028 0.627,0.156 0.718,0.329 C -0.056,0.37 0.194,0.366 0,0"
               style="fill:#19459d;fill-opacity:1;fill-rule:nonzero;stroke:none"
               id="path3945"
               inkscape:connector-curvature="0" />
          </g>
        </g>
        <g
           id="g3947"
           transform="matrix(0.705315,0.708894,0.729939,-0.684163,-37.4117,549.712)">
          <g
             id="g3949"
             transform="translate(159.382,87.0887)">
            <path
               d="M 0,0 C -0.047,0.155 -0.036,0.502 0.046,0.49 0.122,0.332 0.427,0.39 0.617,0.188 0.806,-0.015 1.153,-0.396 1.578,-0.55 2.361,-0.834 2.625,-0.428 3.129,-0.524 3.633,-0.621 4.001,-0.793 4.251,-1.045 4.501,-1.296 4.9,-1.301 5.068,-1.138 5.237,-0.974 5.463,-1.165 5.105,-1.509 4.748,-1.854 3.937,-2.402 3.066,-2.033 2.194,-1.663 1.085,-0.688 0.939,-0.527 0.854,-0.433 0.763,-0.481 0.725,-0.601 0.513,-0.721 0.536,-0.656 0.389,-0.645 0.036,-0.462 0.165,-0.44 0,0"
               style="fill:#19459d;fill-opacity:1;fill-rule:nonzero;stroke:none"
               id="path3951"
               inkscape:connector-curvature="0" />
          </g>
        </g>
        <g
           id="g3953"
           transform="translate(122.583,608.091)">
          <path
             d="m 0,0 c -0.488,0.023 -0.946,0.057 -1.404,0.063 -0.276,0.004 -0.343,0.148 -0.364,0.378 -0.022,0.229 0.009,0.39 0.288,0.429 0.154,0.022 0.3,0.095 0.451,0.141 0.912,0.28 0.913,0.279 0.857,1.299 -0.515,0.164 -1.048,0.334 -1.57,0.5 -0.043,0.706 -0.038,0.711 0.627,0.725 0.159,0.003 0.319,0.025 0.475,0.006 C -0.157,3.482 0.091,3.638 0.194,4.145 0.265,4.498 0.233,4.687 -0.098,4.838 -0.297,4.929 -0.474,5.064 -0.661,5.18 -1.184,5.501 -1.184,5.501 -0.871,6.114 -0.459,6.027 -0.025,5.962 0.391,5.84 0.711,5.745 0.891,5.807 1.012,6.114 1.085,6.298 1.213,6.462 1.332,6.662 0.961,7.061 0.591,7.459 0.185,7.897 0.312,8.068 0.437,8.237 0.592,8.444 0.966,8.256 1.341,8.098 1.681,7.887 2.002,7.687 2.238,7.673 2.476,7.998 2.583,8.144 2.757,8.243 2.91,8.37 2.633,8.895 2.381,9.372 2.107,9.891 c 0.171,0.135 0.338,0.267 0.535,0.423 0.43,-0.382 0.847,-0.753 1.249,-1.111 0.064,0.015 0.098,0.015 0.123,0.029 0.848,0.474 0.848,0.474 0.623,1.436 -0.168,0.721 -0.168,0.721 0.506,0.892 0.24,-0.367 0.496,-0.736 0.728,-1.121 0.128,-0.213 0.277,-0.289 0.5,-0.165 0.254,0.142 0.722,-0.052 0.739,0.464 0.014,0.447 0.055,0.892 0.083,1.334 0.637,0.194 0.637,0.194 0.823,-0.378 0.066,-0.206 0.152,-0.408 0.194,-0.618 0.073,-0.362 0.256,-0.469 0.65,-0.484 0.499,-0.019 0.709,0.149 0.797,0.604 0.064,0.329 0.205,0.643 0.322,0.995 0.214,-0.016 0.414,-0.03 0.724,-0.052 0,-0.446 0.012,-0.886 -0.003,-1.325 -0.019,-0.567 0.486,-0.4 0.769,-0.546 0.275,-0.142 0.396,0.017 0.521,0.22 0.227,0.368 0.471,0.727 0.719,1.107 0.217,-0.086 0.403,-0.16 0.627,-0.25 -0.095,-0.42 -0.162,-0.829 -0.284,-1.221 C 12.95,9.793 13.04,9.608 13.361,9.483 13.535,9.415 13.69,9.3 13.899,9.182 c 0.199,0.172 0.409,0.352 0.616,0.534 0.211,0.185 0.42,0.374 0.661,0.588 0.178,-0.129 0.35,-0.253 0.552,-0.4 C 15.462,9.4 15.205,8.912 14.953,8.435 15.646,7.633 15.646,7.634 16.56,8.104 16.769,8.211 16.979,8.315 17.221,8.437 17.36,8.268 17.495,8.103 17.654,7.909 17.261,7.487 16.881,7.078 16.495,6.663 c 0.186,-0.31 0.359,-0.599 0.54,-0.9 0.557,0.119 1.096,0.234 1.629,0.348 C 19.055,5.529 19.054,5.529 18.469,5.166 18.163,4.977 17.857,4.787 17.568,4.608 17.56,4.547 17.546,4.515 17.553,4.488 17.816,3.558 17.816,3.557 18.821,3.538 19.041,3.534 19.261,3.537 19.48,3.537 19.525,3.39 19.565,3.289 19.584,3.185 19.604,3.081 19.601,2.973 19.611,2.825 19.076,2.654 18.542,2.484 18.031,2.321 18.011,2.276 18,2.262 17.999,2.248 17.94,1.292 17.94,1.293 18.876,1.003 19.115,0.929 19.353,0.85 19.581,0.777 19.617,0.1 19.606,0.087 18.984,0.05 c -0.19,-0.012 -0.38,-0.02 -0.57,-0.024 -0.189,-0.004 -0.378,0 -0.587,0 -0.1,-0.351 -0.192,-0.673 -0.291,-1.021 0.411,-0.254 0.803,-0.512 1.211,-0.743 0.215,-0.122 0.228,-0.246 0.132,-0.452 -0.091,-0.194 -0.151,-0.371 -0.433,-0.299 -0.305,0.078 -0.628,0.105 -0.922,0.208 -0.368,0.13 -0.596,0.064 -0.735,-0.306 -0.064,-0.17 -0.183,-0.32 -0.284,-0.491 0.387,-0.411 0.761,-0.807 1.13,-1.198 -0.389,-0.632 -0.391,-0.633 -1.016,-0.273 -0.896,0.516 -0.93,0.511 -1.665,-0.286 0.253,-0.48 0.51,-0.967 0.779,-1.477 -0.17,-0.135 -0.337,-0.269 -0.549,-0.437 -0.415,0.377 -0.826,0.75 -1.229,1.116 -0.048,-0.005 -0.084,0.001 -0.108,-0.012 -0.858,-0.477 -0.858,-0.477 -0.623,-1.474 0.163,-0.692 0.163,-0.692 -0.54,-0.885 -0.196,0.302 -0.428,0.598 -0.592,0.927 -0.196,0.393 -0.453,0.508 -0.861,0.324 C 11.104,-6.81 10.959,-6.83 10.763,-6.882 10.729,-7.411 10.694,-7.961 10.655,-8.57 10.449,-8.591 10.236,-8.612 9.967,-8.639 9.823,-8.199 9.659,-7.771 9.546,-7.33 9.473,-7.042 9.295,-6.996 9.059,-7.045 8.791,-7.1 8.397,-6.834 8.29,-7.332 8.234,-7.587 8.095,-7.827 8.056,-8.082 7.979,-8.58 7.719,-8.731 7.182,-8.542 7.143,-8.016 7.1,-7.454 7.059,-6.902 6.072,-6.585 6.072,-6.585 5.543,-7.401 5.416,-7.596 5.287,-7.789 5.163,-7.978 4.47,-7.869 4.454,-7.846 4.589,-7.243 c 0.041,0.18 0.05,0.373 0.12,0.541 0.174,0.417 0.064,0.653 -0.358,0.877 -0.349,0.185 -0.544,0.168 -0.8,-0.104 -0.267,-0.283 -0.58,-0.524 -0.899,-0.807 -0.187,0.138 -0.368,0.272 -0.568,0.421 0.269,0.508 0.523,0.984 0.773,1.456 -0.018,0.037 -0.026,0.07 -0.046,0.091 C 2.139,-4.082 2.139,-4.082 1.273,-4.527 1.218,-4.556 1.162,-4.586 1.106,-4.614 0.561,-4.895 0.561,-4.895 0.183,-4.292 0.488,-3.97 0.795,-3.623 1.126,-3.301 1.507,-2.929 1.03,-2.736 0.958,-2.462 0.897,-2.23 0.726,-2.165 0.48,-2.236 0.162,-2.328 -0.164,-2.39 -0.487,-2.466 c -0.245,-0.057 -0.431,-0.076 -0.555,0.235 -0.116,0.292 -0.034,0.426 0.216,0.546 0.113,0.054 0.214,0.131 0.321,0.197 C 0.335,-0.972 0.335,-0.972 0,0 M 8.92,0.288 C 9.765,0.29 10.463,0.957 10.477,1.777 10.491,2.605 9.771,3.306 8.91,3.303 8.066,3.301 7.368,2.628 7.36,1.81 7.352,0.964 8.047,0.286 8.92,0.288 M 7.363,4.379 C 8.245,4.697 8.16,4.505 8.066,5.391 8.048,5.559 8.035,5.728 8.017,5.896 7.938,6.622 7.857,7.348 7.76,8.229 6.818,7.843 5.978,7.498 5.072,7.127 5.901,6.132 6.636,5.251 7.363,4.379 M 2.329,2.921 C 3.633,2.788 4.789,2.67 6.048,2.542 6.084,2.838 6.252,3.258 6.129,3.367 5.305,4.1 4.419,4.767 3.437,5.547 3.053,4.638 2.706,3.814 2.329,2.921 M 6.283,0.299 C 6.172,0.558 6.077,0.781 5.966,1.04 4.795,0.918 3.625,0.797 2.434,0.674 c 0.188,-0.954 0.522,-1.78 1.095,-2.551 0.932,0.736 1.825,1.442 2.754,2.176 m 4.165,4.056 c 0.744,0.895 1.483,1.782 2.242,2.694 -0.832,0.549 -1.665,0.91 -2.642,1.05 C 9.926,6.931 9.809,5.804 9.691,4.671 9.96,4.559 10.189,4.463 10.448,4.355 m 3.845,1.112 C 13.353,4.721 12.443,4 11.54,3.284 c 0.121,-0.271 0.221,-0.492 0.329,-0.735 1.168,0.12 2.322,0.239 3.519,0.362 -0.171,0.95 -0.511,1.771 -1.095,2.556 M 7.692,-4.608 c 0.062,0.18 0.1,0.248 0.108,0.32 0.106,0.962 0.193,1.927 0.318,2.887 0.045,0.346 -0.176,0.388 -0.405,0.499 C 7.468,-0.783 7.321,-0.81 7.162,-1.03 6.953,-1.318 6.708,-1.581 6.48,-1.857 6.041,-2.387 5.602,-2.919 5.08,-3.55 5.998,-3.922 6.829,-4.258 7.692,-4.608 m 5.062,1.061 c -0.831,0.999 -1.565,1.88 -2.288,2.75 -0.903,-0.32 -0.759,-0.122 -0.707,-0.982 0.015,-0.245 0.049,-0.49 0.077,-0.734 0.077,-0.663 0.154,-1.326 0.247,-2.119 0.919,0.374 1.751,0.712 2.671,1.085 M 11.86,1.04 C 11.749,0.769 11.653,0.533 11.554,0.291 c 0.928,-0.732 1.83,-1.443 2.754,-2.171 0.553,0.804 0.935,1.608 1.065,2.559 -1.189,0.122 -2.33,0.239 -3.513,0.361"
             style="fill:#5da9dd;fill-opacity:1;fill-rule:nonzero;stroke:none"
             id="path3955"
             inkscape:connector-curvature="0" />
        </g>
        <g
           id="g3957"
           transform="matrix(1,0,0,-1,183.452,597.705)">
          <g
             id="g3959"
             transform="translate(-32.8855,-10.7495)">
            <path
               d="m 0,0 c -2.372,-2.311 -6.216,-2.313 -8.585,-0.005 -2.369,2.308 -2.367,6.052 0.005,8.362 2.372,2.311 6.216,2.313 8.585,0.005 C 2.374,6.055 2.372,2.311 0,0 M 1.372,4.175 -0.284,2.562 V 0.286 C 0.817,1.361 1.369,2.768 1.372,4.175 M -2.247,0.65 h 1.58 v 1.539 z m -0.542,0 2.122,2.067 V 5.64 L -2.789,7.707 H -5.791 L -7.913,5.64 V 2.717 L -5.791,0.65 Z M -5.407,0.276 -4.29,-0.812 -3.173,0.276 Z M -7.913,0.65 h 1.58 l -1.58,1.539 z M -8.296,5.267 -9.413,4.179 -8.296,3.091 Z M -3.173,8.081 -4.29,9.169 -5.407,8.081 Z m 2.506,-1.912 v 1.538 h -1.58 z M -0.284,3.091 0.833,4.179 -0.284,5.267 Z M 1.372,4.182 C 1.373,5.594 0.821,7.005 -0.284,8.081 V 5.795 Z m -5.659,5.512 1.656,-1.613 h 2.347 v 0 C -1.389,9.157 -2.838,9.695 -4.287,9.694 M -8.286,8.081 h 2.337 l 1.655,1.613 C -5.738,9.691 -7.182,9.154 -8.286,8.081 m 1.953,-0.374 h -1.58 V 6.169 Z M -9.952,4.182 -8.296,5.795 V 8.071 C -9.397,6.996 -9.949,5.589 -9.952,4.182 M -8.296,0.277 V 2.562 L -9.952,4.175 C -9.953,2.764 -9.401,1.353 -8.296,0.277 m 4.003,-1.614 -1.656,1.613 h -2.347 c 1.105,-1.076 2.554,-1.613 4.003,-1.613 m 3.999,1.613 h -2.337 l -1.655,-1.612 c 1.444,0.002 2.888,0.54 3.992,1.612"
               style="fill:#5da9dd;fill-opacity:1;fill-rule:nonzero;stroke:none"
               id="path3961"
               inkscape:connector-curvature="0" />
          </g>
        </g>
        <g
           id="g3963"
           transform="translate(149.268,604.275)">
          <path
             d="m 0,0 c 0,1.609 -1.339,2.914 -2.992,2.914 -1.652,0 -2.991,-1.305 -2.991,-2.914 0,-1.609 1.339,-2.914 2.991,-2.914 C -1.339,-2.914 0,-1.609 0,0 m -0.393,0 c 0,-1.398 -1.163,-2.531 -2.599,-2.531 -1.435,0 -2.598,1.133 -2.598,2.531 0,1.398 1.163,2.531 2.598,2.531 1.436,0 2.599,-1.133 2.599,-2.531"
             style="fill:#5da9dd;fill-opacity:1;fill-rule:nonzero;stroke:none"
             id="path3965"
             inkscape:connector-curvature="0" />
        </g>
      </g>
    </g>
  </g>
</svg>
