<?xml version="1.0" encoding="UTF-8" standalone="no"?>
<!-- Created with Inkscape (http://www.inkscape.org/) -->

<svg
   xmlns:dc="http://purl.org/dc/elements/1.1/"
   xmlns:cc="http://creativecommons.org/ns#"
   xmlns:rdf="http://www.w3.org/1999/02/22-rdf-syntax-ns#"
   xmlns:svg="http://www.w3.org/2000/svg"
   xmlns="http://www.w3.org/2000/svg"
   xmlns:sodipodi="http://sodipodi.sourceforge.net/DTD/sodipodi-0.dtd"
   xmlns:inkscape="http://www.inkscape.org/namespaces/inkscape"
   width="42.237999pt"
   height="32.647999pt"
   viewBox="0 0 14.900628 11.517488"
   version="1.1"
   id="svg8731"
   inkscape:version="0.92.3 (2405546, 2018-03-11)"
   sodipodi:docname="gold.svg">
  <defs
     id="defs8725">
    <clipPath
       clipPathUnits="userSpaceOnUse"
       id="clipPath3867">
      <path
         d="M 0,0 H 612 V 792 H 0 Z"
         id="path3865"
         inkscape:connector-curvature="0" />
    </clipPath>
    <clipPath
       clipPathUnits="userSpaceOnUse"
       id="clipPath3985">
      <path
         d="M 0,0 H 612 V 792 H 0 Z"
         id="path3983"
         inkscape:connector-curvature="0" />
    </clipPath>
    <clipPath
       clipPathUnits="userSpaceOnUse"
       id="clipPath4097">
      <path
         d="M 0,0 H 612 V 792 H 0 Z"
         id="path4095"
         inkscape:connector-curvature="0" />
    </clipPath>
    <clipPath
       clipPathUnits="userSpaceOnUse"
       id="clipPath4215">
      <path
         d="M 0,0 H 612 V 792 H 0 Z"
         id="path4213"
         inkscape:connector-curvature="0" />
    </clipPath>
    <clipPath
       clipPathUnits="userSpaceOnUse"
       id="clipPath4285">
      <path
         d="M 0,0 H 612 V 792 H 0 Z"
         id="path4283"
         inkscape:connector-curvature="0" />
    </clipPath>
  </defs>
  <sodipodi:namedview
     id="base"
     pagecolor="#ffffff"
     bordercolor="#666666"
     borderopacity="1.0"
     inkscape:pageopacity="0.0"
     inkscape:pageshadow="2"
     inkscape:zoom="1"
     inkscape:cx="-30.86122"
     inkscape:cy="-113.39522"
     inkscape:document-units="mm"
     inkscape:current-layer="layer1"
     showgrid="false"
     units="pt"
     inkscape:window-width="1440"
     inkscape:window-height="836"
     inkscape:window-x="0"
     inkscape:window-y="27"
     inkscape:window-maximized="1" />
  <metadata
     id="metadata8728">
    <rdf:RDF>
      <cc:Work
         rdf:about="">
        <dc:format>image/svg+xml</dc:format>
        <dc:type
           rdf:resource="http://purl.org/dc/dcmitype/StillImage" />
        <dc:title></dc:title>
      </cc:Work>
    </rdf:RDF>
  </metadata>
  <g
     inkscape:label="Layer 1"
     inkscape:groupmode="layer"
     id="layer1"
     transform="translate(-80.17045,-67.38409)">
    <g
       transform="matrix(0.35277777,0,0,-0.35277777,39.170265,216.84827)"
       id="g4279">
      <g
         id="g4281"
         clip-path="url(#clipPath4285)">
        <g
           id="g4287"
           transform="translate(158.459,407.354)">
          <path
             d="m 0,0 c 0,-9.014 -7.656,-16.324 -21.119,-16.324 -11.662,0 -21.119,7.31 -21.119,16.324 0,9.014 9.457,16.324 21.119,16.324 C -9.457,16.324 0,9.014 0,0"
             style="fill:#fdb913;fill-opacity:1;fill-rule:nonzero;stroke:none"
             id="path4289"
             inkscape:connector-curvature="0" />
        </g>
        <g
           id="g4291"
           transform="translate(134.815,391.712)">
          <path
             d="M 0,0 C 0.317,0 0.574,0.25 0.574,0.559 0.574,0.867 0.317,1.118 0,1.118 -0.317,1.118 -0.574,0.867 -0.574,0.559 -0.574,0.25 -0.317,0 0,0 m 0,31.285 c 0.317,0 0.574,-0.251 0.574,-0.559 0,-0.309 -0.257,-0.559 -0.574,-0.559 -0.317,0 -0.574,0.25 -0.574,0.559 0,0.308 0.257,0.559 0.574,0.559 m 2.525,0.133 c 0.316,0 0.573,-0.25 0.573,-0.558 0,-0.309 -0.257,-0.559 -0.573,-0.559 -0.317,0 -0.574,0.25 -0.574,0.559 0,0.308 0.257,0.558 0.574,0.558 m 2.524,-0.133 c -0.317,0 -0.574,-0.251 -0.574,-0.559 0,-0.309 0.257,-0.559 0.574,-0.559 0.317,0 0.574,0.25 0.574,0.559 0,0.308 -0.257,0.559 -0.574,0.559 m 2.62,-0.411 c -0.317,0 -0.574,-0.25 -0.574,-0.559 0,-0.308 0.257,-0.558 0.574,-0.558 0.317,0 0.573,0.25 0.573,0.558 0,0.309 -0.256,0.559 -0.573,0.559 m 2.555,-0.696 c -0.317,0 -0.574,-0.25 -0.574,-0.558 0,-0.309 0.257,-0.559 0.574,-0.559 0.317,0 0.574,0.25 0.574,0.559 0,0.308 -0.257,0.558 -0.574,0.558 m 2.452,-0.987 c -0.317,0 -0.574,-0.25 -0.574,-0.559 0,-0.308 0.257,-0.559 0.574,-0.559 0.317,0 0.573,0.251 0.573,0.559 0,0.309 -0.256,0.559 -0.573,0.559 m 2.303,-1.283 c -0.317,0 -0.574,-0.25 -0.574,-0.559 0,-0.308 0.257,-0.559 0.574,-0.559 0.317,0 0.573,0.251 0.573,0.559 0,0.309 -0.256,0.559 -0.573,0.559 m 2.098,-1.581 c -0.317,0 -0.574,-0.25 -0.574,-0.558 0,-0.309 0.257,-0.559 0.574,-0.559 0.317,0 0.574,0.25 0.574,0.559 0,0.308 -0.257,0.558 -0.574,0.558 m 1.827,-1.871 c -0.317,0 -0.574,-0.251 -0.574,-0.559 0,-0.309 0.257,-0.559 0.574,-0.559 0.317,0 0.574,0.25 0.574,0.559 0,0.308 -0.257,0.559 -0.574,0.559 m 1.477,-2.145 c -0.317,0 -0.574,-0.25 -0.574,-0.559 0,-0.308 0.257,-0.559 0.574,-0.559 0.317,0 0.573,0.251 0.573,0.559 0,0.309 -0.256,0.559 -0.573,0.559 m 1.029,-2.379 c -0.317,0 -0.574,-0.25 -0.574,-0.558 0,-0.309 0.257,-0.559 0.574,-0.559 0.317,0 0.574,0.25 0.574,0.559 0,0.308 -0.257,0.558 -0.574,0.558 m 0.507,-2.533 c -0.317,0 -0.574,-0.25 -0.574,-0.559 0,-0.308 0.257,-0.558 0.574,-0.558 0.317,0 0.573,0.25 0.573,0.558 0,0.309 -0.256,0.559 -0.573,0.559 M -2.62,30.874 c 0.317,0 0.574,-0.25 0.574,-0.559 0,-0.308 -0.257,-0.558 -0.574,-0.558 -0.316,0 -0.573,0.25 -0.573,0.558 0,0.309 0.257,0.559 0.573,0.559 m -2.555,-0.696 c 0.317,0 0.574,-0.25 0.574,-0.558 0,-0.309 -0.257,-0.559 -0.574,-0.559 -0.317,0 -0.573,0.25 -0.573,0.559 0,0.308 0.256,0.558 0.573,0.558 m -2.452,-0.987 c 0.317,0 0.574,-0.25 0.574,-0.559 0,-0.308 -0.257,-0.559 -0.574,-0.559 -0.317,0 -0.573,0.251 -0.573,0.559 0,0.309 0.256,0.559 0.573,0.559 M -9.93,27.908 c 0.317,0 0.574,-0.25 0.574,-0.559 0,-0.308 -0.257,-0.559 -0.574,-0.559 -0.316,0 -0.573,0.251 -0.573,0.559 0,0.309 0.257,0.559 0.573,0.559 m -2.098,-1.581 c 0.317,0 0.574,-0.25 0.574,-0.558 0,-0.309 -0.257,-0.559 -0.574,-0.559 -0.317,0 -0.574,0.25 -0.574,0.559 0,0.308 0.257,0.558 0.574,0.558 m -1.827,-1.871 c 0.317,0 0.574,-0.251 0.574,-0.559 0,-0.309 -0.257,-0.559 -0.574,-0.559 -0.317,0 -0.574,0.25 -0.574,0.559 0,0.308 0.257,0.559 0.574,0.559 m -1.477,-2.145 c 0.317,0 0.574,-0.25 0.574,-0.559 0,-0.308 -0.257,-0.559 -0.574,-0.559 -0.316,0 -0.573,0.251 -0.573,0.559 0,0.309 0.257,0.559 0.573,0.559 m -1.029,-2.379 c 0.317,0 0.574,-0.25 0.574,-0.558 0,-0.309 -0.257,-0.559 -0.574,-0.559 -0.317,0 -0.573,0.25 -0.573,0.559 0,0.308 0.256,0.558 0.573,0.558 m -0.507,-2.533 c 0.317,0 0.574,-0.25 0.574,-0.559 0,-0.308 -0.257,-0.558 -0.574,-0.558 -0.316,0 -0.573,0.25 -0.573,0.558 0,0.309 0.257,0.559 0.573,0.559 M 2.525,-0.134 c 0.316,0 0.573,0.251 0.573,0.559 0,0.309 -0.257,0.559 -0.573,0.559 -0.317,0 -0.574,-0.25 -0.574,-0.559 0,-0.308 0.257,-0.559 0.574,-0.559 M 5.049,0 C 4.732,0 4.475,0.25 4.475,0.559 c 0,0.308 0.257,0.559 0.574,0.559 0.317,0 0.574,-0.251 0.574,-0.559 C 5.623,0.25 5.366,0 5.049,0 m 2.62,0.411 c -0.317,0 -0.574,0.25 -0.574,0.558 0,0.309 0.257,0.559 0.574,0.559 0.317,0 0.573,-0.25 0.573,-0.559 0,-0.308 -0.256,-0.558 -0.573,-0.558 m 2.555,0.695 c -0.317,0 -0.574,0.251 -0.574,0.559 0,0.309 0.257,0.559 0.574,0.559 0.317,0 0.574,-0.25 0.574,-0.559 0,-0.308 -0.257,-0.559 -0.574,-0.559 m 2.452,0.988 c -0.317,0 -0.574,0.25 -0.574,0.558 0,0.309 0.257,0.559 0.574,0.559 0.317,0 0.573,-0.25 0.573,-0.559 0,-0.308 -0.256,-0.558 -0.573,-0.558 m 2.303,1.283 c -0.317,0 -0.574,0.25 -0.574,0.559 0,0.308 0.257,0.559 0.574,0.559 0.317,0 0.573,-0.251 0.573,-0.559 0,-0.309 -0.256,-0.559 -0.573,-0.559 m 2.098,1.58 c -0.317,0 -0.574,0.25 -0.574,0.559 0,0.308 0.257,0.559 0.574,0.559 0.317,0 0.574,-0.251 0.574,-0.559 0,-0.309 -0.257,-0.559 -0.574,-0.559 m 1.827,1.872 c -0.317,0 -0.574,0.25 -0.574,0.559 0,0.308 0.257,0.559 0.574,0.559 0.317,0 0.574,-0.251 0.574,-0.559 0,-0.309 -0.257,-0.559 -0.574,-0.559 m 1.477,2.145 c -0.317,0 -0.574,0.25 -0.574,0.558 0,0.309 0.257,0.559 0.574,0.559 0.317,0 0.573,-0.25 0.573,-0.559 0,-0.308 -0.256,-0.558 -0.573,-0.558 m 1.029,2.378 c -0.317,0 -0.574,0.251 -0.574,0.559 0,0.309 0.257,0.559 0.574,0.559 0.317,0 0.574,-0.25 0.574,-0.559 0,-0.308 -0.257,-0.559 -0.574,-0.559 m 0.507,2.533 c -0.317,0 -0.574,0.251 -0.574,0.559 0,0.309 0.257,0.559 0.574,0.559 0.317,0 0.573,-0.25 0.573,-0.559 0,-0.308 -0.256,-0.559 -0.573,-0.559 M -2.62,0.411 c 0.317,0 0.574,0.25 0.574,0.558 0,0.309 -0.257,0.559 -0.574,0.559 -0.316,0 -0.573,-0.25 -0.573,-0.559 0,-0.308 0.257,-0.558 0.573,-0.558 m -2.555,0.695 c 0.317,0 0.574,0.251 0.574,0.559 0,0.309 -0.257,0.559 -0.574,0.559 -0.317,0 -0.573,-0.25 -0.573,-0.559 0,-0.308 0.256,-0.559 0.573,-0.559 m -2.452,0.988 c 0.317,0 0.574,0.25 0.574,0.558 0,0.309 -0.257,0.559 -0.574,0.559 -0.317,0 -0.573,-0.25 -0.573,-0.559 0,-0.308 0.256,-0.558 0.573,-0.558 M -9.93,3.377 c 0.317,0 0.574,0.25 0.574,0.559 0,0.308 -0.257,0.559 -0.574,0.559 -0.316,0 -0.573,-0.251 -0.573,-0.559 0,-0.309 0.257,-0.559 0.573,-0.559 m -2.098,1.58 c 0.317,0 0.574,0.25 0.574,0.559 0,0.308 -0.257,0.559 -0.574,0.559 -0.317,0 -0.574,-0.251 -0.574,-0.559 0,-0.309 0.257,-0.559 0.574,-0.559 m -1.827,1.872 c 0.317,0 0.574,0.25 0.574,0.559 0,0.308 -0.257,0.559 -0.574,0.559 -0.317,0 -0.574,-0.251 -0.574,-0.559 0,-0.309 0.257,-0.559 0.574,-0.559 m -1.477,2.145 c 0.317,0 0.574,0.25 0.574,0.558 0,0.309 -0.257,0.559 -0.574,0.559 -0.316,0 -0.573,-0.25 -0.573,-0.559 0,-0.308 0.257,-0.558 0.573,-0.558 m -1.029,2.378 c 0.317,0 0.574,0.251 0.574,0.559 0,0.309 -0.257,0.559 -0.574,0.559 -0.317,0 -0.573,-0.25 -0.573,-0.559 0,-0.308 0.256,-0.559 0.573,-0.559 m -0.507,2.533 c 0.317,0 0.574,0.251 0.574,0.559 0,0.309 -0.257,0.559 -0.574,0.559 -0.316,0 -0.573,-0.25 -0.573,-0.559 0,-0.308 0.257,-0.559 0.573,-0.559"
             style="fill:#fff200;fill-opacity:1;fill-rule:nonzero;stroke:none"
             id="path4293"
             inkscape:connector-curvature="0" />
        </g>
        <g
           id="g4295"
           transform="translate(155.359,407.354)">
          <path
             d="m 0,0 c 0,-7.691 -8.069,-13.928 -18.019,-13.928 -9.95,0 -18.019,6.237 -18.019,13.928 0,7.691 8.069,13.928 18.019,13.928 C -8.069,13.928 0,7.691 0,0"
             style="fill:#f6d200;fill-opacity:1;fill-rule:nonzero;stroke:none"
             id="path4297"
             inkscape:connector-curvature="0" />
        </g>
        <g
           id="g4299"
           transform="matrix(-0.518822,-0.854882,0.86843,-0.4965,115.687,379.689)">
          <g
             id="g4301"
             transform="translate(-38.7331,1.7924)">
            <path
               d="M 0,0 C 0.278,-0.203 0.377,-0.61 0.177,-0.935 -0.022,-1.261 -0.739,-2.32 -0.879,-2.951 -1.12,-4.03 -1.24,-4.579 -1.242,-5.962 -1.243,-6.898 -0.868,-8.505 -0.391,-8.871 0.065,-9.236 0.622,-9.154 1,-8.99 c 0.378,0.163 0.815,-0.06 1.252,-0.446 0.694,-0.609 1.232,-0.588 1.868,0.145 0.18,0.184 0.319,0.102 0.12,-0.223 -0.2,-0.346 -1.056,-1.039 -2.189,-1.041 -1.113,0.018 -2.066,0.749 -2.205,1.014 -0.139,0.243 -0.139,0.04 -0.06,-0.163 0.08,-0.204 0.396,-0.956 0.754,-1.261 0.357,-0.304 1.311,-0.648 1.947,-0.688 0.636,-0.04 1.371,-0.283 1.609,-0.709 0.258,-0.427 0.655,-0.813 1.013,-0.792 0.337,0.021 0.337,-0.163 -0.18,-0.347 -0.497,-0.163 -1.789,0.059 -2.564,0.505 -0.794,0.426 -1.667,1.34 -1.846,1.625 -0.158,0.284 -0.536,0.63 -0.635,0.853 -0.099,0.244 -0.198,0.183 -0.198,-0.122 -0.021,-0.305 0.157,-0.895 -0.062,-1.302 -0.239,-0.388 -0.24,-0.733 -0.28,-1.038 -0.021,-0.326 -0.259,-0.571 -0.518,-0.693 -0.259,-0.143 -0.259,-0.021 -0.099,0.163 0.179,0.183 0.259,0.529 0.041,0.956 -0.218,0.447 -0.336,1.281 -0.057,1.79 0.279,0.529 0.678,0.775 0.678,1.1 0,0.325 -0.257,0.915 -0.336,1.179 -0.06,0.244 -0.179,0.488 -0.279,-0.061 -0.1,-0.57 -0.617,-0.937 -0.816,-1.019 -0.219,-0.102 -0.418,-0.184 -0.697,-0.204 -0.298,-0.021 -0.258,0.101 -0.039,0.224 0.199,0.102 0.398,0.122 0.379,0.488 -0.02,0.367 0.041,0.773 0.259,1.039 0.2,0.264 0.895,0.184 0.797,0.611 -0.138,0.773 -0.235,2.848 0.265,4.456 0.16,0.549 0.858,1.832 1.057,2.097 0.179,0.244 0.06,0.61 -0.198,0.63 C -0.139,-0.122 0,0 0,0"
               style="fill:#fff685;fill-opacity:1;fill-rule:nonzero;stroke:none"
               id="path4303"
               inkscape:connector-curvature="0" />
          </g>
        </g>
        <g
           id="g4305"
           transform="matrix(0.518822,-0.854882,-0.86843,-0.4965,115.687,379.689)">
          <g
             id="g4307"
             transform="translate(-17.2325,-35.2278)">
            <path
               d="M 0,0 C 0.278,-0.203 0.377,-0.61 0.177,-0.935 -0.022,-1.261 -0.739,-2.32 -0.879,-2.951 -1.12,-4.03 -1.24,-4.579 -1.242,-5.962 -1.243,-6.898 -0.868,-8.505 -0.391,-8.871 0.065,-9.236 0.622,-9.154 1,-8.99 c 0.378,0.163 0.815,-0.06 1.252,-0.446 0.694,-0.609 1.232,-0.588 1.868,0.145 0.18,0.184 0.319,0.103 0.12,-0.223 -0.2,-0.346 -1.056,-1.039 -2.189,-1.041 -1.113,0.018 -2.066,0.749 -2.205,1.014 -0.139,0.243 -0.139,0.04 -0.06,-0.163 0.08,-0.204 0.396,-0.956 0.754,-1.261 0.357,-0.304 1.311,-0.648 1.947,-0.688 0.636,-0.04 1.371,-0.283 1.609,-0.709 0.258,-0.427 0.655,-0.813 1.013,-0.792 0.337,0.021 0.337,-0.163 -0.18,-0.347 -0.497,-0.163 -1.789,0.059 -2.564,0.505 -0.794,0.426 -1.667,1.34 -1.846,1.625 -0.158,0.284 -0.536,0.63 -0.635,0.853 -0.099,0.244 -0.198,0.183 -0.198,-0.122 -0.021,-0.305 0.157,-0.895 -0.062,-1.302 -0.239,-0.388 -0.24,-0.733 -0.28,-1.038 -0.021,-0.326 -0.259,-0.571 -0.518,-0.693 -0.259,-0.143 -0.259,-0.021 -0.099,0.163 0.179,0.183 0.259,0.529 0.041,0.956 -0.218,0.447 -0.336,1.281 -0.057,1.79 0.279,0.529 0.678,0.775 0.678,1.1 0,0.325 -0.257,0.915 -0.336,1.179 -0.06,0.244 -0.179,0.488 -0.279,-0.061 -0.1,-0.57 -0.617,-0.937 -0.816,-1.019 -0.219,-0.101 -0.418,-0.184 -0.697,-0.204 -0.298,-0.021 -0.258,0.101 -0.039,0.224 0.199,0.102 0.398,0.122 0.379,0.488 -0.02,0.367 0.041,0.773 0.259,1.039 0.2,0.264 0.895,0.184 0.797,0.611 -0.138,0.773 -0.235,2.848 0.265,4.456 0.16,0.549 0.858,1.832 1.057,2.097 0.179,0.244 0.06,0.61 -0.198,0.63 C -0.139,-0.122 0,0 0,0"
               style="fill:#fff685;fill-opacity:1;fill-rule:nonzero;stroke:none"
               id="path4309"
               inkscape:connector-curvature="0" />
          </g>
        </g>
        <g
           id="g4311"
           transform="matrix(-0.999426,0.0338743,0.0359557,0.999356,115.687,379.689)">
          <g
             id="g4313"
             transform="translate(-8.6882,24.0874)">
            <path
               d="m 0,0 c 0.559,0 0.985,-0.571 0.985,-1.257 0,-0.686 -0.426,-1.257 -0.985,-1.257 -0.538,0 -0.985,0.571 -0.985,1.257 C -0.985,-0.571 -0.537,0 0,0 M 1.295,8.485 C 1.274,8.278 1.11,8.111 0.906,8.111 c -0.204,0 -0.347,0.166 -0.347,0.374 0,0.208 0.163,0.374 0.367,0.374 0.205,0 0.369,-0.166 0.369,-0.374 M 2.758,1.728 C 3.234,1.038 3.211,0.189 2.735,-0.156 2.237,-0.501 1.444,-0.225 0.968,0.464 0.492,1.176 0.492,2.002 0.991,2.37 1.489,2.715 2.26,2.439 2.758,1.728 M 3.924,3.735 C 4.302,3.168 4.302,2.532 3.968,2.304 3.611,2.054 3.032,2.327 2.676,2.872 2.319,3.417 2.297,4.076 2.654,4.303 2.988,4.553 3.567,4.281 3.924,3.735 M 2.586,7.276 c -0.227,0 -0.414,0.167 -0.414,0.397 0.021,0.231 0.187,0.398 0.414,0.398 0.228,0 0.393,-0.188 0.393,-0.398 0,-0.23 -0.186,-0.418 -0.393,-0.397 M 2.096,6.511 C 2.321,6.848 2.928,6.848 3.444,6.489 3.983,6.153 4.253,5.592 4.028,5.278 3.803,4.941 3.197,4.941 2.68,5.3 2.141,5.637 1.871,6.197 2.096,6.511 m -9.403,-9.922 c 0.291,-0.023 0.665,-0.078 0.955,-0.045 0.396,0.046 0.675,0.208 1.024,0.718 0.325,0.509 1.232,0.856 2.256,1.087 1.023,0.232 0.907,0.834 0.907,1.227 0,0.393 0.093,0.301 0.209,0.07 0.14,-0.325 0.186,-0.949 -0.256,-1.759 -0.442,-0.787 -1.86,-1.296 -2.512,-1.459 -0.571,-0.137 -1.12,-0.096 -1.588,-0.107 1.354,-0.306 2.693,-0.374 3.962,-0.133 0.356,0.072 0.807,0.215 0.997,0.453 0.213,0.24 0.735,0.717 0.664,0.98 0.143,-0.096 0.356,-0.239 0.451,-0.239 -0.284,-0.143 -0.451,-0.406 -0.57,-0.525 -0.094,-0.12 -0.26,-0.311 -0.379,-0.383 -0.119,-0.071 -0.071,-0.143 0.237,-0.071 1.258,0.287 3.204,0.836 3.797,1.911 0.12,0.215 0.143,1.312 10e-4,1.337 0.119,0.072 0.261,0.31 0.308,0.453 0,0 0.072,-0.143 0.095,-0.166 0.143,-0.287 0,-1.028 -0.024,-1.195 C 3.203,-1.4 3.275,-1.471 3.322,-1.352 3.916,-0.206 4.414,0.893 4.035,1.919 3.987,2.11 3.892,2.087 3.892,2.087 3.987,2.11 4.225,2.277 4.225,2.277 4.201,2.038 4.319,1.943 4.343,1.776 4.391,1.585 4.462,1.37 4.438,1.084 4.414,0.821 4.557,0.821 4.652,1.155 4.913,2.158 5.435,4.283 4.13,5.119 4.178,5.19 4.225,5.381 4.249,5.477 4.32,5.286 4.51,5.166 4.628,5.023 4.723,4.88 4.937,4.617 4.937,4.427 4.913,4.259 5.056,4.307 5.032,4.641 5.032,4.975 4.652,6.432 4.273,7.029 3.869,7.602 3.276,7.554 3.11,7.458 c 0,0.072 0,0.263 -0.048,0.335 0.214,-0.048 0.333,0 0.451,-0.024 C 3.632,7.745 3.561,7.888 3.395,8.032 2.73,8.581 1.923,8.867 1.164,8.915 -4.247,9.153 -3.726,5.667 -3.061,5.356 c 0.475,-0.215 0.76,-0.095 1.044,0.072 0.285,0.168 0.784,0.263 0.95,-0.142 C -0.901,4.879 -1.233,4.688 -1.59,4.569 -1.945,4.473 -2.278,4.139 -2.041,3.661 -1.78,3.184 -1.424,3.16 -1.186,3.208 c 0.237,0.048 0.261,0.287 0.356,0.454 0.071,0.191 0.355,0.382 0.688,0.095 V 3.733 C 0,3.59 -0.095,3.423 -0.237,3.542 -0.379,3.662 -0.593,3.733 -0.688,3.399 -0.759,3.089 -1.258,2.587 -1.97,3.184 -2.681,3.781 -2.349,4.569 -2.017,4.688 -1.685,4.807 -1.21,4.855 -1.257,5.118 -1.281,5.381 -1.589,5.5 -1.874,5.285 -2.183,5.07 -2.658,4.998 -3.156,5.165 -4.153,5.5 -4.532,9.559 1.306,9.058 2.066,9.01 3.11,8.676 3.751,7.96 3.798,7.888 4.391,7.268 4.557,7.029 4.818,6.647 5.507,5.334 5.53,3.997 5.562,0.741 4.059,-1.804 1.264,-3.138 c 0.235,0.028 0.653,0.201 0.777,0.346 0.166,0.168 1.044,0.573 1.898,0.383 0.854,-0.215 1.353,-1.242 1.353,-1.648 0,-0.406 -0.285,-0.382 -0.261,-0.072 0.047,0.836 -0.641,0.693 -1.21,0.478 -0.57,-0.215 -1.045,0 -1.33,0.238 C 2.23,-3.174 2.064,-3.15 1.756,-3.246 1.424,-3.341 1.091,-3.413 0.569,-3.437 c 0.076,0.013 0.185,0.06 0.299,0.119 -0.421,-0.177 -0.869,-0.325 -1.343,-0.448 0.807,-0.158 1.813,-0.63 2.453,-1.541 0.664,-0.979 0.546,-2.148 0.332,-2.555 -0.19,-0.429 -0.285,-0.19 -0.237,0.072 0.071,0.454 -0.095,1.003 -0.712,1.146 -0.238,0.048 -0.665,0.048 -0.831,0.621 -0.142,0.502 0.143,0.788 -0.403,1.552 -0.192,0.28 -0.591,0.476 -1.221,0.565 -0.839,-0.168 -1.744,-0.264 -2.728,-0.265 -0.417,0 -0.805,0.023 -1.18,0.054 0.202,-0.145 0.559,-0.358 1.085,-0.512 0.546,-0.167 1.282,-0.119 1.899,-1.145 0.617,-1.027 0.498,-1.314 0.403,-1.791 -0.071,-0.287 -0.214,-0.382 -0.332,0.047 -0.119,0.43 -0.427,0.669 -0.902,0.884 -0.451,0.215 -0.926,0.453 -1.4,1.146 -0.456,0.689 -0.636,1.112 -1.663,1.483 -2.472,0.382 -3.957,1.365 -4.958,1.935 -0.119,0.167 -0.356,0.406 -0.617,0.716 1.359,-0.922 2.771,-1.614 4.18,-2.057"
               style="fill:#fff685;fill-opacity:1;fill-rule:nonzero;stroke:none"
               id="path4315"
               inkscape:connector-curvature="0" />
          </g>
        </g>
        <g
           id="g4317"
           transform="matrix(0.999426,0.0338743,-0.0359557,0.999356,115.687,379.689)">
          <g
             id="g4319"
             transform="translate(34.5883,22.6205)">
            <path
               d="m 0,0 c 0.559,0 0.985,-0.571 0.985,-1.257 0,-0.686 -0.426,-1.257 -0.985,-1.257 -0.538,0 -0.985,0.571 -0.985,1.257 C -0.985,-0.571 -0.537,0 0,0 M 1.295,8.485 C 1.274,8.278 1.11,8.111 0.906,8.111 c -0.204,0 -0.347,0.166 -0.347,0.374 0,0.208 0.163,0.374 0.367,0.374 0.205,0 0.369,-0.166 0.369,-0.374 M 2.758,1.728 C 3.234,1.038 3.211,0.189 2.735,-0.156 2.237,-0.501 1.444,-0.225 0.968,0.464 0.492,1.176 0.492,2.002 0.991,2.37 1.489,2.715 2.26,2.439 2.758,1.728 M 3.924,3.735 C 4.302,3.168 4.302,2.532 3.968,2.304 3.611,2.054 3.032,2.327 2.676,2.872 2.319,3.417 2.297,4.076 2.654,4.303 2.988,4.553 3.567,4.281 3.924,3.735 M 2.586,7.276 c -0.227,0 -0.414,0.167 -0.414,0.397 0.021,0.231 0.187,0.398 0.414,0.398 0.228,0 0.393,-0.188 0.393,-0.398 0,-0.23 -0.186,-0.418 -0.393,-0.397 M 2.096,6.511 C 2.321,6.848 2.928,6.848 3.444,6.489 3.983,6.153 4.253,5.592 4.028,5.278 3.803,4.941 3.197,4.941 2.68,5.3 2.141,5.637 1.871,6.197 2.096,6.511 m -9.403,-9.922 c 0.291,-0.023 0.665,-0.078 0.955,-0.045 0.396,0.046 0.675,0.208 1.024,0.718 0.325,0.509 1.232,0.856 2.256,1.087 1.023,0.232 0.907,0.834 0.907,1.227 0,0.393 0.093,0.301 0.209,0.07 0.14,-0.325 0.186,-0.949 -0.256,-1.759 -0.442,-0.787 -1.86,-1.296 -2.512,-1.459 -0.571,-0.137 -1.12,-0.096 -1.588,-0.107 1.354,-0.306 2.693,-0.374 3.962,-0.133 0.356,0.072 0.807,0.215 0.997,0.453 0.213,0.24 0.735,0.717 0.664,0.98 0.143,-0.096 0.356,-0.239 0.451,-0.239 -0.284,-0.143 -0.451,-0.406 -0.57,-0.525 -0.094,-0.12 -0.261,-0.311 -0.379,-0.383 -0.119,-0.071 -0.071,-0.143 0.237,-0.071 1.258,0.287 3.204,0.836 3.797,1.911 0.12,0.215 0.143,1.312 10e-4,1.337 0.119,0.072 0.261,0.31 0.308,0.454 0,0 0.072,-0.144 0.095,-0.167 0.143,-0.287 0,-1.028 -0.024,-1.195 C 3.203,-1.4 3.275,-1.471 3.322,-1.352 3.916,-0.206 4.414,0.893 4.035,1.919 3.987,2.11 3.892,2.087 3.892,2.087 3.987,2.11 4.225,2.277 4.225,2.277 4.201,2.038 4.319,1.943 4.343,1.776 4.391,1.585 4.462,1.37 4.438,1.084 4.414,0.821 4.557,0.821 4.652,1.155 4.913,2.158 5.435,4.283 4.13,5.119 4.178,5.19 4.225,5.381 4.249,5.477 4.32,5.286 4.51,5.166 4.628,5.023 4.723,4.88 4.937,4.617 4.937,4.427 4.913,4.259 5.056,4.307 5.032,4.641 5.032,4.975 4.652,6.432 4.273,7.029 3.869,7.602 3.276,7.554 3.11,7.458 c 0,0.072 0,0.263 -0.048,0.335 0.214,-0.048 0.333,0 0.451,-0.024 C 3.632,7.745 3.561,7.888 3.395,8.032 2.73,8.581 1.923,8.867 1.164,8.915 -4.247,9.153 -3.726,5.667 -3.061,5.356 c 0.475,-0.215 0.76,-0.095 1.044,0.072 0.285,0.168 0.784,0.263 0.95,-0.142 C -0.901,4.879 -1.233,4.688 -1.59,4.569 -1.945,4.473 -2.278,4.139 -2.041,3.662 -1.78,3.184 -1.424,3.16 -1.186,3.208 c 0.237,0.048 0.261,0.287 0.356,0.454 0.071,0.191 0.355,0.382 0.688,0.095 V 3.733 C 0,3.59 -0.095,3.423 -0.237,3.542 -0.379,3.662 -0.593,3.733 -0.688,3.399 -0.759,3.089 -1.258,2.587 -1.97,3.184 -2.681,3.781 -2.349,4.569 -2.017,4.688 -1.685,4.807 -1.21,4.855 -1.257,5.118 -1.281,5.381 -1.589,5.5 -1.874,5.285 -2.183,5.07 -2.658,4.998 -3.156,5.165 -4.153,5.5 -4.532,9.559 1.306,9.058 2.066,9.01 3.11,8.676 3.751,7.96 3.798,7.888 4.391,7.268 4.557,7.029 4.818,6.647 5.507,5.334 5.53,3.997 5.562,0.741 4.059,-1.804 1.264,-3.138 c 0.235,0.028 0.653,0.201 0.777,0.346 0.166,0.168 1.044,0.573 1.898,0.383 0.854,-0.215 1.353,-1.242 1.353,-1.648 0,-0.406 -0.285,-0.382 -0.261,-0.072 0.047,0.836 -0.641,0.693 -1.21,0.478 -0.57,-0.215 -1.045,0 -1.33,0.238 C 2.23,-3.174 2.064,-3.15 1.756,-3.246 1.424,-3.341 1.091,-3.413 0.569,-3.437 c 0.076,0.013 0.185,0.06 0.299,0.119 -0.421,-0.177 -0.869,-0.325 -1.343,-0.448 0.807,-0.158 1.813,-0.63 2.453,-1.541 0.664,-0.979 0.546,-2.148 0.332,-2.555 -0.19,-0.429 -0.285,-0.19 -0.237,0.072 0.071,0.454 -0.095,1.003 -0.712,1.146 -0.238,0.048 -0.665,0.048 -0.831,0.621 -0.142,0.502 0.143,0.788 -0.403,1.552 -0.192,0.28 -0.591,0.476 -1.221,0.565 -0.839,-0.168 -1.744,-0.264 -2.728,-0.264 -0.417,-0.001 -0.805,0.022 -1.18,0.053 0.202,-0.145 0.559,-0.358 1.085,-0.512 0.546,-0.167 1.282,-0.119 1.899,-1.145 0.617,-1.027 0.498,-1.314 0.403,-1.791 -0.071,-0.287 -0.214,-0.382 -0.332,0.047 -0.119,0.43 -0.427,0.669 -0.902,0.884 -0.451,0.215 -0.926,0.453 -1.4,1.146 -0.456,0.689 -0.636,1.112 -1.663,1.483 -2.472,0.382 -3.957,1.365 -4.958,1.935 -0.119,0.167 -0.356,0.406 -0.617,0.716 1.359,-0.922 2.771,-1.614 4.18,-2.057"
               style="fill:#fff685;fill-opacity:1;fill-rule:nonzero;stroke:none"
               id="path4321"
               inkscape:connector-curvature="0" />
          </g>
        </g>
        <g
           id="g4323"
           transform="matrix(0.836653,-0.547733,-0.570893,-0.821491,115.687,379.689)">
          <g
             id="g4325"
             transform="translate(11.6866,-31.6381)">
            <path
               d="m 0,0 c 0.156,-0.17 0.493,-0.361 0.493,-0.361 0.176,-2.106 -0.927,-4.257 -1.848,-5.003 -0.202,-0.171 -0.517,-0.533 -0.248,-0.831 0.246,-0.298 0.11,-0.936 -0.474,-1.405 -0.584,-0.469 -1.146,-0.981 -1.124,-1.406 0.022,-0.447 -0.314,-0.299 -0.493,-0.022 -0.202,0.254 -0.201,0.978 0.204,1.489 0.427,0.491 0.831,0.832 0.899,0.959 0.068,0.15 0.202,0.256 -0.135,0.107 -1.482,-0.684 -3.794,-1.347 -5.655,-0.329 -2.107,1.146 -1.408,3.062 -0.465,3.532 0.337,0.171 0.606,0.086 0.247,-0.34 -0.382,-0.405 -0.609,-1.171 -0.25,-1.575 0.695,-0.808 1.323,-0.317 2.063,-0.741 0.717,-0.446 0.873,-0.978 1.435,-0.935 0.538,0.044 1.638,0.322 2.312,0.664 0.18,0.085 0.337,0.298 -0.045,0.213 -0.404,-0.108 -1.212,-0.109 -1.615,0.295 -0.56,0.573 -0.334,1.297 0.07,1.702 0.202,0.213 0.337,0.043 0.315,-0.233 -0.024,-0.256 0.312,-0.659 0.716,-0.616 0.382,0.043 1.324,0.108 1.526,-0.125 0.179,-0.213 0.403,-0.149 0.583,-0.021 0.314,0.277 0.876,0.981 1.125,1.598 0.089,0.213 0.224,0.575 -0.135,0.234 -0.382,-0.362 -1.033,-1.002 -1.886,-0.876 -0.853,0.127 -1.682,0.615 -1.927,1.189 -0.09,0.234 0.179,0.341 0.448,0.128 0.269,-0.191 0.74,-0.318 1.279,-0.146 0.562,0.192 1.033,0.363 1.526,0.278 0.539,-0.084 0.719,0.193 0.898,0.47 C 0.019,-1.851 0.2,-0.765 0,0"
               style="fill:#fff685;fill-opacity:1;fill-rule:nonzero;stroke:none"
               id="path4327"
               inkscape:connector-curvature="0" />
          </g>
        </g>
        <g
           id="g4329"
           transform="matrix(-0.836653,-0.547733,0.570893,-0.821491,115.687,379.689)">
          <g
             id="g4331"
             transform="translate(-23.8876,-7.9188)">
            <path
               d="m 0,0 c 0.156,-0.17 0.493,-0.361 0.493,-0.361 0.176,-2.106 -0.927,-4.257 -1.848,-5.003 -0.202,-0.171 -0.517,-0.533 -0.248,-0.831 0.246,-0.298 0.11,-0.936 -0.474,-1.405 -0.584,-0.469 -1.146,-0.981 -1.124,-1.406 0.022,-0.447 -0.314,-0.299 -0.493,-0.022 -0.202,0.254 -0.201,0.978 0.204,1.489 0.427,0.491 0.831,0.832 0.899,0.959 0.068,0.15 0.202,0.256 -0.135,0.107 -1.482,-0.684 -3.794,-1.347 -5.655,-0.329 -2.107,1.146 -1.408,3.062 -0.465,3.532 0.337,0.171 0.606,0.086 0.247,-0.34 -0.382,-0.405 -0.609,-1.171 -0.25,-1.575 0.695,-0.808 1.323,-0.317 2.063,-0.741 0.717,-0.446 0.873,-0.978 1.435,-0.935 0.538,0.044 1.638,0.322 2.312,0.664 0.18,0.085 0.337,0.298 -0.045,0.213 -0.404,-0.108 -1.212,-0.109 -1.615,0.295 -0.56,0.573 -0.334,1.297 0.07,1.702 0.202,0.213 0.337,0.043 0.315,-0.233 -0.024,-0.256 0.312,-0.659 0.716,-0.616 0.382,0.043 1.324,0.108 1.526,-0.125 0.179,-0.213 0.403,-0.149 0.583,-0.021 0.314,0.277 0.876,0.981 1.125,1.598 0.089,0.213 0.224,0.575 -0.135,0.234 -0.382,-0.362 -1.033,-1.002 -1.886,-0.876 -0.853,0.127 -1.682,0.615 -1.927,1.189 -0.09,0.234 0.179,0.341 0.448,0.128 0.269,-0.191 0.74,-0.318 1.279,-0.146 0.562,0.192 1.033,0.363 1.526,0.278 0.539,-0.084 0.719,0.193 0.898,0.47 C 0.019,-1.851 0.2,-0.765 0,0"
               style="fill:#fff685;fill-opacity:1;fill-rule:nonzero;stroke:none"
               id="path4333"
               inkscape:connector-curvature="0" />
          </g>
        </g>
        <g
           id="g4335"
           transform="matrix(0.812227,0.583341,0.606531,-0.795572,115.687,379.689)">
          <g
             id="g4337"
             transform="translate(46.1313,-17.0266)">
            <path
               d="m 0,0 c -0.192,-0.366 -0.701,-1.062 -1.548,-1.255 -0.849,-0.193 -2.087,-0.147 -2.259,-0.122 -0.172,0.024 -0.234,-0.193 -0.036,-0.328 0.199,-0.135 0.863,-0.473 1.199,-0.826 0.549,-0.578 0.755,-1.357 0.727,-2.015 -0.012,-0.288 -0.18,-0.212 -0.191,0.036 -0.012,0.249 -0.171,0.561 -0.472,0.704 -0.3,0.144 -0.769,0.631 -0.916,0.964 -0.148,0.332 -0.316,0.742 -0.421,0.834 -0.105,0.091 -0.168,0.076 -0.34,0.033 -0.172,-0.042 -0.457,0.172 -0.503,0.294 -0.047,0.123 -0.156,0.23 -0.261,0.254 -0.106,0.024 -0.512,0.192 -0.68,0.268 -0.168,0.076 -0.258,0.104 -0.09,-0.106 0.281,-0.352 0.523,-1.326 0.407,-1.726 -0.062,-0.217 -0.168,-0.126 -0.238,0.092 -0.07,0.217 -0.355,0.499 -0.561,0.733 -0.207,0.233 -0.269,0.821 -0.288,1.034 -0.019,0.213 0.056,0.248 -0.245,0.459 -0.582,0.407 -1.088,0.794 -1.577,1.349 0.096,-0.213 0.177,-0.423 0.23,-0.62 0.371,-1.39 0.027,-2.796 -0.583,-3.807 -0.266,-0.443 -0.466,-0.177 -0.271,0.224 0.196,0.401 0.212,1.033 -0.139,1.522 -0.351,0.489 -0.672,1.665 -0.62,2.317 0.051,0.653 0.14,1.446 0.052,1.682 -0.088,0.236 -0.199,0.266 -0.508,0.35 -0.308,0.083 -0.574,0.67 -0.543,0.903 0.032,0.235 -0.048,0.498 -0.194,0.628 -0.146,0.131 -0.643,0.751 -0.843,1.016 -0.2,0.267 -0.891,1.06 -1.185,1.655 -1.082,2.189 -1.803,4.028 -1.651,7.912 -0.169,3.999 0.617,1.471 0.56,0.571 0.085,-2.988 0.508,-6.3 1.738,-7.963 0.209,-0.282 0.259,-1.069 0.529,-1.414 0.268,-0.346 1.139,-1.37 1.27,-1.556 0.131,-0.187 0.659,-0.119 0.986,-0.359 0.327,-0.241 0.926,-0.693 1.66,-0.875 1.352,-0.337 1.809,0.144 2.679,0.029 0.87,-0.115 1.507,-0.318 1.939,-0.617 0.431,-0.299 1.12,-0.305 1.411,-0.111 0.291,0.193 0.681,-0.033 0.063,-0.44 C -2.33,1.314 -3.732,0.666 -5.236,1.104 -6.741,1.544 -8.658,2.7 -8.908,2.89 -9.056,3.001 -9.213,2.945 -9.279,2.802 c 0.8,-1.315 1.789,-2.609 2.739,-3.046 0.177,-0.081 0.668,-0.287 1.032,-0.013 0.363,0.274 0.836,0.442 1.074,0.35 0.239,-0.092 0.477,0.017 0.571,0.175 0.094,0.157 0.305,0.108 0.18,-0.191 -0.126,-0.299 -0.634,-0.659 -1.181,-0.728 -0.547,-0.068 -1.012,0.002 -1.169,0.03 -0.156,0.028 -0.097,-0.075 0.125,-0.17 0.223,-0.096 0.918,-0.36 1.031,-0.415 0.113,-0.056 0.352,0.12 0.574,0.091 0.223,-0.029 0.634,-0.087 1.04,0.023 0.746,0.201 0.84,0.559 1.294,0.739 0.453,0.179 0.817,0.252 1.106,0.223 0.289,-0.029 0.625,0.155 0.715,0.328 C -0.058,0.371 0.192,0.366 0,0"
               style="fill:#fff685;fill-opacity:1;fill-rule:nonzero;stroke:none"
               id="path4339"
               inkscape:connector-curvature="0" />
          </g>
        </g>
        <g
           id="g4341"
           transform="matrix(-0.971945,-0.235206,0.248829,-0.968649,115.687,379.689)">
          <g
             id="g4343"
             transform="translate(-25.9615,-24.5186)">
            <path
               d="M 0,0 C 0.511,-0.394 1.133,-0.306 1.556,-0.13 1.978,0.046 2.467,-0.195 2.955,-0.612 3.732,-1.27 4.333,-1.247 5.044,-0.457 5.245,-0.259 5.4,-0.347 5.178,-0.698 4.955,-1.071 3.999,-1.818 2.732,-1.819 1.487,-1.798 0.421,-1.009 0.266,-0.724 0.111,-0.461 0.111,-0.68 0.199,-0.899 0.288,-1.119 0.643,-1.931 1.043,-2.26 1.442,-2.589 2.509,-2.96 3.22,-3.004 3.931,-3.047 4.753,-3.31 5.02,-3.77 5.308,-4.231 5.752,-4.648 6.152,-4.625 6.53,-4.603 6.53,-4.801 5.952,-4.999 5.396,-5.175 3.952,-4.934 3.085,-4.452 2.197,-3.992 1.22,-3.005 1.02,-2.698 0.842,-2.391 0.421,-2.018 0.309,-1.777 0.199,-1.514 0.088,-1.58 0.088,-1.909 0.065,-2.238 0.264,-2.874 0.019,-3.314 -0.247,-3.731 -0.248,-4.104 -0.293,-4.433 -0.315,-4.784 -0.582,-5.048 -0.871,-5.18 -1.16,-5.334 -1.16,-5.202 -0.982,-5.005 c 0.2,0.198 0.289,0.572 0.045,1.032 -0.244,0.483 -0.377,1.382 -0.065,1.931 0.312,0.571 0.757,0.835 0.757,1.186 0,0.351 -1.062,1.659 -1.15,1.945 C -1.462,1.352 -1.598,1.919 0,0"
               style="fill:#fff685;fill-opacity:1;fill-rule:nonzero;stroke:none"
               id="path4345"
               inkscape:connector-curvature="0" />
          </g>
        </g>
        <g
           id="g4347"
           transform="matrix(-0.971945,-0.235206,0.248829,-0.968649,115.687,379.689)">
          <g
             id="g4349"
             transform="translate(-27.4837,-18.3063)">
            <path
               d="m 0,0 c 0.141,-0.165 0.13,-0.337 0.13,-0.337 0.161,-2.05 -1.126,-4.107 -1.958,-4.832 -0.183,-0.166 -0.468,-0.518 -0.225,-0.808 0.224,-0.29 0.101,-0.911 -0.427,-1.367 -0.528,-0.456 -1.035,-0.953 -1.015,-1.367 0.02,-0.435 -0.284,-0.291 -0.446,-0.021 -0.183,0.248 -0.182,0.952 0.183,1.449 0.386,0.477 0.751,0.808 0.813,0.933 0.061,0.145 0.182,0.248 -0.122,0.103 -1.34,-0.664 -3.43,-1.307 -5.113,-0.315 -1.906,1.117 -1.275,2.981 -0.423,3.438 0.304,0.166 0.548,0.083 0.223,-0.331 -0.345,-0.394 -0.549,-1.14 -0.225,-1.533 0.629,-0.787 1.197,-0.31 1.866,-0.723 0.649,-0.435 0.791,-0.952 1.298,-0.911 0.487,0.042 1.481,0.312 2.09,0.644 0.163,0.083 0.305,0.29 -0.04,0.207 -0.365,-0.104 -1.096,-0.104 -1.461,0.289 -0.506,0.559 -0.303,1.263 0.062,1.657 0.183,0.207 0.305,0.041 0.285,-0.228 -0.021,-0.248 0.283,-0.642 0.648,-0.6 0.345,0.042 1.197,0.105 1.38,-0.123 0.162,-0.207 0.364,-0.145 0.527,-0.02 0.284,0.269 0.792,0.953 1.016,1.554 0.081,0.207 0.203,0.559 -0.122,0.227 -0.345,-0.352 -0.934,-0.974 -1.705,-0.85 -0.771,0.124 -1.521,0.599 -1.743,1.158 -0.082,0.228 0.162,0.332 0.405,0.125 0.244,-0.187 0.669,-0.31 1.157,-0.144 0.507,0.186 0.933,0.353 1.379,0.27 0.487,-0.082 0.65,0.187 0.812,0.456 0.163,0.249 0.617,1.269 0.435,2.014 z"
               style="fill:#fff685;fill-opacity:1;fill-rule:nonzero;stroke:none"
               id="path4351"
               inkscape:connector-curvature="0" />
          </g>
        </g>
        <g
           id="g4353"
           transform="matrix(0.876536,0.481335,0.503767,-0.864218,115.687,379.689)">
          <g
             id="g4355"
             transform="translate(31.4678,-4.7991)">
            <path
               d="m 0,0 c 0.141,-0.167 0.1,-0.541 0.1,-0.541 0.166,-2.06 -0.821,-4.16 -1.647,-4.887 -0.182,-0.166 -0.464,-0.52 -0.221,-0.811 0.223,-0.292 0.102,-0.916 -0.422,-1.373 -0.525,-0.457 -1.028,-0.955 -1.007,-1.371 0.02,-0.437 -0.282,-0.292 -0.444,-0.02 -0.183,0.249 -0.184,0.957 0.179,1.456 0.383,0.478 0.745,0.81 0.806,0.934 0.061,0.146 0.182,0.25 -0.121,0.105 -1.332,-0.664 -3.411,-1.306 -5.088,-0.304 -1.9,1.126 -1.277,2.998 -0.43,3.454 0.303,0.166 0.546,0.082 0.223,-0.333 -0.342,-0.395 -0.543,-1.144 -0.22,-1.54 0.628,-0.791 1.192,-0.314 1.859,-0.73 0.647,-0.439 0.789,-0.959 1.294,-0.918 0.484,0.041 1.474,0.31 2.079,0.642 0.161,0.083 0.302,0.291 -0.041,0.208 -0.363,-0.104 -1.09,-0.102 -1.454,0.294 -0.506,0.562 -0.305,1.269 0.058,1.664 0.181,0.208 0.302,0.041 0.283,-0.229 -0.02,-0.25 0.283,-0.646 0.647,-0.605 0.343,0.041 1.191,0.102 1.373,-0.127 0.162,-0.208 0.363,-0.146 0.525,-0.021 0.282,0.27 0.786,0.956 1.007,1.558 0.08,0.209 0.201,0.562 -0.121,0.23 -0.343,-0.353 -0.927,-0.977 -1.695,-0.851 -0.768,0.126 -1.516,0.606 -1.738,1.168 -0.082,0.229 0.16,0.333 0.403,0.124 0.243,-0.188 0.667,-0.313 1.151,-0.147 0.505,0.186 0.929,0.352 1.373,0.268 0.485,-0.084 0.646,0.187 0.807,0.457 0.161,0.249 0.536,1.425 0.353,2.174 z"
               style="fill:#fff685;fill-opacity:1;fill-rule:nonzero;stroke:none"
               id="path4357"
               inkscape:connector-curvature="0" />
          </g>
        </g>
        <g
           id="g4359"
           transform="matrix(-0.863833,-0.503778,0.52655,-0.850553,115.687,379.689)">
          <g
             id="g4361"
             transform="translate(-22.3944,-4.1735)">
            <path
               d="m 0,0 c -0.193,-0.366 -0.706,-1.061 -1.556,-1.257 -0.851,-0.195 -2.092,-0.154 -2.264,-0.13 -0.172,0.024 -0.236,-0.192 -0.037,-0.326 0.199,-0.135 0.863,-0.47 1.198,-0.821 0.549,-0.574 0.753,-1.351 0.723,-2.008 -0.014,-0.288 -0.181,-0.212 -0.192,0.036 -0.011,0.247 -0.169,0.559 -0.47,0.701 -0.301,0.142 -0.769,0.627 -0.916,0.958 -0.147,0.331 -0.313,0.74 -0.419,0.831 -0.105,0.091 -0.167,0.075 -0.34,0.032 -0.173,-0.043 -0.458,0.17 -0.504,0.292 -0.046,0.122 -0.155,0.228 -0.261,0.252 -0.105,0.024 -0.512,0.19 -0.68,0.265 -0.168,0.075 -0.258,0.103 -0.091,-0.106 0.281,-0.35 0.521,-1.321 0.403,-1.721 -0.064,-0.216 -0.169,-0.125 -0.238,0.091 -0.07,0.217 -0.355,0.497 -0.561,0.729 -0.206,0.233 -0.266,0.819 -0.285,1.032 -0.018,0.212 0.057,0.248 -0.244,0.457 -0.581,0.404 -1.088,0.788 -1.576,1.34 -1.017,1.025 -0.791,-4.175 -1.387,-0.367 0.053,0.651 0.145,1.443 0.058,1.678 -0.088,0.235 -0.2,0.265 -0.509,0.348 -0.308,0.082 -0.572,0.667 -0.54,0.899 0.032,0.234 -0.048,0.497 -0.193,0.626 -0.146,0.13 -0.642,0.747 -0.841,1.011 -0.201,0.265 -0.277,1.102 -0.008,0.759 0.268,-0.344 1.138,-1.363 1.268,-1.549 0.131,-0.186 0.66,-0.116 0.987,-0.355 0.327,-0.238 0.926,-0.687 1.662,-0.867 1.354,-0.331 1.813,0.15 2.685,0.038 0.872,-0.112 1.509,-0.313 1.941,-0.61 0.431,-0.296 1.121,-0.3 1.414,-0.106 0.292,0.194 0.683,-0.031 0.062,-0.439 -0.62,-0.409 -2.027,-1.061 -3.533,-0.628 -1.508,0.433 -3.425,1.58 -3.675,1.769 -0.148,0.111 -0.306,0.054 -0.372,-0.089 0.798,-1.309 1.784,-2.596 2.735,-3.03 0.177,-0.08 0.668,-0.284 1.034,-0.009 0.365,0.275 0.84,0.443 1.079,0.352 0.238,-0.09 0.478,0.019 0.572,0.176 0.095,0.158 0.306,0.11 0.18,-0.189 -0.128,-0.299 -0.638,-0.66 -1.187,-0.73 -0.548,-0.07 -1.014,-0.002 -1.17,0.026 -0.157,0.028 -0.099,-0.075 0.124,-0.169 0.223,-0.095 0.919,-0.356 1.032,-0.411 0.113,-0.056 0.353,0.121 0.576,0.093 0.223,-0.028 0.635,-0.085 1.041,0.026 0.749,0.203 0.845,0.561 1.3,0.741 0.455,0.181 0.82,0.255 1.11,0.227 0.289,-0.028 0.627,0.156 0.718,0.329 C -0.056,0.37 0.194,0.366 0,0"
               style="fill:#fff685;fill-opacity:1;fill-rule:nonzero;stroke:none"
               id="path4363"
               inkscape:connector-curvature="0" />
          </g>
        </g>
        <g
           id="g4365"
           transform="matrix(0.705315,0.708894,0.729939,-0.684163,115.687,379.689)">
          <g
             id="g4367"
             transform="translate(31.588,0.8294)">
            <path
               d="M 0,0 C -0.047,0.155 -0.036,0.502 0.046,0.49 0.122,0.332 0.427,0.39 0.617,0.188 0.806,-0.015 1.153,-0.396 1.578,-0.55 2.361,-0.834 2.625,-0.428 3.129,-0.524 3.633,-0.621 4.001,-0.793 4.251,-1.045 4.501,-1.296 4.9,-1.301 5.068,-1.138 5.237,-0.974 5.463,-1.165 5.105,-1.509 4.748,-1.854 3.937,-2.402 3.066,-2.033 2.194,-1.663 1.085,-0.688 0.939,-0.527 0.854,-0.433 0.763,-0.481 0.725,-0.601 0.513,-0.721 0.536,-0.656 0.389,-0.645 0.036,-0.462 0.165,-0.44 0,0"
               style="fill:#fff685;fill-opacity:1;fill-rule:nonzero;stroke:none"
               id="path4369"
               inkscape:connector-curvature="0" />
          </g>
        </g>
        <g
           id="g4371"
           transform="matrix(0.456928,-0.889503,-0.900398,-0.435719,125.855,436.374)">
          <g
             id="g4373"
             transform="translate(27.5926,-10.2173)">
            <path
               d="m 0,0 c -2.005,-0.962 -3.709,1.403 -4.18,2.505 -0.503,1.164 -0.472,4.658 3.523,4.377 -2.126,0.328 -5.073,0.314 -6.022,-0.471 -1.625,-1.239 0.291,-3.59 1.316,-4.054 0.1,-0.046 0.06,-0.136 0.014,-0.122 -2.137,-0.955 -4.068,2.713 -4.052,3.79 -0.293,4.708 4.423,4.804 4.933,4.925 -2.374,0.488 -7.324,1.009 -5.92,-4.158 0.011,-0.04 -1.869,1.839 -1.07,3.708 1.6,3.415 8.089,1.728 8.179,1.708 -0.377,0.318 -3.189,3.108 -2.621,5.005 0.23,-0.295 2.216,-2.144 2.378,-2.244 -0.687,0.842 -3.708,4.013 -2.212,5.576 2.526,2.23 5.443,-2.346 5.776,-2.86 1.141,-0.688 2.305,-0.946 3.465,-0.961 0.006,-0.835 -0.687,-0.273 -0.722,-0.128 -1.077,4.533 3.042,4.154 3.276,4.147 0.646,1.294 2.31,1.418 3.649,1.004 0.732,-0.223 3.153,-1.285 3.153,-1.285 0.664,-0.244 1.994,0.575 2.23,1.041 C 18.66,14.387 12.277,7.887 7.505,6.127 7.676,5.11 6.835,4.352 6.237,4.107 4.16,3.25 1.546,4.37 -0.66,4.657 -4.308,5.35 -2.565,1.869 -2.321,1.52 -0.165,-0.829 0.048,1.902 0.311,2.587 0.887,2.024 1.118,0.496 0,0 m 5.862,17.705 c 0.002,0.001 0.004,0.001 0.006,0.001 0,0 -0.004,0 -0.006,-0.001"
               style="fill:#f36f21;fill-opacity:1;fill-rule:nonzero;stroke:none"
               id="path4375"
               inkscape:connector-curvature="0" />
          </g>
        </g>
        <g
           id="g4377"
           transform="matrix(0.456928,-0.889503,-0.900398,-0.435719,125.855,436.374)">
          <g
             id="g4379"
             transform="translate(42.6327,10.3896)">
            <path
               d="m 0,0 c 0.923,-1.075 1.871,-9.817 -8.424,-13.713 0.009,-0.078 0.01,-0.151 0.008,-0.223 -0.04,-0.909 -0.495,-1.465 -1.177,-1.744 -1.938,-0.799 -4.376,0.246 -6.433,0.513 -0.566,0.074 -1.492,0.079 -2.111,-0.332 -1.395,-0.921 -0.267,-3.041 0.051,-3.497 1.385,-1.988 3.744,-1.962 3.406,0.243 -0.019,0.181 0.199,0.127 0.224,-0.065 0.134,-0.607 -0.09,-1.641 -1.107,-1.736 -0.504,-0.051 -0.961,0.085 -1.358,0.314 -0.978,0.559 -1.663,1.669 -1.882,2.679 -0.22,1 -0.076,2.059 0.575,2.739 1.097,1.14 3.184,0.932 3.449,0.896 1.836,-0.234 3.73,-0.954 5.282,-0.501 0.322,0.092 0.589,0.321 0.7,0.658 -1.182,-0.154 -2.152,-0.088 -2.39,-0.064 -3.618,0.344 -7.383,1.655 -10.4,0.629 -0.953,-0.328 -1.626,-1.268 -1.371,-2.629 0.214,-1.13 1.079,-1.949 2.035,-2.382 0.093,-0.042 0.056,-0.127 0.013,-0.114 -0.542,0.149 -1.041,0.494 -1.458,0.942 -0.804,0.861 -1.32,2.105 -1.305,3.11 0.023,1.839 0.883,2.985 2.198,3.603 1.514,0.71 3.212,0.816 4.963,0.667 -0.886,0.22 -1.762,0.434 -2.586,0.609 -2.365,0.507 -4.84,0.928 -6.254,-0.313 -1.508,-1.326 -0.385,-3.244 -0.331,-3.505 0.01,-0.037 -0.019,-0.034 -0.039,0.005 -0.625,1.19 -0.659,2.399 -0.196,3.191 0.706,1.206 2.145,2.158 7.019,1.101 1.016,-0.222 1.993,-0.469 2.915,-0.712 -0.933,0.525 -1.848,1.232 -2.675,2.146 -0.851,0.944 -1.531,2.06 -1.919,3.313 3.039,-3.89 6.379,-3.892 9.541,-3.22 -0.012,-10e-4 -0.029,0.003 -0.041,0.003 -2.012,-0.5 -5.257,0.046 -7.698,2.625 -1.149,1.212 -2.144,3.008 -1.477,4.03 0.431,0.664 1.445,0.436 2.341,-0.025 1.719,-0.877 2.633,-2.288 2.787,-2.706 0.043,-0.124 0.023,-0.251 -0.095,-0.034 -0.643,1.204 -2.288,2.523 -3.332,2.793 -1.929,0.497 -1.823,-0.967 -0.282,-2.625 0.744,-0.799 2.123,-1.74 3.608,-2.463 -0.449,0.334 -0.884,0.723 -1.293,1.176 -0.703,0.779 -1.263,1.702 -1.587,2.736 2.108,-2.696 4.386,-3.128 6.612,-2.87 -0.566,1.632 0.26,3.435 2.601,3.535 -0.056,0.223 -0.055,0.444 -0.003,0.646 -2.041,0.333 -3.541,-1.116 -3.114,-3.473 0.018,-0.108 -0.081,-0.081 -0.114,0.054 -0.294,1.217 0.075,3.315 2.069,3.584 0.417,0.057 0.822,0.047 1.208,-0.014 0.282,0.706 1.248,1.141 2.746,0.677 0.682,-0.208 1.535,-0.627 2.374,-0.975 l 0.566,-0.222 c 1.282,-0.473 2.115,-0.622 2.628,0.394 z m -3.812,-1.738 c -0.042,-0.09 -0.081,-0.182 -0.112,-0.278 0.404,-0.054 0.794,-0.089 1.159,-0.086 -0.353,0.098 -0.701,0.223 -1.047,0.364 m -0.336,-0.244 c 0.024,0.119 0.051,0.237 0.083,0.351 -0.697,0.294 -1.389,0.635 -2.085,0.912 -0.757,0.298 -1.715,0.496 -2.243,0.199 0.696,-0.194 1.329,-0.553 1.894,-0.997 0.765,-0.161 1.579,-0.347 2.351,-0.465 m -6.934,-8.85 c 1.613,-0.262 2.858,-0.174 3.634,0.657 0.022,0.019 0.053,-0.012 0.035,-0.032 -0.427,-0.604 -1.186,-0.879 -2.153,-0.941 0.252,-0.033 0.5,-0.063 0.748,-0.088 1.109,-0.105 2.927,-0.048 4.117,0.822 0.48,0.35 0.798,0.771 0.994,1.234 -2.491,-0.494 -4.696,-1.492 -7.375,-1.652 m 5.429,7.329 c -2.156,0.259 -3.849,0.353 -4.579,-0.181 -0.26,-0.265 -0.628,-0.54 0.059,-0.414 1.077,0.513 3.696,0.677 4.52,0.595 0.04,0.005 0.08,0.01 0.124,0.01 -0.813,0.183 -1.63,0.387 -2.433,0.519 -1.538,0.252 -3.492,0.019 -3.308,-1.75 1.978,0.269 3.904,1.047 5.617,1.221 m -1.275,2.074 c -0.421,0.3 -0.865,0.544 -1.306,0.693 -0.111,0.036 -0.218,0.067 -0.321,0.094 -0.135,-0.131 -0.218,-0.316 -0.231,-0.572 0.143,0.005 0.292,0.002 0.445,-0.009 0.424,-0.028 0.906,-0.107 1.413,-0.206"
               style="fill:#faa61a;fill-opacity:1;fill-rule:nonzero;stroke:none"
               id="path4381"
               inkscape:connector-curvature="0" />
          </g>
        </g>
        <g
           id="g4383"
           transform="translate(141.698,410.641)">
          <path
             d="m 0,0 c -2.423,-2.076 -0.311,-2.645 -0.497,-4.842 -1.068,1.563 -1.603,2.243 -1.74,3.874 -0.124,1.912 -1.841,2.777 -1.864,2.784 1.466,-1.852 -0.55,-2.409 0.916,-6.658 -0.384,0.438 -1.339,3.123 -3.874,3.382 2.417,-1.197 4.139,-6.735 4.131,-8.477 -10e-4,0.007 -0.005,0.015 -0.006,0.022 0.044,1.116 -2.194,4.018 -2.783,4.08 1.301,-2.053 1.601,-4.135 1.5,-5.904 -0.507,0.558 -1.187,0.931 -1.81,0.814 1.405,-0.601 1.272,-3.141 1.184,-4.005 -0.128,-0.904 -0.75,-1.813 -0.75,-1.813 2.486,0.28 4.028,1.441 5.158,2.58 C 6.711,-6.961 -1.855,-2.55 0,0"
             style="fill:#fff200;fill-opacity:1;fill-rule:nonzero;stroke:none"
             id="path4385"
             inkscape:connector-curvature="0" />
        </g>
      </g>
    </g>
  </g>
</svg>
