<?xml version="1.0" encoding="UTF-8" standalone="no"?>
<!-- Created with Inkscape (http://www.inkscape.org/) -->

<svg
   xmlns:dc="http://purl.org/dc/elements/1.1/"
   xmlns:cc="http://creativecommons.org/ns#"
   xmlns:rdf="http://www.w3.org/1999/02/22-rdf-syntax-ns#"
   xmlns:svg="http://www.w3.org/2000/svg"
   xmlns="http://www.w3.org/2000/svg"
   xmlns:sodipodi="http://sodipodi.sourceforge.net/DTD/sodipodi-0.dtd"
   xmlns:inkscape="http://www.inkscape.org/namespaces/inkscape"
   width="42.424pt"
   height="32.792pt"
   viewBox="0 0 14.966245 11.568289"
   version="1.1"
   id="svg8731"
   inkscape:version="0.92.3 (2405546, 2018-03-11)"
   sodipodi:docname="green.svg">
  <defs
     id="defs8725">
    <clipPath
       clipPathUnits="userSpaceOnUse"
       id="clipPath3867">
      <path
         d="M 0,0 H 612 V 792 H 0 Z"
         id="path3865"
         inkscape:connector-curvature="0" />
    </clipPath>
    <clipPath
       clipPathUnits="userSpaceOnUse"
       id="clipPath3985">
      <path
         d="M 0,0 H 612 V 792 H 0 Z"
         id="path3983"
         inkscape:connector-curvature="0" />
    </clipPath>
    <clipPath
       clipPathUnits="userSpaceOnUse"
       id="clipPath4097">
      <path
         d="M 0,0 H 612 V 792 H 0 Z"
         id="path4095"
         inkscape:connector-curvature="0" />
    </clipPath>
  </defs>
  <sodipodi:namedview
     id="base"
     pagecolor="#ffffff"
     bordercolor="#666666"
     borderopacity="1.0"
     inkscape:pageopacity="0.0"
     inkscape:pageshadow="2"
     inkscape:zoom="1"
     inkscape:cx="-41.200553"
     inkscape:cy="25.05677"
     inkscape:document-units="mm"
     inkscape:current-layer="layer1"
     showgrid="false"
     units="pt"
     inkscape:window-width="1440"
     inkscape:window-height="836"
     inkscape:window-x="0"
     inkscape:window-y="27"
     inkscape:window-maximized="1" />
  <metadata
     id="metadata8728">
    <rdf:RDF>
      <cc:Work
         rdf:about="">
        <dc:format>image/svg+xml</dc:format>
        <dc:type
           rdf:resource="http://purl.org/dc/dcmitype/StillImage" />
        <dc:title></dc:title>
      </cc:Work>
    </rdf:RDF>
  </metadata>
  <g
     inkscape:label="Layer 1"
     inkscape:groupmode="layer"
     id="layer1"
     transform="translate(-82.906066,-103.96538)">
    <g
       transform="matrix(0.35277777,0,0,-0.35277777,41.906234,290.73369)"
       id="g4091">
      <g
         id="g4093"
         clip-path="url(#clipPath4097)">
        <g
           id="g4099"
           transform="translate(158.644,513.026)">
          <path
             d="m 0,0 c 0,-9.054 -9.499,-16.396 -21.212,-16.396 -11.713,0 -21.212,7.342 -21.212,16.396 0,9.054 9.499,16.396 21.212,16.396 C -9.499,16.396 0,9.054 0,0"
             style="fill:#008c44;fill-opacity:1;fill-rule:nonzero;stroke:none"
             id="path4101"
             inkscape:connector-curvature="0" />
        </g>
        <g
           id="g4103"
           transform="translate(134.897,497.315)">
          <path
             d="M 0,0 C 0.318,0 0.576,0.251 0.576,0.561 0.576,0.871 0.318,1.122 0,1.122 -0.318,1.122 -0.576,0.871 -0.576,0.561 -0.576,0.251 -0.318,0 0,0 m 0,31.422 c 0.318,0 0.576,-0.251 0.576,-0.561 0,-0.31 -0.258,-0.562 -0.576,-0.562 -0.318,0 -0.576,0.252 -0.576,0.562 0,0.31 0.258,0.561 0.576,0.561 m 2.536,0.134 c 0.318,0 0.576,-0.251 0.576,-0.561 0,-0.31 -0.258,-0.561 -0.576,-0.561 -0.318,0 -0.576,0.251 -0.576,0.561 0,0.31 0.258,0.561 0.576,0.561 m 2.535,-0.134 c -0.318,0 -0.576,-0.251 -0.576,-0.561 0,-0.31 0.258,-0.562 0.576,-0.562 0.318,0 0.577,0.252 0.577,0.562 0,0.31 -0.259,0.561 -0.577,0.561 M 7.702,31.01 c -0.318,0 -0.576,-0.252 -0.576,-0.562 0,-0.309 0.258,-0.561 0.576,-0.561 0.319,0 0.577,0.252 0.577,0.561 0,0.31 -0.258,0.562 -0.577,0.562 m 2.567,-0.699 c -0.318,0 -0.576,-0.252 -0.576,-0.561 0,-0.31 0.258,-0.562 0.576,-0.562 0.318,0 0.576,0.252 0.576,0.562 0,0.309 -0.258,0.561 -0.576,0.561 m 2.463,-0.992 c -0.319,0 -0.577,-0.251 -0.577,-0.561 0,-0.31 0.258,-0.561 0.577,-0.561 0.318,0 0.576,0.251 0.576,0.561 0,0.31 -0.258,0.561 -0.576,0.561 m 2.313,-1.289 c -0.319,0 -0.577,-0.251 -0.577,-0.561 0,-0.31 0.258,-0.561 0.577,-0.561 0.318,0 0.576,0.251 0.576,0.561 0,0.31 -0.258,0.561 -0.576,0.561 m 2.107,-1.587 c -0.318,0 -0.576,-0.251 -0.576,-0.561 0,-0.31 0.258,-0.561 0.576,-0.561 0.318,0 0.576,0.251 0.576,0.561 0,0.31 -0.258,0.561 -0.576,0.561 m 1.835,-1.88 c -0.318,0 -0.576,-0.251 -0.576,-0.561 0,-0.31 0.258,-0.561 0.576,-0.561 0.318,0 0.576,0.251 0.576,0.561 0,0.31 -0.258,0.561 -0.576,0.561 m 1.483,-2.154 c -0.318,0 -0.576,-0.251 -0.576,-0.561 0,-0.31 0.258,-0.562 0.576,-0.562 0.318,0 0.576,0.252 0.576,0.562 0,0.31 -0.258,0.561 -0.576,0.561 m 1.034,-2.389 c -0.318,0 -0.576,-0.252 -0.576,-0.561 0,-0.31 0.258,-0.562 0.576,-0.562 0.318,0 0.576,0.252 0.576,0.562 0,0.309 -0.258,0.561 -0.576,0.561 m 0.509,-2.544 c -0.318,0 -0.576,-0.252 -0.576,-0.562 0,-0.31 0.258,-0.561 0.576,-0.561 0.318,0 0.576,0.251 0.576,0.561 0,0.31 -0.258,0.562 -0.576,0.562 M -2.631,31.01 c 0.318,0 0.576,-0.252 0.576,-0.562 0,-0.309 -0.258,-0.561 -0.576,-0.561 -0.318,0 -0.576,0.252 -0.576,0.561 0,0.31 0.258,0.562 0.576,0.562 m -2.567,-0.699 c 0.319,0 0.576,-0.252 0.576,-0.561 0,-0.31 -0.257,-0.562 -0.576,-0.562 -0.318,0 -0.576,0.252 -0.576,0.562 0,0.309 0.258,0.561 0.576,0.561 M -7.66,29.319 c 0.318,0 0.576,-0.251 0.576,-0.561 0,-0.31 -0.258,-0.561 -0.576,-0.561 -0.318,0 -0.576,0.251 -0.576,0.561 0,0.31 0.258,0.561 0.576,0.561 M -9.973,28.03 c 0.318,0 0.576,-0.251 0.576,-0.561 0,-0.31 -0.258,-0.561 -0.576,-0.561 -0.318,0 -0.576,0.251 -0.576,0.561 0,0.31 0.258,0.561 0.576,0.561 m -2.108,-1.587 c 0.318,0 0.576,-0.251 0.576,-0.561 0,-0.31 -0.258,-0.561 -0.576,-0.561 -0.318,0 -0.576,0.251 -0.576,0.561 0,0.31 0.258,0.561 0.576,0.561 m -1.835,-1.88 c 0.318,0 0.576,-0.251 0.576,-0.561 0,-0.31 -0.258,-0.561 -0.576,-0.561 -0.318,0 -0.576,0.251 -0.576,0.561 0,0.31 0.258,0.561 0.576,0.561 m -1.483,-2.154 c 0.318,0 0.576,-0.251 0.576,-0.561 0,-0.31 -0.258,-0.562 -0.576,-0.562 -0.318,0 -0.576,0.252 -0.576,0.562 0,0.31 0.258,0.561 0.576,0.561 m -1.034,-2.389 c 0.318,0 0.576,-0.252 0.576,-0.561 0,-0.31 -0.258,-0.562 -0.576,-0.562 -0.318,0 -0.576,0.252 -0.576,0.562 0,0.309 0.258,0.561 0.576,0.561 m -0.509,-2.544 c 0.318,0 0.576,-0.252 0.576,-0.562 0,-0.31 -0.258,-0.561 -0.576,-0.561 -0.318,0 -0.576,0.251 -0.576,0.561 0,0.31 0.258,0.562 0.576,0.562 M 2.536,-0.134 c 0.318,0 0.576,0.251 0.576,0.561 0,0.31 -0.258,0.561 -0.576,0.561 -0.318,0 -0.576,-0.251 -0.576,-0.561 0,-0.31 0.258,-0.561 0.576,-0.561 M 5.071,0 C 4.753,0 4.495,0.251 4.495,0.561 c 0,0.31 0.258,0.561 0.576,0.561 0.318,0 0.577,-0.251 0.577,-0.561 C 5.648,0.251 5.389,0 5.071,0 m 2.631,0.412 c -0.318,0 -0.576,0.252 -0.576,0.562 0,0.309 0.258,0.561 0.576,0.561 0.319,0 0.577,-0.252 0.577,-0.561 0,-0.31 -0.258,-0.562 -0.577,-0.562 m 2.567,0.699 c -0.318,0 -0.576,0.252 -0.576,0.561 0,0.31 0.258,0.562 0.576,0.562 0.318,0 0.576,-0.252 0.576,-0.562 0,-0.309 -0.258,-0.561 -0.576,-0.561 m 2.463,0.992 c -0.319,0 -0.577,0.251 -0.577,0.561 0,0.31 0.258,0.561 0.577,0.561 0.318,0 0.576,-0.251 0.576,-0.561 0,-0.31 -0.258,-0.561 -0.576,-0.561 m 2.313,1.289 c -0.319,0 -0.577,0.251 -0.577,0.561 0,0.31 0.258,0.561 0.577,0.561 0.318,0 0.576,-0.251 0.576,-0.561 0,-0.31 -0.258,-0.561 -0.576,-0.561 m 2.107,1.587 c -0.318,0 -0.576,0.251 -0.576,0.561 0,0.31 0.258,0.561 0.576,0.561 0.318,0 0.576,-0.251 0.576,-0.561 0,-0.31 -0.258,-0.561 -0.576,-0.561 m 1.835,1.88 c -0.318,0 -0.576,0.251 -0.576,0.561 0,0.31 0.258,0.561 0.576,0.561 0.318,0 0.576,-0.251 0.576,-0.561 0,-0.31 -0.258,-0.561 -0.576,-0.561 m 1.483,2.154 c -0.318,0 -0.576,0.251 -0.576,0.561 0,0.31 0.258,0.561 0.576,0.561 0.318,0 0.576,-0.251 0.576,-0.561 0,-0.31 -0.258,-0.561 -0.576,-0.561 m 1.034,2.389 c -0.318,0 -0.576,0.252 -0.576,0.562 0,0.309 0.258,0.561 0.576,0.561 0.318,0 0.576,-0.252 0.576,-0.561 0,-0.31 -0.258,-0.562 -0.576,-0.562 m 0.509,2.544 c -0.318,0 -0.576,0.252 -0.576,0.562 0,0.309 0.258,0.561 0.576,0.561 0.318,0 0.576,-0.252 0.576,-0.561 0,-0.31 -0.258,-0.562 -0.576,-0.562 M -2.631,0.412 c 0.318,0 0.576,0.252 0.576,0.562 0,0.309 -0.258,0.561 -0.576,0.561 -0.318,0 -0.576,-0.252 -0.576,-0.561 0,-0.31 0.258,-0.562 0.576,-0.562 m -2.567,0.699 c 0.319,0 0.576,0.252 0.576,0.561 0,0.31 -0.257,0.562 -0.576,0.562 -0.318,0 -0.576,-0.252 -0.576,-0.562 0,-0.309 0.258,-0.561 0.576,-0.561 M -7.66,2.103 c 0.318,0 0.576,0.251 0.576,0.561 0,0.31 -0.258,0.561 -0.576,0.561 -0.318,0 -0.576,-0.251 -0.576,-0.561 0,-0.31 0.258,-0.561 0.576,-0.561 m -2.313,1.289 c 0.318,0 0.576,0.251 0.576,0.561 0,0.31 -0.258,0.561 -0.576,0.561 -0.318,0 -0.576,-0.251 -0.576,-0.561 0,-0.31 0.258,-0.561 0.576,-0.561 m -2.108,1.587 c 0.318,0 0.576,0.251 0.576,0.561 0,0.31 -0.258,0.561 -0.576,0.561 -0.318,0 -0.576,-0.251 -0.576,-0.561 0,-0.31 0.258,-0.561 0.576,-0.561 m -1.835,1.88 c 0.318,0 0.576,0.251 0.576,0.561 0,0.31 -0.258,0.561 -0.576,0.561 -0.318,0 -0.576,-0.251 -0.576,-0.561 0,-0.31 0.258,-0.561 0.576,-0.561 m -1.483,2.154 c 0.318,0 0.576,0.251 0.576,0.561 0,0.31 -0.258,0.561 -0.576,0.561 -0.318,0 -0.576,-0.251 -0.576,-0.561 0,-0.31 0.258,-0.561 0.576,-0.561 m -1.034,2.389 c 0.318,0 0.576,0.252 0.576,0.562 0,0.309 -0.258,0.561 -0.576,0.561 -0.318,0 -0.576,-0.252 -0.576,-0.561 0,-0.31 0.258,-0.562 0.576,-0.562 m -0.509,2.544 c 0.318,0 0.576,0.252 0.576,0.562 0,0.309 -0.258,0.561 -0.576,0.561 -0.318,0 -0.576,-0.252 -0.576,-0.561 0,-0.31 0.258,-0.562 0.576,-0.562"
             style="fill:#00ab4e;fill-opacity:1;fill-rule:nonzero;stroke:none"
             id="path4105"
             inkscape:connector-curvature="0" />
        </g>
        <g
           id="g4107"
           transform="translate(155.53,513.026)">
          <path
             d="m 0,0 c 0,-7.725 -8.105,-13.989 -18.098,-13.989 -9.994,0 -18.098,6.264 -18.098,13.989 0,7.725 8.104,13.989 18.098,13.989 C -8.105,13.989 0,7.725 0,0"
             style="fill:#72bf44;fill-opacity:1;fill-rule:nonzero;stroke:none"
             id="path4109"
             inkscape:connector-curvature="0" />
        </g>
        <g
           id="g4111"
           transform="matrix(-0.518822,-0.854882,0.86843,-0.4965,15.043,488.41)">
          <g
             id="g4113"
             transform="translate(-86.1185,89.4824)">
            <path
               d="m 0,0 c 0.279,-0.203 0.378,-0.612 0.178,-0.939 -0.2,-0.328 -0.92,-1.391 -1.061,-2.025 -0.242,-1.083 -0.362,-1.635 -0.364,-3.025 -0.002,-0.94 0.375,-2.553 0.854,-2.921 0.459,-0.366 1.018,-0.284 1.398,-0.12 0.379,0.164 0.818,-0.06 1.257,-0.447 0.697,-0.612 1.237,-0.591 1.877,0.146 0.18,0.184 0.319,0.102 0.119,-0.225 -0.2,-0.347 -1.06,-1.043 -2.198,-1.045 -1.118,0.018 -2.075,0.752 -2.215,1.018 -0.139,0.245 -0.139,0.04 -0.06,-0.164 0.08,-0.204 0.398,-0.96 0.757,-1.266 0.359,-0.306 1.317,-0.651 1.956,-0.691 0.639,-0.04 1.377,-0.284 1.616,-0.713 0.259,-0.429 0.658,-0.816 1.017,-0.795 0.339,0.021 0.339,-0.163 -0.18,-0.348 -0.5,-0.164 -1.797,0.059 -2.575,0.507 -0.798,0.428 -1.675,1.346 -1.854,1.632 -0.16,0.286 -0.539,0.633 -0.638,0.857 -0.1,0.245 -0.199,0.184 -0.2,-0.123 -0.02,-0.306 0.158,-0.899 -0.062,-1.308 -0.24,-0.389 -0.24,-0.735 -0.281,-1.042 -0.021,-0.327 -0.26,-0.573 -0.52,-0.696 -0.26,-0.143 -0.26,-0.021 -0.1,0.163 0.18,0.185 0.261,0.532 0.042,0.961 -0.219,0.449 -0.338,1.286 -0.058,1.798 0.281,0.532 0.681,0.778 0.681,1.105 0.001,0.326 -0.258,0.918 -0.338,1.184 -0.059,0.245 -0.179,0.49 -0.279,-0.062 -0.101,-0.572 -0.621,-0.941 -0.82,-1.023 -0.22,-0.102 -0.42,-0.184 -0.7,-0.205 -0.299,-0.021 -0.259,0.102 -0.039,0.225 0.2,0.102 0.4,0.123 0.38,0.49 -0.019,0.368 0.041,0.777 0.261,1.043 0.2,0.266 0.899,0.185 0.8,0.614 -0.139,0.776 -0.236,2.86 0.266,4.476 0.161,0.551 0.862,1.84 1.062,2.106 0.18,0.245 0.06,0.613 -0.199,0.633 C -0.14,-0.123 0,0 0,0"
               style="fill:#bbd876;fill-opacity:1;fill-rule:nonzero;stroke:none"
               id="path4115"
               inkscape:connector-curvature="0" />
          </g>
        </g>
        <g
           id="g4117"
           transform="matrix(-0.999426,0.0338743,0.0359557,0.999356,15.043,488.41)">
          <g
             id="g4119"
             transform="translate(-109.418,24.4336)">
            <path
               d="m 0,0 c 0.562,0 0.99,-0.574 0.989,-1.263 0,-0.689 -0.427,-1.262 -0.989,-1.262 -0.54,0 -0.99,0.573 -0.99,1.262 C -0.99,-0.574 -0.54,0 0,0 M 1.3,8.522 C 1.28,8.314 1.115,8.147 0.91,8.147 c -0.205,0 -0.349,0.167 -0.349,0.375 0,0.209 0.164,0.376 0.37,0.376 C 1.136,8.898 1.3,8.731 1.3,8.522 M 2.77,1.735 C 3.248,1.043 3.225,0.19 2.747,-0.157 2.246,-0.503 1.45,-0.226 0.972,0.466 0.494,1.181 0.494,2.011 0.995,2.381 1.496,2.727 2.27,2.45 2.77,1.735 M 3.941,3.752 C 4.321,3.182 4.321,2.543 3.986,2.315 3.627,2.063 3.045,2.337 2.687,2.885 2.329,3.432 2.307,4.094 2.665,4.322 3.001,4.573 3.583,4.3 3.941,3.752 M 2.598,7.308 c -0.229,0 -0.416,0.168 -0.416,0.399 0.021,0.231 0.187,0.399 0.416,0.399 0.228,0 0.394,-0.188 0.394,-0.399 0,-0.231 -0.187,-0.421 -0.394,-0.399 M 2.106,6.539 C 2.331,6.878 2.941,6.878 3.459,6.518 4.001,6.18 4.271,5.617 4.046,5.301 3.82,4.963 3.211,4.963 2.692,5.323 2.151,5.662 1.88,6.224 2.106,6.539 m -9.445,-9.965 c 0.292,-0.023 0.668,-0.078 0.959,-0.045 0.398,0.046 0.678,0.209 1.028,0.721 0.327,0.511 1.238,0.86 2.266,1.092 1.028,0.233 0.911,0.837 0.911,1.232 0,0.395 0.094,0.303 0.211,0.07 0.14,-0.326 0.186,-0.953 -0.258,-1.767 -0.444,-0.79 -1.868,-1.301 -2.522,-1.465 -0.574,-0.138 -1.126,-0.096 -1.595,-0.107 1.36,-0.307 2.704,-0.376 3.979,-0.134 0.357,0.072 0.81,0.216 1.001,0.456 0.214,0.24 0.739,0.719 0.667,0.983 0.144,-0.096 0.358,-0.24 0.453,-0.24 -0.286,-0.143 -0.453,-0.407 -0.572,-0.527 -0.095,-0.12 -0.262,-0.312 -0.381,-0.384 -0.12,-0.072 -0.072,-0.144 0.238,-0.072 1.264,0.288 3.218,0.84 3.814,1.919 0.12,0.216 0.143,1.319 0,1.343 0.12,0.072 0.263,0.312 0.31,0.456 0,0 0.072,-0.144 0.095,-0.168 0.144,-0.288 0,-1.031 -0.023,-1.199 C 3.217,-1.406 3.289,-1.478 3.337,-1.358 3.933,-0.207 4.433,0.897 4.053,1.928 4.005,2.12 3.909,2.096 3.909,2.096 4.005,2.12 4.243,2.287 4.243,2.287 4.219,2.047 4.338,1.952 4.362,1.784 4.41,1.592 4.482,1.376 4.457,1.089 4.433,0.824 4.577,0.824 4.672,1.16 4.934,2.167 5.459,4.302 4.148,5.141 4.196,5.213 4.244,5.405 4.267,5.501 4.339,5.309 4.53,5.189 4.649,5.045 4.744,4.901 4.958,4.637 4.958,4.446 4.935,4.278 5.078,4.326 5.054,4.661 5.054,4.997 4.673,6.46 4.291,7.06 3.886,7.635 3.29,7.588 3.124,7.491 c 0,0.072 0,0.264 -0.048,0.336 C 3.29,7.779 3.41,7.827 3.529,7.803 3.648,7.779 3.576,7.923 3.41,8.067 2.742,8.618 1.932,8.906 1.169,8.954 -4.266,9.193 -3.742,5.692 -3.074,5.38 -2.598,5.164 -2.311,5.284 -2.026,5.452 -1.74,5.62 -1.239,5.716 -1.072,5.309 -0.905,4.901 -1.239,4.709 -1.597,4.589 -1.954,4.493 -2.288,4.157 -2.05,3.678 c 0.263,-0.48 0.62,-0.504 0.859,-0.456 0.238,0.048 0.262,0.288 0.357,0.456 0.072,0.192 0.357,0.384 0.691,0.095 V 3.75 C 0,3.606 -0.095,3.438 -0.238,3.558 -0.381,3.678 -0.596,3.749 -0.691,3.414 -0.762,3.102 -1.263,2.598 -1.978,3.198 -2.693,3.797 -2.359,4.589 -2.026,4.709 -1.692,4.829 -1.215,4.877 -1.263,5.141 -1.287,5.404 -1.596,5.524 -1.882,5.309 -2.193,5.093 -2.669,5.02 -3.169,5.188 -4.171,5.524 -4.552,9.601 1.312,9.098 2.075,9.05 3.124,8.714 3.767,7.995 3.815,7.923 4.411,7.299 4.578,7.06 4.84,6.676 5.531,5.357 5.555,4.014 5.586,0.745 4.077,-1.812 1.27,-3.152 c 0.235,0.029 0.655,0.202 0.779,0.348 0.167,0.168 1.049,0.575 1.907,0.384 0.858,-0.216 1.359,-1.247 1.359,-1.655 0,-0.407 -0.286,-0.384 -0.262,-0.072 0.048,0.84 -0.644,0.696 -1.216,0.48 -0.572,-0.216 -1.049,0 -1.335,0.239 C 2.24,-3.188 2.074,-3.164 1.763,-3.26 1.43,-3.356 1.096,-3.428 0.572,-3.452 c 0.076,0.013 0.185,0.06 0.3,0.119 -0.423,-0.177 -0.873,-0.326 -1.349,-0.45 0.81,-0.158 1.821,-0.632 2.464,-1.547 0.667,-0.983 0.548,-2.158 0.333,-2.566 -0.191,-0.432 -0.286,-0.192 -0.238,0.072 0.071,0.456 -0.096,1.007 -0.715,1.151 -0.239,0.048 -0.668,0.048 -0.834,0.624 -0.143,0.503 0.143,0.791 -0.405,1.558 -0.194,0.281 -0.594,0.478 -1.227,0.568 -0.842,-0.169 -1.752,-0.266 -2.739,-0.266 -0.42,0 -0.809,0.023 -1.186,0.054 0.203,-0.145 0.561,-0.359 1.09,-0.514 0.549,-0.168 1.288,-0.12 1.907,-1.151 0.62,-1.031 0.5,-1.319 0.405,-1.799 -0.072,-0.287 -0.215,-0.383 -0.334,0.048 -0.119,0.432 -0.429,0.672 -0.905,0.888 -0.453,0.216 -0.93,0.455 -1.407,1.151 -0.458,0.691 -0.639,1.117 -1.67,1.49 -2.483,0.383 -3.974,1.37 -4.98,1.943 -0.119,0.168 -0.357,0.408 -0.619,0.719 1.364,-0.926 2.783,-1.621 4.198,-2.066"
               style="fill:#bbd876;fill-opacity:1;fill-rule:nonzero;stroke:none"
               id="path4121"
               inkscape:connector-curvature="0" />
          </g>
        </g>
        <g
           id="g4123"
           transform="matrix(0.518822,-0.854882,-0.86843,-0.4965,238.452,488.41)">
          <g
             id="g4125"
             transform="translate(-75.5084,71.2137)">
            <path
               d="m 0,0 c 0.279,-0.203 0.378,-0.612 0.178,-0.939 -0.2,-0.328 -0.92,-1.391 -1.061,-2.025 -0.242,-1.083 -0.362,-1.635 -0.364,-3.025 -0.002,-0.94 0.375,-2.553 0.854,-2.921 0.459,-0.366 1.018,-0.284 1.398,-0.12 0.379,0.164 0.818,-0.06 1.257,-0.447 0.697,-0.612 1.237,-0.591 1.877,0.146 0.18,0.184 0.319,0.102 0.119,-0.225 -0.2,-0.347 -1.06,-1.043 -2.198,-1.045 -1.118,0.018 -2.075,0.752 -2.215,1.018 -0.139,0.245 -0.139,0.04 -0.06,-0.164 0.08,-0.204 0.398,-0.96 0.757,-1.266 0.359,-0.306 1.317,-0.651 1.956,-0.691 0.639,-0.04 1.377,-0.284 1.616,-0.713 0.259,-0.429 0.658,-0.816 1.017,-0.795 0.339,0.021 0.339,-0.163 -0.18,-0.348 -0.5,-0.164 -1.797,0.059 -2.575,0.507 -0.798,0.428 -1.675,1.346 -1.854,1.632 -0.16,0.286 -0.539,0.633 -0.638,0.857 -0.1,0.245 -0.199,0.184 -0.2,-0.123 -0.02,-0.306 0.158,-0.899 -0.062,-1.308 -0.24,-0.389 -0.24,-0.735 -0.281,-1.042 -0.021,-0.327 -0.26,-0.573 -0.52,-0.696 -0.26,-0.143 -0.26,-0.021 -0.1,0.163 0.18,0.185 0.261,0.532 0.042,0.961 -0.219,0.449 -0.338,1.286 -0.058,1.798 0.281,0.532 0.681,0.778 0.681,1.105 0.001,0.326 -0.258,0.918 -0.338,1.184 -0.059,0.245 -0.179,0.49 -0.279,-0.062 -0.101,-0.572 -0.621,-0.941 -0.82,-1.023 -0.22,-0.102 -0.42,-0.184 -0.7,-0.205 -0.299,-0.021 -0.259,0.102 -0.039,0.225 0.2,0.102 0.4,0.123 0.38,0.49 -0.019,0.368 0.041,0.777 0.261,1.043 0.2,0.266 0.899,0.185 0.8,0.614 -0.139,0.776 -0.235,2.86 0.266,4.476 0.161,0.551 0.862,1.84 1.062,2.106 0.18,0.245 0.06,0.613 -0.199,0.633 C -0.14,-0.123 0,0 0,0"
               style="fill:#bbd876;fill-opacity:1;fill-rule:nonzero;stroke:none"
               id="path4127"
               inkscape:connector-curvature="0" />
          </g>
        </g>
        <g
           id="g4129"
           transform="matrix(0.999426,0.0338743,-0.0359557,0.999356,238.452,488.41)">
          <g
             id="g4131"
             transform="translate(-88.0615,23.7097)">
            <path
               d="m 0,0 c 0.562,0 0.99,-0.574 0.989,-1.263 0,-0.689 -0.427,-1.262 -0.989,-1.262 -0.54,0 -0.99,0.573 -0.99,1.262 C -0.99,-0.574 -0.54,0 0,0 M 1.3,8.522 C 1.28,8.314 1.115,8.147 0.91,8.147 c -0.205,0 -0.349,0.167 -0.349,0.375 0,0.209 0.164,0.376 0.37,0.376 C 1.136,8.898 1.3,8.731 1.3,8.522 M 2.77,1.735 C 3.248,1.043 3.225,0.19 2.747,-0.157 2.246,-0.503 1.45,-0.226 0.972,0.466 0.494,1.181 0.494,2.011 0.995,2.381 1.496,2.727 2.27,2.45 2.77,1.735 M 3.941,3.752 C 4.321,3.182 4.321,2.543 3.986,2.315 3.627,2.063 3.045,2.337 2.687,2.885 2.329,3.432 2.307,4.094 2.665,4.322 3.001,4.573 3.583,4.3 3.941,3.752 M 2.598,7.308 c -0.229,0 -0.416,0.168 -0.416,0.399 0.021,0.231 0.187,0.399 0.416,0.399 0.228,0 0.394,-0.188 0.394,-0.399 0,-0.231 -0.187,-0.421 -0.394,-0.399 M 2.106,6.54 C 2.331,6.878 2.941,6.878 3.459,6.518 4.001,6.18 4.271,5.617 4.046,5.301 3.82,4.963 3.211,4.963 2.692,5.323 2.151,5.662 1.88,6.224 2.106,6.54 m -9.445,-9.966 c 0.292,-0.023 0.668,-0.078 0.959,-0.045 0.398,0.046 0.678,0.209 1.028,0.721 0.327,0.511 1.238,0.86 2.266,1.092 1.028,0.233 0.911,0.837 0.911,1.232 0,0.395 0.094,0.303 0.211,0.07 0.14,-0.326 0.186,-0.953 -0.258,-1.767 -0.444,-0.79 -1.868,-1.301 -2.522,-1.465 -0.574,-0.138 -1.126,-0.096 -1.595,-0.107 1.36,-0.307 2.704,-0.376 3.979,-0.134 0.357,0.072 0.81,0.216 1.001,0.456 0.214,0.24 0.739,0.719 0.667,0.983 0.144,-0.096 0.358,-0.24 0.453,-0.24 -0.286,-0.143 -0.453,-0.407 -0.572,-0.527 -0.095,-0.12 -0.262,-0.312 -0.381,-0.384 -0.12,-0.072 -0.072,-0.144 0.238,-0.072 1.264,0.288 3.218,0.84 3.814,1.919 0.12,0.216 0.143,1.319 0,1.343 0.12,0.072 0.263,0.312 0.31,0.456 0,0 0.072,-0.144 0.095,-0.168 0.144,-0.288 0,-1.031 -0.023,-1.199 C 3.217,-1.406 3.289,-1.478 3.337,-1.358 3.933,-0.207 4.433,0.897 4.053,1.928 4.005,2.12 3.909,2.096 3.909,2.096 4.005,2.12 4.243,2.287 4.243,2.287 4.219,2.047 4.338,1.952 4.362,1.784 4.41,1.592 4.482,1.376 4.457,1.089 4.433,0.824 4.577,0.824 4.672,1.16 4.934,2.167 5.459,4.302 4.148,5.141 4.196,5.213 4.244,5.405 4.267,5.501 4.339,5.309 4.53,5.189 4.649,5.045 4.744,4.901 4.958,4.637 4.958,4.446 4.935,4.278 5.078,4.326 5.054,4.661 5.054,4.997 4.673,6.46 4.291,7.06 3.886,7.635 3.29,7.588 3.124,7.491 c 0,0.072 0,0.264 -0.048,0.336 C 3.29,7.779 3.41,7.827 3.529,7.803 3.648,7.779 3.576,7.923 3.41,8.067 2.742,8.618 1.932,8.906 1.169,8.954 -4.266,9.193 -3.742,5.692 -3.074,5.38 -2.598,5.164 -2.311,5.284 -2.026,5.452 -1.74,5.62 -1.239,5.716 -1.072,5.309 -0.905,4.901 -1.239,4.709 -1.597,4.589 -1.954,4.493 -2.288,4.157 -2.05,3.678 c 0.263,-0.48 0.62,-0.504 0.859,-0.456 0.238,0.048 0.262,0.288 0.357,0.456 0.072,0.192 0.357,0.384 0.691,0.095 V 3.75 C 0,3.606 -0.095,3.438 -0.238,3.558 -0.381,3.678 -0.596,3.749 -0.691,3.414 -0.762,3.102 -1.263,2.598 -1.978,3.198 -2.693,3.797 -2.359,4.589 -2.026,4.709 -1.692,4.829 -1.215,4.877 -1.263,5.141 -1.287,5.404 -1.596,5.524 -1.882,5.309 -2.193,5.093 -2.669,5.02 -3.169,5.188 -4.171,5.524 -4.552,9.601 1.312,9.098 2.075,9.05 3.124,8.714 3.767,7.995 3.815,7.923 4.411,7.299 4.578,7.06 4.84,6.676 5.531,5.357 5.555,4.014 5.586,0.745 4.077,-1.812 1.27,-3.152 c 0.235,0.029 0.655,0.202 0.779,0.348 0.167,0.168 1.049,0.575 1.907,0.384 0.858,-0.216 1.359,-1.247 1.359,-1.655 0,-0.407 -0.286,-0.384 -0.262,-0.072 0.048,0.84 -0.644,0.696 -1.216,0.48 -0.572,-0.216 -1.049,0 -1.335,0.239 C 2.24,-3.188 2.074,-3.164 1.763,-3.26 1.43,-3.356 1.096,-3.428 0.572,-3.452 c 0.076,0.013 0.185,0.06 0.3,0.119 -0.423,-0.177 -0.873,-0.326 -1.349,-0.45 0.81,-0.158 1.821,-0.632 2.464,-1.547 0.667,-0.983 0.548,-2.158 0.333,-2.566 -0.191,-0.432 -0.286,-0.192 -0.238,0.072 0.071,0.456 -0.096,1.007 -0.715,1.151 -0.239,0.048 -0.668,0.048 -0.834,0.624 -0.143,0.503 0.143,0.791 -0.405,1.558 -0.194,0.281 -0.594,0.478 -1.227,0.568 -0.842,-0.169 -1.752,-0.266 -2.739,-0.266 -0.42,0 -0.809,0.023 -1.186,0.054 0.203,-0.145 0.561,-0.359 1.09,-0.514 0.549,-0.168 1.288,-0.12 1.907,-1.151 0.62,-1.031 0.5,-1.319 0.405,-1.799 -0.072,-0.287 -0.215,-0.383 -0.334,0.048 -0.119,0.432 -0.429,0.672 -0.905,0.888 -0.453,0.216 -0.93,0.455 -1.407,1.151 -0.458,0.691 -0.639,1.117 -1.67,1.49 -2.483,0.383 -3.974,1.37 -4.98,1.943 -0.119,0.168 -0.357,0.408 -0.619,0.719 1.364,-0.926 2.783,-1.621 4.198,-2.066"
               style="fill:#bbd876;fill-opacity:1;fill-rule:nonzero;stroke:none"
               id="path4133"
               inkscape:connector-curvature="0" />
          </g>
        </g>
        <g
           id="g4135"
           transform="matrix(0.836653,-0.547733,-0.570893,-0.821491,15.5395,468.869)">
          <g
             id="g4137"
             transform="translate(84.661,-100.326)">
            <path
               d="m 0,0 c 0.157,-0.171 0.495,-0.362 0.495,-0.362 0.177,-2.116 -0.931,-4.277 -1.856,-5.026 -0.203,-0.171 -0.519,-0.535 -0.249,-0.834 0.247,-0.299 0.111,-0.94 -0.476,-1.411 -0.587,-0.472 -1.151,-0.986 -1.129,-1.413 0.022,-0.449 -0.316,-0.3 -0.496,-0.022 -0.202,0.256 -0.201,0.983 0.205,1.496 0.429,0.493 0.835,0.835 0.903,0.963 0.069,0.15 0.204,0.257 -0.134,0.107 -1.489,-0.686 -3.812,-1.352 -5.681,-0.33 -2.116,1.151 -1.414,3.076 -0.467,3.548 0.339,0.171 0.609,0.086 0.248,-0.342 -0.384,-0.407 -0.611,-1.176 -0.251,-1.582 0.698,-0.811 1.329,-0.319 2.072,-0.744 0.721,-0.448 0.877,-0.982 1.441,-0.939 0.541,0.044 1.646,0.324 2.322,0.667 0.181,0.085 0.339,0.299 -0.044,0.213 -0.406,-0.107 -1.218,-0.109 -1.623,0.297 -0.562,0.576 -0.335,1.303 0.071,1.71 0.203,0.214 0.338,0.043 0.316,-0.235 -0.024,-0.256 0.314,-0.662 0.719,-0.618 0.384,0.043 1.33,0.109 1.533,-0.126 0.179,-0.214 0.404,-0.149 0.585,-0.021 0.316,0.279 0.881,0.985 1.13,1.605 0.09,0.214 0.226,0.578 -0.135,0.235 -0.384,-0.364 -1.038,-1.006 -1.894,-0.879 -0.857,0.127 -1.69,0.617 -1.936,1.193 -0.091,0.235 0.18,0.343 0.45,0.129 0.27,-0.192 0.743,-0.319 1.285,-0.147 0.564,0.193 1.037,0.365 1.533,0.28 0.54,-0.084 0.721,0.194 0.902,0.472 C 0.02,-1.859 0.201,-0.769 0,0"
               style="fill:#bbd876;fill-opacity:1;fill-rule:nonzero;stroke:none"
               id="path4139"
               inkscape:connector-curvature="0" />
          </g>
        </g>
        <g
           id="g4141"
           transform="matrix(-0.836653,-0.547733,0.570893,-0.821491,15.5395,468.869)">
          <g
             id="g4143"
             transform="translate(-115.607,33.2033)">
            <path
               d="m 0,0 c 0.157,-0.171 0.495,-0.362 0.495,-0.362 0.177,-2.116 -0.931,-4.277 -1.856,-5.026 -0.203,-0.171 -0.519,-0.535 -0.249,-0.834 0.247,-0.299 0.111,-0.94 -0.476,-1.411 -0.587,-0.471 -1.151,-0.986 -1.129,-1.413 0.022,-0.449 -0.316,-0.3 -0.496,-0.022 -0.202,0.256 -0.201,0.983 0.205,1.496 0.429,0.493 0.835,0.835 0.903,0.963 0.069,0.15 0.204,0.258 -0.135,0.107 -1.488,-0.686 -3.811,-1.352 -5.68,-0.33 -2.116,1.151 -1.414,3.076 -0.467,3.548 0.339,0.171 0.609,0.086 0.248,-0.342 -0.384,-0.407 -0.611,-1.176 -0.251,-1.582 0.698,-0.811 1.329,-0.319 2.072,-0.744 0.721,-0.448 0.877,-0.982 1.441,-0.939 0.541,0.044 1.646,0.324 2.322,0.667 0.181,0.085 0.339,0.299 -0.044,0.213 -0.406,-0.107 -1.218,-0.109 -1.623,0.297 -0.562,0.576 -0.335,1.303 0.071,1.71 0.203,0.214 0.338,0.043 0.316,-0.235 -0.024,-0.256 0.314,-0.662 0.719,-0.618 0.384,0.043 1.33,0.109 1.533,-0.126 0.179,-0.214 0.404,-0.149 0.585,-0.021 0.316,0.279 0.881,0.985 1.13,1.605 0.09,0.214 0.226,0.578 -0.135,0.235 -0.384,-0.364 -1.038,-1.006 -1.894,-0.879 -0.857,0.127 -1.69,0.617 -1.936,1.193 -0.091,0.235 0.18,0.343 0.45,0.129 0.27,-0.192 0.743,-0.319 1.285,-0.147 0.564,0.193 1.037,0.365 1.533,0.28 0.54,-0.084 0.721,0.194 0.902,0.472 C 0.02,-1.859 0.201,-0.769 0,0"
               style="fill:#bbd876;fill-opacity:1;fill-rule:nonzero;stroke:none"
               id="path4145"
               inkscape:connector-curvature="0" />
          </g>
        </g>
        <g
           id="g4147"
           transform="matrix(0.812227,0.583341,0.606531,-0.795572,15.4325,468.869)">
          <g
             id="g4149"
             transform="translate(136.021,28.0838)">
            <path
               d="m 0,0 c -0.193,-0.368 -0.704,-1.066 -1.555,-1.26 -0.852,-0.194 -2.096,-0.148 -2.269,-0.124 -0.172,0.025 -0.235,-0.193 -0.036,-0.328 0.2,-0.136 0.867,-0.476 1.204,-0.83 0.552,-0.58 0.759,-1.363 0.731,-2.024 -0.013,-0.29 -0.181,-0.213 -0.192,0.036 -0.012,0.25 -0.172,0.564 -0.474,0.708 -0.302,0.144 -0.773,0.633 -0.921,0.967 -0.148,0.334 -0.316,0.746 -0.422,0.838 -0.106,0.092 -0.169,0.076 -0.342,0.034 -0.172,-0.043 -0.459,0.172 -0.505,0.295 -0.047,0.123 -0.157,0.231 -0.263,0.255 -0.106,0.024 -0.514,0.193 -0.682,0.268 -0.169,0.077 -0.259,0.105 -0.09,-0.106 0.282,-0.353 0.525,-1.331 0.409,-1.733 -0.063,-0.218 -0.169,-0.126 -0.239,0.092 -0.071,0.219 -0.357,0.501 -0.565,0.736 -0.207,0.235 -0.269,0.825 -0.288,1.039 -0.02,0.214 0.055,0.25 -0.247,0.461 -0.584,0.409 -1.092,0.798 -1.583,1.355 0.096,-0.214 0.178,-0.425 0.23,-0.623 0.373,-1.396 0.028,-2.808 -0.585,-3.824 -0.267,-0.445 -0.468,-0.177 -0.272,0.226 0.197,0.403 0.213,1.037 -0.14,1.528 -0.353,0.491 -0.675,1.673 -0.623,2.328 0.052,0.655 0.141,1.451 0.053,1.689 -0.089,0.237 -0.201,0.267 -0.511,0.351 -0.309,0.084 -0.576,0.673 -0.544,0.907 0.031,0.236 -0.049,0.501 -0.196,0.631 -0.146,0.132 -0.646,0.754 -0.846,1.021 -0.202,0.268 -0.896,1.064 -1.191,1.662 -1.087,2.199 -1.81,4.046 -1.658,7.946 -0.169,4.017 0.62,1.478 0.563,0.574 0.085,-3.001 0.51,-6.328 1.745,-7.998 0.21,-0.283 0.26,-1.074 0.531,-1.421 0.27,-0.346 1.144,-1.375 1.276,-1.562 0.132,-0.188 0.662,-0.12 0.99,-0.361 0.329,-0.241 0.93,-0.695 1.668,-0.879 1.358,-0.338 1.816,0.146 2.69,0.03 0.875,-0.116 1.514,-0.32 1.948,-0.62 0.433,-0.3 1.125,-0.306 1.417,-0.111 C -1.492,2.367 -1.1,2.139 -1.72,1.73 -2.34,1.32 -3.748,0.669 -5.259,1.109 -6.771,1.55 -8.696,2.711 -8.947,2.902 -9.096,3.014 -9.254,2.958 -9.319,2.814 c 0.803,-1.321 1.796,-2.62 2.75,-3.059 0.178,-0.082 0.671,-0.288 1.037,-0.013 0.364,0.275 0.84,0.444 1.079,0.351 0.239,-0.092 0.479,0.018 0.573,0.176 0.095,0.158 0.306,0.109 0.181,-0.191 -0.127,-0.301 -0.637,-0.663 -1.187,-0.731 -0.549,-0.069 -1.016,0.001 -1.173,0.029 -0.157,0.029 -0.098,-0.075 0.125,-0.17 0.224,-0.097 0.922,-0.362 1.035,-0.418 0.114,-0.056 0.354,0.121 0.577,0.092 0.224,-0.029 0.637,-0.087 1.044,0.023 0.75,0.202 0.845,0.562 1.3,0.742 0.456,0.18 0.82,0.254 1.111,0.225 0.29,-0.029 0.628,0.155 0.719,0.329 C -0.058,0.372 0.193,0.368 0,0"
               style="fill:#bbd876;fill-opacity:1;fill-rule:nonzero;stroke:none"
               id="path4151"
               inkscape:connector-curvature="0" />
          </g>
        </g>
        <g
           id="g4153"
           transform="matrix(-0.971945,-0.235206,0.248829,-0.968649,15.4325,468.869)">
          <g
             id="g4155"
             transform="translate(-127.258,-16.9571)">
            <path
               d="M 0,0 C 0.513,-0.396 1.138,-0.308 1.563,-0.131 1.987,0.046 2.478,-0.196 2.968,-0.615 3.749,-1.275 4.352,-1.253 5.066,-0.459 5.268,-0.26 5.424,-0.348 5.2,-0.701 4.977,-1.076 4.016,-1.826 2.744,-1.827 1.494,-1.806 0.423,-1.014 0.267,-0.727 0.111,-0.463 0.111,-0.683 0.2,-0.903 0.289,-1.124 0.646,-1.939 1.047,-2.27 1.448,-2.6 2.52,-2.973 3.234,-3.017 3.948,-3.061 4.774,-3.324 5.042,-3.787 5.331,-4.25 5.777,-4.668 6.179,-4.646 6.558,-4.623 6.558,-4.822 5.978,-5.021 5.42,-5.198 3.969,-4.956 3.099,-4.472 2.207,-4.01 1.225,-3.019 1.024,-2.71 0.846,-2.402 0.422,-2.027 0.311,-1.785 0.2,-1.52 0.088,-1.587 0.088,-1.918 c -0.023,-0.33 0.177,-0.969 -0.069,-1.41 -0.268,-0.42 -0.268,-0.794 -0.313,-1.124 -0.023,-0.353 -0.291,-0.618 -0.581,-0.751 -0.29,-0.154 -0.29,-0.022 -0.112,0.176 0.202,0.199 0.291,0.574 0.046,1.037 -0.245,0.485 -0.378,1.388 -0.066,1.939 0.314,0.574 0.761,0.839 0.761,1.192 0,0.352 -1.066,1.666 -1.156,1.953 C -1.468,1.358 -1.605,1.928 0,0"
               style="fill:#bbd876;fill-opacity:1;fill-rule:nonzero;stroke:none"
               id="path4157"
               inkscape:connector-curvature="0" />
          </g>
        </g>
        <g
           id="g4159"
           transform="matrix(-0.971945,-0.235206,0.248829,-0.968649,15.4325,468.869)">
          <g
             id="g4161"
             transform="translate(-128.787,-10.7175)">
            <path
               d="m 0,0 c 0.142,-0.166 0.13,-0.339 0.13,-0.339 0.162,-2.059 -1.131,-4.124 -1.966,-4.852 -0.184,-0.167 -0.47,-0.521 -0.226,-0.812 0.225,-0.291 0.102,-0.915 -0.429,-1.373 -0.53,-0.458 -1.039,-0.958 -1.019,-1.374 0.019,-0.436 -0.286,-0.291 -0.449,-0.021 -0.183,0.249 -0.182,0.957 0.185,1.456 0.387,0.479 0.754,0.812 0.816,0.937 0.061,0.146 0.183,0.25 -0.122,0.104 -1.346,-0.667 -3.446,-1.313 -5.136,-0.316 -1.914,1.121 -1.281,2.994 -0.425,3.452 0.306,0.167 0.551,0.084 0.224,-0.333 -0.346,-0.395 -0.551,-1.144 -0.225,-1.539 0.631,-0.79 1.202,-0.311 1.874,-0.726 0.651,-0.437 0.793,-0.956 1.303,-0.915 0.489,0.042 1.488,0.314 2.099,0.647 0.164,0.083 0.306,0.291 -0.04,0.208 -0.367,-0.104 -1.101,-0.105 -1.467,0.29 -0.509,0.561 -0.305,1.268 0.062,1.664 0.184,0.208 0.306,0.042 0.286,-0.229 -0.021,-0.249 0.284,-0.644 0.651,-0.602 0.347,0.042 1.202,0.105 1.386,-0.124 0.163,-0.208 0.366,-0.145 0.529,-0.02 0.286,0.27 0.796,0.957 1.021,1.56 0.081,0.209 0.203,0.562 -0.123,0.229 -0.346,-0.354 -0.938,-0.978 -1.712,-0.854 -0.774,0.124 -1.528,0.602 -1.751,1.163 -0.082,0.229 0.163,0.333 0.407,0.125 0.245,-0.187 0.672,-0.311 1.162,-0.144 0.51,0.187 0.937,0.354 1.386,0.271 0.489,-0.083 0.652,0.188 0.815,0.459 0.163,0.249 0.619,1.274 0.437,2.022 z"
               style="fill:#bbd876;fill-opacity:1;fill-rule:nonzero;stroke:none"
               id="path4163"
               inkscape:connector-curvature="0" />
          </g>
        </g>
        <g
           id="g4165"
           transform="matrix(0.876536,0.481335,0.503767,-0.864218,15.4325,468.869)">
          <g
             id="g4167"
             transform="translate(126.493,29.0859)">
            <path
               d="m 0,0 c 0.142,-0.167 0.101,-0.543 0.101,-0.543 0.166,-2.069 -0.825,-4.179 -1.655,-4.909 -0.182,-0.167 -0.466,-0.522 -0.222,-0.814 0.224,-0.294 0.103,-0.92 -0.424,-1.379 -0.526,-0.459 -1.032,-0.96 -1.011,-1.378 0.021,-0.439 -0.284,-0.292 -0.446,-0.02 -0.183,0.251 -0.184,0.961 0.18,1.462 0.384,0.481 0.748,0.814 0.809,0.939 0.061,0.147 0.183,0.251 -0.121,0.105 -1.338,-0.667 -3.426,-1.311 -5.111,-0.305 -1.908,1.131 -1.282,3.011 -0.431,3.469 0.304,0.167 0.547,0.083 0.224,-0.334 -0.344,-0.397 -0.546,-1.149 -0.221,-1.547 0.63,-0.795 1.197,-0.315 1.867,-0.734 0.65,-0.44 0.792,-0.962 1.3,-0.921 0.486,0.041 1.48,0.311 2.087,0.644 0.163,0.084 0.304,0.292 -0.041,0.209 -0.364,-0.104 -1.095,-0.102 -1.46,0.295 -0.508,0.565 -0.307,1.275 0.058,1.672 0.182,0.209 0.304,0.041 0.285,-0.23 -0.021,-0.251 0.284,-0.649 0.649,-0.607 0.345,0.041 1.196,0.102 1.379,-0.128 0.163,-0.209 0.365,-0.147 0.528,-0.022 0.283,0.272 0.789,0.961 1.011,1.566 0.081,0.209 0.202,0.564 -0.122,0.23 -0.344,-0.354 -0.931,-0.98 -1.702,-0.854 -0.771,0.127 -1.522,0.609 -1.745,1.173 -0.083,0.23 0.161,0.334 0.404,0.125 0.244,-0.189 0.67,-0.315 1.157,-0.148 0.507,0.187 0.932,0.354 1.378,0.269 0.487,-0.084 0.649,0.187 0.811,0.459 0.162,0.251 0.538,1.432 0.355,2.184 z"
               style="fill:#bbd876;fill-opacity:1;fill-rule:nonzero;stroke:none"
               id="path4169"
               inkscape:connector-curvature="0" />
          </g>
        </g>
        <g
           id="g4171"
           transform="matrix(-0.863833,-0.503778,0.52655,-0.850553,15.4325,468.869)">
          <g
             id="g4173"
             transform="translate(-116.383,32.1721)">
            <path
               d="m 0,0 c -0.194,-0.367 -0.709,-1.066 -1.563,-1.262 -0.855,-0.197 -2.101,-0.155 -2.274,-0.131 -0.173,0.024 -0.236,-0.193 -0.037,-0.328 0.2,-0.135 0.867,-0.472 1.204,-0.824 0.551,-0.577 0.755,-1.357 0.725,-2.017 -0.013,-0.289 -0.181,-0.213 -0.192,0.036 -0.011,0.249 -0.17,0.561 -0.473,0.704 -0.302,0.143 -0.772,0.63 -0.919,0.962 -0.148,0.333 -0.315,0.744 -0.421,0.835 -0.106,0.091 -0.168,0.076 -0.342,0.032 -0.173,-0.043 -0.46,0.171 -0.506,0.293 -0.047,0.123 -0.156,0.23 -0.262,0.254 -0.106,0.024 -0.515,0.19 -0.683,0.266 -0.169,0.075 -0.259,0.103 -0.091,-0.107 0.282,-0.351 0.522,-1.327 0.404,-1.728 -0.064,-0.217 -0.169,-0.126 -0.239,0.091 -0.07,0.218 -0.356,0.499 -0.563,0.733 -0.207,0.233 -0.267,0.822 -0.286,1.036 -0.019,0.213 0.057,0.249 -0.246,0.459 -0.583,0.406 -1.092,0.792 -1.582,1.346 -1.022,1.03 -0.795,-4.193 -1.394,-0.369 0.054,0.654 0.146,1.449 0.058,1.686 -0.088,0.236 -0.2,0.266 -0.51,0.349 -0.31,0.083 -0.576,0.67 -0.543,0.903 0.032,0.235 -0.048,0.499 -0.194,0.629 -0.146,0.131 -0.645,0.75 -0.845,1.015 -0.201,0.267 -0.278,1.108 -0.007,0.762 0.269,-0.345 1.142,-1.368 1.274,-1.555 0.131,-0.187 0.662,-0.117 0.991,-0.356 0.328,-0.24 0.929,-0.691 1.668,-0.872 1.36,-0.332 1.821,0.151 2.697,0.038 0.876,-0.112 1.516,-0.314 1.95,-0.612 0.433,-0.297 1.126,-0.301 1.42,-0.106 0.294,0.194 0.686,-0.031 0.062,-0.441 C -2.341,1.31 -3.754,0.655 -5.267,1.09 c -1.514,0.435 -3.44,1.587 -3.691,1.777 -0.149,0.111 -0.307,0.054 -0.374,-0.089 0.801,-1.316 1.792,-2.609 2.747,-3.044 0.178,-0.081 0.672,-0.285 1.039,-0.009 0.367,0.276 0.844,0.445 1.083,0.354 0.239,-0.091 0.48,0.019 0.575,0.177 0.095,0.158 0.307,0.109 0.181,-0.19 -0.128,-0.301 -0.641,-0.663 -1.192,-0.734 -0.551,-0.07 -1.019,-0.002 -1.176,0.026 -0.157,0.028 -0.099,-0.075 0.125,-0.17 0.224,-0.095 0.923,-0.357 1.036,-0.413 0.114,-0.055 0.355,0.122 0.579,0.094 0.224,-0.028 0.638,-0.086 1.046,0.026 0.752,0.204 0.848,0.563 1.305,0.744 0.458,0.182 0.823,0.256 1.115,0.228 0.29,-0.028 0.63,0.157 0.721,0.331 C -0.057,0.371 0.195,0.367 0,0"
               style="fill:#bbd876;fill-opacity:1;fill-rule:nonzero;stroke:none"
               id="path4175"
               inkscape:connector-curvature="0" />
          </g>
        </g>
        <g
           id="g4177"
           transform="matrix(0.705315,0.708894,0.729939,-0.684163,15.4325,468.869)">
          <g
             id="g4179"
             transform="translate(112.265,60.3555)">
            <path
               d="M 0,0 C -0.048,0.155 -0.036,0.505 0.046,0.492 0.122,0.334 0.429,0.392 0.619,0.188 0.81,-0.015 1.158,-0.398 1.585,-0.553 2.371,-0.837 2.637,-0.429 3.143,-0.527 3.649,-0.624 4.019,-0.796 4.27,-1.049 4.521,-1.302 4.921,-1.307 5.091,-1.143 5.26,-0.979 5.487,-1.171 5.128,-1.516 4.769,-1.862 3.954,-2.412 3.08,-2.041 2.204,-1.67 1.089,-0.691 0.944,-0.53 0.858,-0.435 0.766,-0.483 0.728,-0.604 0.516,-0.725 0.538,-0.659 0.391,-0.648 0.036,-0.464 0.166,-0.441 0,0"
               style="fill:#bbd876;fill-opacity:1;fill-rule:nonzero;stroke:none"
               id="path4181"
               inkscape:connector-curvature="0" />
          </g>
        </g>
        <g
           id="g4183"
           transform="matrix(0.0808212,0.996729,-0.997106,0.076166,136.415,521.601)">
          <g
             id="g4185"
             transform="translate(-14.2679,7.5199)">
            <path
               d="m 0,0 c 0.094,-0.426 0.152,-0.863 0.288,-1.274 0.642,-1.948 2.024,-3.051 3.92,-3.54 1.229,-0.316 2.467,-0.238 3.703,-0.045 1.293,0.202 2.545,0.135 3.77,-0.412 1.817,-0.81 3.028,-2.617 2.976,-4.614 -0.04,-1.535 -0.632,-2.856 -1.684,-3.931 -1.246,-1.272 -3.062,-0.905 -3.757,0.754 -0.213,0.51 -0.293,1.08 -0.428,1.623 -0.433,1.737 -1.681,2.944 -3.272,3.163 -2.199,0.302 -4.132,-0.968 -4.792,-3.176 -0.734,-2.456 -0.031,-5.818 2.387,-7.808 0.822,-0.677 1.712,-1.265 2.567,-1.9 0.451,-0.335 0.857,-0.716 1.022,-1.288 0.031,-0.107 0.043,-0.282 -0.016,-0.343 -0.703,-0.717 -0.838,-1.657 -1.022,-2.588 -0.065,-0.325 -0.205,-0.641 -0.353,-0.94 -0.144,-0.29 -0.168,-0.57 -0.008,-0.834 0.136,-0.224 0.057,-0.356 -0.108,-0.481 -0.123,-0.093 -0.253,-0.181 -0.389,-0.254 -0.439,-0.236 -0.614,-0.593 -0.427,-1.114 0.035,0.119 0.1,0.238 0.1,0.356 -0.002,0.301 0.117,0.471 0.414,0.501 0.043,0.004 0.088,0.012 0.129,0.029 0.369,0.148 0.689,0.433 1.158,0.27 0.124,-0.043 0.408,0.236 0.542,0.424 0.235,0.328 0.467,0.609 0.882,0.703 0.127,0.029 0.237,0.206 0.323,0.337 0.162,0.245 0.28,0.521 0.452,0.757 0.324,0.445 0.567,0.877 0.453,1.489 -0.059,0.315 0.092,0.677 0.171,1.013 0.249,1.055 -0.07,1.949 -0.7,2.771 -0.555,0.722 -1.276,1.236 -2,1.753 -0.542,0.386 -1.099,0.754 -1.608,1.182 -1.411,1.186 -1.976,2.734 -1.799,4.589 0.077,0.813 0.376,1.478 1.084,1.896 1.104,0.651 2.242,0.081 2.504,-1.198 0.146,-0.711 0.299,-1.448 0.609,-2.09 0.92,-1.903 2.445,-2.901 4.542,-2.791 1.482,0.078 2.641,0.877 3.564,2.02 1.011,1.252 1.615,2.7 1.797,4.324 0.009,0.076 0.037,0.15 0.056,0.225 0,0.362 0,0.724 0,1.086 -0.051,0.321 -0.089,0.645 -0.156,0.962 -0.863,4.069 -4.598,6.372 -8.602,5.854 C 7.335,-2.664 6.373,-2.832 5.414,-2.829 3.542,-2.824 1.635,-1.602 1.801,1.077 1.878,2.336 2.361,3.387 3.466,4.059 4.609,4.754 5.869,4.867 7.147,4.804 8.385,4.743 9.563,4.39 10.703,3.888 c 0.63,-0.279 1.304,-0.306 1.976,-0.189 1.322,0.228 2.286,1.051 3.14,2.038 0.118,0.136 0.165,0.337 0.244,0.508 -0.044,0 -0.088,0 -0.132,0 C 15.549,5.925 15.183,5.581 14.78,5.289 13.426,4.307 12.052,4.079 10.505,4.949 8.615,6.011 6.555,6.365 4.414,5.965 2.388,5.586 0.926,4.479 0.295,2.396 0.159,1.948 0.097,1.478 0,1.018 0,0.678 0,0.339 0,0"
               style="fill:#0f442d;fill-opacity:1;fill-rule:nonzero;stroke:none"
               id="path4187"
               inkscape:connector-curvature="0" />
          </g>
        </g>
        <g
           id="g4189"
           transform="translate(143.085,513.415)">
          <path
             d="m 0,0 c -1.283,1.327 -3.165,0.666 -4.765,0.519 0.35,0.406 0.811,1.451 0.255,1.626 -0.477,0.346 -0.54,-0.841 -1.16,-0.676 -0.744,0.197 -0.897,0.262 -1.051,0.891 -0.041,0.383 -0.034,0.755 -0.125,1.097 -0.048,0.507 -0.275,0.976 -0.757,1.424 -1.425,1.326 -2.87,1.612 -4.629,2.224 -0.856,0.299 -2.008,0.26 -2.904,0.266 -0.895,0.006 -1.815,0.251 -2.653,0.251 0,-0.288 0.611,-0.928 0.797,-1.202 0.276,-0.408 0.418,-0.579 0.597,-1.06 0.255,-0.683 0.906,-1.055 1.206,-1.646 0.359,-0.707 1.67,-1.725 2.374,-2.046 0.495,-0.226 1.384,-1.046 1.967,-0.995 0.058,0.005 0.125,0.001 0.197,-0.008 -0.941,-0.323 -1.832,-1.259 -2.302,-1.987 -1.532,-2.378 -0.958,-5.527 0.345,-7.85 0.936,-1.667 2.536,-4.588 4.835,-4.514 0.802,0.026 1.704,-0.226 2.546,-0.226 0.835,0 1.633,-0.078 2.423,0.233 1.038,0.409 1.783,1.027 2.355,1.986 1.345,2.259 2.283,4.313 2.323,6.936 C 1.87,-4.686 1.662,-1.72 0,0 m -7.787,0.508 c 0.256,0.073 0.51,0.165 0.763,0.296 C -6.46,1.097 -6.401,1 -5.748,0.742 -5.913,0.392 -5.857,0.479 -6.554,0.433 -6.975,0.405 -7.383,0.446 -7.787,0.508"
             style="fill:#03635a;fill-opacity:1;fill-rule:nonzero;stroke:none"
             id="path4191"
             inkscape:connector-curvature="0" />
        </g>
        <g
           id="g4193"
           transform="translate(144.401,508.922)">
          <path
             d="m 0,0 c 0,-2.523 -0.892,-4.472 -2.173,-6.625 -0.533,-0.895 -1.228,-1.471 -2.197,-1.852 -0.737,-0.29 -1.481,-0.218 -2.26,-0.218 -0.785,0 -1.626,0.235 -2.374,0.211 -2.144,-0.069 -3.638,2.656 -4.51,4.211 -1.215,2.166 -1.751,5.103 -0.322,7.321 0.527,0.817 1.622,1.928 2.684,1.968 1.116,0.042 2.153,-0.407 3.285,-0.331 0.805,0.053 0.819,-0.091 1.059,0.595 -0.637,0.252 -1.046,0.533 -1.583,0.254 -0.652,-0.339 -1.3,-0.46 -2.013,-0.432 -0.444,0.016 -1.174,0.343 -1.554,0.309 -0.543,-0.047 -1.372,0.718 -1.834,0.928 -0.657,0.299 -1.879,1.249 -2.214,1.909 -0.28,0.551 -0.888,0.898 -1.125,1.535 -0.167,0.448 -0.3,0.608 -0.557,0.989 -0.173,0.256 -0.658,0.312 -0.658,0.618 0.781,0 1.64,-0.229 2.474,-0.234 0.836,-0.005 1.91,0.031 2.709,-0.247 1.64,-0.571 2.988,-0.839 4.317,-2.076 0.701,-0.651 0.525,-1.346 0.673,-2.157 0.138,-0.761 0.369,-0.824 1.13,-1.025 0.578,-0.154 0.637,0.953 1.082,0.63 0.38,-0.274 -0.447,-1.177 -0.56,-1.512 1.518,0.097 3.519,0.803 4.767,-0.488 C -0.424,2.904 -0.084,1.066 0,0"
             style="fill:#00ab4e;fill-opacity:1;fill-rule:nonzero;stroke:none"
             id="path4195"
             inkscape:connector-curvature="0" />
        </g>
      </g>
    </g>
  </g>
</svg>
