<?xml version="1.0" encoding="UTF-8" standalone="no"?>
<!-- Created with Inkscape (http://www.inkscape.org/) -->

<svg
   xmlns:dc="http://purl.org/dc/elements/1.1/"
   xmlns:cc="http://creativecommons.org/ns#"
   xmlns:rdf="http://www.w3.org/1999/02/22-rdf-syntax-ns#"
   xmlns:svg="http://www.w3.org/2000/svg"
   xmlns="http://www.w3.org/2000/svg"
   xmlns:sodipodi="http://sodipodi.sourceforge.net/DTD/sodipodi-0.dtd"
   xmlns:inkscape="http://www.inkscape.org/namespaces/inkscape"
   width="42.302998pt"
   height="32.697998pt"
   viewBox="0 0 14.923558 11.535127"
   version="1.1"
   id="svg8731"
   inkscape:version="0.92.3 (2405546, 2018-03-11)"
   sodipodi:docname="orange.svg">
  <defs
     id="defs8725">
    <clipPath
       clipPathUnits="userSpaceOnUse"
       id="clipPath3867">
      <path
         d="M 0,0 H 612 V 792 H 0 Z"
         id="path3865"
         inkscape:connector-curvature="0" />
    </clipPath>
    <clipPath
       clipPathUnits="userSpaceOnUse"
       id="clipPath3985">
      <path
         d="M 0,0 H 612 V 792 H 0 Z"
         id="path3983"
         inkscape:connector-curvature="0" />
    </clipPath>
  </defs>
  <sodipodi:namedview
     id="base"
     pagecolor="#ffffff"
     bordercolor="#666666"
     borderopacity="1.0"
     inkscape:pageopacity="0.0"
     inkscape:pageshadow="2"
     inkscape:zoom="1"
     inkscape:cx="-8.4832187"
     inkscape:cy="219.19542"
     inkscape:document-units="mm"
     inkscape:current-layer="layer1"
     showgrid="false"
     units="pt"
     inkscape:window-width="1440"
     inkscape:window-height="836"
     inkscape:window-x="0"
     inkscape:window-y="27"
     inkscape:window-maximized="1" />
  <metadata
     id="metadata8728">
    <rdf:RDF>
      <cc:Work
         rdf:about="">
        <dc:format>image/svg+xml</dc:format>
        <dc:type
           rdf:resource="http://purl.org/dc/dcmitype/StillImage" />
        <dc:title></dc:title>
      </cc:Work>
    </rdf:RDF>
  </metadata>
  <g
     inkscape:label="Layer 1"
     inkscape:groupmode="layer"
     id="layer1"
     transform="translate(-74.249605,-155.36439)">
    <g
       transform="matrix(0.35277777,0,0,-0.35277777,33.24942,357.33954)"
       id="g3979">
      <g
         id="g3981"
         clip-path="url(#clipPath3985)">
        <g
           id="g3987"
           transform="translate(158.524,556.179)">
          <path
             d="m 0,0 c 0,-9.028 -9.472,-16.349 -21.152,-16.349 -11.679,0 -21.151,7.321 -21.151,16.349 0,9.028 9.472,16.349 21.151,16.349 C -9.472,16.349 0,9.028 0,0"
             style="fill:#db521f;fill-opacity:1;fill-rule:nonzero;stroke:none"
             id="path3989"
             inkscape:connector-curvature="0" />
        </g>
        <g
           id="g3991"
           transform="translate(134.844,540.513)">
          <path
             d="M 0,0 C 0.317,0 0.575,0.251 0.575,0.56 0.575,0.869 0.317,1.119 0,1.119 -0.317,1.119 -0.575,0.869 -0.575,0.56 -0.575,0.251 -0.317,0 0,0 m 0,31.333 c 0.317,0 0.575,-0.251 0.575,-0.56 0,-0.309 -0.258,-0.56 -0.575,-0.56 -0.317,0 -0.575,0.251 -0.575,0.56 0,0.309 0.258,0.56 0.575,0.56 m 2.529,0.134 c 0.317,0 0.574,-0.251 0.574,-0.56 0,-0.309 -0.257,-0.56 -0.574,-0.56 -0.318,0 -0.575,0.251 -0.575,0.56 0,0.309 0.257,0.56 0.575,0.56 m 2.528,-0.134 c -0.317,0 -0.575,-0.251 -0.575,-0.56 0,-0.309 0.258,-0.56 0.575,-0.56 0.317,0 0.574,0.251 0.574,0.56 0,0.309 -0.257,0.56 -0.574,0.56 m 2.624,-0.411 c -0.318,0 -0.575,-0.251 -0.575,-0.56 0,-0.309 0.257,-0.56 0.575,-0.56 0.317,0 0.574,0.251 0.574,0.56 0,0.309 -0.257,0.56 -0.574,0.56 m 2.559,-0.697 c -0.317,0 -0.575,-0.251 -0.575,-0.56 0,-0.309 0.258,-0.56 0.575,-0.56 0.317,0 0.574,0.251 0.574,0.56 0,0.309 -0.257,0.56 -0.574,0.56 m 2.455,-0.989 c -0.317,0 -0.574,-0.251 -0.574,-0.56 0,-0.309 0.257,-0.56 0.574,-0.56 0.318,0 0.575,0.251 0.575,0.56 0,0.309 -0.257,0.56 -0.575,0.56 m 2.307,-1.285 c -0.317,0 -0.575,-0.251 -0.575,-0.56 0,-0.309 0.258,-0.56 0.575,-0.56 0.317,0 0.574,0.251 0.574,0.56 0,0.309 -0.257,0.56 -0.574,0.56 m 2.101,-1.583 c -0.317,0 -0.574,-0.251 -0.574,-0.56 0,-0.309 0.257,-0.559 0.574,-0.559 0.318,0 0.575,0.25 0.575,0.559 0,0.309 -0.257,0.56 -0.575,0.56 m 1.83,-1.875 c -0.317,0 -0.575,-0.25 -0.575,-0.56 0,-0.308 0.258,-0.559 0.575,-0.559 0.317,0 0.575,0.251 0.575,0.559 0,0.31 -0.258,0.56 -0.575,0.56 m 1.479,-2.148 c -0.317,0 -0.575,-0.25 -0.575,-0.559 0,-0.309 0.258,-0.56 0.575,-0.56 0.317,0 0.575,0.251 0.575,0.56 0,0.309 -0.258,0.559 -0.575,0.559 m 1.031,-2.382 c -0.317,0 -0.575,-0.251 -0.575,-0.56 0,-0.309 0.258,-0.559 0.575,-0.559 0.317,0 0.574,0.25 0.574,0.559 0,0.309 -0.257,0.56 -0.574,0.56 m 0.508,-2.537 c -0.318,0 -0.575,-0.251 -0.575,-0.56 0,-0.309 0.257,-0.559 0.575,-0.559 0.317,0 0.574,0.25 0.574,0.559 0,0.309 -0.257,0.56 -0.574,0.56 M -2.624,30.922 c 0.318,0 0.575,-0.251 0.575,-0.56 0,-0.309 -0.257,-0.56 -0.575,-0.56 -0.317,0 -0.574,0.251 -0.574,0.56 0,0.309 0.257,0.56 0.574,0.56 m -2.559,-0.697 c 0.317,0 0.575,-0.251 0.575,-0.56 0,-0.309 -0.258,-0.56 -0.575,-0.56 -0.317,0 -0.574,0.251 -0.574,0.56 0,0.309 0.257,0.56 0.574,0.56 m -2.455,-0.989 c 0.317,0 0.574,-0.251 0.574,-0.56 0,-0.309 -0.257,-0.56 -0.574,-0.56 -0.318,0 -0.575,0.251 -0.575,0.56 0,0.309 0.257,0.56 0.575,0.56 m -2.307,-1.285 c 0.318,0 0.575,-0.251 0.575,-0.56 0,-0.309 -0.257,-0.56 -0.575,-0.56 -0.317,0 -0.574,0.251 -0.574,0.56 0,0.309 0.257,0.56 0.574,0.56 m -2.101,-1.583 c 0.317,0 0.574,-0.251 0.574,-0.56 0,-0.309 -0.257,-0.559 -0.574,-0.559 -0.318,0 -0.575,0.25 -0.575,0.559 0,0.309 0.257,0.56 0.575,0.56 m -1.83,-1.875 c 0.317,0 0.574,-0.25 0.574,-0.56 0,-0.308 -0.257,-0.559 -0.574,-0.559 -0.318,0 -0.575,0.251 -0.575,0.559 0,0.31 0.257,0.56 0.575,0.56 m -1.479,-2.148 c 0.317,0 0.574,-0.25 0.574,-0.559 0,-0.309 -0.257,-0.56 -0.574,-0.56 -0.317,0 -0.575,0.251 -0.575,0.56 0,0.309 0.258,0.559 0.575,0.559 m -1.031,-2.382 c 0.317,0 0.574,-0.251 0.574,-0.56 0,-0.309 -0.257,-0.559 -0.574,-0.559 -0.317,0 -0.575,0.25 -0.575,0.559 0,0.309 0.258,0.56 0.575,0.56 m -0.507,-2.537 c 0.317,0 0.574,-0.251 0.574,-0.56 0,-0.309 -0.257,-0.559 -0.574,-0.559 -0.318,0 -0.575,0.25 -0.575,0.559 0,0.309 0.257,0.56 0.575,0.56 M 2.529,-0.134 c 0.317,0 0.574,0.251 0.574,0.56 0,0.309 -0.257,0.559 -0.574,0.559 -0.318,0 -0.575,-0.25 -0.575,-0.559 0,-0.309 0.257,-0.56 0.575,-0.56 M 5.057,0 C 4.74,0 4.482,0.251 4.482,0.56 c 0,0.309 0.258,0.559 0.575,0.559 0.317,0 0.574,-0.25 0.574,-0.559 C 5.631,0.251 5.374,0 5.057,0 m 2.624,0.411 c -0.318,0 -0.575,0.251 -0.575,0.56 0,0.309 0.257,0.559 0.575,0.559 0.317,0 0.574,-0.25 0.574,-0.559 0,-0.309 -0.257,-0.56 -0.574,-0.56 m 2.559,0.697 c -0.317,0 -0.575,0.251 -0.575,0.56 0,0.309 0.258,0.559 0.575,0.559 0.317,0 0.574,-0.25 0.574,-0.559 0,-0.309 -0.257,-0.56 -0.574,-0.56 m 2.455,0.989 c -0.317,0 -0.574,0.25 -0.574,0.559 0,0.31 0.257,0.56 0.574,0.56 0.318,0 0.575,-0.25 0.575,-0.56 0,-0.309 -0.257,-0.559 -0.575,-0.559 m 2.307,1.285 c -0.317,0 -0.575,0.251 -0.575,0.56 0,0.309 0.258,0.559 0.575,0.559 0.317,0 0.574,-0.25 0.574,-0.559 0,-0.309 -0.257,-0.56 -0.574,-0.56 m 2.101,1.583 c -0.317,0 -0.574,0.25 -0.574,0.559 0,0.309 0.257,0.56 0.574,0.56 0.318,0 0.575,-0.251 0.575,-0.56 0,-0.309 -0.257,-0.559 -0.575,-0.559 m 1.83,1.874 c -0.317,0 -0.575,0.251 -0.575,0.56 0,0.309 0.258,0.56 0.575,0.56 0.317,0 0.575,-0.251 0.575,-0.56 0,-0.309 -0.258,-0.56 -0.575,-0.56 m 1.479,2.148 c -0.317,0 -0.575,0.251 -0.575,0.56 0,0.309 0.258,0.56 0.575,0.56 0.317,0 0.575,-0.251 0.575,-0.56 0,-0.309 -0.258,-0.56 -0.575,-0.56 m 1.031,2.383 c -0.317,0 -0.575,0.25 -0.575,0.56 0,0.309 0.258,0.559 0.575,0.559 0.317,0 0.574,-0.25 0.574,-0.559 0,-0.31 -0.257,-0.56 -0.574,-0.56 m 0.508,2.537 c -0.318,0 -0.575,0.25 -0.575,0.559 0,0.309 0.257,0.56 0.575,0.56 0.317,0 0.574,-0.251 0.574,-0.56 0,-0.309 -0.257,-0.559 -0.574,-0.559 M -2.624,0.411 c 0.318,0 0.575,0.251 0.575,0.56 0,0.309 -0.257,0.559 -0.575,0.559 -0.317,0 -0.574,-0.25 -0.574,-0.559 0,-0.309 0.257,-0.56 0.574,-0.56 m -2.559,0.697 c 0.317,0 0.575,0.251 0.575,0.56 0,0.309 -0.258,0.559 -0.575,0.559 -0.317,0 -0.574,-0.25 -0.574,-0.559 0,-0.309 0.257,-0.56 0.574,-0.56 m -2.455,0.989 c 0.317,0 0.574,0.25 0.574,0.559 0,0.31 -0.257,0.56 -0.574,0.56 -0.318,0 -0.575,-0.25 -0.575,-0.56 0,-0.309 0.257,-0.559 0.575,-0.559 m -2.307,1.285 c 0.318,0 0.575,0.251 0.575,0.56 0,0.309 -0.257,0.559 -0.575,0.559 -0.317,0 -0.574,-0.25 -0.574,-0.559 0,-0.309 0.257,-0.56 0.574,-0.56 m -2.101,1.583 c 0.317,0 0.574,0.25 0.574,0.559 0,0.309 -0.257,0.56 -0.574,0.56 -0.318,0 -0.575,-0.251 -0.575,-0.56 0,-0.309 0.257,-0.559 0.575,-0.559 m -1.83,1.874 c 0.317,0 0.574,0.251 0.574,0.56 0,0.309 -0.257,0.56 -0.574,0.56 -0.318,0 -0.575,-0.251 -0.575,-0.56 0,-0.309 0.257,-0.56 0.575,-0.56 m -1.479,2.148 c 0.317,0 0.574,0.251 0.574,0.56 0,0.309 -0.257,0.56 -0.574,0.56 -0.317,0 -0.575,-0.251 -0.575,-0.56 0,-0.309 0.258,-0.56 0.575,-0.56 m -1.031,2.383 c 0.317,0 0.574,0.25 0.574,0.56 0,0.309 -0.257,0.559 -0.574,0.559 -0.317,0 -0.575,-0.25 -0.575,-0.559 0,-0.31 0.258,-0.56 0.575,-0.56 m -0.507,2.537 c 0.317,0 0.574,0.25 0.574,0.559 0,0.309 -0.257,0.56 -0.574,0.56 -0.318,0 -0.575,-0.251 -0.575,-0.56 0,-0.309 0.257,-0.559 0.575,-0.559"
             style="fill:#c4161c;fill-opacity:1;fill-rule:nonzero;stroke:none"
             id="path3993"
             inkscape:connector-curvature="0" />
        </g>
        <g
           id="g3995"
           transform="translate(155.419,556.179)">
          <path
             d="m 0,0 c 0,-7.703 -8.082,-13.949 -18.047,-13.949 -9.965,0 -18.047,6.246 -18.047,13.949 0,7.703 8.082,13.949 18.047,13.949 C -8.082,13.949 0,7.703 0,0"
             style="fill:#b45314;fill-opacity:1;fill-rule:nonzero;stroke:none"
             id="path3997"
             inkscape:connector-curvature="0" />
        </g>
        <g
           id="g3999"
           transform="matrix(-0.518822,-0.854882,0.86843,-0.4965,-277.768,406.391)">
          <g
             id="g4001"
             transform="translate(-340.161,274.814)">
            <path
               d="m 0,0 c 0.279,-0.203 0.377,-0.611 0.178,-0.937 -0.2,-0.326 -0.918,-1.387 -1.059,-2.019 -0.24,-1.08 -0.361,-1.63 -0.363,-3.016 -0.001,-0.937 0.375,-2.546 0.852,-2.912 0.457,-0.366 1.015,-0.284 1.394,-0.12 0.378,0.164 0.816,-0.06 1.253,-0.446 0.696,-0.611 1.234,-0.589 1.872,0.145 0.179,0.184 0.319,0.102 0.119,-0.223 -0.199,-0.347 -1.057,-1.041 -2.191,-1.043 -1.116,0.018 -2.07,0.75 -2.209,1.015 -0.139,0.244 -0.139,0.04 -0.06,-0.163 0.079,-0.204 0.397,-0.957 0.755,-1.262 0.357,-0.305 1.313,-0.65 1.95,-0.69 0.637,-0.04 1.373,-0.283 1.611,-0.71 0.259,-0.428 0.656,-0.814 1.014,-0.793 0.339,0.021 0.338,-0.163 -0.179,-0.347 -0.498,-0.164 -1.792,0.058 -2.568,0.505 -0.795,0.427 -1.67,1.342 -1.849,1.627 -0.159,0.285 -0.537,0.631 -0.636,0.855 -0.099,0.244 -0.198,0.183 -0.199,-0.123 -0.02,-0.305 0.158,-0.896 -0.062,-1.304 -0.239,-0.387 -0.24,-0.733 -0.28,-1.039 -0.021,-0.326 -0.26,-0.572 -0.519,-0.694 -0.259,-0.143 -0.259,-0.021 -0.099,0.163 0.179,0.184 0.26,0.53 0.041,0.958 -0.218,0.448 -0.336,1.283 -0.057,1.793 0.28,0.53 0.679,0.775 0.679,1.101 0.001,0.326 -0.257,0.916 -0.337,1.181 -0.059,0.245 -0.178,0.489 -0.279,-0.061 -0.1,-0.571 -0.618,-0.939 -0.818,-1.02 -0.219,-0.102 -0.418,-0.184 -0.697,-0.205 -0.298,-0.021 -0.258,0.101 -0.039,0.224 0.199,0.102 0.398,0.123 0.379,0.489 -0.019,0.367 0.041,0.775 0.26,1.04 0.2,0.265 0.896,0.185 0.798,0.612 -0.138,0.774 -0.235,2.853 0.265,4.463 0.161,0.55 0.859,1.835 1.059,2.1 0.179,0.245 0.06,0.612 -0.198,0.632 C -0.14,-0.122 0,0 0,0"
               style="fill:#8e3e03;fill-opacity:1;fill-rule:nonzero;stroke:none"
               id="path4003"
               inkscape:connector-curvature="0" />
          </g>
        </g>
        <g
           id="g4005"
           transform="matrix(-0.999426,0.0338743,0.0359557,0.999356,-277.768,406.391)">
          <g
             id="g4007"
             transform="translate(-397.513,159.463)">
            <path
               d="M 0,0 C 0.56,0 0.987,-0.572 0.987,-1.259 0.987,-1.946 0.56,-2.518 0,-2.518 c -0.538,0 -0.987,0.572 -0.987,1.259 C -0.987,-0.572 -0.538,0 0,0 M 1.297,8.498 C 1.276,8.29 1.112,8.124 0.907,8.124 0.703,8.124 0.56,8.29 0.559,8.498 0.56,8.706 0.723,8.872 0.928,8.872 1.133,8.872 1.297,8.706 1.297,8.498 M 2.762,1.73 C 3.239,1.04 3.216,0.189 2.739,-0.157 2.24,-0.502 1.446,-0.225 0.969,0.464 0.493,1.178 0.493,2.006 0.992,2.374 1.491,2.719 2.263,2.443 2.762,1.73 M 3.93,3.741 C 4.309,3.173 4.309,2.536 3.974,2.308 3.617,2.057 3.037,2.331 2.68,2.876 2.323,3.423 2.3,4.082 2.658,4.31 2.993,4.56 3.572,4.287 3.93,3.741 M 2.59,7.287 c -0.228,0 -0.414,0.168 -0.414,0.398 0.02,0.231 0.186,0.398 0.414,0.398 0.228,0 0.394,-0.188 0.394,-0.398 0,-0.23 -0.187,-0.419 -0.394,-0.398 M 2.1,6.521 C 2.325,6.858 2.932,6.858 3.449,6.499 3.989,6.162 4.259,5.601 4.034,5.286 3.809,4.949 3.201,4.949 2.684,5.308 2.145,5.645 1.874,6.206 2.1,6.521 m -9.418,-9.937 c 0.291,-0.023 0.666,-0.078 0.956,-0.046 0.397,0.047 0.676,0.209 1.025,0.719 0.326,0.51 1.235,0.858 2.26,1.09 1.025,0.232 0.909,0.834 0.909,1.228 0,0.394 0.092,0.302 0.209,0.07 0.14,-0.325 0.186,-0.95 -0.256,-1.761 -0.443,-0.789 -1.864,-1.299 -2.516,-1.462 -0.572,-0.137 -1.122,-0.095 -1.59,-0.106 1.356,-0.307 2.696,-0.375 3.967,-0.134 0.357,0.072 0.808,0.216 0.999,0.454 0.214,0.24 0.736,0.718 0.665,0.981 0.143,-0.096 0.357,-0.239 0.452,-0.239 -0.285,-0.144 -0.452,-0.407 -0.571,-0.526 -0.095,-0.12 -0.261,-0.311 -0.38,-0.383 -0.119,-0.071 -0.071,-0.143 0.238,-0.071 1.26,0.286 3.209,0.837 3.803,1.913 0.119,0.216 0.143,1.315 0,1.339 0.119,0.072 0.262,0.311 0.309,0.455 0,0 0.071,-0.144 0.095,-0.167 0.143,-0.288 0,-1.029 -0.024,-1.197 C 3.208,-1.402 3.28,-1.473 3.327,-1.354 3.922,-0.207 4.421,0.894 4.041,1.922 3.993,2.114 3.898,2.09 3.898,2.09 3.993,2.114 4.231,2.281 4.231,2.281 4.207,2.042 4.326,1.946 4.35,1.779 4.397,1.588 4.469,1.372 4.445,1.085 4.421,0.822 4.564,0.822 4.659,1.157 4.92,2.161 5.444,4.29 4.136,5.127 4.184,5.198 4.232,5.39 4.255,5.485 4.327,5.294 4.517,5.174 4.635,5.031 4.731,4.887 4.944,4.624 4.944,4.434 4.921,4.265 5.063,4.313 5.04,4.648 5.04,4.983 4.659,6.442 4.279,7.04 3.875,7.613 3.281,7.566 3.115,7.47 c 0,0.072 0,0.263 -0.048,0.335 C 3.281,7.757 3.4,7.805 3.519,7.78 3.638,7.757 3.566,7.901 3.4,8.044 2.734,8.594 1.926,8.881 1.166,8.928 -4.254,9.167 -3.731,5.675 -3.066,5.365 -2.59,5.149 -2.305,5.269 -2.02,5.437 -1.735,5.604 -1.235,5.7 -1.069,5.294 -0.903,4.887 -1.235,4.695 -1.592,4.576 -1.948,4.48 -2.281,4.145 -2.044,3.667 -1.782,3.189 -1.426,3.165 -1.188,3.213 -0.951,3.261 -0.927,3.5 -0.831,3.667 -0.76,3.859 -0.475,4.05 -0.142,3.763 V 3.739 C 0,3.596 -0.095,3.428 -0.237,3.548 -0.38,3.667 -0.594,3.739 -0.689,3.404 -0.76,3.093 -1.259,2.591 -1.973,3.189 -2.685,3.786 -2.353,4.576 -2.02,4.695 -1.687,4.815 -1.212,4.863 -1.259,5.126 -1.283,5.389 -1.592,5.508 -1.877,5.294 -2.186,5.078 -2.662,5.006 -3.16,5.173 -4.159,5.508 -4.539,9.573 1.308,9.072 2.069,9.024 3.115,8.69 3.756,7.972 3.804,7.901 4.398,7.279 4.565,7.04 4.826,6.657 5.515,5.342 5.539,4.003 5.57,0.742 4.065,-1.806 1.266,-3.143 1.501,-3.114 1.92,-2.942 2.044,-2.796 2.21,-2.628 3.089,-2.222 3.945,-2.413 4.801,-2.628 5.3,-3.656 5.3,-4.063 5.3,-4.47 5.015,-4.446 5.039,-4.135 5.086,-3.298 4.397,-3.442 3.827,-3.656 3.256,-3.872 2.781,-3.657 2.495,-3.418 2.234,-3.179 2.068,-3.155 1.758,-3.251 1.426,-3.346 1.093,-3.418 0.57,-3.442 c 0.076,0.013 0.185,0.06 0.299,0.118 -0.421,-0.176 -0.87,-0.325 -1.345,-0.448 0.808,-0.158 1.816,-0.631 2.457,-1.543 0.665,-0.98 0.547,-2.152 0.332,-2.559 -0.19,-0.43 -0.285,-0.191 -0.237,0.072 0.071,0.455 -0.095,1.005 -0.713,1.148 -0.238,0.048 -0.666,0.048 -0.832,0.622 -0.142,0.502 0.143,0.789 -0.404,1.554 -0.192,0.28 -0.592,0.477 -1.223,0.566 -0.84,-0.168 -1.746,-0.265 -2.732,-0.265 -0.418,0 -0.806,0.023 -1.182,0.054 0.203,-0.145 0.56,-0.359 1.087,-0.513 0.547,-0.167 1.284,-0.119 1.902,-1.147 0.618,-1.029 0.499,-1.316 0.404,-1.794 -0.072,-0.287 -0.214,-0.383 -0.333,0.048 -0.119,0.43 -0.428,0.669 -0.903,0.885 -0.452,0.215 -0.927,0.454 -1.403,1.147 -0.457,0.69 -0.637,1.114 -1.665,1.486 -2.476,0.382 -3.963,1.367 -4.966,1.938 -0.119,0.167 -0.356,0.407 -0.618,0.717 1.361,-0.924 2.776,-1.616 4.187,-2.06"
               style="fill:#8e3e03;fill-opacity:1;fill-rule:nonzero;stroke:none"
               id="path4009"
               inkscape:connector-curvature="0" />
          </g>
        </g>
        <g
           id="g4011"
           transform="matrix(0.518822,-0.854882,-0.86843,-0.4965,744.122,406.391)">
          <g
             id="g4013"
             transform="translate(-435.296,438.619)">
            <path
               d="m 0,0 c 0.279,-0.203 0.377,-0.611 0.178,-0.937 -0.2,-0.326 -0.918,-1.387 -1.059,-2.019 -0.24,-1.08 -0.361,-1.63 -0.363,-3.016 -0.001,-0.937 0.375,-2.546 0.852,-2.912 0.457,-0.366 1.015,-0.284 1.394,-0.12 0.378,0.164 0.816,-0.06 1.253,-0.446 0.696,-0.611 1.234,-0.589 1.872,0.145 0.179,0.184 0.319,0.102 0.119,-0.223 -0.199,-0.347 -1.057,-1.041 -2.191,-1.043 -1.116,0.018 -2.07,0.75 -2.209,1.015 -0.139,0.244 -0.139,0.04 -0.06,-0.163 0.079,-0.204 0.397,-0.957 0.755,-1.262 0.357,-0.305 1.313,-0.65 1.95,-0.69 0.637,-0.04 1.373,-0.283 1.611,-0.71 0.259,-0.428 0.656,-0.814 1.014,-0.793 0.339,0.021 0.338,-0.163 -0.179,-0.347 -0.498,-0.164 -1.792,0.058 -2.568,0.505 -0.795,0.427 -1.67,1.342 -1.849,1.627 -0.159,0.285 -0.537,0.631 -0.636,0.855 -0.099,0.244 -0.198,0.183 -0.199,-0.123 -0.02,-0.305 0.158,-0.896 -0.062,-1.304 -0.239,-0.387 -0.24,-0.733 -0.28,-1.039 -0.021,-0.326 -0.26,-0.572 -0.519,-0.694 -0.259,-0.143 -0.259,-0.021 -0.099,0.163 0.179,0.184 0.26,0.53 0.041,0.958 -0.218,0.448 -0.336,1.283 -0.057,1.793 0.28,0.53 0.679,0.775 0.679,1.101 0.001,0.326 -0.257,0.916 -0.337,1.181 -0.059,0.245 -0.178,0.489 -0.279,-0.061 -0.1,-0.571 -0.618,-0.939 -0.818,-1.02 -0.219,-0.102 -0.418,-0.184 -0.697,-0.205 -0.298,-0.021 -0.258,0.102 -0.039,0.224 0.199,0.102 0.398,0.123 0.379,0.489 -0.019,0.367 0.041,0.775 0.26,1.04 0.2,0.265 0.896,0.185 0.798,0.612 -0.138,0.774 -0.235,2.853 0.265,4.463 0.161,0.55 0.859,1.835 1.059,2.1 0.179,0.245 0.06,0.612 -0.198,0.632 C -0.14,-0.122 0,0 0,0"
               style="fill:#8e3e03;fill-opacity:1;fill-rule:nonzero;stroke:none"
               id="path4015"
               inkscape:connector-curvature="0" />
          </g>
        </g>
        <g
           id="g4017"
           transform="matrix(0.999426,0.0338743,-0.0359557,0.999356,744.122,406.391)">
          <g
             id="g4019"
             transform="translate(-589,165.954)">
            <path
               d="M 0,0 C 0.56,0 0.987,-0.572 0.987,-1.259 0.987,-1.946 0.56,-2.518 0,-2.518 c -0.539,0 -0.987,0.572 -0.987,1.259 C -0.987,-0.572 -0.538,0 0,0 M 1.297,8.498 C 1.276,8.29 1.112,8.124 0.907,8.124 0.703,8.124 0.56,8.29 0.559,8.498 0.56,8.706 0.723,8.872 0.928,8.872 1.133,8.872 1.297,8.706 1.297,8.498 M 2.762,1.73 C 3.239,1.04 3.216,0.189 2.739,-0.157 2.24,-0.502 1.446,-0.225 0.969,0.464 0.493,1.178 0.493,2.006 0.992,2.374 1.491,2.719 2.263,2.443 2.762,1.73 M 3.93,3.741 C 4.309,3.173 4.308,2.536 3.974,2.308 3.617,2.057 3.036,2.331 2.68,2.876 2.323,3.423 2.3,4.082 2.658,4.31 2.993,4.56 3.572,4.287 3.93,3.741 M 2.59,7.287 c -0.228,0 -0.414,0.168 -0.414,0.398 0.02,0.231 0.186,0.398 0.414,0.398 0.228,0 0.394,-0.188 0.394,-0.398 0,-0.23 -0.187,-0.419 -0.394,-0.398 M 2.1,6.521 C 2.325,6.858 2.932,6.858 3.449,6.499 3.989,6.162 4.259,5.601 4.034,5.286 3.809,4.949 3.201,4.949 2.684,5.308 2.145,5.645 1.874,6.206 2.1,6.521 m -9.418,-9.937 c 0.291,-0.023 0.666,-0.078 0.956,-0.046 0.397,0.047 0.676,0.209 1.025,0.719 0.326,0.51 1.235,0.858 2.26,1.09 1.025,0.232 0.908,0.834 0.909,1.228 0,0.394 0.092,0.302 0.209,0.07 0.14,-0.325 0.186,-0.95 -0.256,-1.761 -0.443,-0.789 -1.864,-1.299 -2.516,-1.462 -0.572,-0.137 -1.122,-0.095 -1.59,-0.106 1.356,-0.307 2.696,-0.375 3.967,-0.134 0.357,0.072 0.808,0.216 0.999,0.454 0.213,0.24 0.736,0.718 0.665,0.981 0.143,-0.096 0.357,-0.239 0.452,-0.239 -0.285,-0.144 -0.452,-0.407 -0.571,-0.526 -0.095,-0.12 -0.261,-0.311 -0.38,-0.383 -0.119,-0.071 -0.071,-0.143 0.238,-0.071 1.26,0.286 3.209,0.837 3.803,1.913 0.119,0.216 0.143,1.315 0,1.339 0.119,0.072 0.262,0.311 0.309,0.455 0,0 0.071,-0.144 0.095,-0.167 0.143,-0.288 0,-1.029 -0.024,-1.197 C 3.208,-1.402 3.28,-1.473 3.327,-1.354 3.922,-0.207 4.421,0.894 4.041,1.922 3.993,2.114 3.898,2.09 3.898,2.09 3.993,2.114 4.231,2.281 4.231,2.281 4.207,2.042 4.326,1.946 4.35,1.779 4.397,1.588 4.469,1.372 4.445,1.085 4.421,0.822 4.564,0.822 4.659,1.157 4.92,2.161 5.443,4.29 4.136,5.127 4.184,5.198 4.232,5.39 4.255,5.485 4.326,5.294 4.517,5.174 4.635,5.031 4.731,4.887 4.944,4.624 4.944,4.434 4.921,4.265 5.063,4.313 5.04,4.648 5.04,4.983 4.659,6.442 4.279,7.04 3.875,7.613 3.281,7.566 3.115,7.47 c 0,0.072 0,0.263 -0.048,0.335 C 3.281,7.757 3.4,7.805 3.519,7.78 3.638,7.757 3.566,7.901 3.4,8.044 2.734,8.594 1.926,8.881 1.166,8.928 -4.254,9.167 -3.731,5.675 -3.066,5.365 -2.59,5.149 -2.305,5.269 -2.02,5.437 -1.735,5.604 -1.235,5.7 -1.069,5.294 -0.903,4.887 -1.235,4.695 -1.592,4.576 -1.948,4.48 -2.281,4.145 -2.044,3.667 c 0.262,-0.478 0.618,-0.502 0.856,-0.454 0.237,0.048 0.261,0.287 0.356,0.454 0.072,0.192 0.357,0.383 0.69,0.096 V 3.739 C 0,3.596 -0.095,3.428 -0.237,3.548 -0.38,3.667 -0.594,3.739 -0.689,3.404 -0.76,3.093 -1.26,2.591 -1.973,3.189 -2.685,3.786 -2.353,4.576 -2.02,4.695 -1.687,4.815 -1.212,4.863 -1.259,5.126 -1.283,5.389 -1.592,5.508 -1.877,5.294 -2.186,5.078 -2.662,5.006 -3.161,5.173 -4.159,5.508 -4.539,9.573 1.308,9.072 2.069,9.024 3.115,8.69 3.756,7.972 3.804,7.901 4.398,7.279 4.564,7.04 4.826,6.657 5.515,5.342 5.539,4.003 5.57,0.742 4.065,-1.806 1.266,-3.143 1.501,-3.114 1.92,-2.942 2.044,-2.796 2.21,-2.628 3.089,-2.222 3.945,-2.413 4.801,-2.628 5.3,-3.656 5.3,-4.063 5.3,-4.47 5.015,-4.446 5.039,-4.135 5.086,-3.298 4.397,-3.442 3.827,-3.656 3.256,-3.872 2.781,-3.657 2.495,-3.418 2.234,-3.179 2.068,-3.155 1.758,-3.251 1.426,-3.346 1.093,-3.418 0.57,-3.442 c 0.076,0.013 0.185,0.06 0.299,0.118 -0.421,-0.176 -0.87,-0.325 -1.345,-0.448 0.808,-0.158 1.816,-0.631 2.457,-1.543 0.665,-0.98 0.547,-2.152 0.332,-2.559 -0.19,-0.43 -0.285,-0.191 -0.237,0.072 0.071,0.455 -0.095,1.005 -0.713,1.148 -0.238,0.048 -0.666,0.048 -0.832,0.622 -0.142,0.502 0.143,0.789 -0.404,1.554 -0.192,0.28 -0.592,0.477 -1.223,0.566 -0.84,-0.168 -1.746,-0.265 -2.732,-0.265 -0.418,0 -0.806,0.023 -1.182,0.054 0.203,-0.145 0.56,-0.359 1.087,-0.513 0.547,-0.167 1.284,-0.119 1.902,-1.147 0.618,-1.029 0.499,-1.316 0.404,-1.794 -0.072,-0.287 -0.214,-0.383 -0.333,0.048 -0.119,0.43 -0.428,0.669 -0.903,0.885 -0.452,0.215 -0.927,0.454 -1.403,1.147 -0.457,0.69 -0.637,1.114 -1.665,1.486 -2.476,0.382 -3.963,1.367 -4.966,1.938 -0.119,0.167 -0.356,0.407 -0.618,0.717 1.361,-0.924 2.776,-1.616 4.187,-2.06"
               style="fill:#8e3e03;fill-opacity:1;fill-rule:nonzero;stroke:none"
               id="path4021"
               inkscape:connector-curvature="0" />
          </g>
        </g>
        <g
           id="g4023"
           transform="matrix(0.836653,-0.547733,-0.570893,-0.821491,-275.496,317.01)">
          <g
             id="g4025"
             transform="translate(212.336,-422.87)">
            <path
               d="m 0,0 c 0.157,-0.17 0.493,-0.361 0.493,-0.361 0.177,-2.11 -0.928,-4.264 -1.85,-5.012 -0.203,-0.171 -0.518,-0.533 -0.249,-0.831 0.247,-0.299 0.111,-0.938 -0.474,-1.408 -0.585,-0.469 -1.148,-0.982 -1.126,-1.408 0.022,-0.448 -0.315,-0.299 -0.494,-0.022 -0.202,0.255 -0.201,0.98 0.204,1.492 0.428,0.491 0.833,0.832 0.901,0.96 0.068,0.15 0.203,0.257 -0.135,0.107 -1.484,-0.685 -3.8,-1.349 -5.664,-0.329 -2.11,1.147 -1.41,3.067 -0.466,3.537 0.338,0.171 0.607,0.086 0.247,-0.341 -0.382,-0.405 -0.609,-1.173 -0.25,-1.577 0.696,-0.809 1.326,-0.318 2.067,-0.743 0.718,-0.446 0.874,-0.979 1.437,-0.935 0.539,0.043 1.641,0.322 2.315,0.664 0.18,0.086 0.337,0.299 -0.045,0.213 -0.404,-0.107 -1.213,-0.108 -1.617,0.296 -0.561,0.575 -0.335,1.299 0.07,1.705 0.202,0.214 0.337,0.043 0.315,-0.234 -0.023,-0.255 0.313,-0.66 0.717,-0.617 0.383,0.044 1.326,0.109 1.528,-0.125 0.18,-0.213 0.404,-0.149 0.585,-0.02 0.314,0.277 0.877,0.981 1.126,1.6 0.09,0.213 0.225,0.576 -0.135,0.234 -0.382,-0.363 -1.035,-1.003 -1.889,-0.877 -0.854,0.127 -1.684,0.616 -1.93,1.19 -0.09,0.235 0.18,0.342 0.449,0.129 0.27,-0.191 0.741,-0.318 1.281,-0.147 0.562,0.193 1.034,0.364 1.529,0.28 0.539,-0.085 0.719,0.193 0.899,0.47 C 0.019,-1.854 0.201,-0.767 0,0"
               style="fill:#8e3e03;fill-opacity:1;fill-rule:nonzero;stroke:none"
               id="path4027"
               inkscape:connector-curvature="0" />
          </g>
        </g>
        <g
           id="g4029"
           transform="matrix(-0.836653,-0.547733,0.570893,-0.821491,-275.496,317.01)">
          <g
             id="g4031"
             transform="translate(-466,29.413)">
            <path
               d="m 0,0 c 0.157,-0.17 0.493,-0.361 0.493,-0.361 0.177,-2.11 -0.928,-4.265 -1.85,-5.012 -0.203,-0.171 -0.518,-0.533 -0.249,-0.831 0.247,-0.299 0.111,-0.938 -0.474,-1.408 -0.585,-0.469 -1.148,-0.982 -1.126,-1.408 0.022,-0.448 -0.315,-0.299 -0.494,-0.022 -0.202,0.255 -0.201,0.98 0.204,1.492 0.428,0.491 0.833,0.832 0.901,0.96 0.068,0.15 0.203,0.257 -0.135,0.107 -1.484,-0.685 -3.8,-1.349 -5.664,-0.329 -2.11,1.147 -1.41,3.067 -0.466,3.537 0.338,0.171 0.607,0.086 0.247,-0.341 -0.382,-0.405 -0.609,-1.173 -0.25,-1.577 0.696,-0.809 1.326,-0.318 2.067,-0.743 0.718,-0.446 0.874,-0.979 1.437,-0.935 0.539,0.043 1.64,0.322 2.315,0.664 0.18,0.086 0.337,0.299 -0.045,0.213 -0.404,-0.107 -1.213,-0.108 -1.617,0.296 -0.561,0.575 -0.335,1.299 0.07,1.705 0.202,0.213 0.337,0.043 0.315,-0.234 -0.023,-0.255 0.313,-0.66 0.717,-0.617 0.383,0.044 1.326,0.109 1.528,-0.125 0.18,-0.213 0.404,-0.149 0.585,-0.02 0.314,0.277 0.877,0.981 1.126,1.6 0.09,0.213 0.225,0.576 -0.135,0.234 -0.382,-0.363 -1.035,-1.003 -1.889,-0.877 -0.854,0.127 -1.684,0.616 -1.93,1.19 -0.09,0.235 0.18,0.342 0.449,0.129 0.27,-0.191 0.741,-0.318 1.281,-0.147 0.562,0.193 1.034,0.364 1.529,0.279 0.539,-0.084 0.719,0.194 0.899,0.471 C 0.019,-1.854 0.201,-0.767 0,0"
               style="fill:#8e3e03;fill-opacity:1;fill-rule:nonzero;stroke:none"
               id="path4033"
               inkscape:connector-curvature="0" />
          </g>
        </g>
        <g
           id="g4035"
           transform="matrix(0.812227,0.583341,0.606531,-0.795572,-275.986,317.01)">
          <g
             id="g4037"
             transform="translate(486.064,39.671)">
            <path
               d="m 0,0 c -0.192,-0.367 -0.702,-1.063 -1.551,-1.257 -0.85,-0.193 -2.089,-0.147 -2.262,-0.123 -0.172,0.025 -0.234,-0.192 -0.036,-0.327 0.2,-0.136 0.865,-0.475 1.201,-0.828 0.55,-0.578 0.756,-1.359 0.728,-2.018 -0.012,-0.289 -0.18,-0.213 -0.191,0.036 -0.012,0.249 -0.171,0.562 -0.472,0.706 -0.302,0.143 -0.771,0.631 -0.919,0.964 -0.148,0.333 -0.316,0.744 -0.421,0.836 -0.106,0.091 -0.168,0.076 -0.341,0.033 -0.172,-0.042 -0.457,0.172 -0.504,0.295 -0.047,0.123 -0.156,0.23 -0.261,0.254 -0.106,0.024 -0.513,0.192 -0.681,0.268 -0.168,0.076 -0.258,0.104 -0.09,-0.106 0.282,-0.353 0.524,-1.328 0.408,-1.729 -0.063,-0.217 -0.168,-0.125 -0.238,0.092 -0.07,0.218 -0.356,0.5 -0.563,0.734 -0.207,0.234 -0.269,0.823 -0.288,1.037 -0.019,0.213 0.056,0.248 -0.246,0.459 -0.582,0.408 -1.089,0.795 -1.579,1.351 0.096,-0.213 0.178,-0.424 0.23,-0.621 0.372,-1.392 0.028,-2.8 -0.583,-3.813 -0.267,-0.444 -0.467,-0.177 -0.271,0.225 0.195,0.401 0.212,1.034 -0.14,1.524 -0.352,0.489 -0.673,1.668 -0.621,2.321 0.051,0.653 0.14,1.447 0.052,1.684 -0.088,0.236 -0.2,0.266 -0.509,0.351 -0.308,0.083 -0.574,0.671 -0.543,0.904 0.032,0.235 -0.049,0.499 -0.195,0.629 -0.146,0.131 -0.644,0.752 -0.844,1.018 -0.201,0.267 -0.893,1.061 -1.187,1.657 -1.084,2.193 -1.805,4.034 -1.654,7.924 -0.168,4.005 0.619,1.473 0.561,0.572 0.085,-2.993 0.509,-6.31 1.741,-7.975 0.209,-0.283 0.259,-1.071 0.53,-1.417 0.268,-0.346 1.141,-1.371 1.272,-1.558 0.131,-0.187 0.66,-0.119 0.987,-0.36 0.328,-0.24 0.927,-0.693 1.663,-0.876 1.354,-0.337 1.811,0.145 2.683,0.03 C -4.262,2.78 -3.625,2.577 -3.192,2.277 -2.76,1.978 -2.071,1.972 -1.779,2.166 -1.487,2.36 -1.097,2.133 -1.716,1.725 -2.334,1.316 -3.737,0.667 -5.244,1.106 -6.752,1.546 -8.671,2.704 -8.922,2.894 -9.07,3.006 -9.228,2.949 -9.293,2.806 c 0.801,-1.317 1.791,-2.612 2.743,-3.05 0.177,-0.082 0.669,-0.288 1.033,-0.013 0.364,0.274 0.838,0.442 1.077,0.35 0.238,-0.092 0.477,0.017 0.571,0.175 0.094,0.158 0.306,0.109 0.18,-0.191 -0.126,-0.299 -0.635,-0.66 -1.183,-0.729 -0.548,-0.068 -1.013,0.002 -1.17,0.03 -0.156,0.028 -0.098,-0.075 0.125,-0.17 0.223,-0.096 0.919,-0.361 1.032,-0.416 0.114,-0.056 0.353,0.12 0.576,0.092 0.223,-0.029 0.635,-0.088 1.041,0.022 0.747,0.202 0.841,0.561 1.296,0.74 0.454,0.18 0.818,0.253 1.108,0.224 0.289,-0.029 0.626,0.155 0.716,0.328 C -0.058,0.371 0.193,0.367 0,0"
               style="fill:#8e3e03;fill-opacity:1;fill-rule:nonzero;stroke:none"
               id="path4039"
               inkscape:connector-curvature="0" />
          </g>
        </g>
        <g
           id="g4041"
           transform="matrix(-0.971945,-0.235206,0.248829,-0.968649,-275.986,317.01)">
          <g
             id="g4043"
             transform="translate(-458.012,-137.961)">
            <path
               d="m 0,0 c 0.512,-0.395 1.135,-0.307 1.558,-0.13 0.423,0.176 0.913,-0.066 1.402,-0.483 0.778,-0.659 1.379,-0.636 2.092,0.156 0.201,0.198 0.356,0.11 0.134,-0.242 C 4.963,-1.073 4.005,-1.821 2.736,-1.822 1.49,-1.801 0.422,-1.011 0.266,-0.725 0.111,-0.461 0.111,-0.681 0.2,-0.901 0.289,-1.121 0.644,-1.934 1.044,-2.263 1.444,-2.592 2.513,-2.965 3.225,-3.008 3.937,-3.052 4.76,-3.315 5.027,-3.776 5.316,-4.238 5.761,-4.655 6.162,-4.633 6.54,-4.61 6.54,-4.808 5.961,-5.007 5.404,-5.183 3.958,-4.942 3.09,-4.459 2.2,-3.998 1.222,-3.01 1.022,-2.702 0.844,-2.395 0.421,-2.021 0.31,-1.78 0.199,-1.516 0.088,-1.582 0.088,-1.912 0.065,-2.242 0.265,-2.879 0.019,-3.319 -0.248,-3.737 -0.248,-4.11 -0.293,-4.44 c -0.023,-0.352 -0.29,-0.616 -0.579,-0.748 -0.29,-0.154 -0.29,-0.022 -0.112,0.176 0.201,0.198 0.29,0.572 0.046,1.033 -0.244,0.484 -0.378,1.384 -0.066,1.934 0.313,0.572 0.758,0.836 0.759,1.188 0,0.351 -1.064,1.661 -1.153,1.948 C -1.464,1.354 -1.601,1.922 0,0"
               style="fill:#8e3e03;fill-opacity:1;fill-rule:nonzero;stroke:none"
               id="path4045"
               inkscape:connector-curvature="0" />
          </g>
        </g>
        <g
           id="g4047"
           transform="matrix(-0.971945,-0.235206,0.248829,-0.968649,-275.986,317.01)">
          <g
             id="g4049"
             transform="translate(-459.537,-131.739)">
            <path
               d="m 0,0 c 0.142,-0.166 0.13,-0.338 0.13,-0.338 0.161,-2.053 -1.128,-4.113 -1.961,-4.839 -0.183,-0.166 -0.468,-0.519 -0.225,-0.809 0.224,-0.29 0.101,-0.913 -0.427,-1.369 -0.529,-0.457 -1.037,-0.955 -1.017,-1.37 0.019,-0.435 -0.285,-0.291 -0.447,-0.021 -0.183,0.249 -0.183,0.954 0.184,1.452 0.386,0.478 0.752,0.809 0.813,0.934 0.061,0.145 0.183,0.249 -0.122,0.104 -1.341,-0.665 -3.435,-1.31 -5.121,-0.316 -1.908,1.119 -1.277,2.986 -0.423,3.443 0.305,0.166 0.549,0.083 0.223,-0.332 -0.345,-0.394 -0.55,-1.141 -0.225,-1.535 0.63,-0.787 1.199,-0.31 1.869,-0.724 0.65,-0.435 0.791,-0.953 1.3,-0.912 0.487,0.042 1.483,0.313 2.093,0.645 0.163,0.083 0.305,0.291 -0.04,0.207 -0.366,-0.104 -1.098,-0.104 -1.463,0.29 -0.508,0.559 -0.304,1.264 0.062,1.659 0.183,0.207 0.305,0.041 0.285,-0.228 -0.021,-0.249 0.283,-0.643 0.649,-0.601 0.346,0.042 1.199,0.105 1.382,-0.123 0.162,-0.208 0.365,-0.145 0.528,-0.021 0.284,0.27 0.793,0.955 1.017,1.557 0.081,0.207 0.204,0.56 -0.122,0.228 -0.345,-0.353 -0.935,-0.976 -1.707,-0.852 -0.772,0.124 -1.524,0.6 -1.746,1.16 -0.082,0.228 0.162,0.332 0.406,0.125 0.244,-0.187 0.67,-0.311 1.158,-0.144 0.508,0.186 0.935,0.353 1.382,0.27 0.488,-0.082 0.651,0.188 0.813,0.457 0.163,0.249 0.618,1.271 0.435,2.017 z"
               style="fill:#8e3e03;fill-opacity:1;fill-rule:nonzero;stroke:none"
               id="path4051"
               inkscape:connector-curvature="0" />
          </g>
        </g>
        <g
           id="g4053"
           transform="matrix(0.876536,0.481335,0.503767,-0.864218,-275.986,317.01)">
          <g
             id="g4055"
             transform="translate(476.534,-1.6342)">
            <path
               d="m 0,0 c 0.141,-0.167 0.101,-0.542 0.101,-0.542 0.165,-2.063 -0.823,-4.166 -1.65,-4.894 -0.182,-0.167 -0.465,-0.521 -0.222,-0.813 0.223,-0.292 0.103,-0.917 -0.422,-1.374 -0.526,-0.458 -1.03,-0.958 -1.009,-1.374 0.021,-0.438 -0.283,-0.292 -0.445,-0.02 -0.182,0.25 -0.184,0.958 0.18,1.458 0.383,0.479 0.746,0.812 0.807,0.936 0.061,0.146 0.182,0.25 -0.121,0.105 -1.334,-0.665 -3.416,-1.308 -5.096,-0.305 -1.903,1.128 -1.279,3.003 -0.43,3.46 0.303,0.166 0.546,0.082 0.223,-0.334 -0.343,-0.395 -0.545,-1.145 -0.22,-1.542 0.628,-0.792 1.193,-0.314 1.861,-0.732 0.648,-0.439 0.79,-0.959 1.296,-0.919 0.485,0.041 1.476,0.311 2.082,0.643 0.162,0.083 0.303,0.291 -0.041,0.209 -0.364,-0.104 -1.092,-0.103 -1.456,0.294 -0.507,0.563 -0.306,1.271 0.058,1.666 0.181,0.209 0.303,0.042 0.284,-0.229 -0.021,-0.25 0.283,-0.647 0.647,-0.605 0.344,0.041 1.193,0.102 1.376,-0.128 0.162,-0.208 0.364,-0.146 0.525,-0.021 0.283,0.27 0.787,0.957 1.009,1.561 0.081,0.209 0.201,0.563 -0.122,0.23 -0.343,-0.354 -0.928,-0.978 -1.697,-0.852 -0.769,0.126 -1.518,0.607 -1.74,1.169 -0.082,0.23 0.16,0.334 0.403,0.125 0.243,-0.188 0.668,-0.314 1.153,-0.147 0.506,0.186 0.93,0.352 1.375,0.268 0.486,-0.084 0.647,0.187 0.808,0.457 0.162,0.25 0.537,1.428 0.354,2.178 z"
               style="fill:#8e3e03;fill-opacity:1;fill-rule:nonzero;stroke:none"
               id="path4057"
               inkscape:connector-curvature="0" />
          </g>
        </g>
        <g
           id="g4059"
           transform="matrix(-0.863833,-0.503778,0.52655,-0.850553,-275.986,317.01)">
          <g
             id="g4061"
             transform="translate(-466.912,10.4689)">
            <path
               d="m 0,0 c -0.194,-0.366 -0.707,-1.063 -1.558,-1.259 -0.853,-0.196 -2.095,-0.154 -2.268,-0.13 -0.173,0.024 -0.236,-0.193 -0.037,-0.327 0.199,-0.134 0.864,-0.47 1.2,-0.822 0.55,-0.575 0.754,-1.353 0.724,-2.011 -0.014,-0.288 -0.181,-0.213 -0.192,0.036 -0.011,0.248 -0.17,0.56 -0.471,0.702 -0.302,0.142 -0.77,0.628 -0.917,0.959 -0.148,0.332 -0.314,0.742 -0.42,0.833 -0.105,0.091 -0.168,0.075 -0.341,0.032 -0.173,-0.043 -0.458,0.17 -0.504,0.292 -0.047,0.123 -0.156,0.229 -0.262,0.253 -0.105,0.024 -0.513,0.19 -0.681,0.265 -0.168,0.075 -0.258,0.103 -0.091,-0.106 0.281,-0.351 0.521,-1.323 0.404,-1.723 -0.064,-0.217 -0.169,-0.126 -0.239,0.091 -0.069,0.217 -0.355,0.497 -0.561,0.73 -0.207,0.233 -0.267,0.82 -0.286,1.033 -0.018,0.213 0.057,0.248 -0.244,0.458 -0.582,0.405 -1.09,0.79 -1.579,1.342 -1.018,1.027 -0.792,-4.181 -1.389,-0.367 0.053,0.652 0.145,1.444 0.058,1.68 -0.088,0.236 -0.2,0.265 -0.509,0.348 -0.309,0.083 -0.574,0.668 -0.542,0.901 0.033,0.234 -0.047,0.498 -0.193,0.627 -0.146,0.13 -0.643,0.748 -0.842,1.012 -0.201,0.266 -0.277,1.105 -0.008,0.76 0.269,-0.344 1.139,-1.365 1.27,-1.55 0.131,-0.187 0.661,-0.117 0.989,-0.356 0.327,-0.239 0.927,-0.689 1.664,-0.869 1.356,-0.332 1.816,0.151 2.689,0.038 0.873,-0.112 1.511,-0.313 1.944,-0.61 0.432,-0.297 1.123,-0.301 1.416,-0.106 0.293,0.194 0.684,-0.031 0.062,-0.44 -0.621,-0.41 -2.03,-1.063 -3.538,-0.629 -1.51,0.433 -3.43,1.582 -3.681,1.771 -0.148,0.111 -0.306,0.054 -0.372,-0.088 0.798,-1.312 1.787,-2.601 2.739,-3.035 0.177,-0.081 0.669,-0.285 1.036,-0.01 0.365,0.276 0.841,0.444 1.08,0.353 0.238,-0.09 0.479,0.019 0.573,0.177 0.095,0.158 0.307,0.109 0.18,-0.19 -0.127,-0.299 -0.639,-0.661 -1.188,-0.731 -0.549,-0.07 -1.016,-0.002 -1.173,0.026 -0.156,0.028 -0.098,-0.075 0.125,-0.17 0.223,-0.095 0.92,-0.356 1.033,-0.411 0.114,-0.056 0.354,0.121 0.577,0.093 0.224,-0.028 0.636,-0.085 1.043,0.026 0.751,0.204 0.846,0.562 1.302,0.743 0.456,0.18 0.821,0.254 1.111,0.226 0.29,-0.028 0.628,0.157 0.719,0.33 C -0.056,0.37 0.194,0.366 0,0"
               style="fill:#8e3e03;fill-opacity:1;fill-rule:nonzero;stroke:none"
               id="path4063"
               inkscape:connector-curvature="0" />
          </g>
        </g>
        <g
           id="g4065"
           transform="matrix(0.705315,0.708894,0.729939,-0.684163,-275.986,317.01)">
          <g
             id="g4067"
             transform="translate(453.958,129.338)">
            <path
               d="m 0,0 c -0.048,0.155 -0.036,0.503 0.046,0.491 0.076,-0.158 0.382,-0.1 0.572,-0.303 0.189,-0.203 0.537,-0.585 0.963,-0.739 0.784,-0.284 1.048,0.123 1.553,0.026 0.504,-0.097 0.873,-0.269 1.124,-0.521 0.25,-0.252 0.649,-0.257 0.818,-0.093 0.169,0.163 0.395,-0.028 0.037,-0.373 C 4.756,-1.857 3.943,-2.406 3.071,-2.036 2.198,-1.665 1.086,-0.689 0.941,-0.528 0.855,-0.434 0.764,-0.482 0.726,-0.602 0.514,-0.723 0.537,-0.657 0.389,-0.646 0.036,-0.462 0.165,-0.44 0,0"
               style="fill:#8e3e03;fill-opacity:1;fill-rule:nonzero;stroke:none"
               id="path4069"
               inkscape:connector-curvature="0" />
          </g>
        </g>
        <g
           id="g4071"
           transform="matrix(-0.71758,-0.696476,0.7179,-0.696786,446.367,36.109)">
          <g
             id="g4073"
             transform="translate(-155.169,-583.029)">
            <path
               d="m 0,0 0.001,-0.074 c -0.071,-0.343 -0.138,-0.688 -0.204,-1.03 0,0 -10e-4,0.001 0,0.001 -10e-4,-0.002 -10e-4,-0.004 -10e-4,-0.006 -0.435,-2.288 -0.712,-4.565 -0.817,-6.831 -0.052,-1.418 -0.05,-2.865 0.005,-4.263 0.12,-2.366 0.432,-4.718 0.951,-7.05 l -0.002,-0.676 c -1.384,-2.008 0.07,0.093 -2.262,-3.275 l -0.304,-0.294 -0.312,0.29 c -0.802,1.16 -1.483,2.135 -2.241,3.239 l 0.004,0.675 c 1.444,6.303 1.386,12.711 0.065,19.179 l -0.001,0.067 c -0.795,-0.062 -1.595,-0.49 -2.39,-0.596 0.854,0.229 -1.043,2.312 -1.043,2.312 2.285,0.256 3.914,0.541 4.888,0.863 l 0.023,7.003 c -0.039,0.009 -0.563,0.107 -0.671,0.138 -0.974,0.353 1.642,1.788 1.769,2.91 0.008,-1.086 2.713,-2.525 1.758,-2.883 C -0.995,9.631 -1.455,9.551 -1.467,9.547 L -1.49,2.503 c 0.973,-0.287 2.594,-0.532 4.869,-0.742 0,0 -1.913,-2.113 -1.062,-2.328 C 1.544,-0.465 0.773,-0.047 0,0"
               style="fill:#f36f21;fill-opacity:1;fill-rule:nonzero;stroke:none"
               id="path4075"
               inkscape:connector-curvature="0" />
          </g>
        </g>
        <g
           id="g4077"
           transform="matrix(-0.71758,-0.696476,0.7179,-0.696786,446.367,36.109)">
          <g
             id="g4079"
             transform="translate(-155.797,-582.524)">
            <path
               d="m 0,0 v -0.018 l -0.003,-0.724 c -0.054,-0.332 -0.106,-0.667 -0.156,-0.999 0,0 0,0.001 0,0.001 0,-0.001 -0.001,-0.004 -0.001,-0.006 -0.331,-2.219 -0.544,-4.429 -0.626,-6.627 -0.041,-1.375 -0.041,-2.78 -0.001,-4.136 0.088,-2.296 0.321,-4.578 0.711,-6.842 l -0.002,-0.656 c -1.05,-1.947 0.053,0.091 -1.716,-3.175 l -0.231,-0.285 -0.236,0.282 c -0.606,1.127 -1.12,2.074 -1.692,3.145 l 0.003,0.656 c 1.101,6.114 1.065,12.331 0.072,18.609 l 0.003,0.724 v 0.011 c -0.602,-0.059 -1.898,-0.488 -2.5,-0.59 0.646,0.221 -0.791,1.585 -0.791,1.585 1.73,0.246 3.654,0.524 4.392,0.836 l 0.03,7.464 c -0.03,0.009 -0.054,0.02 -0.076,0.027 -0.2,0.04 -0.351,0.078 -0.432,0.108 -0.737,0.343 1.241,1.064 1.339,2.151 C -1.909,10.488 0.141,9.758 -0.582,9.412 -0.742,9.346 -0.91,9.301 -1.072,9.277 -1.081,9.273 -1.09,9.269 -1.099,9.265 l -0.03,-7.504 c 0.737,-0.28 2.654,-0.516 4.376,-0.722 0,0 -1.447,-1.388 -0.803,-1.598 C 1.859,-0.459 0.585,-0.046 0,0"
               style="fill:#faa61a;fill-opacity:1;fill-rule:nonzero;stroke:none"
               id="path4081"
               inkscape:connector-curvature="0" />
          </g>
        </g>
      </g>
    </g>
  </g>
</svg>
