<?xml version="1.0" encoding="UTF-8" standalone="no"?>
<!-- Created with Inkscape (http://www.inkscape.org/) -->

<svg
   xmlns:dc="http://purl.org/dc/elements/1.1/"
   xmlns:cc="http://creativecommons.org/ns#"
   xmlns:rdf="http://www.w3.org/1999/02/22-rdf-syntax-ns#"
   xmlns:svg="http://www.w3.org/2000/svg"
   xmlns="http://www.w3.org/2000/svg"
   xmlns:sodipodi="http://sodipodi.sourceforge.net/DTD/sodipodi-0.dtd"
   xmlns:inkscape="http://www.inkscape.org/namespaces/inkscape"
   width="42.077pt"
   height="32.523998pt"
   viewBox="0 0 14.843831 11.473743"
   version="1.1"
   id="svg8731"
   inkscape:version="0.92.3 (2405546, 2018-03-11)"
   sodipodi:docname="purple.svg">
  <defs
     id="defs8725">
    <clipPath
       clipPathUnits="userSpaceOnUse"
       id="clipPath3867">
      <path
         d="M 0,0 H 612 V 792 H 0 Z"
         id="path3865"
         inkscape:connector-curvature="0" />
    </clipPath>
    <clipPath
       clipPathUnits="userSpaceOnUse"
       id="clipPath3985">
      <path
         d="M 0,0 H 612 V 792 H 0 Z"
         id="path3983"
         inkscape:connector-curvature="0" />
    </clipPath>
    <clipPath
       clipPathUnits="userSpaceOnUse"
       id="clipPath4097">
      <path
         d="M 0,0 H 612 V 792 H 0 Z"
         id="path4095"
         inkscape:connector-curvature="0" />
    </clipPath>
    <clipPath
       clipPathUnits="userSpaceOnUse"
       id="clipPath4215">
      <path
         d="M 0,0 H 612 V 792 H 0 Z"
         id="path4213"
         inkscape:connector-curvature="0" />
    </clipPath>
    <clipPath
       clipPathUnits="userSpaceOnUse"
       id="clipPath4285">
      <path
         d="M 0,0 H 612 V 792 H 0 Z"
         id="path4283"
         inkscape:connector-curvature="0" />
    </clipPath>
    <clipPath
       clipPathUnits="userSpaceOnUse"
       id="clipPath4405">
      <path
         d="M 0,0 H 612 V 792 H 0 Z"
         id="path4403"
         inkscape:connector-curvature="0" />
    </clipPath>
  </defs>
  <sodipodi:namedview
     id="base"
     pagecolor="#ffffff"
     bordercolor="#666666"
     borderopacity="1.0"
     inkscape:pageopacity="0.0"
     inkscape:pageshadow="2"
     inkscape:zoom="1"
     inkscape:cx="141.19011"
     inkscape:cy="19.28743"
     inkscape:document-units="mm"
     inkscape:current-layer="layer1"
     showgrid="false"
     units="pt"
     inkscape:window-width="1440"
     inkscape:window-height="836"
     inkscape:window-x="0"
     inkscape:window-y="27"
     inkscape:window-maximized="1" />
  <metadata
     id="metadata8728">
    <rdf:RDF>
      <cc:Work
         rdf:about="">
        <dc:format>image/svg+xml</dc:format>
        <dc:type
           rdf:resource="http://purl.org/dc/dcmitype/StillImage" />
        <dc:title></dc:title>
      </cc:Work>
    </rdf:RDF>
  </metadata>
  <g
     inkscape:label="Layer 1"
     inkscape:groupmode="layer"
     id="layer1"
     transform="translate(-34.648535,-102.53345)">
    <g
       transform="matrix(0.35277777,0,0,-0.35277777,-6.3516503,236.728)"
       id="g4399">
      <g
         id="g4401"
         clip-path="url(#clipPath4405)">
        <g
           id="g4407"
           transform="translate(158.298,364.132)">
          <path
             d="m 0,0 c 0,-8.98 -9.421,-16.262 -21.039,-16.262 -11.617,0 -21.038,7.282 -21.038,16.262 0,8.98 9.421,16.262 21.038,16.262 C -9.421,16.262 0,8.98 0,0"
             style="fill:#451e76;fill-opacity:1;fill-rule:nonzero;stroke:none"
             id="path4409"
             inkscape:connector-curvature="0" />
        </g>
        <g
           id="g4411"
           transform="translate(134.744,348.55)">
          <path
             d="M 0,0 C 0.316,0 0.572,0.249 0.572,0.557 0.572,0.864 0.316,1.113 0,1.113 -0.316,1.113 -0.572,0.864 -0.572,0.557 -0.572,0.249 -0.316,0 0,0 m 0,31.165 c 0.316,0 0.572,-0.249 0.572,-0.556 0,-0.308 -0.256,-0.557 -0.572,-0.557 -0.316,0 -0.572,0.249 -0.572,0.557 0,0.307 0.256,0.556 0.572,0.556 m 2.515,0.134 c 0.316,0 0.571,-0.25 0.571,-0.557 0,-0.307 -0.255,-0.557 -0.571,-0.557 -0.316,0 -0.571,0.25 -0.571,0.557 0,0.307 0.255,0.557 0.571,0.557 M 5.03,31.165 c -0.316,0 -0.572,-0.249 -0.572,-0.556 0,-0.308 0.256,-0.557 0.572,-0.557 0.315,0 0.571,0.249 0.571,0.557 0,0.307 -0.256,0.556 -0.571,0.556 m 2.61,-0.408 c -0.316,0 -0.572,-0.25 -0.572,-0.557 0,-0.307 0.256,-0.557 0.572,-0.557 0.315,0 0.571,0.25 0.571,0.557 0,0.307 -0.256,0.557 -0.571,0.557 m 2.545,-0.694 c -0.315,0 -0.571,-0.249 -0.571,-0.556 0,-0.308 0.256,-0.557 0.571,-0.557 0.316,0 0.572,0.249 0.572,0.557 0,0.307 -0.256,0.556 -0.572,0.556 m 2.443,-0.983 c -0.316,0 -0.572,-0.249 -0.572,-0.557 0,-0.307 0.256,-0.557 0.572,-0.557 0.315,0 0.571,0.25 0.571,0.557 0,0.308 -0.256,0.557 -0.571,0.557 m 2.294,-1.278 c -0.316,0 -0.572,-0.25 -0.572,-0.557 0,-0.307 0.256,-0.557 0.572,-0.557 0.315,0 0.571,0.25 0.571,0.557 0,0.307 -0.256,0.557 -0.571,0.557 m 2.09,-1.575 c -0.315,0 -0.571,-0.249 -0.571,-0.556 0,-0.308 0.256,-0.557 0.571,-0.557 0.316,0 0.572,0.249 0.572,0.557 0,0.307 -0.256,0.556 -0.572,0.556 m 1.82,-1.865 c -0.316,0 -0.571,-0.249 -0.571,-0.556 0,-0.308 0.255,-0.557 0.571,-0.557 0.316,0 0.572,0.249 0.572,0.557 0,0.307 -0.256,0.556 -0.572,0.556 m 1.471,-2.136 c -0.315,0 -0.571,-0.249 -0.571,-0.557 0,-0.307 0.256,-0.556 0.571,-0.556 0.316,0 0.572,0.249 0.572,0.556 0,0.308 -0.256,0.557 -0.572,0.557 m 1.026,-2.37 c -0.316,0 -0.572,-0.249 -0.572,-0.556 0,-0.308 0.256,-0.557 0.572,-0.557 0.315,0 0.571,0.249 0.571,0.557 0,0.307 -0.256,0.556 -0.571,0.556 m 0.504,-2.523 c -0.315,0 -0.571,-0.249 -0.571,-0.557 0,-0.307 0.256,-0.556 0.571,-0.556 0.316,0 0.572,0.249 0.572,0.556 0,0.308 -0.256,0.557 -0.572,0.557 M -2.61,30.757 c 0.316,0 0.572,-0.25 0.572,-0.557 0,-0.307 -0.256,-0.557 -0.572,-0.557 -0.315,0 -0.571,0.25 -0.571,0.557 0,0.307 0.256,0.557 0.571,0.557 m -2.545,-0.694 c 0.315,0 0.571,-0.249 0.571,-0.556 0,-0.308 -0.256,-0.557 -0.571,-0.557 -0.316,0 -0.572,0.249 -0.572,0.557 0,0.307 0.256,0.556 0.572,0.556 M -7.598,29.08 c 0.316,0 0.572,-0.249 0.572,-0.557 0,-0.307 -0.256,-0.557 -0.572,-0.557 -0.315,0 -0.571,0.25 -0.571,0.557 0,0.308 0.256,0.557 0.571,0.557 m -2.294,-1.278 c 0.316,0 0.572,-0.25 0.572,-0.557 0,-0.307 -0.256,-0.557 -0.572,-0.557 -0.315,0 -0.571,0.25 -0.571,0.557 0,0.307 0.256,0.557 0.571,0.557 m -2.09,-1.575 c 0.315,0 0.571,-0.249 0.571,-0.556 0,-0.308 -0.256,-0.557 -0.571,-0.557 -0.316,0 -0.572,0.249 -0.572,0.557 0,0.307 0.256,0.556 0.572,0.556 m -1.82,-1.865 c 0.315,0 0.571,-0.249 0.571,-0.556 0,-0.308 -0.256,-0.557 -0.571,-0.557 -0.316,0 -0.572,0.249 -0.572,0.557 0,0.307 0.256,0.556 0.572,0.556 m -1.471,-2.136 c 0.315,0 0.571,-0.249 0.571,-0.557 0,-0.307 -0.256,-0.556 -0.571,-0.556 -0.316,0 -0.572,0.249 -0.572,0.556 0,0.308 0.256,0.557 0.572,0.557 m -1.026,-2.37 c 0.316,0 0.572,-0.249 0.572,-0.556 0,-0.308 -0.256,-0.557 -0.572,-0.557 -0.315,0 -0.571,0.249 -0.571,0.557 0,0.307 0.256,0.556 0.571,0.556 m -0.504,-2.523 c 0.315,0 0.571,-0.249 0.571,-0.557 0,-0.307 -0.256,-0.556 -0.571,-0.556 -0.316,0 -0.572,0.249 -0.572,0.556 0,0.308 0.256,0.557 0.572,0.557 M 2.515,-0.133 c 0.316,0 0.571,0.249 0.571,0.557 0,0.307 -0.255,0.556 -0.571,0.556 -0.316,0 -0.571,-0.249 -0.571,-0.556 0,-0.308 0.255,-0.557 0.571,-0.557 M 5.03,0 C 4.714,0 4.458,0.249 4.458,0.557 c 0,0.307 0.256,0.556 0.572,0.556 0.315,0 0.571,-0.249 0.571,-0.556 C 5.601,0.249 5.345,0 5.03,0 m 2.61,0.409 c -0.316,0 -0.572,0.249 -0.572,0.557 0,0.307 0.256,0.556 0.572,0.556 0.315,0 0.571,-0.249 0.571,-0.556 0,-0.308 -0.256,-0.557 -0.571,-0.557 m 2.545,0.693 c -0.315,0 -0.571,0.249 -0.571,0.557 0,0.307 0.256,0.556 0.571,0.556 0.316,0 0.572,-0.249 0.572,-0.556 0,-0.308 -0.256,-0.557 -0.572,-0.557 m 2.443,0.984 c -0.316,0 -0.572,0.249 -0.572,0.556 0,0.308 0.256,0.557 0.572,0.557 0.315,0 0.571,-0.249 0.571,-0.557 0,-0.307 -0.256,-0.556 -0.571,-0.556 m 2.294,1.278 c -0.316,0 -0.572,0.249 -0.572,0.557 0,0.307 0.256,0.556 0.572,0.556 0.315,0 0.571,-0.249 0.571,-0.556 0,-0.308 -0.256,-0.557 -0.571,-0.557 m 2.09,1.574 c -0.315,0 -0.571,0.25 -0.571,0.557 0,0.307 0.256,0.557 0.571,0.557 0.316,0 0.572,-0.25 0.572,-0.557 0,-0.307 -0.256,-0.557 -0.572,-0.557 m 1.82,1.865 c -0.316,0 -0.571,0.249 -0.571,0.557 0,0.307 0.255,0.556 0.571,0.556 0.316,0 0.572,-0.249 0.572,-0.556 0,-0.308 -0.256,-0.557 -0.572,-0.557 m 1.471,2.136 c -0.315,0 -0.571,0.25 -0.571,0.557 0,0.307 0.256,0.557 0.571,0.557 0.316,0 0.572,-0.25 0.572,-0.557 0,-0.307 -0.256,-0.557 -0.572,-0.557 m 1.026,2.37 c -0.316,0 -0.572,0.249 -0.572,0.557 0,0.307 0.256,0.556 0.572,0.556 0.315,0 0.571,-0.249 0.571,-0.556 0,-0.308 -0.256,-0.557 -0.571,-0.557 m 0.504,2.524 c -0.315,0 -0.571,0.249 -0.571,0.556 0,0.308 0.256,0.557 0.571,0.557 0.316,0 0.572,-0.249 0.572,-0.557 0,-0.307 -0.256,-0.556 -0.572,-0.556 M -2.61,0.409 c 0.316,0 0.572,0.249 0.572,0.557 0,0.307 -0.256,0.556 -0.572,0.556 -0.315,0 -0.571,-0.249 -0.571,-0.556 0,-0.308 0.256,-0.557 0.571,-0.557 m -2.545,0.693 c 0.315,0 0.571,0.249 0.571,0.557 0,0.307 -0.256,0.556 -0.571,0.556 -0.316,0 -0.572,-0.249 -0.572,-0.556 0,-0.308 0.256,-0.557 0.572,-0.557 m -2.443,0.984 c 0.316,0 0.572,0.249 0.572,0.556 0,0.308 -0.256,0.557 -0.572,0.557 -0.315,0 -0.571,-0.249 -0.571,-0.557 0,-0.307 0.256,-0.556 0.571,-0.556 m -2.294,1.278 c 0.316,0 0.572,0.249 0.572,0.557 0,0.307 -0.256,0.556 -0.572,0.556 -0.315,0 -0.571,-0.249 -0.571,-0.556 0,-0.308 0.256,-0.557 0.571,-0.557 m -2.09,1.574 c 0.315,0 0.571,0.25 0.571,0.557 0,0.307 -0.256,0.557 -0.571,0.557 -0.316,0 -0.572,-0.25 -0.572,-0.557 0,-0.307 0.256,-0.557 0.572,-0.557 m -1.82,1.865 c 0.315,0 0.571,0.249 0.571,0.557 0,0.307 -0.256,0.556 -0.571,0.556 -0.316,0 -0.572,-0.249 -0.572,-0.556 0,-0.308 0.256,-0.557 0.572,-0.557 m -1.471,2.136 c 0.315,0 0.571,0.25 0.571,0.557 0,0.307 -0.256,0.557 -0.571,0.557 -0.316,0 -0.572,-0.25 -0.572,-0.557 0,-0.307 0.256,-0.557 0.572,-0.557 m -1.026,2.37 c 0.316,0 0.572,0.249 0.572,0.557 0,0.307 -0.256,0.556 -0.572,0.556 -0.315,0 -0.571,-0.249 -0.571,-0.556 0,-0.308 0.256,-0.557 0.571,-0.557 m -0.504,2.524 c 0.315,0 0.571,0.249 0.571,0.556 0,0.308 -0.256,0.557 -0.571,0.557 -0.316,0 -0.572,-0.249 -0.572,-0.557 0,-0.307 0.256,-0.556 0.572,-0.556"
             style="fill:#6658a6;fill-opacity:1;fill-rule:nonzero;stroke:none"
             id="path4413"
             inkscape:connector-curvature="0" />
        </g>
        <g
           id="g4415"
           transform="translate(155.21,364.132)">
          <path
             d="m 0,0 c 0,-7.662 -8.038,-13.875 -17.95,-13.875 -9.912,0 -17.951,6.213 -17.951,13.875 0,7.662 8.039,13.875 17.951,13.875 C -8.038,13.875 0,7.662 0,0"
             style="fill:#6f2c91;fill-opacity:1;fill-rule:nonzero;stroke:none"
             id="path4417"
             inkscape:connector-curvature="0" />
        </g>
        <g
           id="g4419"
           transform="matrix(-0.518822,-0.854882,0.86843,-0.4965,14.711,328.542)">
          <g
             id="g4421"
             transform="translate(-95.696,83.9435)">
            <path
               d="m 0,0 c 0.277,-0.202 0.375,-0.607 0.177,-0.932 -0.199,-0.324 -0.913,-1.379 -1.053,-2.008 -0.239,-1.074 -0.359,-1.621 -0.361,-3 -10e-4,-0.932 0.373,-2.533 0.847,-2.897 0.455,-0.363 1.01,-0.282 1.386,-0.119 0.377,0.163 0.812,-0.06 1.247,-0.444 0.692,-0.607 1.227,-0.586 1.862,0.145 0.178,0.183 0.317,0.101 0.118,-0.223 -0.198,-0.345 -1.051,-1.035 -2.179,-1.037 -1.11,0.018 -2.059,0.747 -2.197,1.01 -0.138,0.243 -0.139,0.04 -0.06,-0.162 0.079,-0.203 0.395,-0.952 0.751,-1.256 0.356,-0.303 1.306,-0.646 1.939,-0.686 0.634,-0.039 1.366,-0.281 1.604,-0.706 0.256,-0.426 0.652,-0.81 1.008,-0.789 0.337,0.021 0.336,-0.162 -0.178,-0.345 -0.496,-0.163 -1.783,0.058 -2.555,0.503 -0.791,0.424 -1.661,1.335 -1.839,1.618 -0.158,0.284 -0.533,0.628 -0.632,0.85 -0.099,0.243 -0.198,0.182 -0.198,-0.122 -0.02,-0.304 0.157,-0.891 -0.062,-1.297 -0.238,-0.386 -0.238,-0.73 -0.279,-1.034 -0.02,-0.324 -0.258,-0.568 -0.516,-0.69 -0.257,-0.142 -0.257,-0.021 -0.098,0.162 0.178,0.183 0.258,0.528 0.041,0.953 -0.217,0.445 -0.335,1.276 -0.057,1.783 0.278,0.527 0.675,0.772 0.675,1.096 0.001,0.324 -0.256,0.911 -0.335,1.175 -0.059,0.243 -0.177,0.485 -0.277,-0.062 -0.1,-0.567 -0.615,-0.933 -0.814,-1.014 -0.218,-0.102 -0.416,-0.183 -0.693,-0.204 -0.297,-0.021 -0.257,0.101 -0.039,0.223 0.198,0.102 0.396,0.122 0.377,0.487 -0.02,0.365 0.041,0.77 0.259,1.034 0.198,0.264 0.891,0.184 0.793,0.609 -0.137,0.77 -0.234,2.837 0.264,4.439 0.16,0.547 0.854,1.825 1.053,2.089 0.179,0.243 0.06,0.608 -0.197,0.628 C -0.139,-0.122 0,0 0,0"
               style="fill:#8f53a1;fill-opacity:1;fill-rule:nonzero;stroke:none"
               id="path4423"
               inkscape:connector-curvature="0" />
          </g>
        </g>
        <g
           id="g4425"
           transform="matrix(-0.999426,0.0338743,0.0359557,0.999356,14.711,328.542)">
          <g
             id="g4427"
             transform="translate(-109.28,35.4429)">
            <path
               d="m 0,0 c 0.557,0 0.981,-0.569 0.981,-1.252 0,-0.684 -0.424,-1.252 -0.981,-1.253 -0.536,0 -0.982,0.569 -0.982,1.252 C -0.982,-0.569 -0.535,0 0,0 M 1.29,8.452 C 1.269,8.246 1.106,8.08 0.903,8.08 0.699,8.08 0.557,8.246 0.557,8.452 0.557,8.66 0.719,8.825 0.923,8.825 1.127,8.825 1.29,8.66 1.29,8.452 M 2.747,1.721 C 3.221,1.034 3.199,0.188 2.725,-0.156 2.228,-0.499 1.438,-0.224 0.964,0.462 0.49,1.171 0.49,1.995 0.987,2.361 1.484,2.705 2.251,2.43 2.747,1.721 m 1.162,2 C 4.286,3.156 4.286,2.522 3.953,2.296 3.598,2.046 3.02,2.318 2.665,2.861 2.31,3.404 2.288,4.061 2.643,4.287 2.977,4.536 3.553,4.264 3.909,3.721 M 2.577,7.248 C 2.35,7.248 2.164,7.415 2.164,7.644 2.185,7.874 2.35,8.04 2.577,8.04 2.803,8.04 2.968,7.853 2.968,7.644 2.968,7.415 2.782,7.227 2.577,7.248 M 2.088,6.486 C 2.312,6.822 2.917,6.822 3.431,6.465 3.968,6.129 4.236,5.571 4.013,5.258 3.789,4.923 3.184,4.922 2.67,5.28 2.133,5.615 1.864,6.173 2.088,6.486 m -9.367,-9.884 c 0.29,-0.023 0.662,-0.077 0.951,-0.045 0.394,0.046 0.672,0.208 1.02,0.715 0.324,0.507 1.228,0.853 2.247,1.084 1.02,0.23 0.904,0.83 0.904,1.222 0,0.391 0.093,0.3 0.209,0.069 0.139,-0.323 0.185,-0.946 -0.256,-1.752 -0.44,-0.784 -1.853,-1.291 -2.502,-1.453 -0.569,-0.137 -1.116,-0.096 -1.582,-0.107 1.349,-0.305 2.683,-0.372 3.947,-0.132 0.354,0.071 0.804,0.214 0.993,0.451 0.213,0.238 0.733,0.714 0.662,0.976 0.142,-0.095 0.355,-0.238 0.449,-0.238 -0.283,-0.143 -0.449,-0.405 -0.568,-0.524 -0.094,-0.118 -0.259,-0.309 -0.378,-0.38 -0.118,-0.071 -0.071,-0.143 0.237,-0.071 1.253,0.285 3.192,0.833 3.783,1.903 0.118,0.214 0.142,1.308 0,1.332 0.119,0.072 0.26,0.309 0.307,0.452 0,0 0.071,-0.143 0.095,-0.166 0.142,-0.286 0,-1.023 -0.024,-1.19 C 3.191,-1.395 3.262,-1.466 3.31,-1.347 3.901,-0.205 4.397,0.889 4.019,1.912 3.972,2.102 3.877,2.079 3.877,2.079 3.972,2.102 4.209,2.269 4.209,2.269 4.185,2.031 4.303,1.936 4.327,1.769 4.374,1.579 4.445,1.365 4.421,1.08 4.397,0.818 4.539,0.818 4.634,1.151 4.894,2.149 5.414,4.267 4.114,5.1 4.162,5.171 4.209,5.361 4.233,5.456 4.303,5.266 4.493,5.147 4.611,5.004 4.705,4.861 4.918,4.599 4.918,4.41 4.894,4.243 5.036,4.29 5.013,4.623 5.013,4.956 4.635,6.407 4.256,7.002 3.855,7.573 3.264,7.526 3.098,7.43 c 0,0.072 0,0.262 -0.047,0.333 C 3.264,7.716 3.382,7.763 3.5,7.739 3.618,7.716 3.547,7.858 3.382,8.001 2.72,8.548 1.916,8.833 1.16,8.881 -4.231,9.118 -3.711,5.645 -3.049,5.336 c 0.473,-0.214 0.756,-0.095 1.04,0.072 0.284,0.166 0.781,0.261 0.946,-0.143 0.165,-0.404 -0.166,-0.595 -0.52,-0.713 -0.355,-0.096 -0.686,-0.429 -0.45,-0.904 0.26,-0.476 0.615,-0.5 0.851,-0.452 0.236,0.047 0.26,0.285 0.355,0.452 0.071,0.19 0.354,0.38 0.686,0.095 V 3.719 C 0,3.576 -0.094,3.41 -0.236,3.529 -0.378,3.648 -0.591,3.719 -0.685,3.386 -0.756,3.077 -1.253,2.577 -1.962,3.172 -2.671,3.766 -2.34,4.551 -2.009,4.67 -1.678,4.789 -1.205,4.837 -1.252,5.099 -1.276,5.36 -1.583,5.479 -1.867,5.265 -2.175,5.051 -2.647,4.979 -3.144,5.146 -4.137,5.479 -4.515,9.522 1.301,9.023 2.058,8.976 3.098,8.643 3.736,7.929 3.784,7.858 4.375,7.24 4.54,7.002 4.8,6.622 5.486,5.313 5.509,3.982 5.541,0.738 4.044,-1.797 1.26,-3.126 c 0.233,0.028 0.649,0.2 0.773,0.345 0.165,0.167 1.04,0.571 1.891,0.381 0.851,-0.214 1.347,-1.237 1.347,-1.641 0,-0.405 -0.283,-0.381 -0.259,-0.072 0.047,0.833 -0.639,0.69 -1.206,0.476 -0.568,-0.214 -1.04,0 -1.324,0.237 -0.26,0.238 -0.425,0.262 -0.733,0.167 C 1.418,-3.328 1.087,-3.4 0.567,-3.424 0.642,-3.411 0.751,-3.364 0.865,-3.306 0.446,-3.481 -0.001,-3.629 -0.473,-3.752 0.33,-3.909 1.333,-4.379 1.97,-5.287 2.632,-6.262 2.514,-7.427 2.301,-7.832 2.112,-8.26 2.017,-8.022 2.065,-7.76 2.136,-7.308 1.97,-6.761 1.356,-6.618 1.119,-6.571 0.694,-6.571 0.528,-6 c -0.141,0.5 0.142,0.785 -0.401,1.546 -0.192,0.279 -0.589,0.474 -1.217,0.563 -0.836,-0.168 -1.737,-0.263 -2.717,-0.264 -0.416,0 -0.802,0.023 -1.176,0.054 0.201,-0.145 0.557,-0.357 1.081,-0.51 0.544,-0.167 1.277,-0.119 1.891,-1.142 0.615,-1.022 0.497,-1.308 0.402,-1.784 -0.071,-0.285 -0.213,-0.38 -0.331,0.048 -0.118,0.428 -0.425,0.666 -0.898,0.88 -0.449,0.214 -0.922,0.452 -1.395,1.142 -0.454,0.686 -0.634,1.108 -1.657,1.478 -2.462,0.38 -3.941,1.359 -4.938,1.927 -0.119,0.166 -0.355,0.404 -0.615,0.713 1.353,-0.918 2.761,-1.607 4.164,-2.049"
               style="fill:#8f53a1;fill-opacity:1;fill-rule:nonzero;stroke:none"
               id="path4429"
               inkscape:connector-curvature="0" />
          </g>
        </g>
        <g
           id="g4431"
           transform="matrix(0.518822,-0.854882,-0.86843,-0.4965,262.968,328.542)">
          <g
             id="g4433"
             transform="translate(-97.2651,86.6452)">
            <path
               d="m 0,0 c 0.277,-0.202 0.375,-0.607 0.177,-0.932 -0.199,-0.324 -0.913,-1.379 -1.053,-2.008 -0.239,-1.074 -0.359,-1.621 -0.361,-3 -10e-4,-0.932 0.373,-2.533 0.847,-2.897 0.455,-0.363 1.01,-0.282 1.386,-0.119 0.377,0.163 0.812,-0.06 1.247,-0.444 0.692,-0.607 1.227,-0.586 1.862,0.145 0.178,0.183 0.317,0.101 0.118,-0.223 -0.198,-0.345 -1.051,-1.035 -2.179,-1.037 -1.11,0.018 -2.059,0.747 -2.197,1.01 -0.138,0.243 -0.139,0.04 -0.06,-0.162 0.079,-0.203 0.395,-0.952 0.751,-1.256 0.356,-0.303 1.306,-0.646 1.939,-0.686 0.634,-0.039 1.366,-0.281 1.604,-0.706 0.256,-0.426 0.652,-0.81 1.008,-0.789 0.337,0.021 0.336,-0.162 -0.178,-0.345 -0.496,-0.163 -1.783,0.058 -2.555,0.503 -0.791,0.424 -1.661,1.335 -1.839,1.618 -0.158,0.284 -0.533,0.628 -0.632,0.85 -0.099,0.243 -0.198,0.182 -0.198,-0.122 -0.02,-0.304 0.157,-0.891 -0.062,-1.297 -0.238,-0.386 -0.238,-0.73 -0.279,-1.034 -0.02,-0.324 -0.258,-0.568 -0.516,-0.69 -0.257,-0.142 -0.257,-0.021 -0.098,0.162 0.178,0.183 0.258,0.528 0.041,0.953 -0.217,0.445 -0.335,1.276 -0.057,1.783 0.278,0.527 0.675,0.772 0.675,1.096 0.001,0.324 -0.256,0.911 -0.335,1.175 -0.059,0.243 -0.177,0.485 -0.277,-0.062 -0.1,-0.567 -0.615,-0.933 -0.814,-1.014 -0.218,-0.102 -0.416,-0.183 -0.693,-0.204 -0.297,-0.021 -0.257,0.101 -0.039,0.223 0.198,0.102 0.396,0.122 0.377,0.487 -0.02,0.365 0.041,0.77 0.259,1.034 0.198,0.264 0.891,0.184 0.793,0.609 -0.137,0.77 -0.234,2.837 0.264,4.439 0.16,0.547 0.854,1.825 1.053,2.089 0.179,0.243 0.06,0.608 -0.197,0.628 C -0.139,-0.122 0,0 0,0"
               style="fill:#8f53a1;fill-opacity:1;fill-rule:nonzero;stroke:none"
               id="path4435"
               inkscape:connector-curvature="0" />
          </g>
        </g>
        <g
           id="g4437"
           transform="matrix(0.999426,0.0338743,-0.0359557,0.999356,262.968,328.542)">
          <g
             id="g4439"
             transform="translate(-112.438,35.55)">
            <path
               d="m 0,0 c 0.557,0 0.981,-0.569 0.981,-1.252 0,-0.684 -0.424,-1.252 -0.981,-1.253 -0.536,0 -0.982,0.569 -0.982,1.252 C -0.981,-0.569 -0.535,0 0,0 M 1.29,8.452 C 1.269,8.246 1.106,8.08 0.903,8.08 0.699,8.08 0.557,8.246 0.557,8.452 0.557,8.66 0.719,8.825 0.923,8.825 1.127,8.825 1.29,8.66 1.29,8.452 M 2.747,1.721 C 3.221,1.034 3.199,0.188 2.725,-0.156 2.228,-0.499 1.438,-0.224 0.964,0.462 0.49,1.171 0.49,1.995 0.987,2.361 1.484,2.705 2.251,2.43 2.747,1.721 m 1.162,2 C 4.286,3.156 4.286,2.522 3.953,2.296 3.598,2.046 3.02,2.318 2.665,2.861 2.311,3.404 2.288,4.061 2.643,4.287 2.977,4.536 3.553,4.264 3.909,3.721 M 2.577,7.248 C 2.35,7.248 2.164,7.415 2.164,7.644 2.185,7.874 2.35,8.04 2.577,8.04 2.803,8.04 2.968,7.853 2.968,7.644 2.968,7.415 2.783,7.227 2.577,7.248 M 2.088,6.486 C 2.312,6.822 2.917,6.822 3.431,6.465 3.968,6.129 4.236,5.571 4.013,5.258 3.789,4.923 3.184,4.922 2.67,5.28 2.133,5.615 1.864,6.173 2.088,6.486 m -9.367,-9.884 c 0.29,-0.023 0.662,-0.077 0.951,-0.045 0.394,0.046 0.672,0.208 1.02,0.715 0.324,0.507 1.228,0.853 2.247,1.084 1.02,0.23 0.904,0.83 0.904,1.222 0,0.391 0.093,0.3 0.209,0.069 0.139,-0.323 0.185,-0.946 -0.256,-1.752 -0.44,-0.784 -1.853,-1.291 -2.502,-1.453 -0.569,-0.137 -1.116,-0.096 -1.582,-0.107 1.349,-0.305 2.683,-0.372 3.947,-0.132 0.354,0.071 0.804,0.214 0.993,0.451 0.213,0.238 0.733,0.714 0.662,0.976 0.142,-0.095 0.355,-0.238 0.449,-0.238 -0.283,-0.143 -0.449,-0.405 -0.568,-0.524 -0.094,-0.118 -0.259,-0.309 -0.378,-0.38 -0.118,-0.071 -0.071,-0.143 0.237,-0.071 1.253,0.285 3.192,0.833 3.783,1.903 0.118,0.214 0.142,1.308 0,1.332 0.119,0.072 0.26,0.309 0.307,0.452 0,0 0.071,-0.143 0.095,-0.166 0.142,-0.286 0,-1.023 -0.024,-1.19 C 3.191,-1.395 3.262,-1.466 3.31,-1.347 3.901,-0.205 4.397,0.889 4.019,1.912 3.972,2.102 3.877,2.079 3.877,2.079 3.972,2.102 4.209,2.269 4.209,2.269 4.185,2.031 4.303,1.936 4.327,1.769 4.374,1.579 4.445,1.365 4.421,1.08 4.397,0.818 4.539,0.818 4.634,1.151 4.894,2.149 5.414,4.267 4.114,5.1 4.162,5.171 4.209,5.361 4.233,5.456 4.303,5.266 4.493,5.147 4.611,5.004 4.705,4.861 4.918,4.599 4.918,4.41 4.894,4.243 5.036,4.29 5.013,4.623 5.013,4.956 4.635,6.407 4.256,7.002 3.855,7.573 3.264,7.526 3.098,7.43 c 0,0.072 0,0.262 -0.047,0.333 C 3.264,7.716 3.382,7.763 3.5,7.739 3.618,7.716 3.547,7.858 3.382,8.001 2.72,8.548 1.916,8.833 1.16,8.881 -4.231,9.118 -3.711,5.645 -3.049,5.336 c 0.473,-0.214 0.756,-0.095 1.04,0.072 0.284,0.166 0.781,0.261 0.946,-0.143 0.165,-0.404 -0.166,-0.595 -0.52,-0.713 -0.355,-0.096 -0.686,-0.429 -0.45,-0.904 0.26,-0.476 0.615,-0.5 0.851,-0.452 0.237,0.047 0.26,0.285 0.355,0.452 0.071,0.19 0.354,0.38 0.686,0.095 V 3.719 C 0,3.576 -0.094,3.41 -0.236,3.529 -0.378,3.648 -0.591,3.719 -0.685,3.386 -0.756,3.077 -1.253,2.577 -1.962,3.172 -2.671,3.766 -2.34,4.551 -2.009,4.67 -1.678,4.789 -1.205,4.837 -1.252,5.099 -1.276,5.36 -1.583,5.479 -1.867,5.265 -2.175,5.051 -2.647,4.979 -3.144,5.146 -4.137,5.479 -4.515,9.522 1.301,9.023 2.058,8.976 3.098,8.643 3.736,7.929 3.784,7.858 4.375,7.24 4.54,7.002 4.8,6.622 5.486,5.313 5.509,3.982 5.541,0.738 4.044,-1.797 1.26,-3.126 c 0.233,0.028 0.649,0.2 0.773,0.345 0.165,0.167 1.04,0.571 1.891,0.381 0.851,-0.214 1.347,-1.237 1.347,-1.641 0,-0.405 -0.283,-0.381 -0.259,-0.072 0.047,0.833 -0.639,0.69 -1.206,0.476 -0.568,-0.214 -1.04,0 -1.324,0.237 -0.26,0.238 -0.425,0.262 -0.733,0.167 C 1.418,-3.328 1.087,-3.4 0.567,-3.424 0.642,-3.411 0.751,-3.364 0.865,-3.306 0.446,-3.481 -0.001,-3.629 -0.473,-3.752 0.33,-3.909 1.333,-4.379 1.97,-5.287 2.632,-6.262 2.514,-7.427 2.301,-7.832 2.112,-8.26 2.017,-8.022 2.065,-7.76 2.136,-7.308 1.97,-6.761 1.356,-6.618 1.119,-6.571 0.694,-6.571 0.528,-6 c -0.141,0.5 0.142,0.785 -0.401,1.546 -0.192,0.279 -0.589,0.474 -1.217,0.563 -0.836,-0.168 -1.737,-0.263 -2.717,-0.264 -0.416,0 -0.802,0.023 -1.176,0.054 0.201,-0.145 0.557,-0.357 1.081,-0.51 0.544,-0.167 1.277,-0.119 1.891,-1.142 0.615,-1.022 0.497,-1.308 0.402,-1.784 -0.071,-0.285 -0.213,-0.38 -0.331,0.048 -0.118,0.428 -0.425,0.666 -0.898,0.88 -0.449,0.214 -0.922,0.452 -1.395,1.142 -0.454,0.686 -0.634,1.108 -1.657,1.478 -2.462,0.38 -3.941,1.359 -4.938,1.927 -0.119,0.166 -0.355,0.404 -0.615,0.713 1.353,-0.918 2.761,-1.607 4.164,-2.049"
               style="fill:#8f53a1;fill-opacity:1;fill-rule:nonzero;stroke:none"
               id="path4441"
               inkscape:connector-curvature="0" />
          </g>
        </g>
        <g
           id="g4443"
           transform="matrix(0.836653,-0.547733,-0.570893,-0.821491,15.2627,306.828)">
          <g
             id="g4445"
             transform="translate(77.1604,-111.411)">
            <path
               d="m 0,0 c 0.156,-0.169 0.491,-0.359 0.491,-0.359 0.175,-2.099 -0.923,-4.242 -1.841,-4.985 -0.201,-0.17 -0.515,-0.531 -0.247,-0.827 0.245,-0.297 0.11,-0.933 -0.472,-1.4 -0.582,-0.467 -1.141,-0.977 -1.12,-1.401 0.022,-0.445 -0.313,-0.298 -0.491,-0.022 -0.201,0.254 -0.2,0.975 0.203,1.484 0.425,0.489 0.828,0.828 0.896,0.955 0.067,0.149 0.201,0.255 -0.134,0.106 -1.477,-0.681 -3.78,-1.341 -5.634,-0.327 -2.099,1.142 -1.403,3.051 -0.463,3.518 0.335,0.171 0.603,0.086 0.245,-0.338 -0.38,-0.404 -0.606,-1.167 -0.248,-1.57 0.692,-0.804 1.318,-0.315 2.055,-0.738 0.714,-0.444 0.87,-0.974 1.429,-0.931 0.536,0.044 1.632,0.321 2.303,0.662 0.179,0.085 0.336,0.297 -0.044,0.211 -0.403,-0.106 -1.207,-0.108 -1.609,0.295 -0.558,0.571 -0.333,1.292 0.07,1.695 0.201,0.213 0.335,0.043 0.313,-0.232 -0.023,-0.254 0.311,-0.657 0.714,-0.614 0.38,0.043 1.318,0.108 1.52,-0.125 0.178,-0.211 0.401,-0.147 0.581,-0.02 0.313,0.276 0.873,0.977 1.12,1.592 0.089,0.212 0.224,0.573 -0.134,0.233 -0.38,-0.361 -1.03,-0.998 -1.879,-0.872 -0.849,0.126 -1.676,0.612 -1.92,1.184 -0.089,0.233 0.179,0.339 0.447,0.128 0.268,-0.191 0.737,-0.317 1.274,-0.146 0.559,0.191 1.029,0.361 1.52,0.277 0.537,-0.084 0.716,0.192 0.895,0.468 C 0.019,-1.844 0.2,-0.763 0,0"
               style="fill:#8f53a1;fill-opacity:1;fill-rule:nonzero;stroke:none"
               id="path4447"
               inkscape:connector-curvature="0" />
          </g>
        </g>
        <g
           id="g4449"
           transform="matrix(-0.836653,-0.547733,0.570893,-0.821491,15.2627,306.828)">
          <g
             id="g4451"
             transform="translate(-123.278,22.2318)">
            <path
               d="m 0,0 c 0.156,-0.169 0.491,-0.359 0.491,-0.359 0.175,-2.099 -0.923,-4.242 -1.841,-4.985 -0.201,-0.17 -0.515,-0.531 -0.247,-0.827 0.245,-0.297 0.11,-0.933 -0.472,-1.4 -0.582,-0.467 -1.141,-0.977 -1.12,-1.401 0.022,-0.445 -0.313,-0.298 -0.491,-0.022 -0.201,0.254 -0.2,0.975 0.203,1.484 0.425,0.489 0.828,0.828 0.896,0.955 0.067,0.149 0.201,0.255 -0.134,0.106 -1.477,-0.681 -3.78,-1.341 -5.634,-0.327 -2.099,1.142 -1.403,3.051 -0.463,3.518 0.335,0.171 0.603,0.086 0.245,-0.338 -0.38,-0.404 -0.606,-1.167 -0.248,-1.57 0.692,-0.804 1.318,-0.315 2.055,-0.738 0.714,-0.444 0.87,-0.974 1.429,-0.931 0.536,0.044 1.632,0.321 2.303,0.662 0.179,0.085 0.336,0.297 -0.044,0.211 -0.403,-0.106 -1.207,-0.108 -1.609,0.295 -0.558,0.571 -0.333,1.292 0.07,1.695 0.201,0.213 0.335,0.043 0.313,-0.232 -0.023,-0.254 0.311,-0.657 0.714,-0.614 0.38,0.043 1.318,0.108 1.519,-0.125 0.179,-0.211 0.402,-0.147 0.582,-0.02 0.313,0.276 0.873,0.977 1.12,1.592 0.089,0.212 0.224,0.573 -0.134,0.233 -0.38,-0.361 -1.03,-0.998 -1.879,-0.872 -0.849,0.126 -1.676,0.612 -1.92,1.184 -0.089,0.233 0.179,0.339 0.447,0.128 0.268,-0.191 0.737,-0.317 1.274,-0.146 0.559,0.191 1.029,0.361 1.52,0.277 0.537,-0.084 0.716,0.192 0.895,0.468 C 0.019,-1.844 0.2,-0.763 0,0"
               style="fill:#8f53a1;fill-opacity:1;fill-rule:nonzero;stroke:none"
               id="path4453"
               inkscape:connector-curvature="0" />
          </g>
        </g>
        <g
           id="g4455"
           transform="matrix(0.812227,0.583341,0.606531,-0.795572,15.1438,306.828)">
          <g
             id="g4457"
             transform="translate(143.989,17.5306)">
            <path
               d="m 0,0 c -0.191,-0.365 -0.698,-1.058 -1.542,-1.25 -0.846,-0.192 -2.079,-0.147 -2.251,-0.122 -0.171,0.024 -0.233,-0.192 -0.035,-0.326 0.198,-0.135 0.86,-0.472 1.194,-0.823 0.547,-0.576 0.752,-1.352 0.724,-2.008 -0.012,-0.287 -0.179,-0.211 -0.19,0.036 -0.012,0.248 -0.17,0.559 -0.47,0.702 -0.299,0.143 -0.766,0.628 -0.913,0.959 -0.147,0.331 -0.314,0.74 -0.419,0.832 -0.105,0.091 -0.167,0.075 -0.339,0.033 -0.171,-0.042 -0.455,0.171 -0.501,0.293 -0.047,0.122 -0.155,0.229 -0.26,0.252 -0.105,0.025 -0.51,0.192 -0.677,0.267 -0.168,0.076 -0.257,0.104 -0.09,-0.105 0.28,-0.351 0.521,-1.321 0.406,-1.72 -0.063,-0.216 -0.168,-0.125 -0.237,0.092 -0.07,0.217 -0.354,0.497 -0.56,0.73 -0.206,0.232 -0.267,0.818 -0.286,1.031 -0.02,0.212 0.055,0.247 -0.245,0.457 -0.579,0.405 -1.083,0.791 -1.57,1.343 0.095,-0.212 0.176,-0.421 0.229,-0.617 0.369,-1.385 0.027,-2.785 -0.581,-3.793 -0.265,-0.441 -0.464,-0.176 -0.27,0.224 0.195,0.399 0.211,1.028 -0.139,1.515 -0.35,0.487 -0.669,1.66 -0.617,2.309 0.051,0.65 0.139,1.44 0.052,1.675 -0.088,0.235 -0.199,0.265 -0.506,0.349 -0.307,0.083 -0.572,0.668 -0.541,0.9 0.032,0.233 -0.048,0.496 -0.194,0.625 -0.145,0.131 -0.64,0.748 -0.839,1.013 -0.2,0.265 -0.888,1.055 -1.181,1.648 -1.078,2.181 -1.796,4.013 -1.645,7.882 -0.168,3.983 0.615,1.465 0.558,0.568 0.085,-2.976 0.506,-6.276 1.731,-7.932 0.209,-0.281 0.258,-1.065 0.527,-1.409 0.268,-0.344 1.135,-1.364 1.266,-1.55 0.13,-0.186 0.656,-0.118 0.982,-0.357 0.326,-0.24 0.922,-0.69 1.654,-0.872 1.347,-0.335 1.802,0.144 2.668,0.029 0.867,-0.114 1.502,-0.317 1.932,-0.615 0.429,-0.297 1.115,-0.303 1.406,-0.11 0.29,0.192 0.678,-0.033 0.063,-0.439 -0.615,-0.407 -2.011,-1.052 -3.51,-0.616 -1.5,0.438 -3.409,1.589 -3.658,1.779 -0.147,0.111 -0.304,0.054 -0.369,-0.088 0.796,-1.31 1.782,-2.598 2.728,-3.034 0.176,-0.081 0.665,-0.286 1.028,-0.013 0.362,0.273 0.833,0.44 1.07,0.349 0.238,-0.092 0.475,0.017 0.569,0.174 0.094,0.156 0.304,0.108 0.179,-0.19 -0.126,-0.298 -0.632,-0.657 -1.177,-0.725 -0.545,-0.068 -1.008,0.001 -1.164,0.029 -0.155,0.029 -0.097,-0.074 0.125,-0.169 0.221,-0.095 0.914,-0.358 1.026,-0.414 0.113,-0.056 0.351,0.12 0.573,0.092 0.222,-0.029 0.631,-0.088 1.035,0.022 0.744,0.201 0.837,0.557 1.289,0.736 0.452,0.179 0.814,0.252 1.103,0.223 0.287,-0.029 0.622,0.154 0.712,0.326 C -0.057,0.369 0.192,0.365 0,0"
               style="fill:#8f53a1;fill-opacity:1;fill-rule:nonzero;stroke:none"
               id="path4459"
               inkscape:connector-curvature="0" />
          </g>
        </g>
        <g
           id="g4461"
           transform="matrix(-0.971945,-0.235206,0.248829,-0.968649,15.1438,306.828)">
          <g
             id="g4463"
             transform="translate(-130.658,-29.6872)">
            <path
               d="m 0,0 c 0.509,-0.393 1.129,-0.305 1.55,-0.13 0.421,0.176 0.907,-0.065 1.394,-0.48 0.774,-0.655 1.372,-0.632 2.081,0.155 0.2,0.197 0.355,0.11 0.133,-0.24 C 4.936,-1.067 3.984,-1.811 2.722,-1.812 1.482,-1.792 0.42,-1.005 0.265,-0.721 0.11,-0.459 0.11,-0.678 0.198,-0.896 0.287,-1.115 0.64,-1.923 1.039,-2.251 1.437,-2.579 2.499,-2.949 3.208,-2.992 3.916,-3.036 4.735,-3.297 5,-3.756 5.288,-4.215 5.73,-4.63 6.129,-4.608 6.505,-4.585 6.505,-4.782 5.929,-4.98 5.375,-5.155 3.937,-4.916 3.073,-4.435 2.189,-3.977 1.215,-2.994 1.016,-2.688 0.839,-2.382 0.419,-2.011 0.308,-1.771 0.198,-1.508 0.088,-1.574 0.087,-1.902 0.065,-2.23 0.263,-2.864 0.019,-3.301 -0.246,-3.717 -0.247,-4.088 -0.292,-4.416 -0.314,-4.766 -0.58,-5.029 -0.868,-5.16 c -0.288,-0.153 -0.288,-0.022 -0.11,0.174 0.199,0.198 0.288,0.57 0.045,1.028 -0.243,0.481 -0.376,1.377 -0.065,1.924 0.31,0.569 0.754,0.832 0.754,1.182 0,0.349 -1.058,1.652 -1.146,1.937 C -1.456,1.347 -1.592,1.912 0,0"
               style="fill:#8f53a1;fill-opacity:1;fill-rule:nonzero;stroke:none"
               id="path4465"
               inkscape:connector-curvature="0" />
          </g>
        </g>
        <g
           id="g4467"
           transform="matrix(-0.971945,-0.235206,0.248829,-0.968649,15.1438,306.828)">
          <g
             id="g4469"
             transform="translate(-132.174,-23.4986)">
            <path
               d="m 0,0 c 0.141,-0.165 0.129,-0.336 0.129,-0.336 0.16,-2.042 -1.122,-4.091 -1.95,-4.813 -0.183,-0.165 -0.466,-0.516 -0.224,-0.805 0.223,-0.289 0.101,-0.908 -0.425,-1.362 -0.526,-0.454 -1.032,-0.95 -1.012,-1.362 0.02,-0.433 -0.283,-0.29 -0.444,-0.021 -0.182,0.247 -0.181,0.948 0.183,1.444 0.384,0.475 0.748,0.805 0.809,0.929 0.061,0.144 0.182,0.248 -0.121,0.103 -1.335,-0.661 -3.417,-1.302 -5.094,-0.314 -1.898,1.113 -1.27,2.97 -0.421,3.425 0.303,0.165 0.546,0.083 0.222,-0.33 -0.344,-0.393 -0.547,-1.135 -0.224,-1.527 0.626,-0.784 1.193,-0.309 1.859,-0.72 0.646,-0.433 0.787,-0.949 1.293,-0.907 0.485,0.041 1.475,0.31 2.082,0.641 0.162,0.083 0.303,0.289 -0.04,0.206 -0.364,-0.103 -1.092,-0.104 -1.455,0.288 -0.505,0.556 -0.302,1.258 0.062,1.65 0.182,0.207 0.303,0.042 0.283,-0.226 -0.021,-0.248 0.282,-0.64 0.646,-0.598 0.343,0.041 1.192,0.104 1.374,-0.123 0.162,-0.206 0.363,-0.144 0.525,-0.02 0.283,0.268 0.789,0.949 1.012,1.548 0.081,0.206 0.202,0.557 -0.121,0.227 -0.344,-0.351 -0.93,-0.97 -1.698,-0.847 -0.768,0.123 -1.516,0.597 -1.737,1.153 -0.081,0.227 0.162,0.331 0.404,0.125 0.242,-0.186 0.667,-0.309 1.152,-0.144 0.505,0.186 0.93,0.352 1.374,0.269 0.485,-0.082 0.647,0.187 0.809,0.455 0.162,0.248 0.614,1.264 0.433,2.006 z"
               style="fill:#8f53a1;fill-opacity:1;fill-rule:nonzero;stroke:none"
               id="path4471"
               inkscape:connector-curvature="0" />
          </g>
        </g>
        <g
           id="g4473"
           transform="matrix(0.876536,0.481335,0.503767,-0.864218,15.1438,306.828)">
          <g
             id="g4475"
             transform="translate(133.226,17.5424)">
            <path
               d="m 0,0 c 0.141,-0.166 0.1,-0.539 0.1,-0.539 0.165,-2.052 -0.818,-4.144 -1.641,-4.868 -0.181,-0.166 -0.462,-0.518 -0.22,-0.808 0.222,-0.291 0.102,-0.913 -0.421,-1.368 -0.522,-0.455 -1.024,-0.952 -1.003,-1.366 0.021,-0.435 -0.281,-0.29 -0.442,-0.02 -0.182,0.248 -0.183,0.953 0.178,1.45 0.381,0.477 0.743,0.808 0.803,0.932 0.061,0.145 0.181,0.248 -0.121,0.104 -1.326,-0.662 -3.397,-1.301 -5.068,-0.304 -1.893,1.123 -1.272,2.987 -0.428,3.442 0.301,0.165 0.543,0.082 0.222,-0.332 -0.341,-0.394 -0.542,-1.139 -0.219,-1.534 0.625,-0.788 1.187,-0.313 1.852,-0.728 0.644,-0.436 0.786,-0.954 1.289,-0.914 0.482,0.041 1.468,0.309 2.07,0.64 0.161,0.082 0.301,0.289 -0.04,0.207 -0.362,-0.103 -1.086,-0.102 -1.449,0.292 -0.504,0.561 -0.304,1.265 0.058,1.658 0.18,0.207 0.301,0.041 0.282,-0.228 -0.02,-0.249 0.282,-0.643 0.644,-0.602 0.342,0.041 1.187,0.102 1.368,-0.127 0.162,-0.207 0.362,-0.145 0.523,-0.021 0.281,0.269 0.783,0.952 1.004,1.553 0.08,0.207 0.2,0.559 -0.121,0.228 -0.342,-0.352 -0.924,-0.973 -1.689,-0.847 -0.764,0.125 -1.509,0.603 -1.731,1.163 -0.081,0.228 0.16,0.332 0.402,0.124 0.241,-0.187 0.664,-0.312 1.147,-0.147 0.502,0.186 0.924,0.351 1.367,0.267 0.483,-0.083 0.644,0.186 0.804,0.455 0.16,0.249 0.534,1.42 0.352,2.166 z"
               style="fill:#8f53a1;fill-opacity:1;fill-rule:nonzero;stroke:none"
               id="path4477"
               inkscape:connector-curvature="0" />
          </g>
        </g>
        <g
           id="g4479"
           transform="matrix(-0.863833,-0.503778,0.52655,-0.850553,15.1438,306.828)">
          <g
             id="g4481"
             transform="translate(-123.491,20.8)">
            <path
               d="m 0,0 c -0.193,-0.364 -0.703,-1.057 -1.55,-1.252 -0.848,-0.195 -2.084,-0.154 -2.256,-0.129 -0.171,0.023 -0.234,-0.192 -0.036,-0.326 0.198,-0.134 0.859,-0.468 1.193,-0.817 0.547,-0.572 0.75,-1.346 0.72,-2.001 -0.013,-0.286 -0.18,-0.211 -0.191,0.036 -0.011,0.247 -0.168,0.557 -0.468,0.698 -0.3,0.142 -0.766,0.625 -0.912,0.955 -0.147,0.329 -0.313,0.737 -0.418,0.828 -0.105,0.09 -0.167,0.075 -0.339,0.031 -0.172,-0.042 -0.456,0.17 -0.502,0.291 -0.046,0.122 -0.155,0.228 -0.26,0.251 -0.105,0.024 -0.51,0.19 -0.677,0.264 -0.168,0.075 -0.257,0.103 -0.09,-0.105 0.279,-0.349 0.518,-1.316 0.401,-1.714 -0.064,-0.216 -0.169,-0.125 -0.238,0.09 -0.069,0.216 -0.353,0.495 -0.558,0.727 -0.206,0.231 -0.265,0.815 -0.284,1.027 -0.019,0.212 0.056,0.247 -0.243,0.456 -0.579,0.402 -1.084,0.785 -1.57,1.335 -1.013,1.021 -0.789,-4.159 -1.383,-0.366 0.054,0.649 0.145,1.437 0.058,1.672 -0.087,0.234 -0.198,0.264 -0.506,0.346 -0.307,0.082 -0.571,0.664 -0.539,0.896 0.033,0.233 -0.047,0.495 -0.192,0.623 -0.145,0.13 -0.639,0.744 -0.838,1.008 -0.199,0.264 -0.275,1.098 -0.007,0.755 0.267,-0.342 1.133,-1.357 1.263,-1.542 0.13,-0.185 0.658,-0.116 0.984,-0.354 0.325,-0.237 0.922,-0.685 1.654,-0.864 1.349,-0.33 1.807,0.15 2.675,0.038 0.869,-0.112 1.504,-0.312 1.934,-0.607 0.43,-0.295 1.117,-0.299 1.409,-0.106 0.291,0.193 0.68,-0.031 0.061,-0.437 C -2.322,1.299 -3.724,0.65 -5.224,1.081 -6.726,1.512 -8.635,2.655 -8.885,2.843 -9.032,2.954 -9.19,2.897 -9.255,2.755 c 0.794,-1.305 1.777,-2.587 2.724,-3.019 0.176,-0.08 0.666,-0.283 1.03,-0.009 0.364,0.274 0.837,0.442 1.074,0.351 0.238,-0.09 0.477,0.019 0.571,0.175 0.094,0.157 0.305,0.11 0.179,-0.188 -0.127,-0.298 -0.636,-0.657 -1.182,-0.727 -0.546,-0.07 -1.011,-0.002 -1.166,0.025 -0.156,0.028 -0.098,-0.074 0.124,-0.168 0.221,-0.095 0.915,-0.355 1.027,-0.41 0.113,-0.055 0.352,0.121 0.574,0.093 0.223,-0.028 0.633,-0.085 1.038,0.026 0.746,0.203 0.841,0.559 1.294,0.738 0.454,0.18 0.817,0.254 1.106,0.226 0.288,-0.028 0.625,0.156 0.715,0.328 C -0.056,0.368 0.193,0.364 0,0"
               style="fill:#8f53a1;fill-opacity:1;fill-rule:nonzero;stroke:none"
               id="path4483"
               inkscape:connector-curvature="0" />
          </g>
        </g>
        <g
           id="g4485"
           transform="matrix(0.705315,0.708894,0.729939,-0.684163,15.1438,306.828)">
          <g
             id="g4487"
             transform="translate(121.97,51.1227)">
            <path
               d="M 0,0 C -0.047,0.154 -0.036,0.501 0.046,0.488 0.121,0.331 0.426,0.389 0.614,0.187 0.803,-0.015 1.148,-0.395 1.572,-0.548 2.352,-0.831 2.615,-0.426 3.117,-0.522 3.619,-0.619 3.986,-0.79 4.235,-1.041 4.484,-1.291 4.881,-1.296 5.049,-1.133 5.217,-0.971 5.442,-1.161 5.086,-1.504 4.73,-1.847 3.922,-2.393 3.055,-2.025 2.186,-1.656 1.081,-0.685 0.936,-0.525 0.851,-0.432 0.76,-0.479 0.722,-0.599 0.512,-0.719 0.534,-0.653 0.387,-0.643 0.036,-0.46 0.165,-0.438 0,0"
               style="fill:#8f53a1;fill-opacity:1;fill-rule:nonzero;stroke:none"
               id="path4489"
               inkscape:connector-curvature="0" />
          </g>
        </g>
        <g
           id="g4491"
           transform="translate(139.245,367.793)">
          <path
             d="m 0,0 c -2.433,2.37 -4.309,4.997 -7.767,5.842 -2.807,0.685 -6.031,-1.512 -7.138,-3.915 -0.904,-1.962 -0.786,-4.107 0.093,-6.052 0.447,-0.986 1.09,-1.749 1.855,-2.531 1.134,-1.159 2.822,-0.864 4.068,-1.898 0.751,-0.624 0.944,-1.977 1.728,-2.518 1.831,-1.265 0.971,1.12 1.202,2.225 0.157,0.755 -5.625,4.265 -6.422,5.207 -2.414,2.035 -0.572,4.644 0.116,5.46 0.668,0.791 1.372,1.701 2.41,1.917 3.549,0.742 5.443,-2.824 6.044,-3.416 1.372,-1.351 2.72,-2.659 4.104,-4.003 2.897,-2.817 5.699,-5.723 8.577,-8.526 0.924,-0.899 2.101,-2.053 3.446,-3.374 0.666,0.478 1.293,0.987 1.875,1.527 C 7.546,-7.45 2.134,-2.079 0,0"
             style="fill:#c7b2d6;fill-opacity:1;fill-rule:nonzero;stroke:none"
             id="path4493"
             inkscape:connector-curvature="0" />
        </g>
      </g>
    </g>
  </g>
</svg>
