<?xml version="1.0" encoding="UTF-8" standalone="no"?>
<!-- Created with Inkscape (http://www.inkscape.org/) -->

<svg
   xmlns:dc="http://purl.org/dc/elements/1.1/"
   xmlns:cc="http://creativecommons.org/ns#"
   xmlns:rdf="http://www.w3.org/1999/02/22-rdf-syntax-ns#"
   xmlns:svg="http://www.w3.org/2000/svg"
   xmlns="http://www.w3.org/2000/svg"
   xmlns:sodipodi="http://sodipodi.sourceforge.net/DTD/sodipodi-0.dtd"
   xmlns:inkscape="http://www.inkscape.org/namespaces/inkscape"
   width="42.271pt"
   height="32.674pt"
   viewBox="0 0 14.91227 11.526661"
   version="1.1"
   id="svg8731"
   inkscape:version="0.92.3 (2405546, 2018-03-11)"
   sodipodi:docname="red.svg">
  <defs
     id="defs8725">
    <clipPath
       clipPathUnits="userSpaceOnUse"
       id="clipPath3867">
      <path
         d="M 0,0 H 612 V 792 H 0 Z"
         id="path3865"
         inkscape:connector-curvature="0" />
    </clipPath>
    <clipPath
       clipPathUnits="userSpaceOnUse"
       id="clipPath3985">
      <path
         d="M 0,0 H 612 V 792 H 0 Z"
         id="path3983"
         inkscape:connector-curvature="0" />
    </clipPath>
    <clipPath
       clipPathUnits="userSpaceOnUse"
       id="clipPath4097">
      <path
         d="M 0,0 H 612 V 792 H 0 Z"
         id="path4095"
         inkscape:connector-curvature="0" />
    </clipPath>
    <clipPath
       clipPathUnits="userSpaceOnUse"
       id="clipPath4215">
      <path
         d="M 0,0 H 612 V 792 H 0 Z"
         id="path4213"
         inkscape:connector-curvature="0" />
    </clipPath>
  </defs>
  <sodipodi:namedview
     id="base"
     pagecolor="#ffffff"
     bordercolor="#666666"
     borderopacity="1.0"
     inkscape:pageopacity="0.0"
     inkscape:pageshadow="2"
     inkscape:zoom="1"
     inkscape:cx="-4.0198871"
     inkscape:cy="-99.160565"
     inkscape:document-units="mm"
     inkscape:current-layer="layer1"
     showgrid="false"
     units="pt"
     inkscape:window-width="1440"
     inkscape:window-height="836"
     inkscape:window-x="0"
     inkscape:window-y="27"
     inkscape:window-maximized="1" />
  <metadata
     id="metadata8728">
    <rdf:RDF>
      <cc:Work
         rdf:about="">
        <dc:format>image/svg+xml</dc:format>
        <dc:type
           rdf:resource="http://purl.org/dc/dcmitype/StillImage" />
        <dc:title></dc:title>
      </cc:Work>
    </rdf:RDF>
  </metadata>
  <g
     inkscape:label="Layer 1"
     inkscape:groupmode="layer"
     id="layer1"
     transform="translate(-73.068681,-71.141171)">
    <g
       transform="matrix(0.35277777,0,0,-0.35277777,32.068849,239.24119)"
       id="g4209">
      <g
         id="g4211"
         clip-path="url(#clipPath4215)">
        <g
           id="g4217"
           transform="translate(158.491,460.167)">
          <path
             d="m 0,0 c 0,-9.021 -9.465,-16.337 -21.135,-16.337 -11.671,0 -21.136,7.316 -21.136,16.337 0,9.021 9.465,16.337 21.136,16.337 C -9.465,16.337 0,9.021 0,0"
             style="fill:#ac251f;fill-opacity:1;fill-rule:nonzero;stroke:none"
             id="path4219"
             inkscape:connector-curvature="0" />
        </g>
        <g
           id="g4221"
           transform="translate(134.83,444.512)">
          <path
             d="M 0,0 C 0.317,0 0.574,0.25 0.574,0.559 0.574,0.868 0.317,1.118 0,1.118 -0.317,1.118 -0.574,0.868 -0.574,0.559 -0.574,0.25 -0.317,0 0,0 m 0,31.309 c 0.317,0 0.574,-0.251 0.574,-0.559 0,-0.309 -0.257,-0.56 -0.574,-0.56 -0.317,0 -0.574,0.251 -0.574,0.56 0,0.308 0.257,0.559 0.574,0.559 m 2.527,0.134 c 0.317,0 0.574,-0.251 0.574,-0.56 0,-0.308 -0.257,-0.559 -0.574,-0.559 -0.317,0 -0.575,0.251 -0.575,0.559 0,0.309 0.258,0.56 0.575,0.56 m 2.526,-0.134 c -0.317,0 -0.574,-0.251 -0.574,-0.559 0,-0.309 0.257,-0.56 0.574,-0.56 0.317,0 0.574,0.251 0.574,0.56 0,0.308 -0.257,0.559 -0.574,0.559 M 7.675,30.898 C 7.358,30.898 7.1,30.647 7.1,30.339 7.1,30.03 7.358,29.78 7.675,29.78 c 0.317,0 0.574,0.25 0.574,0.559 0,0.308 -0.257,0.559 -0.574,0.559 m 2.557,-0.696 c -0.317,0 -0.574,-0.251 -0.574,-0.56 0,-0.308 0.257,-0.559 0.574,-0.559 0.317,0 0.574,0.251 0.574,0.559 0,0.309 -0.257,0.56 -0.574,0.56 m 2.454,-0.989 c -0.317,0 -0.574,-0.25 -0.574,-0.559 0,-0.308 0.257,-0.559 0.574,-0.559 0.317,0 0.574,0.251 0.574,0.559 0,0.309 -0.257,0.559 -0.574,0.559 m 2.304,-1.284 c -0.317,0 -0.574,-0.25 -0.574,-0.559 0,-0.309 0.257,-0.559 0.574,-0.559 0.317,0 0.574,0.25 0.574,0.559 0,0.309 -0.257,0.559 -0.574,0.559 m 2.1,-1.581 c -0.317,0 -0.574,-0.251 -0.574,-0.559 0,-0.309 0.257,-0.56 0.574,-0.56 0.317,0 0.574,0.251 0.574,0.56 0,0.308 -0.257,0.559 -0.574,0.559 m 1.829,-1.874 c -0.317,0 -0.575,-0.25 -0.575,-0.559 0,-0.308 0.258,-0.559 0.575,-0.559 0.317,0 0.574,0.251 0.574,0.559 0,0.309 -0.257,0.559 -0.574,0.559 m 1.478,-2.146 c -0.317,0 -0.575,-0.25 -0.575,-0.559 0,-0.309 0.258,-0.559 0.575,-0.559 0.317,0 0.574,0.25 0.574,0.559 0,0.309 -0.257,0.559 -0.574,0.559 m 1.03,-2.38 c -0.317,0 -0.574,-0.251 -0.574,-0.56 0,-0.308 0.257,-0.559 0.574,-0.559 0.317,0 0.574,0.251 0.574,0.559 0,0.309 -0.257,0.56 -0.574,0.56 m 0.507,-2.535 c -0.317,0 -0.574,-0.251 -0.574,-0.56 0,-0.308 0.257,-0.559 0.574,-0.559 0.317,0 0.574,0.251 0.574,0.559 0,0.309 -0.257,0.56 -0.574,0.56 M -2.622,30.898 c 0.317,0 0.575,-0.251 0.575,-0.559 0,-0.309 -0.258,-0.559 -0.575,-0.559 -0.316,0 -0.574,0.25 -0.574,0.559 0,0.308 0.258,0.559 0.574,0.559 m -2.557,-0.696 c 0.317,0 0.574,-0.251 0.574,-0.56 0,-0.308 -0.257,-0.559 -0.574,-0.559 -0.317,0 -0.574,0.251 -0.574,0.559 0,0.309 0.257,0.56 0.574,0.56 m -2.454,-0.989 c 0.317,0 0.574,-0.25 0.574,-0.559 0,-0.308 -0.257,-0.559 -0.574,-0.559 -0.317,0 -0.574,0.251 -0.574,0.559 0,0.309 0.257,0.559 0.574,0.559 m -2.304,-1.284 c 0.317,0 0.574,-0.25 0.574,-0.559 0,-0.309 -0.257,-0.559 -0.574,-0.559 -0.317,0 -0.574,0.25 -0.574,0.559 0,0.309 0.257,0.559 0.574,0.559 m -2.1,-1.581 c 0.317,0 0.574,-0.251 0.574,-0.559 0,-0.309 -0.257,-0.56 -0.574,-0.56 -0.317,0 -0.574,0.251 -0.574,0.56 0,0.308 0.257,0.559 0.574,0.559 m -1.829,-1.874 c 0.317,0 0.574,-0.25 0.574,-0.559 0,-0.308 -0.257,-0.559 -0.574,-0.559 -0.317,0 -0.574,0.251 -0.574,0.559 0,0.309 0.257,0.559 0.574,0.559 m -1.478,-2.146 c 0.317,0 0.575,-0.25 0.575,-0.559 0,-0.309 -0.258,-0.559 -0.575,-0.559 -0.316,0 -0.574,0.25 -0.574,0.559 0,0.309 0.258,0.559 0.574,0.559 m -1.03,-2.38 c 0.317,0 0.575,-0.251 0.575,-0.56 0,-0.308 -0.258,-0.559 -0.575,-0.559 -0.317,0 -0.574,0.251 -0.574,0.559 0,0.309 0.257,0.56 0.574,0.56 m -0.507,-2.535 c 0.317,0 0.574,-0.251 0.574,-0.56 0,-0.308 -0.257,-0.559 -0.574,-0.559 -0.317,0 -0.574,0.251 -0.574,0.559 0,0.309 0.257,0.56 0.574,0.56 M 2.527,-0.134 c 0.317,0 0.574,0.251 0.574,0.56 0,0.308 -0.257,0.559 -0.574,0.559 -0.317,0 -0.575,-0.251 -0.575,-0.559 0,-0.309 0.258,-0.56 0.575,-0.56 M 5.053,0 C 4.736,0 4.479,0.25 4.479,0.559 c 0,0.309 0.257,0.559 0.574,0.559 0.317,0 0.574,-0.25 0.574,-0.559 C 5.627,0.25 5.37,0 5.053,0 M 7.675,0.411 C 7.358,0.411 7.1,0.661 7.1,0.97 c 0,0.309 0.258,0.559 0.575,0.559 0.317,0 0.574,-0.25 0.574,-0.559 0,-0.309 -0.257,-0.559 -0.574,-0.559 m 2.557,0.696 c -0.317,0 -0.574,0.251 -0.574,0.559 0,0.309 0.257,0.56 0.574,0.56 0.317,0 0.574,-0.251 0.574,-0.56 0,-0.308 -0.257,-0.559 -0.574,-0.559 m 2.454,0.988 c -0.317,0 -0.574,0.251 -0.574,0.56 0,0.308 0.257,0.559 0.574,0.559 0.317,0 0.574,-0.251 0.574,-0.559 0,-0.309 -0.257,-0.56 -0.574,-0.56 M 14.99,3.38 c -0.317,0 -0.574,0.25 -0.574,0.559 0,0.308 0.257,0.559 0.574,0.559 0.317,0 0.574,-0.251 0.574,-0.559 0,-0.309 -0.257,-0.559 -0.574,-0.559 m 2.1,1.581 c -0.317,0 -0.574,0.25 -0.574,0.559 0,0.309 0.257,0.559 0.574,0.559 0.317,0 0.574,-0.25 0.574,-0.559 0,-0.309 -0.257,-0.559 -0.574,-0.559 m 1.829,1.873 c -0.317,0 -0.575,0.251 -0.575,0.56 0,0.308 0.258,0.559 0.575,0.559 0.317,0 0.574,-0.251 0.574,-0.559 0,-0.309 -0.257,-0.56 -0.574,-0.56 m 1.478,2.147 c -0.317,0 -0.575,0.25 -0.575,0.559 0,0.309 0.258,0.559 0.575,0.559 0.317,0 0.574,-0.25 0.574,-0.559 0,-0.309 -0.257,-0.559 -0.574,-0.559 m 1.03,2.38 c -0.317,0 -0.574,0.251 -0.574,0.559 0,0.309 0.257,0.56 0.574,0.56 0.317,0 0.574,-0.251 0.574,-0.56 0,-0.308 -0.257,-0.559 -0.574,-0.559 m 0.507,2.535 c -0.317,0 -0.574,0.251 -0.574,0.559 0,0.309 0.257,0.56 0.574,0.56 0.317,0 0.574,-0.251 0.574,-0.56 0,-0.308 -0.257,-0.559 -0.574,-0.559 M -2.622,0.411 c 0.317,0 0.575,0.25 0.575,0.559 0,0.309 -0.258,0.559 -0.575,0.559 -0.316,0 -0.574,-0.25 -0.574,-0.559 0,-0.309 0.258,-0.559 0.574,-0.559 m -2.557,0.696 c 0.317,0 0.574,0.251 0.574,0.559 0,0.309 -0.257,0.56 -0.574,0.56 -0.317,0 -0.574,-0.251 -0.574,-0.56 0,-0.308 0.257,-0.559 0.574,-0.559 m -2.454,0.988 c 0.317,0 0.574,0.251 0.574,0.56 0,0.308 -0.257,0.559 -0.574,0.559 -0.317,0 -0.574,-0.251 -0.574,-0.559 0,-0.309 0.257,-0.56 0.574,-0.56 M -9.937,3.38 c 0.317,0 0.574,0.25 0.574,0.559 0,0.308 -0.257,0.559 -0.574,0.559 -0.317,0 -0.574,-0.251 -0.574,-0.559 0,-0.309 0.257,-0.559 0.574,-0.559 m -2.1,1.581 c 0.317,0 0.574,0.25 0.574,0.559 0,0.309 -0.257,0.559 -0.574,0.559 -0.317,0 -0.574,-0.25 -0.574,-0.559 0,-0.309 0.257,-0.559 0.574,-0.559 m -1.829,1.873 c 0.317,0 0.574,0.251 0.574,0.56 0,0.308 -0.257,0.559 -0.574,0.559 -0.317,0 -0.574,-0.251 -0.574,-0.559 0,-0.309 0.257,-0.56 0.574,-0.56 m -1.478,2.147 c 0.317,0 0.575,0.25 0.575,0.559 0,0.309 -0.258,0.559 -0.575,0.559 -0.316,0 -0.574,-0.25 -0.574,-0.559 0,-0.309 0.258,-0.559 0.574,-0.559 m -1.03,2.38 c 0.317,0 0.575,0.251 0.575,0.559 0,0.309 -0.258,0.56 -0.575,0.56 -0.317,0 -0.574,-0.251 -0.574,-0.56 0,-0.308 0.257,-0.559 0.574,-0.559 m -0.507,2.535 c 0.317,0 0.574,0.251 0.574,0.559 0,0.309 -0.257,0.56 -0.574,0.56 -0.317,0 -0.574,-0.251 -0.574,-0.56 0,-0.308 0.257,-0.559 0.574,-0.559"
             style="fill:#550e12;fill-opacity:1;fill-rule:nonzero;stroke:none"
             id="path4223"
             inkscape:connector-curvature="0" />
        </g>
        <g
           id="g4225"
           transform="translate(155.389,460.167)">
          <path
             d="m 0,0 c 0,-7.697 -8.075,-13.939 -18.033,-13.939 -9.958,0 -18.033,6.242 -18.033,13.939 0,7.697 8.075,13.939 18.033,13.939 C -8.075,13.939 0,7.697 0,0"
             style="fill:#550e12;fill-opacity:1;fill-rule:nonzero;stroke:none"
             id="path4227"
             inkscape:connector-curvature="0" />
        </g>
        <g
           id="g4229"
           transform="matrix(-0.518822,-0.854882,0.86843,-0.4965,-281.897,302.97)">
          <g
             id="g4231"
             transform="translate(-348.634,274.488)">
            <path
               d="m 0,0 c 0.278,-0.203 0.377,-0.61 0.178,-0.936 -0.2,-0.326 -0.917,-1.386 -1.058,-2.017 -0.24,-1.08 -0.361,-1.629 -0.363,-3.014 -10e-4,-0.937 0.375,-2.545 0.851,-2.91 0.457,-0.366 1.014,-0.284 1.393,-0.12 0.378,0.163 0.815,-0.06 1.252,-0.446 0.696,-0.61 1.233,-0.589 1.871,0.145 0.179,0.184 0.318,0.102 0.119,-0.223 -0.2,-0.347 -1.056,-1.04 -2.19,-1.042 -1.114,0.018 -2.068,0.75 -2.207,1.014 -0.139,0.244 -0.139,0.04 -0.06,-0.163 0.08,-0.203 0.397,-0.956 0.754,-1.261 0.358,-0.305 1.312,-0.649 1.949,-0.689 0.636,-0.04 1.372,-0.283 1.61,-0.71 0.258,-0.427 0.655,-0.813 1.014,-0.792 0.338,0.021 0.337,-0.163 -0.18,-0.347 -0.498,-0.164 -1.79,0.059 -2.566,0.505 -0.795,0.426 -1.669,1.341 -1.847,1.626 -0.159,0.285 -0.537,0.63 -0.636,0.854 -0.099,0.244 -0.198,0.183 -0.198,-0.123 -0.021,-0.305 0.157,-0.895 -0.062,-1.302 -0.24,-0.388 -0.24,-0.734 -0.28,-1.039 -0.021,-0.326 -0.26,-0.571 -0.519,-0.694 -0.259,-0.142 -0.259,-0.02 -0.099,0.163 0.179,0.184 0.259,0.53 0.041,0.957 -0.218,0.448 -0.336,1.282 -0.057,1.792 0.28,0.53 0.678,0.775 0.679,1.101 0,0.325 -0.258,0.915 -0.337,1.18 -0.059,0.244 -0.179,0.488 -0.279,-0.062 -0.1,-0.57 -0.618,-0.937 -0.817,-1.019 -0.219,-0.102 -0.418,-0.184 -0.697,-0.205 -0.298,-0.021 -0.258,0.102 -0.039,0.224 0.199,0.102 0.398,0.123 0.379,0.489 -0.02,0.367 0.041,0.774 0.26,1.039 0.199,0.265 0.895,0.185 0.797,0.612 -0.138,0.773 -0.235,2.85 0.265,4.459 0.16,0.55 0.858,1.834 1.058,2.099 0.179,0.244 0.06,0.611 -0.198,0.631 C -0.139,-0.122 0,0 0,0"
               style="fill:#8f4d50;fill-opacity:1;fill-rule:nonzero;stroke:none"
               id="path4233"
               inkscape:connector-curvature="0" />
          </g>
        </g>
        <g
           id="g4235"
           transform="matrix(-0.999426,0.0338743,0.0359557,0.999356,-281.897,302.97)">
          <g
             id="g4237"
             transform="translate(-401.366,167.01)">
            <path
               d="M 0,0 C 0.56,0 0.986,-0.572 0.986,-1.258 0.986,-1.944 0.56,-2.516 0,-2.516 c -0.538,0 -0.986,0.571 -0.986,1.258 C -0.986,-0.572 -0.538,0 0,0 M 1.296,8.491 C 1.275,8.284 1.111,8.117 0.907,8.117 c -0.205,0 -0.348,0.167 -0.348,0.374 0,0.208 0.164,0.375 0.368,0.375 0.205,0 0.369,-0.167 0.369,-0.375 M 2.76,1.729 C 3.236,1.039 3.213,0.189 2.737,-0.156 2.238,-0.501 1.445,-0.225 0.968,0.464 0.492,1.177 0.492,2.004 0.992,2.372 1.49,2.717 2.261,2.441 2.76,1.729 M 3.927,3.738 C 4.305,3.171 4.305,2.534 3.971,2.306 3.614,2.056 3.034,2.329 2.678,2.874 2.321,3.42 2.299,4.079 2.656,4.307 2.99,4.556 3.57,4.284 3.927,3.738 M 2.588,7.281 C 2.36,7.281 2.174,7.449 2.174,7.679 2.195,7.91 2.36,8.077 2.588,8.077 2.816,8.077 2.982,7.889 2.982,7.679 2.982,7.449 2.795,7.26 2.588,7.281 M 2.098,6.516 C 2.323,6.853 2.93,6.853 3.447,6.494 3.986,6.158 4.256,5.596 4.031,5.282 3.806,4.945 3.199,4.945 2.682,5.304 2.143,5.641 1.873,6.202 2.098,6.516 m -9.41,-9.93 c 0.29,-0.022 0.665,-0.077 0.955,-0.045 0.396,0.047 0.675,0.209 1.024,0.719 0.326,0.509 1.234,0.857 2.258,1.088 1.024,0.232 0.908,0.834 0.908,1.228 0,0.393 0.093,0.301 0.21,0.07 0.139,-0.325 0.186,-0.95 -0.257,-1.761 -0.442,-0.787 -1.862,-1.297 -2.513,-1.46 -0.572,-0.137 -1.122,-0.095 -1.589,-0.107 1.355,-0.306 2.694,-0.374 3.964,-0.133 0.356,0.072 0.808,0.215 0.998,0.454 0.213,0.239 0.736,0.717 0.665,0.98 0.143,-0.096 0.356,-0.239 0.451,-0.239 -0.285,-0.143 -0.451,-0.407 -0.57,-0.526 -0.095,-0.119 -0.261,-0.31 -0.38,-0.382 -0.119,-0.072 -0.071,-0.144 0.237,-0.071 1.259,0.286 3.207,0.836 3.801,1.911 0.119,0.216 0.142,1.314 0,1.338 0.119,0.072 0.261,0.311 0.309,0.455 0,0 0.071,-0.144 0.095,-0.167 C 3.396,-0.35 3.254,-1.09 3.23,-1.258 3.206,-1.401 3.277,-1.472 3.325,-1.353 3.919,-0.206 4.417,0.893 4.038,1.921 3.99,2.112 3.895,2.088 3.895,2.088 3.99,2.112 4.228,2.279 4.228,2.279 4.204,2.04 4.323,1.945 4.347,1.777 4.394,1.586 4.465,1.371 4.441,1.085 4.417,0.821 4.56,0.821 4.655,1.156 4.917,2.159 5.439,4.286 4.133,5.123 4.181,5.194 4.228,5.385 4.252,5.481 4.323,5.29 4.513,5.17 4.632,5.027 4.727,4.884 4.941,4.621 4.941,4.43 4.917,4.262 5.06,4.31 5.036,4.645 c 0,0.334 -0.38,1.792 -0.76,2.389 -0.404,0.574 -0.997,0.526 -1.164,0.43 0,0.072 0,0.263 -0.047,0.335 0.214,-0.048 0.332,0 0.451,-0.024 C 3.635,7.751 3.563,7.895 3.397,8.038 2.732,8.587 1.925,8.874 1.165,8.922 -4.25,9.16 -3.728,5.671 -3.063,5.36 -2.588,5.145 -2.303,5.265 -2.018,5.433 -1.733,5.6 -1.234,5.695 -1.068,5.29 -0.902,4.883 -1.234,4.692 -1.591,4.572 -1.947,4.477 -2.28,4.142 -2.042,3.664 -1.781,3.187 -1.425,3.163 -1.187,3.21 c 0.237,0.048 0.261,0.287 0.356,0.454 0.071,0.192 0.356,0.383 0.689,0.096 V 3.736 C 0,3.593 -0.095,3.426 -0.237,3.545 -0.38,3.665 -0.594,3.736 -0.689,3.401 -0.76,3.091 -1.258,2.589 -1.971,3.187 c -0.712,0.597 -0.38,1.385 -0.048,1.505 0.333,0.119 0.808,0.167 0.761,0.43 C -1.282,5.385 -1.591,5.504 -1.876,5.29 -2.185,5.074 -2.66,5.002 -3.158,5.169 -4.156,5.504 -4.535,9.566 1.307,9.065 2.068,9.017 3.113,8.683 3.754,7.966 3.801,7.895 4.395,7.273 4.561,7.034 4.822,6.652 5.511,5.338 5.535,4 5.566,0.742 4.062,-1.805 1.265,-3.141 c 0.235,0.029 0.653,0.202 0.777,0.347 0.166,0.168 1.045,0.573 1.9,0.383 0.855,-0.215 1.354,-1.242 1.354,-1.649 0,-0.406 -0.285,-0.383 -0.261,-0.072 0.047,0.837 -0.642,0.693 -1.211,0.478 -0.571,-0.215 -1.046,0 -1.331,0.239 -0.261,0.239 -0.427,0.263 -0.736,0.167 -0.332,-0.096 -0.665,-0.168 -1.187,-0.191 0.075,0.012 0.185,0.059 0.299,0.118 -0.421,-0.176 -0.87,-0.325 -1.344,-0.448 0.807,-0.158 1.814,-0.631 2.454,-1.542 0.665,-0.979 0.547,-2.15 0.333,-2.557 -0.19,-0.43 -0.285,-0.19 -0.238,0.072 0.071,0.454 -0.095,1.004 -0.712,1.147 -0.238,0.048 -0.665,0.048 -0.831,0.622 -0.143,0.501 0.142,0.788 -0.404,1.553 -0.192,0.28 -0.591,0.476 -1.222,0.565 -0.839,-0.168 -1.745,-0.265 -2.73,-0.265 -0.418,0 -0.805,0.023 -1.181,0.054 0.203,-0.145 0.559,-0.358 1.086,-0.513 0.547,-0.167 1.283,-0.119 1.9,-1.146 0.618,-1.027 0.499,-1.315 0.404,-1.792 -0.072,-0.287 -0.214,-0.383 -0.333,0.048 -0.118,0.429 -0.427,0.669 -0.902,0.884 -0.451,0.215 -0.927,0.454 -1.401,1.146 -0.457,0.69 -0.637,1.114 -1.665,1.485 -2.474,0.382 -3.959,1.366 -4.961,1.936 -0.119,0.168 -0.357,0.407 -0.618,0.717 1.36,-0.923 2.774,-1.615 4.184,-2.059"
               style="fill:#8f4d50;fill-opacity:1;fill-rule:nonzero;stroke:none"
               id="path4239"
               inkscape:connector-curvature="0" />
          </g>
        </g>
        <g
           id="g4241"
           transform="matrix(0.518822,-0.854882,-0.86843,-0.4965,760.846,302.97)">
          <g
             id="g4243"
             transform="translate(-450.038,449.086)">
            <path
               d="m 0,0 c 0.278,-0.203 0.377,-0.61 0.178,-0.936 -0.2,-0.326 -0.917,-1.386 -1.058,-2.017 -0.24,-1.08 -0.361,-1.629 -0.363,-3.014 -10e-4,-0.937 0.375,-2.545 0.851,-2.91 0.457,-0.366 1.014,-0.284 1.393,-0.12 0.378,0.163 0.815,-0.06 1.252,-0.446 0.696,-0.61 1.233,-0.589 1.871,0.145 0.179,0.184 0.318,0.102 0.119,-0.223 -0.2,-0.347 -1.056,-1.04 -2.19,-1.042 -1.114,0.018 -2.068,0.75 -2.207,1.014 -0.139,0.244 -0.139,0.04 -0.06,-0.163 0.08,-0.203 0.397,-0.956 0.754,-1.261 0.358,-0.305 1.312,-0.649 1.949,-0.689 0.636,-0.04 1.372,-0.283 1.61,-0.71 0.258,-0.427 0.655,-0.813 1.014,-0.792 0.338,0.021 0.337,-0.163 -0.18,-0.347 -0.498,-0.164 -1.79,0.058 -2.566,0.505 -0.795,0.426 -1.669,1.341 -1.847,1.626 -0.159,0.285 -0.537,0.63 -0.636,0.854 -0.099,0.244 -0.198,0.183 -0.198,-0.123 -0.021,-0.305 0.157,-0.895 -0.062,-1.302 -0.24,-0.388 -0.24,-0.734 -0.28,-1.039 -0.021,-0.326 -0.26,-0.571 -0.519,-0.694 -0.259,-0.142 -0.259,-0.02 -0.099,0.163 0.179,0.184 0.259,0.53 0.041,0.957 -0.218,0.448 -0.336,1.282 -0.057,1.792 0.28,0.53 0.678,0.775 0.679,1.101 0,0.325 -0.258,0.915 -0.337,1.18 -0.059,0.244 -0.179,0.488 -0.279,-0.062 -0.1,-0.57 -0.618,-0.937 -0.817,-1.019 -0.219,-0.102 -0.418,-0.184 -0.697,-0.205 -0.298,-0.021 -0.258,0.102 -0.039,0.224 0.199,0.102 0.398,0.123 0.379,0.489 -0.02,0.367 0.041,0.774 0.26,1.039 0.199,0.265 0.895,0.185 0.797,0.612 -0.138,0.773 -0.235,2.85 0.265,4.459 0.16,0.55 0.858,1.834 1.058,2.099 0.179,0.244 0.06,0.611 -0.198,0.631 C -0.139,-0.122 0,0 0,0"
               style="fill:#8f4d50;fill-opacity:1;fill-rule:nonzero;stroke:none"
               id="path4245"
               inkscape:connector-curvature="0" />
          </g>
        </g>
        <g
           id="g4247"
           transform="matrix(0.999426,0.0338743,-0.0359557,0.999356,760.846,302.97)">
          <g
             id="g4249"
             transform="translate(-605.471,173.929)">
            <path
               d="M 0,0 C 0.56,0 0.986,-0.572 0.986,-1.258 0.986,-1.945 0.56,-2.516 0,-2.516 c -0.538,0 -0.986,0.571 -0.986,1.258 C -0.986,-0.572 -0.538,0 0,0 M 1.296,8.491 C 1.275,8.284 1.111,8.117 0.907,8.117 c -0.205,0 -0.348,0.167 -0.348,0.374 0,0.208 0.164,0.375 0.368,0.375 0.205,0 0.369,-0.167 0.369,-0.375 M 2.76,1.729 C 3.236,1.039 3.213,0.189 2.737,-0.157 2.238,-0.501 1.445,-0.225 0.968,0.464 0.492,1.177 0.492,2.004 0.992,2.372 1.49,2.717 2.261,2.441 2.76,1.729 M 3.927,3.738 C 4.305,3.171 4.305,2.534 3.971,2.306 3.614,2.056 3.034,2.329 2.678,2.874 2.321,3.42 2.299,4.079 2.656,4.307 2.99,4.556 3.57,4.284 3.927,3.738 M 2.588,7.281 C 2.36,7.281 2.174,7.449 2.174,7.679 2.195,7.91 2.36,8.077 2.588,8.077 2.816,8.077 2.982,7.889 2.982,7.679 2.982,7.449 2.795,7.26 2.588,7.281 M 2.098,6.516 C 2.323,6.853 2.93,6.853 3.447,6.494 3.986,6.158 4.256,5.596 4.031,5.282 3.806,4.945 3.199,4.945 2.682,5.304 2.143,5.641 1.873,6.202 2.098,6.516 m -9.41,-9.93 c 0.291,-0.022 0.665,-0.077 0.955,-0.045 0.396,0.047 0.675,0.209 1.024,0.719 0.326,0.509 1.234,0.857 2.258,1.088 1.024,0.232 0.908,0.834 0.908,1.228 0,0.393 0.093,0.301 0.21,0.07 0.139,-0.325 0.186,-0.951 -0.257,-1.761 -0.442,-0.787 -1.862,-1.297 -2.513,-1.46 -0.572,-0.137 -1.122,-0.095 -1.589,-0.107 1.355,-0.306 2.694,-0.374 3.964,-0.133 0.356,0.072 0.808,0.215 0.998,0.454 0.213,0.239 0.736,0.717 0.665,0.98 0.143,-0.096 0.356,-0.239 0.451,-0.239 -0.285,-0.143 -0.451,-0.407 -0.57,-0.526 -0.095,-0.119 -0.261,-0.31 -0.38,-0.382 -0.119,-0.072 -0.071,-0.144 0.237,-0.071 1.259,0.286 3.207,0.836 3.801,1.911 0.119,0.216 0.142,1.314 0,1.338 0.119,0.072 0.261,0.311 0.309,0.455 0,0 0.071,-0.144 0.095,-0.167 C 3.396,-0.35 3.254,-1.09 3.23,-1.258 3.206,-1.401 3.277,-1.472 3.325,-1.353 3.919,-0.206 4.417,0.893 4.038,1.921 3.99,2.112 3.895,2.088 3.895,2.088 3.99,2.112 4.228,2.279 4.228,2.279 4.204,2.04 4.323,1.945 4.347,1.777 4.394,1.586 4.465,1.371 4.441,1.085 4.417,0.821 4.56,0.821 4.655,1.156 4.917,2.159 5.439,4.286 4.133,5.123 4.181,5.194 4.228,5.385 4.252,5.481 4.323,5.29 4.513,5.17 4.632,5.027 4.727,4.884 4.941,4.621 4.941,4.43 4.917,4.262 5.06,4.31 5.036,4.645 c 0,0.334 -0.38,1.792 -0.76,2.389 -0.404,0.574 -0.997,0.526 -1.164,0.43 0,0.072 0,0.263 -0.047,0.335 0.214,-0.048 0.332,0 0.451,-0.024 C 3.635,7.751 3.563,7.895 3.397,8.038 2.732,8.587 1.925,8.874 1.165,8.922 -4.25,9.16 -3.728,5.671 -3.063,5.36 -2.588,5.145 -2.303,5.265 -2.018,5.433 -1.733,5.6 -1.234,5.695 -1.068,5.29 -0.902,4.883 -1.234,4.692 -1.591,4.572 -1.947,4.477 -2.28,4.142 -2.042,3.664 -1.781,3.187 -1.425,3.163 -1.187,3.21 c 0.237,0.048 0.261,0.287 0.356,0.454 0.071,0.192 0.356,0.383 0.689,0.096 V 3.736 C 0,3.593 -0.095,3.426 -0.237,3.545 -0.38,3.665 -0.594,3.736 -0.689,3.401 -0.76,3.091 -1.258,2.589 -1.971,3.187 c -0.712,0.597 -0.38,1.385 -0.048,1.505 0.333,0.119 0.808,0.167 0.761,0.43 C -1.282,5.385 -1.591,5.504 -1.876,5.289 -2.185,5.074 -2.66,5.002 -3.158,5.169 -4.156,5.504 -4.535,9.566 1.307,9.065 2.068,9.017 3.112,8.683 3.753,7.966 3.801,7.895 4.395,7.273 4.561,7.034 4.822,6.652 5.511,5.338 5.535,4 5.566,0.742 4.062,-1.805 1.265,-3.141 c 0.235,0.029 0.653,0.202 0.777,0.347 0.166,0.168 1.045,0.573 1.9,0.383 0.855,-0.215 1.354,-1.242 1.354,-1.649 0,-0.406 -0.285,-0.383 -0.261,-0.072 0.047,0.837 -0.642,0.693 -1.211,0.478 -0.571,-0.215 -1.046,0 -1.331,0.239 -0.261,0.239 -0.427,0.263 -0.736,0.167 -0.332,-0.096 -0.665,-0.168 -1.187,-0.191 0.075,0.012 0.185,0.059 0.299,0.118 -0.421,-0.176 -0.87,-0.325 -1.344,-0.448 0.807,-0.158 1.814,-0.631 2.454,-1.542 0.665,-0.979 0.547,-2.15 0.333,-2.557 -0.19,-0.43 -0.285,-0.19 -0.238,0.072 0.071,0.454 -0.095,1.004 -0.712,1.147 -0.238,0.048 -0.665,0.048 -0.831,0.621 -0.143,0.502 0.142,0.789 -0.404,1.554 -0.192,0.28 -0.591,0.476 -1.222,0.565 -0.839,-0.168 -1.745,-0.265 -2.73,-0.265 -0.418,0 -0.805,0.023 -1.181,0.054 0.202,-0.145 0.559,-0.358 1.086,-0.513 0.547,-0.167 1.283,-0.119 1.9,-1.146 0.618,-1.027 0.499,-1.315 0.404,-1.792 -0.072,-0.287 -0.214,-0.383 -0.333,0.048 -0.118,0.429 -0.427,0.669 -0.902,0.884 -0.451,0.215 -0.927,0.454 -1.401,1.146 -0.457,0.69 -0.637,1.114 -1.665,1.485 -2.474,0.382 -3.959,1.366 -4.961,1.936 -0.119,0.168 -0.357,0.407 -0.618,0.717 1.36,-0.923 2.774,-1.615 4.184,-2.059"
               style="fill:#8f4d50;fill-opacity:1;fill-rule:nonzero;stroke:none"
               id="path4251"
               inkscape:connector-curvature="0" />
          </g>
        </g>
        <g
           id="g4253"
           transform="translate(137.356,465.993)">
          <path
             d="m 0,0 c 0.292,0.552 0.541,1.076 0.837,1.573 0.49,0.826 1.168,1.484 1.961,2.029 0.841,0.578 1.774,0.892 2.786,1.029 1.882,0.256 3.539,-0.262 4.988,-1.424 1.195,-0.958 1.934,-2.223 2.247,-3.714 0.153,-0.726 0.133,-1.464 0.067,-2.204 -0.166,-1.891 -0.979,-3.5 -2.152,-4.962 C 9.859,-8.764 8.847,-9.725 7.809,-10.659 6.952,-11.43 6.065,-12.171 5.216,-12.95 4.33,-13.763 3.461,-14.595 2.606,-15.439 1.702,-16.333 0.885,-17.303 0.131,-18.325 0.09,-18.38 0.044,-18.432 -0.006,-18.494 c -0.339,0.41 -0.653,0.827 -1.006,1.21 -0.777,0.843 -1.557,1.684 -2.365,2.497 -0.628,0.63 -1.293,1.225 -1.956,1.82 -0.563,0.507 -1.165,0.972 -1.72,1.488 -0.999,0.927 -1.986,1.868 -2.959,2.822 -0.751,0.738 -1.358,1.587 -1.854,2.512 -0.446,0.832 -0.749,1.711 -0.922,2.642 -0.142,0.764 -0.177,1.532 -0.12,2.296 0.088,1.178 0.504,2.257 1.211,3.215 0.694,0.941 1.577,1.654 2.656,2.125 0.572,0.25 1.167,0.418 1.79,0.492 1.34,0.161 2.615,-0.035 3.82,-0.647 C -2.215,3.36 -1.302,2.439 -0.656,1.254 -0.437,0.852 -0.232,0.443 0,0"
             style="fill:#8b1123;fill-opacity:1;fill-rule:nonzero;stroke:none"
             id="path4255"
             inkscape:connector-curvature="0" />
        </g>
        <g
           id="g4257"
           transform="translate(137.356,465.589)">
          <path
             d="m 0,0 c 0.275,0.52 0.51,1.013 0.788,1.481 0.462,0.778 1.1,1.397 1.847,1.91 0.791,0.544 1.67,0.84 2.622,0.969 1.772,0.241 3.333,-0.247 4.697,-1.341 1.124,-0.902 1.82,-2.093 2.115,-3.496 0.144,-0.683 0.125,-1.379 0.063,-2.075 C 11.976,-4.333 11.21,-5.848 10.106,-7.224 9.282,-8.252 8.33,-9.156 7.352,-10.035 6.545,-10.761 5.71,-11.458 4.91,-12.193 c -0.834,-0.765 -1.652,-1.548 -2.457,-2.343 -0.851,-0.841 -1.62,-1.755 -2.33,-2.716 -0.038,-0.053 -0.081,-0.102 -0.129,-0.16 -0.319,0.386 -0.615,0.779 -0.947,1.14 -0.731,0.793 -1.465,1.585 -2.227,2.35 -0.59,0.594 -1.217,1.154 -1.841,1.714 -0.53,0.477 -1.096,0.915 -1.619,1.4 -0.941,0.873 -1.87,1.759 -2.786,2.658 -0.707,0.694 -1.278,1.494 -1.745,2.364 -0.42,0.784 -0.705,1.611 -0.869,2.488 -0.134,0.719 -0.167,1.442 -0.113,2.161 0.083,1.109 0.475,2.125 1.141,3.028 0.653,0.885 1.484,1.556 2.5,2 0.539,0.236 1.098,0.393 1.685,0.464 1.262,0.151 2.463,-0.034 3.597,-0.61 C -2.086,3.163 -1.226,2.297 -0.618,1.181 -0.412,0.802 -0.218,0.417 0,0"
             style="fill:#d2232a;fill-opacity:1;fill-rule:nonzero;stroke:none"
             id="path4259"
             inkscape:connector-curvature="0" />
        </g>
      </g>
    </g>
    <g
       id="g4261"
       transform="matrix(0.34288058,-0.08297545,0.08778134,0.34171784,139.3521,104.25218)">
      <g
         id="g4263"
         transform="translate(-143.864,-107.732)">
        <path
           d="m 0,0 -2.325,0.002 3.66,-7.688 -3.387,0.003 5.77,-13.058 4.963,-0.037 L 2.81,-10.27 5.987,-10.462 1.131,-2.647 3.855,-2.65 -3.128,8.065 Z"
           style="fill:white;fill-opacity:1;fill-rule:nonzero;stroke:none"
           id="path4265"
           inkscape:connector-curvature="0" />
      </g>
    </g>
  </g>
</svg>
