<?xml version="1.0" encoding="UTF-8" standalone="no"?>
<!-- Created with Inkscape (http://www.inkscape.org/) -->

<svg
   xmlns:dc="http://purl.org/dc/elements/1.1/"
   xmlns:cc="http://creativecommons.org/ns#"
   xmlns:rdf="http://www.w3.org/1999/02/22-rdf-syntax-ns#"
   xmlns:svg="http://www.w3.org/2000/svg"
   xmlns="http://www.w3.org/2000/svg"
   xmlns:sodipodi="http://sodipodi.sourceforge.net/DTD/sodipodi-0.dtd"
   xmlns:inkscape="http://www.inkscape.org/namespaces/inkscape"
   width="42.196999pt"
   height="32.617001pt"
   viewBox="0 0 14.886164 11.506552"
   version="1.1"
   id="svg8731"
   inkscape:version="0.92.3 (2405546, 2018-03-11)"
   sodipodi:docname="silver.svg">
  <defs
     id="defs8725">
    <clipPath
       clipPathUnits="userSpaceOnUse"
       id="clipPath3867">
      <path
         d="M 0,0 H 612 V 792 H 0 Z"
         id="path3865"
         inkscape:connector-curvature="0" />
    </clipPath>
    <clipPath
       clipPathUnits="userSpaceOnUse"
       id="clipPath3985">
      <path
         d="M 0,0 H 612 V 792 H 0 Z"
         id="path3983"
         inkscape:connector-curvature="0" />
    </clipPath>
    <clipPath
       clipPathUnits="userSpaceOnUse"
       id="clipPath4097">
      <path
         d="M 0,0 H 612 V 792 H 0 Z"
         id="path4095"
         inkscape:connector-curvature="0" />
    </clipPath>
    <clipPath
       clipPathUnits="userSpaceOnUse"
       id="clipPath4215">
      <path
         d="M 0,0 H 612 V 792 H 0 Z"
         id="path4213"
         inkscape:connector-curvature="0" />
    </clipPath>
    <clipPath
       clipPathUnits="userSpaceOnUse"
       id="clipPath4285">
      <path
         d="M 0,0 H 612 V 792 H 0 Z"
         id="path4283"
         inkscape:connector-curvature="0" />
    </clipPath>
    <clipPath
       clipPathUnits="userSpaceOnUse"
       id="clipPath4405">
      <path
         d="M 0,0 H 612 V 792 H 0 Z"
         id="path4403"
         inkscape:connector-curvature="0" />
    </clipPath>
    <clipPath
       clipPathUnits="userSpaceOnUse"
       id="clipPath4509">
      <path
         d="M 0,0 H 612 V 792 H 0 Z"
         id="path4507"
         inkscape:connector-curvature="0" />
    </clipPath>
  </defs>
  <sodipodi:namedview
     id="base"
     pagecolor="#ffffff"
     bordercolor="#666666"
     borderopacity="1.0"
     inkscape:pageopacity="0.0"
     inkscape:pageshadow="2"
     inkscape:zoom="1"
     inkscape:cx="159.32145"
     inkscape:cy="19.032101"
     inkscape:document-units="mm"
     inkscape:current-layer="layer1"
     showgrid="false"
     units="pt"
     inkscape:window-width="1440"
     inkscape:window-height="836"
     inkscape:window-x="0"
     inkscape:window-y="27"
     inkscape:window-maximized="1" />
  <metadata
     id="metadata8728">
    <rdf:RDF>
      <cc:Work
         rdf:about="">
        <dc:format>image/svg+xml</dc:format>
        <dc:type
           rdf:resource="http://purl.org/dc/dcmitype/StillImage" />
        <dc:title></dc:title>
      </cc:Work>
    </rdf:RDF>
  </metadata>
  <g
     inkscape:label="Layer 1"
     inkscape:groupmode="layer"
     id="layer1"
     transform="translate(-29.851286,-102.43309)">
    <g
       transform="matrix(0.35277777,0,0,-0.35277777,-11.148899,221.40633)"
       id="g4503">
      <g
         id="g4505"
         clip-path="url(#clipPath4509)">
        <g
           id="g4511"
           transform="translate(158.418,320.938)">
          <path
             d="m 0,0 c 0,-9.005 -9.448,-16.308 -21.099,-16.308 -11.65,0 -21.098,7.303 -21.098,16.308 0,9.006 9.448,16.309 21.098,16.309 C -9.448,16.309 0,9.006 0,0"
             style="fill:#605e73;fill-opacity:1;fill-rule:nonzero;stroke:none"
             id="path4513"
             inkscape:connector-curvature="0" />
        </g>
        <g
           id="g4515"
           transform="translate(134.797,305.311)">
          <path
             d="M 0,0 C 0.316,0 0.573,0.25 0.573,0.558 0.573,0.867 0.316,1.116 0,1.116 -0.316,1.116 -0.573,0.867 -0.573,0.558 -0.573,0.25 -0.316,0 0,0 m 0,31.254 c 0.316,0 0.573,-0.25 0.573,-0.558 0,-0.308 -0.257,-0.558 -0.573,-0.558 -0.316,0 -0.573,0.25 -0.573,0.558 0,0.308 0.257,0.558 0.573,0.558 m 2.522,0.134 c 0.317,0 0.573,-0.25 0.573,-0.558 0,-0.309 -0.256,-0.559 -0.573,-0.559 -0.316,0 -0.573,0.25 -0.573,0.559 0,0.308 0.257,0.558 0.573,0.558 m 2.522,-0.134 c -0.316,0 -0.573,-0.25 -0.573,-0.558 0,-0.308 0.257,-0.558 0.573,-0.558 0.317,0 0.573,0.25 0.573,0.558 0,0.308 -0.256,0.558 -0.573,0.558 m 2.617,-0.41 c -0.316,0 -0.573,-0.25 -0.573,-0.558 0,-0.308 0.257,-0.558 0.573,-0.558 0.317,0 0.573,0.25 0.573,0.558 0,0.308 -0.256,0.558 -0.573,0.558 m 2.553,-0.695 c -0.316,0 -0.573,-0.25 -0.573,-0.558 0,-0.308 0.257,-0.558 0.573,-0.558 0.316,0 0.573,0.25 0.573,0.558 0,0.308 -0.257,0.558 -0.573,0.558 m 2.45,-0.986 c -0.317,0 -0.573,-0.25 -0.573,-0.558 0,-0.309 0.256,-0.559 0.573,-0.559 0.316,0 0.573,0.25 0.573,0.559 0,0.308 -0.257,0.558 -0.573,0.558 m 2.3,-1.282 c -0.316,0 -0.573,-0.25 -0.573,-0.558 0,-0.309 0.257,-0.559 0.573,-0.559 0.317,0 0.573,0.25 0.573,0.559 0,0.308 -0.256,0.558 -0.573,0.558 m 2.097,-1.579 c -0.317,0 -0.574,-0.25 -0.574,-0.558 0,-0.308 0.257,-0.559 0.574,-0.559 0.316,0 0.573,0.251 0.573,0.559 0,0.308 -0.257,0.558 -0.573,0.558 m 1.825,-1.87 c -0.317,0 -0.573,-0.25 -0.573,-0.558 0,-0.309 0.256,-0.559 0.573,-0.559 0.316,0 0.573,0.25 0.573,0.559 0,0.308 -0.257,0.558 -0.573,0.558 m 1.475,-2.143 c -0.316,0 -0.573,-0.25 -0.573,-0.558 0,-0.308 0.257,-0.558 0.573,-0.558 0.317,0 0.573,0.25 0.573,0.558 0,0.308 -0.256,0.558 -0.573,0.558 m 1.028,-2.376 c -0.316,0 -0.573,-0.25 -0.573,-0.558 0,-0.308 0.257,-0.559 0.573,-0.559 0.317,0 0.573,0.251 0.573,0.559 0,0.308 -0.256,0.558 -0.573,0.558 m 0.507,-2.531 c -0.317,0 -0.574,-0.25 -0.574,-0.558 0,-0.308 0.257,-0.558 0.574,-0.558 0.316,0 0.573,0.25 0.573,0.558 0,0.308 -0.257,0.558 -0.573,0.558 M -2.617,30.844 c 0.316,0 0.573,-0.25 0.573,-0.558 0,-0.308 -0.257,-0.558 -0.573,-0.558 -0.316,0 -0.573,0.25 -0.573,0.558 0,0.308 0.257,0.558 0.573,0.558 M -5.17,30.149 c 0.317,0 0.573,-0.25 0.573,-0.558 0,-0.308 -0.256,-0.558 -0.573,-0.558 -0.316,0 -0.573,0.25 -0.573,0.558 0,0.308 0.257,0.558 0.573,0.558 m -2.449,-0.986 c 0.316,0 0.573,-0.25 0.573,-0.558 0,-0.309 -0.257,-0.559 -0.573,-0.559 -0.317,0 -0.573,0.25 -0.573,0.559 0,0.308 0.256,0.558 0.573,0.558 M -9.92,27.881 c 0.317,0 0.573,-0.25 0.573,-0.558 0,-0.309 -0.256,-0.559 -0.573,-0.559 -0.316,0 -0.573,0.25 -0.573,0.559 0,0.308 0.257,0.558 0.573,0.558 m -2.096,-1.579 c 0.316,0 0.573,-0.25 0.573,-0.558 0,-0.308 -0.257,-0.559 -0.573,-0.559 -0.317,0 -0.573,0.251 -0.573,0.559 0,0.308 0.256,0.558 0.573,0.558 m -1.826,-1.87 c 0.317,0 0.574,-0.25 0.574,-0.558 0,-0.309 -0.257,-0.559 -0.574,-0.559 -0.316,0 -0.573,0.25 -0.573,0.559 0,0.308 0.257,0.558 0.573,0.558 m -1.475,-2.143 c 0.317,0 0.573,-0.25 0.573,-0.558 0,-0.308 -0.256,-0.558 -0.573,-0.558 -0.316,0 -0.573,0.25 -0.573,0.558 0,0.308 0.257,0.558 0.573,0.558 m -1.028,-2.376 c 0.316,0 0.573,-0.25 0.573,-0.558 0,-0.308 -0.257,-0.559 -0.573,-0.559 -0.317,0 -0.573,0.251 -0.573,0.559 0,0.308 0.256,0.558 0.573,0.558 m -0.506,-2.531 c 0.316,0 0.573,-0.25 0.573,-0.558 0,-0.308 -0.257,-0.558 -0.573,-0.558 -0.317,0 -0.573,0.25 -0.573,0.558 0,0.308 0.256,0.558 0.573,0.558 M 2.522,-0.133 c 0.317,0 0.573,0.249 0.573,0.558 0,0.308 -0.256,0.558 -0.573,0.558 -0.316,0 -0.573,-0.25 -0.573,-0.558 0,-0.309 0.257,-0.558 0.573,-0.558 M 5.044,0 C 4.728,0 4.471,0.25 4.471,0.558 c 0,0.309 0.257,0.558 0.573,0.558 0.317,0 0.573,-0.249 0.573,-0.558 C 5.617,0.25 5.361,0 5.044,0 m 2.617,0.41 c -0.316,0 -0.573,0.25 -0.573,0.558 0,0.309 0.257,0.559 0.573,0.559 0.317,0 0.573,-0.25 0.573,-0.559 C 8.234,0.66 7.978,0.41 7.661,0.41 m 2.553,0.695 c -0.316,0 -0.573,0.25 -0.573,0.558 0,0.309 0.257,0.559 0.573,0.559 0.316,0 0.573,-0.25 0.573,-0.559 0,-0.308 -0.257,-0.558 -0.573,-0.558 m 2.45,0.987 c -0.317,0 -0.573,0.25 -0.573,0.558 0,0.308 0.256,0.558 0.573,0.558 0.316,0 0.573,-0.25 0.573,-0.558 0,-0.308 -0.257,-0.558 -0.573,-0.558 m 2.3,1.282 c -0.316,0 -0.573,0.25 -0.573,0.558 0,0.308 0.257,0.558 0.573,0.558 0.317,0 0.573,-0.25 0.573,-0.558 0,-0.308 -0.256,-0.558 -0.573,-0.558 m 2.097,1.578 c -0.317,0 -0.574,0.25 -0.574,0.559 0,0.308 0.257,0.558 0.574,0.558 0.316,0 0.573,-0.25 0.573,-0.558 0,-0.309 -0.257,-0.559 -0.573,-0.559 m 1.825,1.87 c -0.317,0 -0.573,0.25 -0.573,0.559 0,0.308 0.256,0.558 0.573,0.558 0.316,0 0.573,-0.25 0.573,-0.558 0,-0.309 -0.257,-0.559 -0.573,-0.559 m 1.475,2.143 c -0.316,0 -0.573,0.25 -0.573,0.558 0,0.308 0.257,0.558 0.573,0.558 0.317,0 0.573,-0.25 0.573,-0.558 0,-0.308 -0.256,-0.558 -0.573,-0.558 m 1.028,2.376 c -0.316,0 -0.573,0.25 -0.573,0.559 0,0.308 0.257,0.558 0.573,0.558 0.317,0 0.573,-0.25 0.573,-0.558 0,-0.309 -0.256,-0.559 -0.573,-0.559 m 0.507,2.531 c -0.317,0 -0.574,0.25 -0.574,0.558 0,0.308 0.257,0.558 0.574,0.558 0.316,0 0.573,-0.25 0.573,-0.558 0,-0.308 -0.257,-0.558 -0.573,-0.558 M -2.617,0.41 c 0.316,0 0.573,0.25 0.573,0.558 0,0.309 -0.257,0.559 -0.573,0.559 -0.316,0 -0.573,-0.25 -0.573,-0.559 0,-0.308 0.257,-0.558 0.573,-0.558 M -5.17,1.105 c 0.317,0 0.573,0.25 0.573,0.558 0,0.309 -0.256,0.559 -0.573,0.559 -0.316,0 -0.573,-0.25 -0.573,-0.559 0,-0.308 0.257,-0.558 0.573,-0.558 m -2.449,0.987 c 0.316,0 0.573,0.25 0.573,0.558 0,0.308 -0.257,0.558 -0.573,0.558 -0.317,0 -0.573,-0.25 -0.573,-0.558 0,-0.308 0.256,-0.558 0.573,-0.558 M -9.92,3.374 c 0.317,0 0.573,0.25 0.573,0.558 0,0.308 -0.256,0.558 -0.573,0.558 -0.316,0 -0.573,-0.25 -0.573,-0.558 0,-0.308 0.257,-0.558 0.573,-0.558 m -2.096,1.578 c 0.316,0 0.573,0.25 0.573,0.559 0,0.308 -0.257,0.558 -0.573,0.558 -0.317,0 -0.573,-0.25 -0.573,-0.558 0,-0.309 0.256,-0.559 0.573,-0.559 m -1.826,1.87 c 0.317,0 0.574,0.25 0.574,0.559 0,0.308 -0.257,0.558 -0.574,0.558 -0.316,0 -0.573,-0.25 -0.573,-0.558 0,-0.309 0.257,-0.559 0.573,-0.559 m -1.475,2.143 c 0.317,0 0.573,0.25 0.573,0.558 0,0.308 -0.256,0.558 -0.573,0.558 -0.316,0 -0.573,-0.25 -0.573,-0.558 0,-0.308 0.257,-0.558 0.573,-0.558 m -1.028,2.376 c 0.316,0 0.573,0.25 0.573,0.559 0,0.308 -0.257,0.558 -0.573,0.558 -0.317,0 -0.573,-0.25 -0.573,-0.558 0,-0.309 0.256,-0.559 0.573,-0.559 m -0.506,2.531 c 0.316,0 0.573,0.25 0.573,0.558 0,0.308 -0.257,0.558 -0.573,0.558 -0.317,0 -0.573,-0.25 -0.573,-0.558 0,-0.308 0.256,-0.558 0.573,-0.558"
             style="fill:#3c394c;fill-opacity:1;fill-rule:nonzero;stroke:none"
             id="path4517"
             inkscape:connector-curvature="0" />
        </g>
        <g
           id="g4519"
           transform="translate(155.321,320.938)">
          <path
             d="m 0,0 c 0,-7.683 -8.061,-13.914 -18.002,-13.914 -9.94,0 -18.001,6.231 -18.001,13.914 0,7.683 8.061,13.915 18.001,13.915 C -8.061,13.915 0,7.683 0,0"
             style="fill:#8e8ca3;fill-opacity:1;fill-rule:nonzero;stroke:none"
             id="path4521"
             inkscape:connector-curvature="0" />
        </g>
        <g
           id="g4523"
           transform="matrix(-0.518822,-0.854882,0.86843,-0.4965,-22.5828,293.494)">
          <g
             id="g4525"
             transform="translate(-107.179,120.096)">
            <path
               d="m 0,0 c 0.278,-0.202 0.376,-0.609 0.177,-0.934 -0.199,-0.326 -0.915,-1.384 -1.055,-2.014 -0.241,-1.078 -0.36,-1.626 -0.363,-3.009 -10e-4,-0.935 0.374,-2.54 0.85,-2.905 0.456,-0.365 1.012,-0.283 1.39,-0.12 0.378,0.164 0.814,-0.059 1.25,-0.445 0.694,-0.608 1.231,-0.587 1.867,0.145 0.18,0.184 0.318,0.102 0.119,-0.223 -0.199,-0.346 -1.054,-1.038 -2.186,-1.04 -1.112,0.019 -2.064,0.749 -2.203,1.013 -0.138,0.243 -0.139,0.04 -0.06,-0.163 0.08,-0.203 0.396,-0.955 0.753,-1.259 0.357,-0.304 1.31,-0.648 1.946,-0.688 0.635,-0.04 1.369,-0.282 1.607,-0.708 0.258,-0.427 0.654,-0.812 1.012,-0.792 0.337,0.021 0.337,-0.162 -0.179,-0.346 -0.497,-0.163 -1.788,0.059 -2.562,0.505 -0.793,0.425 -1.666,1.338 -1.844,1.623 -0.159,0.284 -0.536,0.629 -0.635,0.852 -0.098,0.244 -0.197,0.183 -0.198,-0.122 -0.02,-0.305 0.157,-0.894 -0.062,-1.301 -0.239,-0.387 -0.239,-0.732 -0.279,-1.037 -0.021,-0.325 -0.259,-0.57 -0.518,-0.692 -0.258,-0.142 -0.258,-0.021 -0.099,0.163 0.179,0.183 0.259,0.529 0.041,0.955 -0.217,0.447 -0.336,1.28 -0.057,1.789 0.279,0.528 0.677,0.773 0.678,1.098 0,0.325 -0.257,0.914 -0.336,1.179 -0.06,0.243 -0.179,0.487 -0.278,-0.062 -0.101,-0.569 -0.618,-0.936 -0.816,-1.017 -0.219,-0.102 -0.418,-0.184 -0.696,-0.205 -0.298,-0.021 -0.258,0.102 -0.039,0.224 0.199,0.102 0.397,0.122 0.378,0.488 -0.019,0.366 0.041,0.772 0.26,1.037 0.199,0.265 0.894,0.184 0.795,0.611 -0.138,0.772 -0.234,2.845 0.265,4.451 0.16,0.549 0.857,1.831 1.056,2.095 0.179,0.245 0.06,0.61 -0.198,0.63 C -0.139,-0.122 0,0 0,0"
               style="fill:#767488;fill-opacity:1;fill-rule:nonzero;stroke:none"
               id="path4527"
               inkscape:connector-curvature="0" />
          </g>
        </g>
        <g
           id="g4529"
           transform="matrix(-0.999426,0.0338743,0.0359557,0.999356,-22.5828,293.494)">
          <g
             id="g4531"
             transform="translate(-146.868,28.5546)">
            <path
               d="m 0,0 c 0.559,0 0.984,-0.571 0.984,-1.256 0,-0.685 -0.425,-1.256 -0.984,-1.256 -0.537,0 -0.984,0.571 -0.984,1.256 C -0.984,-0.571 -0.537,0 0,0 M 1.293,8.477 C 1.273,8.27 1.109,8.103 0.905,8.103 c -0.204,0 -0.347,0.166 -0.347,0.373 0,0.208 0.164,0.374 0.368,0.374 0.204,0 0.367,-0.166 0.367,-0.373 M 2.755,1.726 C 3.23,1.037 3.208,0.189 2.732,-0.156 2.234,-0.5 1.442,-0.225 0.967,0.463 0.492,1.175 0.492,2.001 0.99,2.368 1.488,2.712 2.257,2.437 2.755,1.726 M 3.92,3.732 C 4.298,3.165 4.298,2.53 3.964,2.302 3.608,2.052 3.029,2.325 2.673,2.869 2.317,3.414 2.295,4.072 2.651,4.299 2.985,4.548 3.564,4.277 3.92,3.732 M 2.584,7.269 c -0.228,0 -0.414,0.167 -0.414,0.397 0.021,0.23 0.186,0.397 0.414,0.397 0.227,0 0.392,-0.188 0.392,-0.397 0,-0.23 -0.186,-0.418 -0.392,-0.397 M 2.094,6.505 C 2.319,6.841 2.925,6.841 3.441,6.483 3.979,6.147 4.249,5.587 4.024,5.273 3.8,4.937 3.193,4.936 2.678,5.295 2.139,5.631 1.87,6.191 2.094,6.505 M -7.3,-3.408 c 0.291,-0.022 0.665,-0.077 0.954,-0.045 0.396,0.047 0.674,0.208 1.023,0.717 0.325,0.509 1.231,0.856 2.254,1.087 1.022,0.231 0.906,0.832 0.906,1.226 0,0.392 0.093,0.3 0.209,0.069 0.139,-0.324 0.186,-0.948 -0.256,-1.757 -0.441,-0.786 -1.858,-1.295 -2.509,-1.458 -0.571,-0.137 -1.12,-0.095 -1.586,-0.106 1.352,-0.306 2.689,-0.374 3.957,-0.133 0.356,0.071 0.806,0.215 0.996,0.453 0.213,0.239 0.735,0.716 0.664,0.978 0.142,-0.095 0.356,-0.239 0.45,-0.239 -0.284,-0.143 -0.45,-0.405 -0.569,-0.524 -0.094,-0.12 -0.26,-0.31 -0.379,-0.382 -0.119,-0.071 -0.071,-0.143 0.237,-0.071 1.257,0.286 3.201,0.835 3.794,1.908 0.119,0.215 0.142,1.312 0,1.336 0.119,0.072 0.261,0.31 0.308,0.453 0,0 0.071,-0.143 0.095,-0.166 0.142,-0.287 0,-1.027 -0.024,-1.194 C 3.2,-1.398 3.272,-1.47 3.319,-1.351 3.912,-0.206 4.41,0.892 4.031,1.918 3.983,2.108 3.888,2.085 3.888,2.085 3.983,2.108 4.221,2.275 4.221,2.275 4.197,2.036 4.315,1.941 4.339,1.774 4.386,1.584 4.458,1.369 4.434,1.083 4.41,0.82 4.552,0.82 4.647,1.154 4.908,2.156 5.43,4.279 4.126,5.114 4.174,5.185 4.221,5.376 4.245,5.472 4.316,5.281 4.506,5.161 4.624,5.018 4.719,4.875 4.932,4.613 4.932,4.422 4.908,4.255 5.051,4.303 5.027,4.637 5.027,4.971 4.648,6.426 4.268,7.022 3.866,7.594 3.273,7.547 3.107,7.451 c 0,0.072 0,0.263 -0.048,0.334 0.214,-0.047 0.332,0 0.451,-0.024 C 3.629,7.738 3.557,7.881 3.391,8.024 2.728,8.572 1.921,8.858 1.163,8.906 -4.243,9.144 -3.722,5.661 -3.058,5.351 -2.584,5.136 -2.299,5.256 -2.015,5.423 -1.73,5.59 -1.232,5.685 -1.066,5.28 -0.9,4.875 -1.232,4.684 -1.588,4.565 -1.944,4.469 -2.276,4.135 -2.039,3.658 c 0.261,-0.477 0.617,-0.501 0.854,-0.453 0.237,0.048 0.261,0.286 0.356,0.453 0.071,0.191 0.355,0.382 0.687,0.095 V 3.73 C 0,3.587 -0.095,3.42 -0.237,3.539 -0.379,3.658 -0.593,3.729 -0.687,3.395 -0.758,3.086 -1.256,2.585 -1.968,3.181 -2.679,3.777 -2.347,4.564 -2.015,4.684 -1.683,4.803 -1.209,4.851 -1.256,5.113 -1.28,5.375 -1.588,5.495 -1.872,5.28 -2.181,5.065 -2.655,4.993 -3.153,5.16 -4.149,5.494 -4.527,9.549 1.305,9.049 2.064,9.001 3.107,8.668 3.747,7.952 3.795,7.881 4.387,7.26 4.553,7.022 4.814,6.64 5.501,5.328 5.525,3.993 5.556,0.741 4.055,-1.802 1.263,-3.135 c 0.234,0.028 0.652,0.201 0.776,0.346 0.166,0.167 1.043,0.572 1.896,0.382 0.854,-0.215 1.352,-1.24 1.351,-1.646 0,-0.406 -0.284,-0.382 -0.26,-0.072 0.047,0.836 -0.64,0.692 -1.209,0.478 -0.569,-0.215 -1.043,0 -1.328,0.238 -0.261,0.238 -0.426,0.262 -0.735,0.166 -0.332,-0.095 -0.664,-0.167 -1.185,-0.19 0.075,0.012 0.184,0.059 0.298,0.118 -0.42,-0.176 -0.868,-0.325 -1.342,-0.447 0.806,-0.158 1.812,-0.63 2.451,-1.54 0.664,-0.977 0.545,-2.146 0.332,-2.552 -0.19,-0.429 -0.285,-0.19 -0.237,0.072 0.071,0.453 -0.095,1.002 -0.712,1.145 -0.237,0.047 -0.663,0.047 -0.829,0.62 -0.142,0.501 0.142,0.787 -0.403,1.55 -0.192,0.28 -0.59,0.476 -1.22,0.565 -0.838,-0.168 -1.742,-0.264 -2.725,-0.264 -0.417,0 -0.804,0.022 -1.179,0.053 0.202,-0.145 0.558,-0.357 1.084,-0.512 0.546,-0.166 1.281,-0.118 1.897,-1.144 0.616,-1.026 0.497,-1.312 0.403,-1.789 -0.072,-0.286 -0.214,-0.382 -0.332,0.048 -0.119,0.429 -0.427,0.668 -0.901,0.882 -0.451,0.215 -0.925,0.453 -1.399,1.145 -0.456,0.688 -0.636,1.111 -1.661,1.482 -2.47,0.381 -3.953,1.363 -4.953,1.933 -0.119,0.167 -0.356,0.406 -0.617,0.716 1.358,-0.922 2.769,-1.613 4.176,-2.056"
               style="fill:#767488;fill-opacity:1;fill-rule:nonzero;stroke:none"
               id="path4533"
               inkscape:connector-curvature="0" />
          </g>
        </g>
        <g
           id="g4535"
           transform="matrix(0.518822,-0.854882,-0.86843,-0.4965,283.907,293.494)">
          <g
             id="g4537"
             transform="translate(-100.569,108.714)">
            <path
               d="m 0,0 c 0.278,-0.202 0.376,-0.609 0.177,-0.934 -0.199,-0.326 -0.915,-1.384 -1.055,-2.014 -0.241,-1.078 -0.36,-1.626 -0.363,-3.009 -10e-4,-0.935 0.374,-2.54 0.85,-2.905 0.456,-0.365 1.012,-0.283 1.39,-0.12 0.378,0.164 0.814,-0.059 1.25,-0.445 0.694,-0.608 1.231,-0.587 1.867,0.145 0.18,0.184 0.318,0.102 0.119,-0.223 -0.199,-0.346 -1.054,-1.038 -2.186,-1.04 -1.112,0.019 -2.064,0.749 -2.203,1.013 -0.138,0.243 -0.139,0.04 -0.06,-0.163 0.08,-0.203 0.396,-0.955 0.753,-1.259 0.357,-0.304 1.31,-0.648 1.946,-0.688 0.635,-0.04 1.369,-0.282 1.607,-0.708 0.258,-0.427 0.654,-0.812 1.012,-0.792 0.337,0.021 0.337,-0.162 -0.179,-0.346 -0.497,-0.163 -1.788,0.059 -2.562,0.505 -0.793,0.425 -1.666,1.338 -1.844,1.623 -0.159,0.284 -0.536,0.629 -0.635,0.852 -0.098,0.244 -0.197,0.183 -0.198,-0.122 -0.02,-0.305 0.157,-0.894 -0.062,-1.301 -0.238,-0.387 -0.239,-0.732 -0.279,-1.037 -0.021,-0.325 -0.259,-0.57 -0.518,-0.692 -0.258,-0.142 -0.258,-0.021 -0.099,0.163 0.179,0.183 0.259,0.529 0.041,0.955 -0.217,0.447 -0.336,1.28 -0.057,1.789 0.279,0.528 0.677,0.773 0.678,1.098 0,0.325 -0.257,0.914 -0.336,1.179 -0.06,0.243 -0.179,0.487 -0.278,-0.062 -0.101,-0.569 -0.618,-0.936 -0.816,-1.017 -0.219,-0.102 -0.418,-0.184 -0.696,-0.205 -0.298,-0.021 -0.258,0.102 -0.039,0.224 0.199,0.102 0.397,0.122 0.378,0.488 -0.019,0.366 0.041,0.772 0.26,1.037 0.199,0.265 0.894,0.184 0.795,0.611 -0.138,0.772 -0.234,2.845 0.265,4.451 0.16,0.549 0.857,1.831 1.056,2.095 0.179,0.245 0.06,0.61 -0.198,0.63 C -0.139,-0.122 0,0 0,0"
               style="fill:#767488;fill-opacity:1;fill-rule:nonzero;stroke:none"
               id="path4539"
               inkscape:connector-curvature="0" />
          </g>
        </g>
        <g
           id="g4541"
           transform="matrix(0.999426,0.0338743,-0.0359557,0.999356,283.907,293.494)">
          <g
             id="g4543"
             transform="translate(-133.563,28.1036)">
            <path
               d="m 0,0 c 0.559,0 0.984,-0.571 0.984,-1.256 0,-0.685 -0.425,-1.256 -0.984,-1.256 -0.537,0 -0.984,0.571 -0.984,1.256 C -0.984,-0.571 -0.537,0 0,0 M 1.293,8.477 C 1.273,8.27 1.109,8.103 0.905,8.103 c -0.204,0 -0.347,0.166 -0.347,0.373 0,0.208 0.164,0.374 0.368,0.374 0.204,0 0.367,-0.166 0.367,-0.373 M 2.755,1.726 C 3.23,1.037 3.208,0.189 2.732,-0.156 2.234,-0.5 1.442,-0.225 0.967,0.463 0.492,1.175 0.492,2.001 0.99,2.368 1.488,2.712 2.257,2.437 2.755,1.726 M 3.92,3.732 C 4.298,3.165 4.298,2.53 3.964,2.302 3.608,2.052 3.029,2.325 2.673,2.869 2.317,3.414 2.295,4.072 2.651,4.299 2.985,4.548 3.564,4.277 3.92,3.732 M 2.584,7.269 c -0.228,0 -0.414,0.167 -0.414,0.397 0.021,0.23 0.186,0.397 0.414,0.397 0.227,0 0.392,-0.188 0.392,-0.397 0,-0.23 -0.186,-0.418 -0.392,-0.397 M 2.094,6.505 C 2.319,6.841 2.925,6.841 3.441,6.483 3.979,6.147 4.249,5.587 4.024,5.273 3.8,4.937 3.193,4.936 2.678,5.295 2.139,5.631 1.87,6.191 2.094,6.505 M -7.3,-3.408 c 0.291,-0.022 0.665,-0.077 0.954,-0.045 0.396,0.047 0.674,0.208 1.023,0.717 0.325,0.509 1.231,0.856 2.254,1.087 1.022,0.231 0.906,0.832 0.906,1.226 0,0.392 0.093,0.3 0.209,0.069 0.139,-0.324 0.186,-0.948 -0.256,-1.757 -0.441,-0.786 -1.858,-1.295 -2.509,-1.458 -0.571,-0.137 -1.12,-0.095 -1.587,-0.106 1.353,-0.306 2.69,-0.374 3.958,-0.133 0.356,0.071 0.806,0.215 0.996,0.453 0.213,0.239 0.735,0.716 0.664,0.978 0.142,-0.095 0.356,-0.239 0.451,-0.239 -0.285,-0.143 -0.451,-0.405 -0.57,-0.524 -0.094,-0.12 -0.26,-0.31 -0.379,-0.382 -0.119,-0.071 -0.071,-0.143 0.237,-0.071 1.257,0.286 3.201,0.835 3.794,1.908 0.119,0.215 0.142,1.312 0,1.336 0.119,0.072 0.261,0.31 0.308,0.453 0,0 0.071,-0.143 0.095,-0.166 0.142,-0.287 0,-1.027 -0.024,-1.194 C 3.2,-1.398 3.272,-1.47 3.319,-1.351 3.912,-0.206 4.41,0.892 4.031,1.918 3.983,2.108 3.888,2.085 3.888,2.085 3.983,2.108 4.221,2.275 4.221,2.275 4.197,2.036 4.315,1.941 4.339,1.774 4.386,1.584 4.458,1.369 4.434,1.083 4.41,0.82 4.552,0.82 4.647,1.154 4.908,2.156 5.43,4.279 4.126,5.114 4.174,5.185 4.221,5.376 4.245,5.472 4.316,5.281 4.506,5.161 4.624,5.018 4.719,4.875 4.932,4.613 4.932,4.422 4.908,4.255 5.051,4.303 5.027,4.637 5.027,4.971 4.648,6.426 4.268,7.022 3.866,7.594 3.273,7.547 3.107,7.451 c 0,0.072 0,0.263 -0.048,0.334 0.214,-0.047 0.332,0 0.451,-0.024 C 3.629,7.738 3.557,7.881 3.391,8.024 2.728,8.572 1.921,8.858 1.163,8.906 -4.243,9.144 -3.722,5.661 -3.058,5.351 -2.584,5.136 -2.299,5.256 -2.015,5.423 -1.73,5.59 -1.232,5.685 -1.066,5.28 -0.9,4.875 -1.232,4.684 -1.588,4.565 -1.944,4.469 -2.276,4.135 -2.039,3.658 c 0.261,-0.477 0.617,-0.501 0.854,-0.453 0.237,0.048 0.261,0.286 0.356,0.453 0.071,0.191 0.355,0.382 0.687,0.095 V 3.73 C 0,3.587 -0.095,3.42 -0.237,3.539 -0.379,3.658 -0.593,3.729 -0.687,3.395 -0.758,3.086 -1.256,2.585 -1.968,3.181 -2.679,3.777 -2.347,4.564 -2.015,4.684 -1.683,4.803 -1.209,4.851 -1.256,5.113 -1.28,5.375 -1.588,5.495 -1.872,5.28 -2.181,5.065 -2.655,4.993 -3.153,5.16 -4.149,5.494 -4.527,9.549 1.305,9.049 2.064,9.001 3.107,8.668 3.747,7.952 3.795,7.881 4.387,7.26 4.553,7.022 4.814,6.64 5.501,5.328 5.525,3.993 5.556,0.741 4.055,-1.802 1.263,-3.135 c 0.234,0.028 0.652,0.201 0.776,0.346 0.166,0.167 1.043,0.572 1.896,0.382 0.854,-0.215 1.352,-1.24 1.351,-1.646 0,-0.406 -0.284,-0.382 -0.26,-0.072 0.047,0.836 -0.64,0.692 -1.209,0.478 -0.569,-0.215 -1.043,0 -1.328,0.238 -0.261,0.238 -0.426,0.262 -0.735,0.166 -0.332,-0.095 -0.664,-0.167 -1.185,-0.19 0.075,0.012 0.184,0.059 0.298,0.118 -0.42,-0.176 -0.868,-0.325 -1.342,-0.447 0.806,-0.158 1.812,-0.63 2.451,-1.54 0.664,-0.977 0.545,-2.146 0.332,-2.552 -0.19,-0.429 -0.285,-0.19 -0.237,0.072 0.071,0.453 -0.095,1.002 -0.712,1.145 -0.237,0.047 -0.663,0.047 -0.829,0.62 -0.142,0.501 0.142,0.787 -0.403,1.55 -0.192,0.28 -0.59,0.476 -1.22,0.565 -0.838,-0.168 -1.742,-0.264 -2.725,-0.264 -0.417,0 -0.804,0.022 -1.179,0.053 0.202,-0.145 0.558,-0.357 1.084,-0.512 0.546,-0.166 1.281,-0.118 1.897,-1.144 0.616,-1.026 0.497,-1.312 0.403,-1.789 -0.072,-0.286 -0.214,-0.382 -0.332,0.048 -0.119,0.429 -0.427,0.668 -0.901,0.882 -0.451,0.215 -0.925,0.453 -1.399,1.145 -0.456,0.688 -0.636,1.111 -1.661,1.482 -2.47,0.381 -3.953,1.363 -4.953,1.933 -0.119,0.167 -0.356,0.406 -0.617,0.716 1.358,-0.922 2.769,-1.613 4.176,-2.056"
               style="fill:#767488;fill-opacity:1;fill-rule:nonzero;stroke:none"
               id="path4545"
               inkscape:connector-curvature="0" />
          </g>
        </g>
        <g
           id="g4547"
           transform="matrix(0.836653,-0.547733,-0.570893,-0.821491,-21.9016,266.686)">
          <g
             id="g4549"
             transform="translate(109.51,-129.237)">
            <path
               d="m 0,0 c 0.156,-0.17 0.492,-0.36 0.492,-0.36 0.176,-2.105 -0.926,-4.254 -1.846,-4.999 -0.202,-0.171 -0.516,-0.533 -0.248,-0.83 0.247,-0.297 0.111,-0.935 -0.473,-1.403 -0.584,-0.469 -1.145,-0.981 -1.123,-1.405 0.022,-0.447 -0.314,-0.299 -0.493,-0.022 -0.201,0.254 -0.2,0.977 0.204,1.488 0.427,0.49 0.831,0.83 0.898,0.958 0.068,0.149 0.203,0.255 -0.134,0.106 -1.481,-0.683 -3.791,-1.345 -5.65,-0.328 -2.105,1.144 -1.406,3.059 -0.464,3.528 0.336,0.171 0.605,0.086 0.246,-0.34 -0.382,-0.404 -0.608,-1.17 -0.25,-1.573 0.694,-0.807 1.323,-0.317 2.062,-0.741 0.716,-0.445 0.872,-0.976 1.433,-0.933 0.538,0.043 1.637,0.322 2.309,0.663 0.18,0.085 0.337,0.298 -0.044,0.212 -0.403,-0.107 -1.211,-0.108 -1.613,0.296 -0.56,0.572 -0.334,1.295 0.07,1.7 0.202,0.213 0.336,0.043 0.314,-0.233 -0.024,-0.255 0.312,-0.659 0.715,-0.615 0.382,0.043 1.323,0.108 1.525,-0.126 0.179,-0.212 0.402,-0.148 0.582,-0.02 0.314,0.277 0.876,0.979 1.124,1.596 0.09,0.213 0.225,0.575 -0.134,0.234 -0.382,-0.362 -1.033,-1.001 -1.885,-0.875 -0.852,0.127 -1.68,0.614 -1.925,1.187 -0.09,0.234 0.179,0.341 0.448,0.129 0.269,-0.191 0.739,-0.318 1.277,-0.147 0.561,0.192 1.032,0.363 1.525,0.279 0.538,-0.084 0.718,0.193 0.898,0.469 C 0.019,-1.849 0.2,-0.765 0,0"
               style="fill:#767488;fill-opacity:1;fill-rule:nonzero;stroke:none"
               id="path4551"
               inkscape:connector-curvature="0" />
          </g>
        </g>
        <g
           id="g4553"
           transform="matrix(-0.836653,-0.547733,0.570893,-0.821491,-21.9016,266.686)">
          <g
             id="g4555"
             transform="translate(-152.087,45.1844)">
            <path
               d="m 0,0 c 0.156,-0.17 0.492,-0.36 0.492,-0.36 0.176,-2.105 -0.926,-4.254 -1.846,-4.999 -0.202,-0.171 -0.516,-0.533 -0.248,-0.83 0.247,-0.297 0.111,-0.935 -0.473,-1.403 -0.584,-0.469 -1.145,-0.981 -1.123,-1.405 0.022,-0.447 -0.314,-0.299 -0.493,-0.022 -0.201,0.254 -0.2,0.977 0.204,1.488 0.427,0.49 0.831,0.83 0.898,0.958 0.068,0.149 0.203,0.255 -0.134,0.106 -1.481,-0.683 -3.791,-1.345 -5.65,-0.328 -2.105,1.144 -1.406,3.059 -0.464,3.528 0.336,0.171 0.605,0.086 0.246,-0.34 -0.382,-0.404 -0.608,-1.17 -0.25,-1.573 0.694,-0.807 1.323,-0.317 2.062,-0.741 0.716,-0.445 0.872,-0.976 1.433,-0.933 0.538,0.043 1.637,0.322 2.309,0.663 0.18,0.085 0.337,0.298 -0.044,0.212 -0.403,-0.107 -1.211,-0.108 -1.613,0.296 -0.56,0.572 -0.334,1.295 0.07,1.7 0.202,0.213 0.336,0.043 0.314,-0.233 -0.024,-0.255 0.312,-0.659 0.715,-0.615 0.382,0.043 1.323,0.108 1.525,-0.126 0.179,-0.212 0.402,-0.148 0.582,-0.02 0.314,0.277 0.876,0.979 1.124,1.596 0.09,0.213 0.225,0.575 -0.134,0.234 -0.382,-0.362 -1.033,-1.001 -1.885,-0.875 -0.852,0.127 -1.68,0.614 -1.925,1.187 -0.09,0.234 0.179,0.341 0.448,0.129 0.269,-0.191 0.739,-0.318 1.277,-0.147 0.561,0.192 1.032,0.363 1.525,0.279 0.538,-0.084 0.718,0.193 0.898,0.469 C 0.019,-1.849 0.2,-0.765 0,0"
               style="fill:#767488;fill-opacity:1;fill-rule:nonzero;stroke:none"
               id="path4557"
               inkscape:connector-curvature="0" />
          </g>
        </g>
        <g
           id="g4559"
           transform="matrix(0.812227,0.583341,0.606531,-0.795572,-22.0484,266.686)">
          <g
             id="g4561"
             transform="translate(171.808,41.7204)">
            <path
               d="m 0,0 c -0.191,-0.366 -0.7,-1.061 -1.547,-1.254 -0.848,-0.193 -2.084,-0.147 -2.256,-0.122 -0.172,0.024 -0.234,-0.192 -0.036,-0.327 0.199,-0.135 0.862,-0.473 1.197,-0.826 0.549,-0.577 0.755,-1.355 0.727,-2.013 -0.012,-0.288 -0.18,-0.212 -0.191,0.037 -0.012,0.248 -0.171,0.56 -0.471,0.703 -0.301,0.144 -0.769,0.63 -0.916,0.962 -0.148,0.332 -0.315,0.742 -0.42,0.834 -0.106,0.091 -0.168,0.076 -0.34,0.033 -0.172,-0.042 -0.457,0.172 -0.503,0.294 -0.047,0.123 -0.155,0.229 -0.261,0.253 -0.105,0.025 -0.511,0.192 -0.678,0.268 -0.168,0.076 -0.258,0.104 -0.09,-0.106 0.28,-0.351 0.522,-1.325 0.407,-1.724 -0.063,-0.217 -0.168,-0.125 -0.238,0.092 -0.07,0.217 -0.355,0.498 -0.561,0.732 -0.207,0.233 -0.268,0.82 -0.288,1.033 -0.019,0.213 0.056,0.248 -0.245,0.459 -0.58,0.406 -1.087,0.793 -1.575,1.347 0.096,-0.212 0.177,-0.423 0.23,-0.619 0.371,-1.388 0.027,-2.793 -0.582,-3.804 -0.267,-0.442 -0.466,-0.176 -0.271,0.225 0.195,0.4 0.212,1.031 -0.139,1.52 -0.351,0.488 -0.672,1.664 -0.62,2.315 0.052,0.652 0.14,1.444 0.052,1.68 -0.088,0.236 -0.199,0.266 -0.507,0.35 -0.308,0.083 -0.573,0.669 -0.542,0.902 0.031,0.234 -0.049,0.498 -0.195,0.627 -0.145,0.131 -0.642,0.75 -0.841,1.016 -0.201,0.266 -0.891,1.058 -1.185,1.653 -1.081,2.187 -1.8,4.024 -1.649,7.904 -0.169,3.995 0.617,1.469 0.56,0.57 0.084,-2.985 0.507,-6.294 1.736,-7.955 0.208,-0.282 0.258,-1.068 0.528,-1.413 0.268,-0.345 1.138,-1.368 1.269,-1.554 0.131,-0.187 0.658,-0.119 0.985,-0.359 0.327,-0.24 0.925,-0.692 1.659,-0.874 1.35,-0.336 1.806,0.144 2.676,0.029 0.869,-0.115 1.505,-0.318 1.937,-0.616 0.43,-0.298 1.119,-0.304 1.41,-0.111 0.29,0.193 0.68,-0.033 0.063,-0.44 C -2.328,1.313 -3.728,0.665 -5.231,1.103 -6.735,1.542 -8.649,2.697 -8.9,2.887 -9.047,2.998 -9.204,2.942 -9.27,2.799 c 0.799,-1.314 1.787,-2.606 2.736,-3.043 0.177,-0.081 0.667,-0.287 1.031,-0.013 0.363,0.274 0.836,0.442 1.074,0.35 0.238,-0.092 0.476,0.017 0.57,0.174 0.094,0.158 0.305,0.109 0.18,-0.19 -0.126,-0.299 -0.634,-0.658 -1.181,-0.727 -0.546,-0.068 -1.011,0.001 -1.167,0.03 -0.156,0.028 -0.097,-0.075 0.125,-0.17 0.222,-0.096 0.917,-0.36 1.03,-0.415 0.113,-0.056 0.351,0.12 0.574,0.091 0.222,-0.028 0.633,-0.087 1.038,0.023 0.746,0.201 0.84,0.559 1.293,0.738 0.453,0.179 0.816,0.252 1.105,0.223 0.288,-0.029 0.624,0.155 0.715,0.328 C -0.057,0.37 0.192,0.366 0,0"
               style="fill:#767488;fill-opacity:1;fill-rule:nonzero;stroke:none"
               id="path4563"
               inkscape:connector-curvature="0" />
          </g>
        </g>
        <g
           id="g4565"
           transform="matrix(-0.971945,-0.235206,0.248829,-0.968649,-22.0484,266.686)">
          <g
             id="g4567"
             transform="translate(-165.977,-17.9659)">
            <path
               d="m 0,0 c 0.51,-0.394 1.132,-0.306 1.554,-0.13 0.422,0.176 0.91,-0.065 1.398,-0.481 0.777,-0.658 1.377,-0.635 2.087,0.155 0.2,0.197 0.356,0.11 0.134,-0.241 C 4.95,-1.07 3.995,-1.816 2.73,-1.817 1.486,-1.797 0.421,-1.008 0.266,-0.723 0.111,-0.46 0.111,-0.68 0.199,-0.898 c 0.089,-0.22 0.443,-1.031 0.843,-1.359 0.399,-0.329 1.465,-0.7 2.175,-0.744 0.71,-0.043 1.531,-0.305 1.798,-0.766 0.288,-0.46 0.731,-0.876 1.131,-0.854 0.377,0.022 0.377,-0.175 -0.2,-0.373 C 5.391,-5.17 3.948,-4.93 3.082,-4.448 2.195,-3.988 1.219,-3.003 1.019,-2.696 0.842,-2.389 0.42,-2.016 0.309,-1.776 0.199,-1.512 0.088,-1.578 0.088,-1.907 0.065,-2.236 0.264,-2.872 0.019,-3.31 -0.247,-3.728 -0.247,-4.1 -0.292,-4.429 -0.315,-4.78 -0.581,-5.043 -0.87,-5.175 -1.159,-5.329 -1.159,-5.197 -0.981,-5 c 0.2,0.198 0.289,0.571 0.045,1.031 -0.244,0.482 -0.376,1.381 -0.065,1.929 0.312,0.571 0.756,0.834 0.756,1.185 0.001,0.35 -1.06,1.657 -1.149,1.943 C -1.46,1.351 -1.597,1.917 0,0"
               style="fill:#767488;fill-opacity:1;fill-rule:nonzero;stroke:none"
               id="path4569"
               inkscape:connector-curvature="0" />
          </g>
        </g>
        <g
           id="g4571"
           transform="matrix(-0.971945,-0.235206,0.248829,-0.968649,-22.0484,266.686)">
          <g
             id="g4573"
             transform="translate(-167.498,-11.7596)">
            <path
               d="m 0,0 c 0.141,-0.165 0.13,-0.337 0.13,-0.337 0.16,-2.048 -1.125,-4.102 -1.957,-4.827 -0.182,-0.166 -0.466,-0.518 -0.224,-0.807 0.223,-0.29 0.101,-0.91 -0.426,-1.366 -0.528,-0.455 -1.035,-0.952 -1.015,-1.366 0.02,-0.434 -0.284,-0.29 -0.445,-0.021 -0.183,0.248 -0.182,0.951 0.183,1.448 0.385,0.477 0.75,0.808 0.811,0.932 0.062,0.145 0.183,0.248 -0.121,0.103 -1.338,-0.663 -3.427,-1.306 -5.108,-0.314 -1.904,1.115 -1.274,2.978 -0.423,3.434 0.305,0.166 0.548,0.083 0.223,-0.331 -0.344,-0.394 -0.548,-1.138 -0.224,-1.531 0.628,-0.786 1.196,-0.31 1.864,-0.723 0.648,-0.434 0.789,-0.951 1.297,-0.909 0.486,0.041 1.479,0.311 2.087,0.643 0.163,0.083 0.305,0.29 -0.04,0.207 -0.365,-0.104 -1.095,-0.105 -1.459,0.288 -0.506,0.558 -0.303,1.262 0.062,1.655 0.182,0.207 0.304,0.042 0.284,-0.227 -0.021,-0.248 0.283,-0.641 0.648,-0.599 0.345,0.041 1.195,0.104 1.378,-0.123 0.162,-0.207 0.364,-0.145 0.527,-0.021 0.283,0.269 0.791,0.953 1.015,1.553 0.081,0.207 0.202,0.559 -0.122,0.227 -0.345,-0.352 -0.933,-0.973 -1.703,-0.849 -0.77,0.123 -1.52,0.599 -1.742,1.157 -0.081,0.227 0.162,0.331 0.405,0.124 0.243,-0.186 0.669,-0.31 1.155,-0.143 0.508,0.186 0.933,0.352 1.379,0.269 0.486,-0.082 0.649,0.187 0.811,0.456 0.162,0.249 0.616,1.268 0.434,2.012 z"
               style="fill:#767488;fill-opacity:1;fill-rule:nonzero;stroke:none"
               id="path4575"
               inkscape:connector-curvature="0" />
          </g>
        </g>
        <g
           id="g4577"
           transform="matrix(0.876536,0.481335,0.503767,-0.864218,-22.0484,266.686)">
          <g
             id="g4579"
             transform="translate(163.879,38.1747)">
            <path
               d="m 0,0 c 0.141,-0.166 0.1,-0.54 0.1,-0.54 0.165,-2.059 -0.82,-4.157 -1.646,-4.883 -0.181,-0.166 -0.463,-0.519 -0.22,-0.81 0.222,-0.292 0.102,-0.915 -0.422,-1.371 -0.524,-0.457 -1.027,-0.955 -1.006,-1.371 0.021,-0.436 -0.282,-0.291 -0.444,-0.02 -0.182,0.25 -0.183,0.957 0.179,1.455 0.383,0.478 0.745,0.809 0.806,0.934 0.06,0.146 0.181,0.249 -0.121,0.104 -1.331,-0.663 -3.408,-1.304 -5.084,-0.304 -1.897,1.125 -1.275,2.995 -0.429,3.451 0.303,0.166 0.545,0.083 0.223,-0.333 -0.342,-0.394 -0.543,-1.142 -0.22,-1.538 0.627,-0.79 1.191,-0.313 1.857,-0.73 0.647,-0.438 0.788,-0.957 1.293,-0.916 0.484,0.04 1.472,0.309 2.076,0.641 0.162,0.083 0.303,0.29 -0.04,0.208 -0.363,-0.104 -1.089,-0.103 -1.453,0.293 -0.505,0.562 -0.304,1.268 0.058,1.663 0.181,0.207 0.302,0.041 0.283,-0.229 -0.02,-0.25 0.283,-0.645 0.646,-0.604 0.343,0.041 1.19,0.102 1.372,-0.127 0.162,-0.208 0.363,-0.146 0.525,-0.021 0.281,0.269 0.785,0.954 1.006,1.557 0.08,0.208 0.2,0.561 -0.122,0.229 -0.342,-0.353 -0.926,-0.976 -1.693,-0.85 -0.767,0.126 -1.514,0.605 -1.736,1.167 -0.082,0.229 0.16,0.332 0.403,0.124 0.242,-0.188 0.666,-0.313 1.15,-0.147 0.504,0.186 0.927,0.352 1.371,0.268 0.485,-0.084 0.646,0.186 0.806,0.456 0.161,0.249 0.536,1.424 0.353,2.172 z"
               style="fill:#767488;fill-opacity:1;fill-rule:nonzero;stroke:none"
               id="path4581"
               inkscape:connector-curvature="0" />
          </g>
        </g>
        <g
           id="g4583"
           transform="matrix(-0.863833,-0.503778,0.52655,-0.850553,-22.0484,266.686)">
          <g
             id="g4585"
             transform="translate(-153.539,42.229)">
            <path
               d="m 0,0 c -0.193,-0.365 -0.705,-1.06 -1.555,-1.256 -0.85,-0.195 -2.089,-0.154 -2.262,-0.129 -0.172,0.023 -0.235,-0.193 -0.036,-0.327 0.199,-0.134 0.862,-0.469 1.197,-0.819 0.548,-0.574 0.752,-1.35 0.722,-2.007 -0.014,-0.287 -0.181,-0.212 -0.192,0.036 -0.011,0.248 -0.169,0.558 -0.47,0.701 -0.3,0.142 -0.768,0.626 -0.914,0.956 -0.148,0.331 -0.314,0.74 -0.419,0.831 -0.105,0.09 -0.167,0.075 -0.34,0.032 -0.173,-0.043 -0.457,0.17 -0.503,0.291 -0.047,0.123 -0.156,0.229 -0.261,0.252 -0.106,0.024 -0.512,0.19 -0.679,0.265 -0.168,0.075 -0.258,0.103 -0.091,-0.106 0.28,-0.35 0.52,-1.32 0.402,-1.719 -0.063,-0.216 -0.169,-0.125 -0.238,0.091 -0.069,0.217 -0.354,0.496 -0.56,0.729 -0.206,0.232 -0.266,0.817 -0.284,1.03 -0.019,0.212 0.056,0.248 -0.244,0.457 -0.581,0.403 -1.087,0.787 -1.575,1.339 -1.016,1.024 -0.79,-4.171 -1.386,-0.367 0.054,0.65 0.145,1.441 0.058,1.676 -0.088,0.235 -0.199,0.265 -0.508,0.347 -0.308,0.083 -0.572,0.667 -0.54,0.899 0.032,0.234 -0.047,0.496 -0.193,0.625 -0.145,0.13 -0.641,0.746 -0.84,1.01 -0.2,0.266 -0.276,1.102 -0.007,0.758 0.267,-0.343 1.136,-1.361 1.267,-1.547 0.13,-0.186 0.659,-0.116 0.986,-0.354 0.326,-0.239 0.924,-0.687 1.659,-0.867 1.353,-0.331 1.812,0.15 2.683,0.038 0.871,-0.112 1.507,-0.312 1.939,-0.609 0.431,-0.296 1.12,-0.3 1.413,-0.106 0.292,0.194 0.682,-0.031 0.062,-0.439 -0.62,-0.408 -2.025,-1.059 -3.53,-0.627 -1.506,0.433 -3.421,1.579 -3.672,1.767 -0.147,0.111 -0.305,0.054 -0.371,-0.088 0.797,-1.308 1.783,-2.594 2.732,-3.027 0.177,-0.081 0.668,-0.284 1.034,-0.01 0.364,0.275 0.839,0.443 1.077,0.352 0.238,-0.09 0.477,0.019 0.572,0.176 0.095,0.158 0.306,0.11 0.179,-0.189 -0.127,-0.298 -0.637,-0.659 -1.185,-0.729 -0.548,-0.07 -1.013,-0.002 -1.17,0.026 -0.156,0.027 -0.098,-0.075 0.125,-0.17 0.222,-0.094 0.917,-0.355 1.03,-0.41 0.113,-0.056 0.353,0.121 0.576,0.093 0.223,-0.028 0.634,-0.085 1.041,0.026 0.748,0.203 0.843,0.56 1.298,0.74 0.455,0.181 0.819,0.255 1.109,0.227 0.288,-0.028 0.626,0.156 0.717,0.329 C -0.056,0.369 0.194,0.365 0,0"
               style="fill:#767488;fill-opacity:1;fill-rule:nonzero;stroke:none"
               id="path4587"
               inkscape:connector-curvature="0" />
          </g>
        </g>
        <g
           id="g4589"
           transform="matrix(0.705315,0.708894,0.729939,-0.684163,-22.0484,266.686)">
          <g
             id="g4591"
             transform="translate(145.218,79.6979)">
            <path
               d="M 0,0 C -0.047,0.155 -0.036,0.502 0.046,0.49 0.121,0.332 0.427,0.39 0.616,0.187 0.805,-0.015 1.152,-0.396 1.577,-0.55 2.359,-0.833 2.622,-0.427 3.126,-0.524 3.629,-0.621 3.997,-0.792 4.247,-1.044 4.497,-1.295 4.895,-1.3 5.064,-1.136 5.232,-0.973 5.458,-1.164 5.1,-1.508 4.744,-1.852 3.933,-2.4 3.063,-2.031 2.192,-1.661 1.084,-0.687 0.938,-0.527 0.853,-0.433 0.762,-0.48 0.724,-0.601 0.513,-0.721 0.535,-0.655 0.389,-0.645 0.036,-0.461 0.165,-0.439 0,0"
               style="fill:#767488;fill-opacity:1;fill-rule:nonzero;stroke:none"
               id="path4593"
               inkscape:connector-curvature="0" />
          </g>
        </g>
        <g
           id="g4595"
           transform="matrix(0.967806,0.251696,0.266143,-0.964049,103.148,372.365)">
          <g
             id="g4597"
             transform="translate(23.6651,68.9346)">
            <path
               d="M 0,0 C 0.98,1.301 4.261,1.147 4.312,1.147 4.346,1.147 4.377,1.128 4.39,1.097 4.403,1.067 4.395,1.032 4.37,1.01 3.987,0.655 3.783,-0.177 3.697,-0.627 5.541,1.559 6.721,0.962 6.772,0.935 6.794,0.923 6.81,0.901 6.814,0.876 6.818,0.852 6.81,0.827 6.792,0.809 5.885,-0.103 5.597,-0.777 5.505,-1.117 7.057,0.455 8.495,0.754 9.443,0.717 10.516,0.675 11.193,0.222 11.221,0.203 11.246,0.187 11.259,0.159 11.257,0.13 11.253,0.101 11.235,0.076 11.207,0.065 8.728,-1.003 7.87,-1.773 7.582,-2.129 c 2.521,1.253 4.13,1.191 5.042,0.903 1.036,-0.325 1.424,-0.982 1.439,-1.009 0.014,-0.024 0.014,-0.052 0.002,-0.076 -0.013,-0.024 -0.037,-0.04 -0.064,-0.043 -3.992,-0.462 -5.44,-1.168 -5.901,-1.477 3.179,0.279 4.809,-0.402 5.619,-1.034 0.916,-0.714 1.021,-1.504 1.025,-1.537 0.004,-0.029 -0.008,-0.057 -0.032,-0.074 -0.023,-0.017 -0.055,-0.021 -0.082,-0.01 -1.696,0.669 -4.536,0.549 -5.846,0.447 3.417,-0.539 5.036,-2.049 5.798,-3.26 0.882,-1.404 0.837,-2.686 0.835,-2.739 -10e-4,-0.034 -0.024,-0.063 -0.058,-0.073 -0.033,-0.011 -0.069,0 -0.091,0.027 C 12.686,-8.908 3.68,-6.643 3.589,-6.62 3.561,-6.613 3.539,-6.592 3.53,-6.565 3.522,-6.539 3.529,-6.509 3.549,-6.488 4.245,-5.762 2.979,-2.335 0.088,-1.149 -0.12,-0.68 -0.15,-0.293 0,0"
               style="fill:white;fill-opacity:1;fill-rule:nonzero;stroke:none"
               id="path4599"
               inkscape:connector-curvature="0" />
          </g>
        </g>
        <g
           id="g4601"
           transform="matrix(-0.967806,0.251696,-0.266143,-0.964049,103.148,372.365)">
          <g
             id="g4603"
             transform="translate(-42.6176,51.4679)">
            <path
               d="m 0,0 c 0.97,1.288 4.218,1.136 4.269,1.136 0.034,0 0.064,-0.02 0.077,-0.05 C 4.359,1.057 4.351,1.022 4.327,1 3.948,0.648 3.746,-0.175 3.66,-0.62 5.486,1.544 6.654,0.953 6.704,0.925 6.726,0.914 6.742,0.892 6.746,0.868 6.75,0.844 6.742,0.818 6.724,0.801 5.826,-0.102 5.541,-0.769 5.45,-1.105 6.987,0.45 8.411,0.746 9.349,0.71 10.411,0.668 11.081,0.22 11.109,0.201 11.133,0.185 11.146,0.157 11.144,0.129 11.141,0.1 11.122,0.075 11.095,0.064 8.64,-0.993 7.791,-1.755 7.506,-2.107 c 2.496,1.24 4.089,1.178 4.991,0.894 1.026,-0.323 1.41,-0.973 1.425,-1 0.014,-0.023 0.015,-0.051 0.002,-0.075 -0.013,-0.023 -0.037,-0.04 -0.063,-0.042 -3.952,-0.458 -5.385,-1.157 -5.842,-1.462 3.147,0.276 4.761,-0.399 5.563,-1.024 0.907,-0.707 1.011,-1.49 1.015,-1.522 0.003,-0.029 -0.009,-0.056 -0.033,-0.073 -0.022,-0.017 -0.053,-0.021 -0.08,-0.01 -1.68,0.663 -4.491,0.543 -5.788,0.442 3.383,-0.534 4.985,-2.028 5.74,-3.227 0.874,-1.39 0.829,-2.659 0.827,-2.712 -10e-4,-0.033 -0.024,-0.062 -0.057,-0.072 -0.033,-0.011 -0.069,0 -0.091,0.026 -2.556,3.145 -11.472,5.387 -11.561,5.41 -0.028,0.007 -0.05,0.028 -0.059,0.054 -0.008,0.027 -10e-4,0.056 0.019,0.077 0.689,0.719 -0.565,4.111 -3.427,5.285 C -0.119,-0.673 -0.148,-0.29 0,0"
               style="fill:white;fill-opacity:1;fill-rule:nonzero;stroke:none"
               id="path4605"
               inkscape:connector-curvature="0" />
          </g>
        </g>
        <g
           id="g4607"
           transform="translate(137.655,309.834)">
          <path
             d="m 0,0 c 5.872,0 10.632,4.637 10.632,10.357 0,5.719 -5.096,11.011 -10.968,11.011 -5.872,0 -10.969,-4.637 -10.969,-10.357 C -11.305,5.292 -5.872,0 0,0"
             style="fill:#444063;fill-opacity:1;fill-rule:nonzero;stroke:none"
             id="path4609"
             inkscape:connector-curvature="0" />
        </g>
        <g
           id="g4611"
           transform="translate(137.655,310.435)">
          <path
             d="m 0,0 c 5.532,0 10.016,4.368 10.016,9.756 0,5.389 -4.484,9.757 -10.016,9.757 -5.532,0 -10.016,-4.368 -10.016,-9.757 C -10.016,4.368 -5.532,0 0,0"
             style="fill:#d7d7e0;fill-opacity:1;fill-rule:nonzero;stroke:none"
             id="path4613"
             inkscape:connector-curvature="0" />
        </g>
        <g
           id="g4615"
           transform="translate(141.1,313.462)">
          <path
             d="m 0,0 c 3.815,0 6.908,3.013 6.908,6.729 0,3.716 -3.093,6.729 -6.908,6.729 -3.815,0 -6.908,-3.013 -6.908,-6.729 C -6.908,3.013 -3.815,0 0,0"
             style="fill:#1d1a3f;fill-opacity:1;fill-rule:nonzero;stroke:none"
             id="path4617"
             inkscape:connector-curvature="0" />
        </g>
      </g>
    </g>
  </g>
</svg>
